<?xml version="1.0" encoding="UTF-8"?>
<svg xmlns="http://www.w3.org/2000/svg" xmlns:xlink="http://www.w3.org/1999/xlink" width="306pt" height="226pt" viewBox="0 0 306 226" version="1.1">
<defs>
<clipPath id="clip1">
  <path d="M 154 9 L 297.398438 9 L 297.398438 137 L 154 137 Z M 154 9 "/>
</clipPath>
<clipPath id="clip2">
  <path d="M 109 9 L 297.398438 9 L 297.398438 173 L 109 173 Z M 109 9 "/>
</clipPath>
<clipPath id="clip3">
  <path d="M 75 9 L 171 9 L 171 178.875 L 75 178.875 Z M 75 9 "/>
</clipPath>
<clipPath id="clip4">
  <path d="M 53.273438 87 L 122 87 L 122 178.875 L 53.273438 178.875 Z M 53.273438 87 "/>
</clipPath>
<clipPath id="clip5">
  <path d="M 53.273438 143 L 86 143 L 86 178.875 L 53.273438 178.875 Z M 53.273438 143 "/>
</clipPath>
<clipPath id="clip6">
  <path d="M 53.273438 177 L 56 177 L 56 178.875 L 53.273438 178.875 Z M 53.273438 177 "/>
</clipPath>
</defs>
<g id="surface1">
<path style=" stroke:none;fill-rule:nonzero;fill:rgb(100%,100%,100%);fill-opacity:1;" d="M 53.273438 178.875 L 297.402344 178.875 L 297.402344 9 L 53.273438 9 Z M 53.273438 178.875 "/>
<path style="fill:none;stroke-width:0.8;stroke-linecap:butt;stroke-linejoin:round;stroke:rgb(0%,0%,0%);stroke-opacity:1;stroke-miterlimit:4;" d="M 0.000001 0 L 0.000001 3.5 " transform="matrix(1.25,0,0,1.25,110.492186,178.875)"/>
<path style=" stroke:none;fill-rule:nonzero;fill:rgb(0%,0%,0%);fill-opacity:1;" d="M 102.601562 192.6875 L 110.425781 192.6875 L 110.425781 193.722656 L 102.601562 193.722656 Z M 102.601562 192.6875 "/>
<path style=" stroke:none;fill-rule:nonzero;fill:rgb(0%,0%,0%);fill-opacity:1;" d="M 116.476562 189.085938 L 113.363281 193.949219 L 116.476562 193.949219 Z M 116.152344 188.011719 L 117.703125 188.011719 L 117.703125 193.949219 L 119.003906 193.949219 L 119.003906 194.976562 L 117.703125 194.976562 L 117.703125 197.125 L 116.476562 197.125 L 116.476562 194.976562 L 112.363281 194.976562 L 112.363281 193.785156 Z M 116.152344 188.011719 "/>
<path style="fill:none;stroke-width:0.8;stroke-linecap:butt;stroke-linejoin:round;stroke:rgb(0%,0%,0%);stroke-opacity:1;stroke-miterlimit:4;" d="M 0.000002 0 L 0.000002 3.5 " transform="matrix(1.25,0,0,1.25,186.781247,178.875)"/>
<path style=" stroke:none;fill-rule:nonzero;fill:rgb(0%,0%,0%);fill-opacity:1;" d="M 178.890625 192.6875 L 186.714844 192.6875 L 186.714844 193.722656 L 178.890625 193.722656 Z M 178.890625 192.6875 "/>
<path style=" stroke:none;fill-rule:nonzero;fill:rgb(0%,0%,0%);fill-opacity:1;" d="M 190.4375 196.085938 L 194.742188 196.085938 L 194.742188 197.125 L 188.957031 197.125 L 188.957031 196.085938 C 189.425781 195.601562 190.0625 194.953125 190.867188 194.136719 C 191.675781 193.320312 192.183594 192.792969 192.390625 192.558594 C 192.785156 192.113281 193.0625 191.738281 193.21875 191.433594 C 193.375 191.125 193.453125 190.824219 193.453125 190.527344 C 193.453125 190.042969 193.285156 189.648438 192.945312 189.34375 C 192.605469 189.035156 192.164062 188.882812 191.617188 188.882812 C 191.230469 188.882812 190.820312 188.949219 190.390625 189.085938 C 189.964844 189.21875 189.503906 189.421875 189.015625 189.695312 L 189.015625 188.449219 C 189.511719 188.25 189.976562 188.101562 190.40625 188 C 190.839844 187.898438 191.234375 187.847656 191.59375 187.847656 C 192.539062 187.847656 193.289062 188.082031 193.851562 188.554688 C 194.414062 189.027344 194.691406 189.65625 194.691406 190.445312 C 194.691406 190.820312 194.621094 191.175781 194.480469 191.511719 C 194.34375 191.847656 194.085938 192.242188 193.714844 192.699219 C 193.613281 192.816406 193.292969 193.15625 192.746094 193.722656 C 192.203125 194.285156 191.433594 195.074219 190.4375 196.085938 Z M 190.4375 196.085938 "/>
<path style="fill:none;stroke-width:0.8;stroke-linecap:butt;stroke-linejoin:round;stroke:rgb(0%,0%,0%);stroke-opacity:1;stroke-miterlimit:4;" d="M 0.000003 0 L 0.000003 3.5 " transform="matrix(1.25,0,0,1.25,263.070309,178.875)"/>
<path style=" stroke:none;fill-rule:nonzero;fill:rgb(0%,0%,0%);fill-opacity:1;" d="M 263.066406 188.824219 C 262.433594 188.824219 261.953125 189.136719 261.632812 189.761719 C 261.316406 190.382812 261.15625 191.324219 261.15625 192.578125 C 261.15625 193.824219 261.316406 194.761719 261.632812 195.386719 C 261.953125 196.011719 262.433594 196.324219 263.066406 196.324219 C 263.707031 196.324219 264.183594 196.011719 264.503906 195.386719 C 264.824219 194.761719 264.984375 193.824219 264.984375 192.578125 C 264.984375 191.324219 264.824219 190.382812 264.503906 189.761719 C 264.183594 189.136719 263.707031 188.824219 263.066406 188.824219 Z M 263.066406 187.847656 C 264.089844 187.847656 264.867188 188.25 265.40625 189.058594 C 265.945312 189.867188 266.214844 191.039062 266.214844 192.578125 C 266.214844 194.109375 265.945312 195.28125 265.40625 196.089844 C 264.867188 196.898438 264.089844 197.300781 263.066406 197.300781 C 262.046875 197.300781 261.265625 196.898438 260.726562 196.089844 C 260.1875 195.28125 259.917969 194.109375 259.917969 192.578125 C 259.917969 191.039062 260.1875 189.867188 260.726562 189.058594 C 261.265625 188.25 262.046875 187.847656 263.066406 187.847656 Z M 263.066406 187.847656 "/>
<path style=" stroke:none;fill-rule:nonzero;fill:rgb(0%,0%,0%);fill-opacity:1;" d="M 174.523438 207.386719 L 172.050781 210.710938 L 174.648438 214.222656 L 173.324219 214.222656 L 171.335938 211.535156 L 169.347656 214.222656 L 168.019531 214.222656 L 170.675781 210.644531 L 168.246094 207.386719 L 169.570312 207.386719 L 171.382812 209.820312 L 173.195312 207.386719 Z M 174.523438 207.386719 "/>
<path style=" stroke:none;fill-rule:nonzero;fill:rgb(0%,0%,0%);fill-opacity:1;" d="M 176.609375 213.183594 L 178.625 213.183594 L 178.625 206.230469 L 176.433594 206.671875 L 176.433594 205.546875 L 178.613281 205.109375 L 179.84375 205.109375 L 179.84375 213.183594 L 181.859375 213.183594 L 181.859375 214.222656 L 176.609375 214.222656 Z M 176.609375 213.183594 "/>
<path style="fill:none;stroke-width:0.8;stroke-linecap:butt;stroke-linejoin:round;stroke:rgb(0%,0%,0%);stroke-opacity:1;stroke-miterlimit:4;" d="M -0.001562 0 L -3.501562 0 " transform="matrix(1.25,0,0,1.25,53.27539,178.875)"/>
<path style=" stroke:none;fill-rule:nonzero;fill:rgb(0%,0%,0%);fill-opacity:1;" d="M 27.421875 179.1875 L 35.246094 179.1875 L 35.246094 180.222656 L 27.421875 180.222656 Z M 27.421875 179.1875 "/>
<path style=" stroke:none;fill-rule:nonzero;fill:rgb(0%,0%,0%);fill-opacity:1;" d="M 41.644531 178.710938 C 42.234375 178.835938 42.695312 179.097656 43.023438 179.5 C 43.355469 179.898438 43.523438 180.390625 43.523438 180.976562 C 43.523438 181.875 43.214844 182.570312 42.59375 183.0625 C 41.976562 183.554688 41.097656 183.800781 39.957031 183.800781 C 39.578125 183.800781 39.183594 183.765625 38.777344 183.6875 C 38.375 183.613281 37.957031 183.5 37.523438 183.347656 L 37.523438 182.160156 C 37.867188 182.359375 38.238281 182.507812 38.644531 182.609375 C 39.054688 182.710938 39.480469 182.761719 39.921875 182.761719 C 40.695312 182.761719 41.285156 182.609375 41.6875 182.304688 C 42.09375 182 42.296875 181.558594 42.296875 180.976562 C 42.296875 180.4375 42.109375 180.019531 41.730469 179.714844 C 41.355469 179.414062 40.832031 179.261719 40.160156 179.261719 L 39.097656 179.261719 L 39.097656 178.246094 L 40.210938 178.246094 C 40.816406 178.246094 41.277344 178.125 41.601562 177.882812 C 41.921875 177.640625 42.082031 177.292969 42.082031 176.835938 C 42.082031 176.371094 41.917969 176.011719 41.585938 175.761719 C 41.253906 175.507812 40.78125 175.382812 40.160156 175.382812 C 39.824219 175.382812 39.460938 175.421875 39.074219 175.496094 C 38.6875 175.566406 38.261719 175.679688 37.796875 175.835938 L 37.796875 174.738281 C 38.265625 174.605469 38.707031 174.507812 39.113281 174.445312 C 39.523438 174.378906 39.910156 174.347656 40.269531 174.347656 C 41.207031 174.347656 41.945312 174.558594 42.492188 174.984375 C 43.035156 175.410156 43.308594 175.984375 43.308594 176.707031 C 43.308594 177.214844 43.164062 177.640625 42.875 177.988281 C 42.585938 178.335938 42.175781 178.574219 41.644531 178.710938 Z M 41.644531 178.710938 "/>
<path style="fill:none;stroke-width:0.8;stroke-linecap:butt;stroke-linejoin:round;stroke:rgb(0%,0%,0%);stroke-opacity:1;stroke-miterlimit:4;" d="M -0.001562 -0.000722 L -3.501562 -0.000722 " transform="matrix(1.25,0,0,1.25,53.27539,135.317309)"/>
<path style=" stroke:none;fill-rule:nonzero;fill:rgb(0%,0%,0%);fill-opacity:1;" d="M 27.421875 135.628906 L 35.246094 135.628906 L 35.246094 136.664062 L 27.421875 136.664062 Z M 27.421875 135.628906 "/>
<path style=" stroke:none;fill-rule:nonzero;fill:rgb(0%,0%,0%);fill-opacity:1;" d="M 38.96875 139.027344 L 43.273438 139.027344 L 43.273438 140.066406 L 37.488281 140.066406 L 37.488281 139.027344 C 37.953125 138.542969 38.59375 137.894531 39.398438 137.078125 C 40.207031 136.261719 40.714844 135.738281 40.921875 135.5 C 41.316406 135.058594 41.59375 134.683594 41.75 134.375 C 41.90625 134.066406 41.984375 133.765625 41.984375 133.46875 C 41.984375 132.984375 41.816406 132.589844 41.476562 132.285156 C 41.136719 131.980469 40.691406 131.824219 40.148438 131.824219 C 39.761719 131.824219 39.351562 131.894531 38.921875 132.027344 C 38.496094 132.160156 38.035156 132.363281 37.546875 132.636719 L 37.546875 131.390625 C 38.042969 131.191406 38.507812 131.042969 38.9375 130.941406 C 39.371094 130.839844 39.765625 130.789062 40.125 130.789062 C 41.066406 130.789062 41.820312 131.023438 42.382812 131.496094 C 42.941406 131.96875 43.222656 132.597656 43.222656 133.386719 C 43.222656 133.761719 43.152344 134.117188 43.011719 134.453125 C 42.875 134.789062 42.617188 135.183594 42.246094 135.640625 C 42.144531 135.757812 41.820312 136.101562 41.277344 136.664062 C 40.730469 137.226562 39.964844 138.015625 38.96875 139.027344 Z M 38.96875 139.027344 "/>
<path style="fill:none;stroke-width:0.8;stroke-linecap:butt;stroke-linejoin:round;stroke:rgb(0%,0%,0%);stroke-opacity:1;stroke-miterlimit:4;" d="M -0.001562 -0.001444 L -3.501562 -0.001444 " transform="matrix(1.25,0,0,1.25,53.27539,91.759618)"/>
<path style=" stroke:none;fill-rule:nonzero;fill:rgb(0%,0%,0%);fill-opacity:1;" d="M 27.421875 92.070312 L 35.246094 92.070312 L 35.246094 93.109375 L 27.421875 93.109375 Z M 27.421875 92.070312 "/>
<path style=" stroke:none;fill-rule:nonzero;fill:rgb(0%,0%,0%);fill-opacity:1;" d="M 38.121094 95.472656 L 40.136719 95.472656 L 40.136719 88.519531 L 37.945312 88.957031 L 37.945312 87.835938 L 40.125 87.394531 L 41.355469 87.394531 L 41.355469 95.472656 L 43.371094 95.472656 L 43.371094 96.507812 L 38.121094 96.507812 Z M 38.121094 95.472656 "/>
<path style="fill:none;stroke-width:0.8;stroke-linecap:butt;stroke-linejoin:round;stroke:rgb(0%,0%,0%);stroke-opacity:1;stroke-miterlimit:4;" d="M -0.001562 0.000959 L -3.501562 0.000959 " transform="matrix(1.25,0,0,1.25,53.27539,48.201926)"/>
<path style=" stroke:none;fill-rule:nonzero;fill:rgb(0%,0%,0%);fill-opacity:1;" d="M 40.542969 44.648438 C 39.910156 44.648438 39.433594 44.960938 39.113281 45.585938 C 38.792969 46.210938 38.632812 47.148438 38.632812 48.402344 C 38.632812 49.652344 38.792969 50.589844 39.113281 51.214844 C 39.433594 51.839844 39.910156 52.152344 40.542969 52.152344 C 41.183594 52.152344 41.664062 51.839844 41.980469 51.214844 C 42.300781 50.589844 42.460938 49.652344 42.460938 48.402344 C 42.460938 47.148438 42.300781 46.210938 41.980469 45.585938 C 41.664062 44.960938 41.183594 44.648438 40.542969 44.648438 Z M 40.542969 43.671875 C 41.566406 43.671875 42.347656 44.078125 42.886719 44.886719 C 43.425781 45.695312 43.695312 46.867188 43.695312 48.402344 C 43.695312 49.9375 43.425781 51.109375 42.886719 51.917969 C 42.347656 52.726562 41.566406 53.128906 40.542969 53.128906 C 39.523438 53.128906 38.742188 52.726562 38.203125 51.917969 C 37.664062 51.109375 37.394531 49.9375 37.394531 48.402344 C 37.394531 46.867188 37.664062 45.695312 38.203125 44.886719 C 38.742188 44.078125 39.523438 43.671875 40.542969 43.671875 Z M 40.542969 43.671875 "/>
<path style=" stroke:none;fill-rule:nonzero;fill:rgb(0%,0%,0%);fill-opacity:1;" d="M 11.660156 94.75 L 14.988281 97.226562 L 18.496094 94.625 L 18.496094 95.949219 L 15.8125 97.9375 L 18.496094 99.929688 L 18.496094 101.253906 L 14.921875 98.597656 L 11.660156 101.027344 L 11.660156 99.703125 L 14.097656 97.890625 L 11.660156 96.078125 Z M 11.660156 94.75 "/>
<path style=" stroke:none;fill-rule:nonzero;fill:rgb(0%,0%,0%);fill-opacity:1;" d="M 17.460938 91.816406 L 17.460938 87.515625 L 18.496094 87.515625 L 18.496094 93.300781 L 17.460938 93.300781 C 16.976562 92.832031 16.328125 92.195312 15.511719 91.386719 C 14.695312 90.578125 14.167969 90.070312 13.929688 89.863281 C 13.488281 89.46875 13.113281 89.195312 12.804688 89.039062 C 12.5 88.878906 12.195312 88.800781 11.898438 88.800781 C 11.414062 88.800781 11.019531 88.972656 10.714844 89.3125 C 10.410156 89.652344 10.257812 90.09375 10.257812 90.640625 C 10.257812 91.027344 10.324219 91.433594 10.457031 91.863281 C 10.59375 92.292969 10.796875 92.75 11.070312 93.238281 L 9.824219 93.238281 C 9.625 92.742188 9.472656 92.28125 9.371094 91.847656 C 9.269531 91.417969 9.21875 91.019531 9.21875 90.664062 C 9.21875 89.71875 9.457031 88.964844 9.929688 88.40625 C 10.402344 87.84375 11.03125 87.5625 11.820312 87.5625 C 12.195312 87.5625 12.550781 87.632812 12.886719 87.773438 C 13.222656 87.914062 13.617188 88.167969 14.070312 88.539062 C 14.191406 88.640625 14.53125 88.964844 15.09375 89.511719 C 15.660156 90.054688 16.449219 90.824219 17.460938 91.816406 Z M 17.460938 91.816406 "/>
<g clip-path="url(#clip1)" clip-rule="nonzero">
<path style="fill:none;stroke-width:1.5;stroke-linecap:butt;stroke-linejoin:round;stroke:rgb(12.156863%,46.666667%,70.588235%);stroke-opacity:1;stroke-miterlimit:4;" d="M 237.91875 104.628125 L 237.38125 104.76875 L 234.86875 105.39375 L 231.81875 106.065625 L 228.765625 106.646875 L 225.7125 107.1375 L 222.6625 107.5375 L 219.6125 107.853125 L 216.559375 108.075 L 213.50625 108.209375 L 210.45625 108.253125 L 207.40625 108.209375 L 204.353125 108.075 L 201.303125 107.853125 L 198.25 107.5375 L 195.196875 107.1375 L 192.146875 106.646875 L 189.096875 106.065625 L 186.04375 105.39375 L 183.53125 104.76875 L 182.990625 104.628125 L 179.940625 103.734375 L 176.890625 102.74375 L 173.8375 101.6625 L 172.8625 101.284375 L 170.7875 100.4375 L 167.734375 99.09375 L 165 97.8 L 164.68125 97.640625 L 161.63125 96.00625 L 158.671875 94.315625 L 158.578125 94.259375 L 155.528125 92.290625 L 153.384375 90.83125 L 152.478125 90.16875 L 149.425 87.828125 L 148.828125 87.346875 L 146.375 85.215625 L 144.884375 83.8625 L 143.321875 82.328125 L 141.421875 80.378125 L 140.26875 79.090625 L 138.3875 76.89375 L 137.21875 75.4 L 135.725 73.40625 L 134.165625 71.115625 L 133.390625 69.921875 L 131.35625 66.4375 L 131.115625 65.975 L 129.61875 62.953125 L 128.121875 59.46875 L 128.0625 59.309375 L 126.9 55.984375 L 125.9 52.5 L 125.125 49.015625 L 125.0125 48.31875 L 124.584375 45.53125 L 124.2625 42.046875 L 124.15625 38.5625 L 124.2625 35.078125 L 124.584375 31.59375 L 125.0125 28.803125 L 125.125 28.10625 L 125.9 24.621875 L 126.9 21.1375 L 128.0625 17.8125 L 128.121875 17.653125 L 129.61875 14.16875 L 131.115625 11.15 L 131.35625 10.684375 L 133.390625 7.2 " transform="matrix(1.25,0,0,1.25,0,0.000000000000014211)"/>
</g>
<g clip-path="url(#clip2)" clip-rule="nonzero">
<path style="fill:none;stroke-width:1.5;stroke-linecap:butt;stroke-linejoin:round;stroke:rgb(12.156863%,46.666667%,70.588235%);stroke-opacity:1;stroke-miterlimit:4;" d="M 237.91875 134.578125 L 234.86875 135.115625 L 231.81875 135.59375 L 228.765625 136.003125 L 227.65625 136.13125 L 225.7125 136.34375 L 222.6625 136.61875 L 219.6125 136.834375 L 216.559375 136.9875 L 213.50625 137.078125 L 210.45625 137.109375 L 207.40625 137.078125 L 204.353125 136.9875 L 201.303125 136.834375 L 198.25 136.61875 L 195.196875 136.34375 L 193.25625 136.13125 L 192.146875 136.003125 L 189.096875 135.59375 L 186.04375 135.115625 L 182.990625 134.578125 L 179.940625 133.978125 L 176.890625 133.3125 L 174.103125 132.646875 L 173.8375 132.58125 L 170.7875 131.759375 L 167.734375 130.871875 L 164.68125 129.91875 L 162.41875 129.1625 L 161.63125 128.8875 L 158.578125 127.759375 L 155.528125 126.565625 L 153.384375 125.678125 L 152.478125 125.284375 L 149.425 123.9 L 146.375 122.440625 L 145.878125 122.19375 L 143.321875 120.85625 L 140.26875 119.190625 L 139.425 118.70625 L 137.21875 117.390625 L 134.165625 115.49375 L 133.746875 115.221875 L 131.115625 113.440625 L 128.696875 111.7375 L 128.0625 111.271875 L 125.0125 108.934375 L 124.15625 108.253125 L 121.9625 106.421875 L 120.046875 104.76875 L 118.909375 103.734375 L 116.309375 101.284375 L 115.859375 100.8375 L 112.903125 97.8 L 112.80625 97.69375 L 109.803125 94.315625 L 109.75625 94.259375 L 106.975 90.83125 L 106.703125 90.46875 L 104.403125 87.346875 L 103.65 86.25 L 102.0625 83.8625 L 100.6 81.490625 L 99.93125 80.378125 L 98.009375 76.89375 L 97.55 75.978125 L 96.2875 73.40625 L 94.740625 69.921875 L 94.496875 69.309375 L 93.3875 66.4375 L 92.196875 62.953125 L 91.44375 60.40625 L 91.175 59.46875 L 90.325 55.984375 L 89.63125 52.5 L 89.0875 49.015625 L 88.703125 45.53125 L 88.471875 42.046875 L 88.39375 38.5625 L 88.471875 35.078125 L 88.703125 31.59375 L 89.0875 28.10625 L 89.63125 24.621875 L 90.325 21.1375 L 91.175 17.653125 L 91.44375 16.715625 L 92.196875 14.16875 L 93.3875 10.684375 L 94.496875 7.815625 L 94.740625 7.2 " transform="matrix(1.25,0,0,1.25,0,0.000000000000014211)"/>
</g>
<g clip-path="url(#clip3)" clip-rule="nonzero">
<path style="fill:none;stroke-width:1.5;stroke-linecap:butt;stroke-linejoin:round;stroke:rgb(12.156863%,46.666667%,70.588235%);stroke-opacity:1;stroke-miterlimit:4;" d="M 135.725 143.1 L 134.165625 142.3625 L 131.115625 140.85625 L 128.696875 139.615625 L 128.0625 139.278125 L 125.0125 137.596875 L 122.44375 136.13125 L 121.9625 135.846875 L 118.909375 133.978125 L 116.809375 132.646875 L 115.859375 132.021875 L 112.80625 129.95 L 111.678125 129.1625 L 109.75625 127.759375 L 106.975 125.678125 L 106.703125 125.4625 L 103.65 123.009375 L 102.6625 122.19375 L 100.6 120.4125 L 98.678125 118.70625 L 97.55 117.6625 L 94.984375 115.221875 L 94.496875 114.7375 L 91.565625 111.7375 L 91.44375 111.6125 L 88.39375 108.253125 L 85.45625 104.76875 L 85.34375 104.628125 L 82.73125 101.284375 L 82.290625 100.6875 L 80.209375 97.8 L 79.2375 96.375 L 77.871875 94.315625 L 76.1875 91.61875 L 75.70625 90.83125 L 73.71875 87.346875 L 73.134375 86.25 L 71.89375 83.8625 L 70.21875 80.378125 L 70.084375 80.075 L 68.70625 76.89375 L 67.328125 73.40625 L 67.034375 72.58125 L 66.1 69.921875 L 65.009375 66.4375 L 64.046875 62.953125 L 63.98125 62.684375 L 63.225 59.46875 L 62.534375 55.984375 L 61.96875 52.5 L 61.528125 49.015625 L 61.2125 45.53125 L 61.025 42.046875 L 60.9625 38.5625 L 61.025 35.078125 L 61.2125 31.59375 L 61.528125 28.10625 L 61.96875 24.621875 L 62.534375 21.1375 L 63.225 17.653125 L 63.98125 14.4375 L 64.046875 14.16875 L 65.009375 10.684375 L 66.1 7.2 " transform="matrix(1.25,0,0,1.25,0,0.000000000000014211)"/>
</g>
<g clip-path="url(#clip4)" clip-rule="nonzero">
<path style="fill:none;stroke-width:1.5;stroke-linecap:butt;stroke-linejoin:round;stroke:rgb(12.156863%,46.666667%,70.588235%);stroke-opacity:1;stroke-miterlimit:4;" d="M 96.2875 143.1 L 94.496875 141.8 L 91.565625 139.615625 L 91.44375 139.525 L 88.39375 137.109375 L 87.1875 136.13125 L 85.34375 134.578125 L 83.1 132.646875 L 82.290625 131.921875 L 79.275 129.1625 L 79.2375 129.128125 L 76.1875 126.15625 L 75.70625 125.678125 L 73.134375 123.009375 L 72.365625 122.19375 L 70.084375 119.671875 L 69.23125 118.70625 L 67.034375 116.1125 L 66.29375 115.221875 L 63.98125 112.30625 L 63.540625 111.7375 L 60.9625 108.253125 L 60.928125 108.209375 L 58.55625 104.76875 L 57.878125 103.734375 L 56.30625 101.284375 L 54.828125 98.846875 L 54.203125 97.8 L 52.25 94.315625 L 51.775 93.415625 L 50.4375 90.83125 L 48.753125 87.346875 L 48.721875 87.28125 L 47.2125 83.8625 L 45.7875 80.378125 L 45.671875 80.075 L 44.496875 76.89375 L 43.31875 73.40625 L 42.61875 71.115625 " transform="matrix(1.25,0,0,1.25,0,0.000000000000014211)"/>
</g>
<g clip-path="url(#clip5)" clip-rule="nonzero">
<path style="fill:none;stroke-width:1.5;stroke-linecap:butt;stroke-linejoin:round;stroke:rgb(12.156863%,46.666667%,70.588235%);stroke-opacity:1;stroke-miterlimit:4;" d="M 67.328125 143.1 L 67.034375 142.834375 L 63.98125 140.028125 L 63.540625 139.615625 L 60.928125 137.078125 L 59.975 136.13125 L 57.878125 133.978125 L 56.609375 132.646875 L 54.828125 130.70625 L 53.434375 129.1625 L 51.775 127.246875 L 50.4375 125.678125 L 48.721875 123.578125 L 47.6125 122.19375 L 45.671875 119.671875 L 44.94375 118.70625 L 42.61875 115.49375 " transform="matrix(1.25,0,0,1.25,0,0.000000000000014211)"/>
</g>
<g clip-path="url(#clip6)" clip-rule="nonzero">
<path style="fill:none;stroke-width:1.5;stroke-linecap:butt;stroke-linejoin:round;stroke:rgb(12.156863%,46.666667%,70.588235%);stroke-opacity:1;stroke-miterlimit:4;" d="M 43.31875 143.1 L 42.61875 142.3625 " transform="matrix(1.25,0,0,1.25,0,0.000000000000014211)"/>
</g>
<path style="fill:none;stroke-width:1.5;stroke-linecap:square;stroke-linejoin:round;stroke:rgb(100%,49.803922%,5.490196%);stroke-opacity:1;stroke-miterlimit:4;" d="M 57.878125 108.253125 L 88.39375 80.378125 L 112.80625 63.65 L 132.3375 53.615625 L 147.959375 47.59375 L 160.459375 43.98125 L 170.459375 41.8125 L 178.459375 40.5125 L 184.859375 39.73125 L 189.978125 39.2625 L 194.071875 38.984375 L 197.35 38.815625 L 199.971875 38.7125 L 202.06875 38.653125 L 203.746875 38.615625 L 205.0875 38.59375 L 206.1625 38.58125 L 207.021875 38.571875 L 207.70625 38.56875 L 208.25625 38.565625 L 208.696875 38.565625 " transform="matrix(1.25,0,0,1.25,0,0.000000000000014211)"/>
<path style="fill-rule:nonzero;fill:rgb(100%,49.803922%,5.490196%);fill-opacity:1;stroke-width:1;stroke-linecap:butt;stroke-linejoin:round;stroke:rgb(100%,49.803922%,5.490196%);stroke-opacity:1;stroke-miterlimit:4;" d="M 0.000000000000014211 2.999278 C 0.796875 2.999278 1.559375 2.683653 2.121875 2.121153 C 2.684375 1.558653 3 0.796153 3 -0.000722 C 3 -0.794472 2.684375 -1.560097 2.121875 -2.122597 C 1.559375 -2.685097 0.796875 -3.000722 0.000000000000014211 -3.000722 C -0.796875 -3.000722 -1.559375 -2.685097 -2.121875 -2.122597 C -2.684375 -1.560097 -3 -0.794472 -3 -0.000722 C -3 0.796153 -2.684375 1.558653 -2.121875 2.121153 C -1.559375 2.683653 -0.796875 2.999278 0.000000000000014211 2.999278 Z M 0.000000000000014211 2.999278 " transform="matrix(1.25,0,0,1.25,72.347656,135.317309)"/>
<path style="fill-rule:nonzero;fill:rgb(100%,49.803922%,5.490196%);fill-opacity:1;stroke-width:1;stroke-linecap:butt;stroke-linejoin:round;stroke:rgb(100%,49.803922%,5.490196%);stroke-opacity:1;stroke-miterlimit:4;" d="M 0.000001 3.0012 C 0.796876 3.0012 1.559376 2.68245 2.121876 2.11995 C 2.684376 1.55745 3.000001 0.79495 3.000001 0.0012 C 3.000001 -0.795675 2.684376 -1.558175 2.121876 -2.120675 C 1.559376 -2.683175 0.796876 -2.9988 0.000001 -2.9988 C -0.796874 -2.9988 -1.559374 -2.683175 -2.121874 -2.120675 C -2.684374 -1.558175 -2.999999 -0.795675 -2.999999 0.0012 C -2.999999 0.79495 -2.684374 1.55745 -2.121874 2.11995 C -1.559374 2.68245 -0.796874 3.0012 0.000001 3.0012 Z M 0.000001 3.0012 " transform="matrix(1.25,0,0,1.25,110.492186,100.471156)"/>
<path style="fill-rule:nonzero;fill:rgb(100%,49.803922%,5.490196%);fill-opacity:1;stroke-width:1;stroke-linecap:butt;stroke-linejoin:round;stroke:rgb(100%,49.803922%,5.490196%);stroke-opacity:1;stroke-miterlimit:4;" d="M 0.000001 2.999229 C 0.796876 2.999229 1.559376 2.683604 2.121876 2.121104 C 2.684376 1.558604 3.000001 0.796104 3.000001 -0.000771 C 3.000001 -0.794521 2.684376 -1.560146 2.121876 -2.122646 C 1.559376 -2.685146 0.796876 -3.000771 0.000001 -3.000771 C -0.796874 -3.000771 -1.559374 -2.685146 -2.121874 -2.122646 C -2.684374 -1.560146 -2.999999 -0.794521 -2.999999 -0.000771 C -2.999999 0.796104 -2.684374 1.558604 -2.121874 2.121104 C -1.559374 2.683604 -0.796874 2.999229 0.000001 2.999229 Z M 0.000001 2.999229 " transform="matrix(1.25,0,0,1.25,141.007811,79.563464)"/>
<path style="fill-rule:nonzero;fill:rgb(100%,49.803922%,5.490196%);fill-opacity:1;stroke-width:1;stroke-linecap:butt;stroke-linejoin:round;stroke:rgb(100%,49.803922%,5.490196%);stroke-opacity:1;stroke-miterlimit:4;" d="M 0.001251 3.000546 C 0.795001 3.000546 1.557501 2.684921 2.120001 2.122421 C 2.682501 1.559921 3.001251 0.794296 3.001251 0.000546 C 3.001251 -0.796329 2.682501 -1.558829 2.120001 -2.121329 C 1.557501 -2.683829 0.795001 -2.999454 0.001251 -2.999454 C -0.795624 -2.999454 -1.558124 -2.683829 -2.120624 -2.121329 C -2.683124 -1.558829 -2.998749 -0.796329 -2.998749 0.000546 C -2.998749 0.794296 -2.683124 1.559921 -2.120624 2.122421 C -1.558124 2.684921 -0.795624 3.000546 0.001251 3.000546 Z M 0.001251 3.000546 " transform="matrix(1.25,0,0,1.25,165.420311,67.018849)"/>
<path style="fill-rule:nonzero;fill:rgb(100%,49.803922%,5.490196%);fill-opacity:1;stroke-width:1;stroke-linecap:butt;stroke-linejoin:round;stroke:rgb(100%,49.803922%,5.490196%);stroke-opacity:1;stroke-miterlimit:4;" d="M -0.000873 3.000086 C 0.796002 3.000086 1.558502 2.684461 2.121002 2.121961 C 2.683502 1.559461 2.999127 0.796961 2.999127 0.000086 C 2.999127 -0.796789 2.683502 -1.559289 2.121002 -2.121789 C 1.558502 -2.684289 0.796002 -2.999914 -0.000873 -2.999914 C -0.794623 -2.999914 -1.560248 -2.684289 -2.122748 -2.121789 C -2.685248 -1.559289 -3.000873 -0.796789 -3.000873 0.000086 C -3.000873 0.796961 -2.685248 1.559461 -2.122748 2.121961 C -1.560248 2.684461 -0.794623 3.000086 -0.000873 3.000086 Z M -0.000873 3.000086 " transform="matrix(1.25,0,0,1.25,184.95031,59.49208)"/>
<path style="fill-rule:nonzero;fill:rgb(100%,49.803922%,5.490196%);fill-opacity:1;stroke-width:1;stroke-linecap:butt;stroke-linejoin:round;stroke:rgb(100%,49.803922%,5.490196%);stroke-opacity:1;stroke-miterlimit:4;" d="M -0.000073 3.000435 C 0.796802 3.000435 1.559302 2.68481 2.121802 2.12231 C 2.684302 1.55981 2.999927 0.794185 2.999927 0.000435 C 2.999927 -0.79644 2.684302 -1.55894 2.121802 -2.12144 C 1.559302 -2.68394 0.796802 -2.999565 -0.000073 -2.999565 C -0.796948 -2.999565 -1.559448 -2.68394 -2.121948 -2.12144 C -2.684448 -1.55894 -3.000073 -0.79644 -3.000073 0.000435 C -3.000073 0.794185 -2.684448 1.55981 -2.121948 2.12231 C -1.559448 2.68481 -0.796948 3.000435 -0.000073 3.000435 Z M -0.000073 3.000435 " transform="matrix(1.25,0,0,1.25,200.57431,54.976019)"/>
<path style="fill-rule:nonzero;fill:rgb(100%,49.803922%,5.490196%);fill-opacity:1;stroke-width:1;stroke-linecap:butt;stroke-linejoin:round;stroke:rgb(100%,49.803922%,5.490196%);stroke-opacity:1;stroke-miterlimit:4;" d="M 0.000567 2.999395 C 0.794317 2.999395 1.559942 2.68377 2.122442 2.12127 C 2.684942 1.55877 3.000567 0.79627 3.000567 -0.000605 C 3.000567 -0.794355 2.684942 -1.55998 2.122442 -2.12248 C 1.559942 -2.68498 0.794317 -3.000605 0.000567 -3.000605 C -0.796308 -3.000605 -1.558808 -2.68498 -2.121308 -2.12248 C -2.683808 -1.55998 -2.999433 -0.794355 -2.999433 -0.000605 C -2.999433 0.79627 -2.683808 1.55877 -2.121308 2.12127 C -1.558808 2.68377 -0.796308 2.999395 0.000567 2.999395 Z M 0.000567 2.999395 " transform="matrix(1.25,0,0,1.25,213.07351,52.266381)"/>
<path style="fill-rule:nonzero;fill:rgb(100%,49.803922%,5.490196%);fill-opacity:1;stroke-width:1;stroke-linecap:butt;stroke-linejoin:round;stroke:rgb(100%,49.803922%,5.490196%);stroke-opacity:1;stroke-miterlimit:4;" d="M 0.001079 3.00002 C 0.794829 3.00002 1.557329 2.684395 2.119829 2.121895 C 2.685454 1.559395 3.001079 0.796895 3.001079 0.00002 C 3.001079 -0.796855 2.685454 -1.559355 2.119829 -2.121855 C 1.557329 -2.684355 0.794829 -2.99998 0.001079 -2.99998 C -0.795796 -2.99998 -1.558296 -2.684355 -2.120796 -2.121855 C -2.683296 -1.559355 -2.998921 -0.796855 -2.998921 0.00002 C -2.998921 0.796895 -2.683296 1.559395 -2.120796 2.121895 C -1.558296 2.684395 -0.795796 3.00002 0.001079 3.00002 Z M 0.001079 3.00002 " transform="matrix(1.25,0,0,1.25,223.07287,50.6406)"/>
<path style="fill-rule:nonzero;fill:rgb(100%,49.803922%,5.490196%);fill-opacity:1;stroke-width:1;stroke-linecap:butt;stroke-linejoin:round;stroke:rgb(100%,49.803922%,5.490196%);stroke-opacity:1;stroke-miterlimit:4;" d="M 0.001489 2.999146 C 0.795239 2.999146 1.557739 2.683521 2.120239 2.121021 C 2.682739 1.558521 3.001489 0.796021 3.001489 -0.000854 C 3.001489 -0.794604 2.682739 -1.560229 2.120239 -2.122729 C 1.557739 -2.685229 0.795239 -3.000854 0.001489 -3.000854 C -0.795386 -3.000854 -1.557886 -2.685229 -2.120386 -2.122729 C -2.682886 -1.560229 -2.998511 -0.794604 -2.998511 -0.000854 C -2.998511 0.796021 -2.682886 1.558521 -2.120386 2.121021 C -1.557886 2.683521 -0.795386 2.999146 0.001489 2.999146 Z M 0.001489 2.999146 " transform="matrix(1.25,0,0,1.25,231.072357,49.66513)"/>
<path style="fill-rule:nonzero;fill:rgb(100%,49.803922%,5.490196%);fill-opacity:1;stroke-width:1;stroke-linecap:butt;stroke-linejoin:round;stroke:rgb(100%,49.803922%,5.490196%);stroke-opacity:1;stroke-miterlimit:4;" d="M 0.000566 2.998621 C 0.794316 2.998621 1.559941 2.682996 2.122441 2.120496 C 2.684941 1.557996 3.000566 0.795496 3.000566 -0.001379 C 3.000566 -0.795129 2.684941 -1.557629 2.122441 -2.120129 C 1.559941 -2.682629 0.794316 -3.001379 0.000566 -3.001379 C -0.796309 -3.001379 -1.558809 -2.682629 -2.121309 -2.120129 C -2.683809 -1.557629 -2.999434 -0.795129 -2.999434 -0.001379 C -2.999434 0.795496 -2.683809 1.557996 -2.121309 2.120496 C -1.558809 2.682996 -0.796309 2.998621 0.000566 2.998621 Z M 0.000566 2.998621 " transform="matrix(1.25,0,0,1.25,237.471949,49.079849)"/>
<path style="fill-rule:nonzero;fill:rgb(100%,49.803922%,5.490196%);fill-opacity:1;stroke-width:1;stroke-linecap:butt;stroke-linejoin:round;stroke:rgb(100%,49.803922%,5.490196%);stroke-opacity:1;stroke-miterlimit:4;" d="M -0.001421 3.001431 C 0.795454 3.001431 1.557954 2.682681 2.120454 2.120181 C 2.682954 1.557681 2.998579 0.795181 2.998579 0.001431 C 2.998579 -0.795444 2.682954 -1.557944 2.120454 -2.120444 C 1.557954 -2.682944 0.795454 -2.998569 -0.001421 -2.998569 C -0.795171 -2.998569 -1.557671 -2.682944 -2.120171 -2.120444 C -2.682671 -1.557944 -3.001421 -0.795444 -3.001421 0.001431 C -3.001421 0.795181 -2.682671 1.557681 -2.120171 2.120181 C -1.557671 2.682681 -0.795171 3.001431 -0.001421 3.001431 Z M -0.001421 3.001431 " transform="matrix(1.25,0,0,1.25,242.59162,48.72868)"/>
<path style="fill-rule:nonzero;fill:rgb(100%,49.803922%,5.490196%);fill-opacity:1;stroke-width:1;stroke-linecap:butt;stroke-linejoin:round;stroke:rgb(100%,49.803922%,5.490196%);stroke-opacity:1;stroke-miterlimit:4;" d="M 0.000113 3.001242 C 0.796988 3.001242 1.559488 2.682492 2.121988 2.119992 C 2.684488 1.557492 3.000113 0.794992 3.000113 0.001242 C 3.000113 -0.795633 2.684488 -1.558133 2.121988 -2.120633 C 1.559488 -2.683133 0.796988 -2.998758 0.000113 -2.998758 C -0.796762 -2.998758 -1.559262 -2.683133 -2.121762 -2.120633 C -2.684262 -1.558133 -2.999887 -0.795633 -2.999887 0.001242 C -2.999887 0.794992 -2.684262 1.557492 -2.121762 2.119992 C -1.559262 2.682492 -0.796762 3.001242 0.000113 3.001242 Z M 0.000113 3.001242 " transform="matrix(1.25,0,0,1.25,246.687359,48.517979)"/>
<path style="fill-rule:nonzero;fill:rgb(100%,49.803922%,5.490196%);fill-opacity:1;stroke-width:1;stroke-linecap:butt;stroke-linejoin:round;stroke:rgb(100%,49.803922%,5.490196%);stroke-opacity:1;stroke-miterlimit:4;" d="M 0.000716 2.999254 C 0.794466 2.999254 1.560091 2.683629 2.122591 2.121129 C 2.685091 1.558629 3.000716 0.796129 3.000716 -0.000746 C 3.000716 -0.794496 2.685091 -1.560121 2.122591 -2.122621 C 1.560091 -2.685121 0.794466 -3.000746 0.000716 -3.000746 C -0.796159 -3.000746 -1.558659 -2.685121 -2.121159 -2.122621 C -2.683659 -1.560121 -2.999284 -0.794496 -2.999284 -0.000746 C -2.999284 0.796129 -2.683659 1.558629 -2.121159 2.121129 C -1.558659 2.683629 -0.796159 2.999254 0.000716 2.999254 Z M 0.000716 2.999254 " transform="matrix(1.25,0,0,1.25,249.963949,48.391558)"/>
<path style="fill-rule:nonzero;fill:rgb(100%,49.803922%,5.490196%);fill-opacity:1;stroke-width:1;stroke-linecap:butt;stroke-linejoin:round;stroke:rgb(100%,49.803922%,5.490196%);stroke-opacity:1;stroke-miterlimit:4;" d="M 0.000574 3.000561 C 0.794324 3.000561 1.559949 2.684936 2.122449 2.122436 C 2.684949 1.559936 3.000574 0.794311 3.000574 0.000561 C 3.000574 -0.796314 2.684949 -1.558814 2.122449 -2.121314 C 1.559949 -2.683814 0.794324 -2.999439 0.000574 -2.999439 C -0.796301 -2.999439 -1.558801 -2.683814 -2.121301 -2.121314 C -2.683801 -1.558814 -2.999426 -0.796314 -2.999426 0.000561 C -2.999426 0.794311 -2.683801 1.559936 -2.121301 2.122436 C -1.558801 2.684936 -0.796301 3.000561 0.000574 3.000561 Z M 0.000574 3.000561 " transform="matrix(1.25,0,0,1.25,252.58522,48.315705)"/>
<path style="fill-rule:nonzero;fill:rgb(100%,49.803922%,5.490196%);fill-opacity:1;stroke-width:1;stroke-linecap:butt;stroke-linejoin:round;stroke:rgb(100%,49.803922%,5.490196%);stroke-opacity:1;stroke-miterlimit:4;" d="M 0.001084 2.99947 C 0.794834 2.99947 1.557334 2.683845 2.119834 2.121345 C 2.685459 1.558845 3.001084 0.796345 3.001084 -0.00053 C 3.001084 -0.79428 2.685459 -1.559905 2.119834 -2.122405 C 1.557334 -2.684905 0.794834 -3.00053 0.001084 -3.00053 C -0.795791 -3.00053 -1.558291 -2.684905 -2.120791 -2.122405 C -2.683291 -1.559905 -2.998916 -0.79428 -2.998916 -0.00053 C -2.998916 0.796345 -2.683291 1.558845 -2.120791 2.121345 C -1.558291 2.683845 -0.795791 2.99947 0.001084 2.99947 Z M 0.001084 2.99947 " transform="matrix(1.25,0,0,1.25,254.682239,48.270194)"/>
<path style="fill-rule:nonzero;fill:rgb(100%,49.803922%,5.490196%);fill-opacity:1;stroke-width:1;stroke-linecap:butt;stroke-linejoin:round;stroke:rgb(100%,49.803922%,5.490196%);stroke-opacity:1;stroke-miterlimit:4;" d="M -0.000382 2.999441 C 0.796493 2.999441 1.558993 2.683816 2.121493 2.121316 C 2.683993 1.558816 2.999618 0.796316 2.999618 -0.000559 C 2.999618 -0.794309 2.683993 -1.559934 2.121493 -2.122434 C 1.558993 -2.684934 0.796493 -3.000559 -0.000382 -3.000559 C -0.794132 -3.000559 -1.559757 -2.684934 -2.122257 -2.122434 C -2.684757 -1.559934 -3.000382 -0.794309 -3.000382 -0.000559 C -3.000382 0.796316 -2.684757 1.558816 -2.122257 2.121316 C -1.559757 2.683816 -0.794132 2.999441 -0.000382 2.999441 Z M -0.000382 2.999441 " transform="matrix(1.25,0,0,1.25,256.359852,48.242886)"/>
<path style="fill-rule:nonzero;fill:rgb(100%,49.803922%,5.490196%);fill-opacity:1;stroke-width:1;stroke-linecap:butt;stroke-linejoin:round;stroke:rgb(100%,49.803922%,5.490196%);stroke-opacity:1;stroke-miterlimit:4;" d="M 0.000945 3.000048 C 0.794695 3.000048 1.557195 2.684423 2.12282 2.121923 C 2.68532 1.559423 3.000945 0.796923 3.000945 0.000048 C 3.000945 -0.796827 2.68532 -1.559327 2.12282 -2.121827 C 1.557195 -2.684327 0.794695 -2.999952 0.000945 -2.999952 C -0.79593 -2.999952 -1.55843 -2.684327 -2.12093 -2.121827 C -2.68343 -1.559327 -2.999055 -0.796827 -2.999055 0.000048 C -2.999055 0.796923 -2.68343 1.559423 -2.12093 2.121923 C -1.55843 2.684423 -0.79593 3.000048 0.000945 3.000048 Z M 0.000945 3.000048 " transform="matrix(1.25,0,0,1.25,257.701944,48.226503)"/>
<path style="fill-rule:nonzero;fill:rgb(100%,49.803922%,5.490196%);fill-opacity:1;stroke-width:1;stroke-linecap:butt;stroke-linejoin:round;stroke:rgb(100%,49.803922%,5.490196%);stroke-opacity:1;stroke-miterlimit:4;" d="M 0.001381 2.998537 C 0.795131 2.998537 1.557631 2.682912 2.120131 2.120412 C 2.682631 1.557912 3.001381 0.795412 3.001381 -0.001463 C 3.001381 -0.795213 2.682631 -1.557713 2.120131 -2.120213 C 1.557631 -2.682713 0.795131 -3.001463 0.001381 -3.001463 C -0.795494 -3.001463 -1.557994 -2.682713 -2.120494 -2.120213 C -2.682994 -1.557713 -2.998619 -0.795213 -2.998619 -0.001463 C -2.998619 0.795412 -2.682994 1.557912 -2.120494 2.120412 C -1.557994 2.682912 -0.795494 2.998537 0.001381 2.998537 Z M 0.001381 2.998537 " transform="matrix(1.25,0,0,1.25,258.775617,48.216673)"/>
<path style="fill-rule:nonzero;fill:rgb(100%,49.803922%,5.490196%);fill-opacity:1;stroke-width:1;stroke-linecap:butt;stroke-linejoin:round;stroke:rgb(100%,49.803922%,5.490196%);stroke-opacity:1;stroke-miterlimit:4;" d="M -0.001394 3.000131 C 0.795481 3.000131 1.557981 2.684506 2.120481 2.122006 C 2.682981 1.559506 2.998606 0.797006 2.998606 0.000131 C 2.998606 -0.796744 2.682981 -1.559244 2.120481 -2.121744 C 1.557981 -2.684244 0.795481 -2.999869 -0.001394 -2.999869 C -0.795144 -2.999869 -1.557644 -2.684244 -2.120144 -2.121744 C -2.682644 -1.559244 -3.001394 -0.796744 -3.001394 0.000131 C -3.001394 0.797006 -2.682644 1.559506 -2.120144 2.122006 C -1.557644 2.684506 -0.795144 3.000131 -0.001394 3.000131 Z M -0.001394 3.000131 " transform="matrix(1.25,0,0,1.25,259.634555,48.210774)"/>
<path style="fill-rule:nonzero;fill:rgb(100%,49.803922%,5.490196%);fill-opacity:1;stroke-width:1;stroke-linecap:butt;stroke-linejoin:round;stroke:rgb(100%,49.803922%,5.490196%);stroke-opacity:1;stroke-miterlimit:4;" d="M -0.001115 2.999837 C 0.79576 2.999837 1.55826 2.684212 2.12076 2.121712 C 2.68326 1.559212 2.998885 0.796712 2.998885 -0.000163 C 2.998885 -0.797038 2.68326 -1.559538 2.12076 -2.122038 C 1.55826 -2.684538 0.79576 -3.000163 -0.001115 -3.000163 C -0.794865 -3.000163 -1.557365 -2.684538 -2.119865 -2.122038 C -2.682365 -1.559538 -3.001115 -0.797038 -3.001115 -0.000163 C -3.001115 0.796712 -2.682365 1.559212 -2.119865 2.121712 C -1.557365 2.684212 -0.794865 2.999837 -0.001115 2.999837 Z M -0.001115 2.999837 " transform="matrix(1.25,0,0,1.25,260.321706,48.207235)"/>
<path style="fill-rule:nonzero;fill:rgb(100%,49.803922%,5.490196%);fill-opacity:1;stroke-width:1;stroke-linecap:butt;stroke-linejoin:round;stroke:rgb(100%,49.803922%,5.490196%);stroke-opacity:1;stroke-miterlimit:4;" d="M -0.000267 3.001536 C 0.796608 3.001536 1.559108 2.682786 2.121608 2.120286 C 2.684108 1.557786 2.999733 0.795286 2.999733 0.001536 C 2.999733 -0.795339 2.684108 -1.557839 2.121608 -2.120339 C 1.559108 -2.682839 0.796608 -2.998464 -0.000267 -2.998464 C -0.797142 -2.998464 -1.559642 -2.682839 -2.122142 -2.120339 C -2.684642 -1.557839 -3.000267 -0.795339 -3.000267 0.001536 C -3.000267 0.795286 -2.684642 1.557786 -2.122142 2.120286 C -1.559642 2.682786 -0.797142 3.001536 -0.000267 3.001536 Z M -0.000267 3.001536 " transform="matrix(1.25,0,0,1.25,260.871427,48.205111)"/>
<path style="fill:none;stroke-width:0.8;stroke-linecap:square;stroke-linejoin:miter;stroke:rgb(0%,0%,0%);stroke-opacity:1;stroke-miterlimit:4;" d="M 42.61875 143.1 L 42.61875 7.2 " transform="matrix(1.25,0,0,1.25,0,0.000000000000014211)"/>
<path style="fill:none;stroke-width:0.8;stroke-linecap:square;stroke-linejoin:miter;stroke:rgb(0%,0%,0%);stroke-opacity:1;stroke-miterlimit:4;" d="M 237.921875 143.1 L 237.921875 7.2 " transform="matrix(1.25,0,0,1.25,0,0.000000000000014211)"/>
<path style="fill:none;stroke-width:0.8;stroke-linecap:square;stroke-linejoin:miter;stroke:rgb(0%,0%,0%);stroke-opacity:1;stroke-miterlimit:4;" d="M 42.61875 143.1 L 237.91875 143.1 " transform="matrix(1.25,0,0,1.25,0,0.000000000000014211)"/>
<path style="fill:none;stroke-width:0.8;stroke-linecap:square;stroke-linejoin:miter;stroke:rgb(0%,0%,0%);stroke-opacity:1;stroke-miterlimit:4;" d="M 42.61875 7.2 L 237.91875 7.2 " transform="matrix(1.25,0,0,1.25,0,0.000000000000014211)"/>
</g>
</svg>
