<?xml version="1.0" encoding="UTF-8"?>
<svg xmlns="http://www.w3.org/2000/svg" xmlns:xlink="http://www.w3.org/1999/xlink" width="306pt" height="226pt" viewBox="0 0 306 226" version="1.1">
<defs>
<clipPath id="clip1">
  <path d="M 154 9 L 297.398438 9 L 297.398438 137 L 154 137 Z M 154 9 "/>
</clipPath>
<clipPath id="clip2">
  <path d="M 109 9 L 297.398438 9 L 297.398438 173 L 109 173 Z M 109 9 "/>
</clipPath>
<clipPath id="clip3">
  <path d="M 75 9 L 171 9 L 171 178.875 L 75 178.875 Z M 75 9 "/>
</clipPath>
<clipPath id="clip4">
  <path d="M 53.273438 87 L 122 87 L 122 178.875 L 53.273438 178.875 Z M 53.273438 87 "/>
</clipPath>
<clipPath id="clip5">
  <path d="M 53.273438 143 L 86 143 L 86 178.875 L 53.273438 178.875 Z M 53.273438 143 "/>
</clipPath>
<clipPath id="clip6">
  <path d="M 53.273438 177 L 56 177 L 56 178.875 L 53.273438 178.875 Z M 53.273438 177 "/>
</clipPath>
</defs>
<g id="surface1">
<path style=" stroke:none;fill-rule:nonzero;fill:rgb(100%,100%,100%);fill-opacity:1;" d="M 53.273438 178.875 L 297.402344 178.875 L 297.402344 9 L 53.273438 9 Z M 53.273438 178.875 "/>
<path style="fill:none;stroke-width:0.8;stroke-linecap:butt;stroke-linejoin:round;stroke:rgb(0%,0%,0%);stroke-opacity:1;stroke-miterlimit:4;" d="M 0.000000000000014211 0 L 0.000000000000014211 3.5 " transform="matrix(1.25,0,0,1.25,110.492187,178.875)"/>
<path style=" stroke:none;fill-rule:nonzero;fill:rgb(0%,0%,0%);fill-opacity:1;" d="M 102.601562 192.6875 L 110.425781 192.6875 L 110.425781 193.722656 L 102.601562 193.722656 Z M 102.601562 192.6875 "/>
<path style=" stroke:none;fill-rule:nonzero;fill:rgb(0%,0%,0%);fill-opacity:1;" d="M 116.476562 189.085938 L 113.363281 193.949219 L 116.476562 193.949219 Z M 116.152344 188.011719 L 117.703125 188.011719 L 117.703125 193.949219 L 119.003906 193.949219 L 119.003906 194.976562 L 117.703125 194.976562 L 117.703125 197.125 L 116.476562 197.125 L 116.476562 194.976562 L 112.363281 194.976562 L 112.363281 193.785156 Z M 116.152344 188.011719 "/>
<path style="fill:none;stroke-width:0.8;stroke-linecap:butt;stroke-linejoin:round;stroke:rgb(0%,0%,0%);stroke-opacity:1;stroke-miterlimit:4;" d="M 0.000000000000028422 0 L 0.000000000000028422 3.5 " transform="matrix(1.25,0,0,1.25,186.78125,178.875)"/>
<path style=" stroke:none;fill-rule:nonzero;fill:rgb(0%,0%,0%);fill-opacity:1;" d="M 178.890625 192.6875 L 186.714844 192.6875 L 186.714844 193.722656 L 178.890625 193.722656 Z M 178.890625 192.6875 "/>
<path style=" stroke:none;fill-rule:nonzero;fill:rgb(0%,0%,0%);fill-opacity:1;" d="M 190.441406 196.085938 L 194.742188 196.085938 L 194.742188 197.125 L 188.957031 197.125 L 188.957031 196.085938 C 189.425781 195.601562 190.0625 194.953125 190.871094 194.136719 C 191.679688 193.320312 192.1875 192.792969 192.394531 192.558594 C 192.789062 192.113281 193.0625 191.738281 193.21875 191.433594 C 193.375 191.125 193.457031 190.824219 193.457031 190.527344 C 193.457031 190.042969 193.285156 189.648438 192.945312 189.34375 C 192.605469 189.035156 192.164062 188.882812 191.617188 188.882812 C 191.230469 188.882812 190.824219 188.949219 190.394531 189.085938 C 189.964844 189.21875 189.507812 189.421875 189.019531 189.695312 L 189.019531 188.449219 C 189.515625 188.25 189.976562 188.101562 190.410156 188 C 190.839844 187.898438 191.234375 187.847656 191.59375 187.847656 C 192.539062 187.847656 193.289062 188.082031 193.851562 188.554688 C 194.414062 189.027344 194.695312 189.65625 194.695312 190.445312 C 194.695312 190.820312 194.625 191.175781 194.484375 191.511719 C 194.34375 191.847656 194.089844 192.242188 193.71875 192.699219 C 193.617188 192.816406 193.292969 193.15625 192.746094 193.722656 C 192.203125 194.285156 191.433594 195.074219 190.441406 196.085938 Z M 190.441406 196.085938 "/>
<path style="fill:none;stroke-width:0.8;stroke-linecap:butt;stroke-linejoin:round;stroke:rgb(0%,0%,0%);stroke-opacity:1;stroke-miterlimit:4;" d="M -0.000001 0 L -0.000001 3.5 " transform="matrix(1.25,0,0,1.25,263.070314,178.875)"/>
<path style=" stroke:none;fill-rule:nonzero;fill:rgb(0%,0%,0%);fill-opacity:1;" d="M 263.066406 188.824219 C 262.433594 188.824219 261.957031 189.136719 261.636719 189.761719 C 261.316406 190.382812 261.15625 191.324219 261.15625 192.578125 C 261.15625 193.824219 261.316406 194.761719 261.636719 195.386719 C 261.957031 196.011719 262.433594 196.324219 263.066406 196.324219 C 263.707031 196.324219 264.183594 196.011719 264.503906 195.386719 C 264.824219 194.761719 264.984375 193.824219 264.984375 192.578125 C 264.984375 191.324219 264.824219 190.382812 264.503906 189.761719 C 264.183594 189.136719 263.707031 188.824219 263.066406 188.824219 Z M 263.066406 187.847656 C 264.089844 187.847656 264.871094 188.25 265.410156 189.058594 C 265.949219 189.867188 266.21875 191.039062 266.21875 192.578125 C 266.21875 194.109375 265.949219 195.28125 265.410156 196.089844 C 264.871094 196.898438 264.089844 197.300781 263.066406 197.300781 C 262.046875 197.300781 261.265625 196.898438 260.726562 196.089844 C 260.1875 195.28125 259.917969 194.109375 259.917969 192.578125 C 259.917969 191.039062 260.1875 189.867188 260.726562 189.058594 C 261.265625 188.25 262.046875 187.847656 263.066406 187.847656 Z M 263.066406 187.847656 "/>
<path style=" stroke:none;fill-rule:nonzero;fill:rgb(0%,0%,0%);fill-opacity:1;" d="M 174.523438 207.386719 L 172.050781 210.710938 L 174.648438 214.222656 L 173.324219 214.222656 L 171.335938 211.535156 L 169.347656 214.222656 L 168.019531 214.222656 L 170.675781 210.644531 L 168.246094 207.386719 L 169.570312 207.386719 L 171.382812 209.820312 L 173.195312 207.386719 Z M 174.523438 207.386719 "/>
<path style=" stroke:none;fill-rule:nonzero;fill:rgb(0%,0%,0%);fill-opacity:1;" d="M 176.609375 213.183594 L 178.625 213.183594 L 178.625 206.230469 L 176.433594 206.671875 L 176.433594 205.546875 L 178.613281 205.109375 L 179.84375 205.109375 L 179.84375 213.183594 L 181.859375 213.183594 L 181.859375 214.222656 L 176.609375 214.222656 Z M 176.609375 213.183594 "/>
<path style="fill:none;stroke-width:0.8;stroke-linecap:butt;stroke-linejoin:round;stroke:rgb(0%,0%,0%);stroke-opacity:1;stroke-miterlimit:4;" d="M -0.001562 0 L -3.501562 0 " transform="matrix(1.25,0,0,1.25,53.27539,178.875)"/>
<path style=" stroke:none;fill-rule:nonzero;fill:rgb(0%,0%,0%);fill-opacity:1;" d="M 27.421875 179.1875 L 35.246094 179.1875 L 35.246094 180.222656 L 27.421875 180.222656 Z M 27.421875 179.1875 "/>
<path style=" stroke:none;fill-rule:nonzero;fill:rgb(0%,0%,0%);fill-opacity:1;" d="M 41.644531 178.710938 C 42.234375 178.835938 42.695312 179.097656 43.023438 179.5 C 43.355469 179.898438 43.523438 180.390625 43.523438 180.976562 C 43.523438 181.875 43.214844 182.570312 42.59375 183.0625 C 41.976562 183.554688 41.097656 183.800781 39.957031 183.800781 C 39.578125 183.800781 39.183594 183.765625 38.777344 183.6875 C 38.375 183.613281 37.957031 183.5 37.523438 183.347656 L 37.523438 182.160156 C 37.867188 182.359375 38.238281 182.507812 38.644531 182.609375 C 39.054688 182.710938 39.480469 182.761719 39.921875 182.761719 C 40.695312 182.761719 41.285156 182.609375 41.6875 182.304688 C 42.09375 182 42.296875 181.558594 42.296875 180.976562 C 42.296875 180.4375 42.109375 180.019531 41.730469 179.714844 C 41.355469 179.414062 40.832031 179.261719 40.160156 179.261719 L 39.097656 179.261719 L 39.097656 178.246094 L 40.210938 178.246094 C 40.816406 178.246094 41.277344 178.125 41.601562 177.882812 C 41.921875 177.640625 42.082031 177.292969 42.082031 176.835938 C 42.082031 176.371094 41.917969 176.011719 41.585938 175.761719 C 41.253906 175.507812 40.78125 175.382812 40.160156 175.382812 C 39.824219 175.382812 39.460938 175.421875 39.074219 175.496094 C 38.6875 175.566406 38.261719 175.679688 37.796875 175.835938 L 37.796875 174.738281 C 38.265625 174.605469 38.707031 174.507812 39.113281 174.445312 C 39.523438 174.378906 39.910156 174.347656 40.269531 174.347656 C 41.207031 174.347656 41.945312 174.558594 42.492188 174.984375 C 43.035156 175.410156 43.308594 175.984375 43.308594 176.707031 C 43.308594 177.214844 43.164062 177.640625 42.875 177.988281 C 42.585938 178.335938 42.175781 178.574219 41.644531 178.710938 Z M 41.644531 178.710938 "/>
<path style="fill:none;stroke-width:0.8;stroke-linecap:butt;stroke-linejoin:round;stroke:rgb(0%,0%,0%);stroke-opacity:1;stroke-miterlimit:4;" d="M -0.001562 -0.000721 L -3.501562 -0.000721 " transform="matrix(1.25,0,0,1.25,53.27539,135.317307)"/>
<path style=" stroke:none;fill-rule:nonzero;fill:rgb(0%,0%,0%);fill-opacity:1;" d="M 27.421875 135.628906 L 35.246094 135.628906 L 35.246094 136.664062 L 27.421875 136.664062 Z M 27.421875 135.628906 "/>
<path style=" stroke:none;fill-rule:nonzero;fill:rgb(0%,0%,0%);fill-opacity:1;" d="M 38.96875 139.027344 L 43.273438 139.027344 L 43.273438 140.066406 L 37.488281 140.066406 L 37.488281 139.027344 C 37.953125 138.542969 38.59375 137.894531 39.398438 137.078125 C 40.207031 136.261719 40.714844 135.738281 40.921875 135.5 C 41.316406 135.058594 41.59375 134.683594 41.75 134.375 C 41.90625 134.066406 41.984375 133.765625 41.984375 133.46875 C 41.984375 132.984375 41.816406 132.589844 41.476562 132.285156 C 41.136719 131.980469 40.691406 131.824219 40.148438 131.824219 C 39.761719 131.824219 39.351562 131.894531 38.921875 132.027344 C 38.496094 132.160156 38.035156 132.363281 37.546875 132.636719 L 37.546875 131.390625 C 38.042969 131.191406 38.507812 131.042969 38.9375 130.941406 C 39.371094 130.839844 39.765625 130.789062 40.125 130.789062 C 41.066406 130.789062 41.820312 131.023438 42.382812 131.496094 C 42.941406 131.96875 43.222656 132.597656 43.222656 133.386719 C 43.222656 133.761719 43.152344 134.117188 43.011719 134.453125 C 42.875 134.789062 42.617188 135.183594 42.246094 135.640625 C 42.144531 135.757812 41.820312 136.101562 41.277344 136.664062 C 40.730469 137.226562 39.964844 138.015625 38.96875 139.027344 Z M 38.96875 139.027344 "/>
<path style="fill:none;stroke-width:0.8;stroke-linecap:butt;stroke-linejoin:round;stroke:rgb(0%,0%,0%);stroke-opacity:1;stroke-miterlimit:4;" d="M -0.001562 -0.001442 L -3.501562 -0.001442 " transform="matrix(1.25,0,0,1.25,53.27539,91.759615)"/>
<path style=" stroke:none;fill-rule:nonzero;fill:rgb(0%,0%,0%);fill-opacity:1;" d="M 27.421875 92.070312 L 35.246094 92.070312 L 35.246094 93.109375 L 27.421875 93.109375 Z M 27.421875 92.070312 "/>
<path style=" stroke:none;fill-rule:nonzero;fill:rgb(0%,0%,0%);fill-opacity:1;" d="M 38.121094 95.472656 L 40.136719 95.472656 L 40.136719 88.519531 L 37.945312 88.957031 L 37.945312 87.835938 L 40.125 87.394531 L 41.355469 87.394531 L 41.355469 95.472656 L 43.371094 95.472656 L 43.371094 96.507812 L 38.121094 96.507812 Z M 38.121094 95.472656 "/>
<path style="fill:none;stroke-width:0.8;stroke-linecap:butt;stroke-linejoin:round;stroke:rgb(0%,0%,0%);stroke-opacity:1;stroke-miterlimit:4;" d="M -0.001562 0.000962 L -3.501562 0.000962 " transform="matrix(1.25,0,0,1.25,53.27539,48.201923)"/>
<path style=" stroke:none;fill-rule:nonzero;fill:rgb(0%,0%,0%);fill-opacity:1;" d="M 40.542969 44.648438 C 39.910156 44.648438 39.433594 44.960938 39.113281 45.585938 C 38.792969 46.210938 38.632812 47.148438 38.632812 48.402344 C 38.632812 49.652344 38.792969 50.589844 39.113281 51.214844 C 39.433594 51.839844 39.910156 52.152344 40.542969 52.152344 C 41.183594 52.152344 41.664062 51.839844 41.980469 51.214844 C 42.300781 50.589844 42.460938 49.652344 42.460938 48.402344 C 42.460938 47.148438 42.300781 46.210938 41.980469 45.585938 C 41.664062 44.960938 41.183594 44.648438 40.542969 44.648438 Z M 40.542969 43.671875 C 41.566406 43.671875 42.347656 44.078125 42.886719 44.886719 C 43.425781 45.695312 43.695312 46.867188 43.695312 48.402344 C 43.695312 49.9375 43.425781 51.109375 42.886719 51.917969 C 42.347656 52.726562 41.566406 53.128906 40.542969 53.128906 C 39.523438 53.128906 38.742188 52.726562 38.203125 51.917969 C 37.664062 51.109375 37.394531 49.9375 37.394531 48.402344 C 37.394531 46.867188 37.664062 45.695312 38.203125 44.886719 C 38.742188 44.078125 39.523438 43.671875 40.542969 43.671875 Z M 40.542969 43.671875 "/>
<path style=" stroke:none;fill-rule:nonzero;fill:rgb(0%,0%,0%);fill-opacity:1;" d="M 11.660156 94.75 L 14.988281 97.226562 L 18.496094 94.625 L 18.496094 95.949219 L 15.8125 97.9375 L 18.496094 99.929688 L 18.496094 101.253906 L 14.921875 98.597656 L 11.660156 101.027344 L 11.660156 99.703125 L 14.097656 97.890625 L 11.660156 96.078125 Z M 11.660156 94.75 "/>
<path style=" stroke:none;fill-rule:nonzero;fill:rgb(0%,0%,0%);fill-opacity:1;" d="M 17.460938 91.816406 L 17.460938 87.515625 L 18.496094 87.515625 L 18.496094 93.300781 L 17.460938 93.300781 C 16.976562 92.832031 16.328125 92.195312 15.511719 91.386719 C 14.695312 90.578125 14.167969 90.070312 13.929688 89.863281 C 13.488281 89.46875 13.113281 89.195312 12.804688 89.039062 C 12.5 88.878906 12.195312 88.800781 11.898438 88.800781 C 11.414062 88.800781 11.019531 88.972656 10.714844 89.3125 C 10.410156 89.652344 10.257812 90.09375 10.257812 90.640625 C 10.257812 91.027344 10.324219 91.433594 10.457031 91.863281 C 10.59375 92.292969 10.796875 92.75 11.070312 93.238281 L 9.824219 93.238281 C 9.625 92.742188 9.472656 92.28125 9.371094 91.847656 C 9.269531 91.417969 9.21875 91.019531 9.21875 90.664062 C 9.21875 89.71875 9.457031 88.964844 9.929688 88.40625 C 10.402344 87.84375 11.03125 87.5625 11.820312 87.5625 C 12.195312 87.5625 12.550781 87.632812 12.886719 87.773438 C 13.222656 87.914062 13.617188 88.167969 14.070312 88.539062 C 14.191406 88.640625 14.53125 88.964844 15.09375 89.511719 C 15.660156 90.054688 16.449219 90.824219 17.460938 91.816406 Z M 17.460938 91.816406 "/>
<g clip-path="url(#clip1)" clip-rule="nonzero">
<path style="fill:none;stroke-width:1.5;stroke-linecap:butt;stroke-linejoin:round;stroke:rgb(12.156863%,46.666667%,70.588235%);stroke-opacity:1;stroke-miterlimit:4;" d="M 133.390625 7.2 L 131.35625 10.684375 L 131.115625 11.15 L 129.61875 14.16875 L 128.121875 17.653125 L 128.065625 17.8125 L 126.9 21.1375 L 125.9 24.621875 L 125.125 28.10625 L 125.0125 28.803125 L 124.584375 31.59375 L 124.2625 35.078125 L 124.15625 38.5625 L 124.2625 42.046875 L 124.584375 45.53125 L 125.0125 48.31875 L 125.125 49.015625 L 125.9 52.5 L 126.9 55.984375 L 128.065625 59.309375 L 128.121875 59.46875 L 129.61875 62.953125 L 131.115625 65.975 L 131.35625 66.4375 L 133.390625 69.921875 L 134.16875 71.115625 L 135.725 73.40625 L 137.21875 75.4 L 138.3875 76.89375 L 140.271875 79.090625 L 141.421875 80.378125 L 143.321875 82.328125 L 144.884375 83.8625 L 146.375 85.215625 L 148.828125 87.346875 L 149.425 87.828125 L 152.478125 90.16875 L 153.384375 90.83125 L 155.528125 92.290625 L 158.58125 94.259375 L 158.671875 94.315625 L 161.63125 96.00625 L 164.684375 97.640625 L 165 97.8 L 167.734375 99.09375 L 170.7875 100.4375 L 172.8625 101.284375 L 173.8375 101.6625 L 176.8875 102.74375 L 179.940625 103.734375 L 182.99375 104.628125 L 183.53125 104.76875 L 186.04375 105.39375 L 189.096875 106.065625 L 192.146875 106.646875 L 195.2 107.1375 L 198.25 107.5375 L 201.303125 107.853125 L 204.353125 108.075 L 207.40625 108.209375 L 210.45625 108.253125 L 213.509375 108.209375 L 216.559375 108.075 L 219.6125 107.853125 L 222.6625 107.5375 L 225.715625 107.1375 L 228.765625 106.646875 L 231.81875 106.065625 L 234.86875 105.39375 L 237.38125 104.76875 L 237.921875 104.628125 " transform="matrix(1.25,0,0,1.25,0,0.000000000000014211)"/>
</g>
<g clip-path="url(#clip2)" clip-rule="nonzero">
<path style="fill:none;stroke-width:1.5;stroke-linecap:butt;stroke-linejoin:round;stroke:rgb(12.156863%,46.666667%,70.588235%);stroke-opacity:1;stroke-miterlimit:4;" d="M 94.740625 7.2 L 94.496875 7.815625 L 93.3875 10.684375 L 92.196875 14.16875 L 91.44375 16.715625 L 91.175 17.653125 L 90.325 21.1375 L 89.63125 24.621875 L 89.0875 28.10625 L 88.703125 31.59375 L 88.471875 35.078125 L 88.39375 38.5625 L 88.471875 42.046875 L 88.703125 45.53125 L 89.0875 49.015625 L 89.63125 52.5 L 90.325 55.984375 L 91.175 59.46875 L 91.44375 60.40625 L 92.196875 62.953125 L 93.3875 66.4375 L 94.496875 69.309375 L 94.740625 69.921875 L 96.2875 73.40625 L 97.546875 75.978125 L 98.009375 76.89375 L 99.93125 80.378125 L 100.6 81.490625 L 102.0625 83.8625 L 103.653125 86.25 L 104.403125 87.346875 L 106.703125 90.46875 L 106.975 90.83125 L 109.753125 94.259375 L 109.803125 94.315625 L 112.80625 97.69375 L 112.903125 97.8 L 115.859375 100.8375 L 116.309375 101.284375 L 118.909375 103.734375 L 120.046875 104.76875 L 121.9625 106.421875 L 124.15625 108.253125 L 125.0125 108.934375 L 128.065625 111.271875 L 128.696875 111.7375 L 131.115625 113.440625 L 133.746875 115.221875 L 134.16875 115.49375 L 137.21875 117.390625 L 139.425 118.70625 L 140.271875 119.190625 L 143.321875 120.85625 L 145.878125 122.19375 L 146.375 122.440625 L 149.425 123.9 L 152.478125 125.284375 L 153.384375 125.678125 L 155.528125 126.565625 L 158.58125 127.759375 L 161.63125 128.8875 L 162.41875 129.1625 L 164.684375 129.91875 L 167.734375 130.871875 L 170.7875 131.759375 L 173.8375 132.58125 L 174.103125 132.646875 L 176.8875 133.3125 L 179.940625 133.978125 L 182.99375 134.578125 L 186.04375 135.115625 L 189.096875 135.59375 L 192.146875 136.003125 L 193.25625 136.13125 L 195.2 136.34375 L 198.25 136.61875 L 201.303125 136.834375 L 204.353125 136.9875 L 207.40625 137.078125 L 210.45625 137.109375 L 213.509375 137.078125 L 216.559375 136.9875 L 219.6125 136.834375 L 222.6625 136.61875 L 225.715625 136.34375 L 227.65625 136.13125 L 228.765625 136.003125 L 231.81875 135.59375 L 234.86875 135.115625 L 237.921875 134.578125 " transform="matrix(1.25,0,0,1.25,0,0.000000000000014211)"/>
</g>
<g clip-path="url(#clip3)" clip-rule="nonzero">
<path style="fill:none;stroke-width:1.5;stroke-linecap:butt;stroke-linejoin:round;stroke:rgb(12.156863%,46.666667%,70.588235%);stroke-opacity:1;stroke-miterlimit:4;" d="M 66.1 7.2 L 65.009375 10.684375 L 64.046875 14.16875 L 63.98125 14.4375 L 63.225 17.653125 L 62.534375 21.1375 L 61.96875 24.621875 L 61.528125 28.10625 L 61.2125 31.59375 L 61.025 35.078125 L 60.9625 38.5625 L 61.025 42.046875 L 61.2125 45.53125 L 61.528125 49.015625 L 61.96875 52.5 L 62.534375 55.984375 L 63.225 59.46875 L 63.98125 62.684375 L 64.046875 62.953125 L 65.009375 66.4375 L 66.1 69.921875 L 67.034375 72.58125 L 67.328125 73.40625 L 68.70625 76.89375 L 70.084375 80.075 L 70.21875 80.378125 L 71.89375 83.8625 L 73.1375 86.25 L 73.71875 87.346875 L 75.70625 90.83125 L 76.1875 91.61875 L 77.871875 94.315625 L 79.240625 96.375 L 80.209375 97.8 L 82.290625 100.6875 L 82.73125 101.284375 L 85.34375 104.628125 L 85.45625 104.76875 L 88.39375 108.253125 L 91.44375 111.6125 L 91.565625 111.7375 L 94.496875 114.7375 L 94.984375 115.221875 L 97.546875 117.6625 L 98.678125 118.70625 L 100.6 120.4125 L 102.6625 122.19375 L 103.653125 123.009375 L 106.703125 125.4625 L 106.975 125.678125 L 109.753125 127.759375 L 111.678125 129.1625 L 112.80625 129.95 L 115.859375 132.021875 L 116.809375 132.646875 L 118.909375 133.978125 L 121.9625 135.846875 L 122.44375 136.13125 L 125.0125 137.596875 L 128.065625 139.278125 L 128.696875 139.615625 L 131.115625 140.85625 L 134.16875 142.3625 L 135.725 143.1 " transform="matrix(1.25,0,0,1.25,0,0.000000000000014211)"/>
</g>
<g clip-path="url(#clip4)" clip-rule="nonzero">
<path style="fill:none;stroke-width:1.5;stroke-linecap:butt;stroke-linejoin:round;stroke:rgb(12.156863%,46.666667%,70.588235%);stroke-opacity:1;stroke-miterlimit:4;" d="M 42.61875 71.115625 L 43.31875 73.40625 L 44.496875 76.89375 L 45.671875 80.075 L 45.7875 80.378125 L 47.2125 83.8625 L 48.721875 87.28125 L 48.753125 87.346875 L 50.4375 90.83125 L 51.775 93.415625 L 52.25 94.315625 L 54.203125 97.8 L 54.828125 98.846875 L 56.30625 101.284375 L 57.878125 103.734375 L 58.55625 104.76875 L 60.928125 108.209375 L 60.9625 108.253125 L 63.540625 111.7375 L 63.98125 112.30625 L 66.29375 115.221875 L 67.034375 116.1125 L 69.23125 118.70625 L 70.084375 119.671875 L 72.365625 122.19375 L 73.1375 123.009375 L 75.70625 125.678125 L 76.1875 126.15625 L 79.240625 129.128125 L 79.275 129.1625 L 82.290625 131.921875 L 83.1 132.646875 L 85.34375 134.578125 L 87.1875 136.13125 L 88.39375 137.109375 L 91.44375 139.525 L 91.565625 139.615625 L 94.496875 141.8 L 96.2875 143.1 " transform="matrix(1.25,0,0,1.25,0,0.000000000000014211)"/>
</g>
<g clip-path="url(#clip5)" clip-rule="nonzero">
<path style="fill:none;stroke-width:1.5;stroke-linecap:butt;stroke-linejoin:round;stroke:rgb(12.156863%,46.666667%,70.588235%);stroke-opacity:1;stroke-miterlimit:4;" d="M 42.61875 115.49375 L 44.94375 118.70625 L 45.671875 119.671875 L 47.6125 122.19375 L 48.721875 123.578125 L 50.4375 125.678125 L 51.775 127.246875 L 53.434375 129.1625 L 54.828125 130.70625 L 56.609375 132.646875 L 57.878125 133.978125 L 59.975 136.13125 L 60.928125 137.078125 L 63.540625 139.615625 L 63.98125 140.028125 L 67.034375 142.834375 L 67.328125 143.1 " transform="matrix(1.25,0,0,1.25,0,0.000000000000014211)"/>
</g>
<g clip-path="url(#clip6)" clip-rule="nonzero">
<path style="fill:none;stroke-width:1.5;stroke-linecap:butt;stroke-linejoin:round;stroke:rgb(12.156863%,46.666667%,70.588235%);stroke-opacity:1;stroke-miterlimit:4;" d="M 42.61875 142.3625 L 43.31875 143.1 " transform="matrix(1.25,0,0,1.25,0,0.000000000000014211)"/>
</g>
<path style="fill:none;stroke-width:1.5;stroke-linecap:square;stroke-linejoin:round;stroke:rgb(100%,49.803922%,5.490196%);stroke-opacity:1;stroke-miterlimit:4;" d="M 57.878125 108.253125 L 89.184375 83.2875 L 111.534375 66.4375 L 127.85625 57.86875 L 145.53125 54.240625 L 163.33125 48.2 L 169.80625 50.321875 L 182.309375 38.86875 L 188.521875 38.9125 L 191.01875 35.95625 L 191.95625 39.590625 L 192.6625 38.271875 L 192.934375 34.36875 L 195.49375 38.515625 L 192.05625 39.65 L 192.440625 35.6125 L 192.125 37.446875 L 196.234375 35.90625 L 192.41875 34.046875 L 193.8 41.484375 L 197.1 35.63125 L 202.834375 33.978125 L 204.740625 32.575 L 201.140625 32.84375 L 204.68125 41.80625 L 208.79375 40.203125 L 207.303125 38.0625 L 206.328125 38.996875 L 213.06875 36.75625 L 211.296875 33.98125 L 208.734375 31.934375 L 210.021875 32.24375 L 214.80625 39.1875 L 210.80625 34.721875 L 212.215625 35.696875 L 204.809375 38.690625 L 206.990625 37.884375 L 209.484375 34.178125 L 211.190625 33.978125 L 211.3 38.6 L 211.453125 38.9625 L 210.69375 35.240625 L 208.75625 30.43125 L 212.815625 28.8625 L 209.940625 32.103125 L 208.015625 30.025 L 210.225 29.678125 L 209.4375 35.74375 L 208.228125 40.4 L 209.35625 42.940625 L 211.14375 40.653125 " transform="matrix(1.25,0,0,1.25,0,0.000000000000014211)"/>
<path style="fill-rule:nonzero;fill:rgb(100%,49.803922%,5.490196%);fill-opacity:1;stroke-width:1;stroke-linecap:butt;stroke-linejoin:round;stroke:rgb(100%,49.803922%,5.490196%);stroke-opacity:1;stroke-miterlimit:4;" d="M 0.000000000000014211 2.999279 C 0.796875 2.999279 1.559375 2.683654 2.121875 2.121154 C 2.684375 1.558654 3 0.796154 3 -0.000721 C 3 -0.794471 2.684375 -1.560096 2.121875 -2.122596 C 1.559375 -2.685096 0.796875 -3.000721 0.000000000000014211 -3.000721 C -0.796875 -3.000721 -1.559375 -2.685096 -2.121875 -2.122596 C -2.684375 -1.560096 -3 -0.794471 -3 -0.000721 C -3 0.796154 -2.684375 1.558654 -2.121875 2.121154 C -1.559375 2.683654 -0.796875 2.999279 0.000000000000014211 2.999279 Z M 0.000000000000014211 2.999279 " transform="matrix(1.25,0,0,1.25,72.347656,135.317307)"/>
<path style="fill-rule:nonzero;fill:rgb(100%,49.803922%,5.490196%);fill-opacity:1;stroke-width:1;stroke-linecap:butt;stroke-linejoin:round;stroke:rgb(100%,49.803922%,5.490196%);stroke-opacity:1;stroke-miterlimit:4;" d="M -0.000934 3.001274 C 0.795941 3.001274 1.558441 2.682524 2.120941 2.120024 C 2.683441 1.557524 2.999066 0.795024 2.999066 0.001274 C 2.999066 -0.795601 2.683441 -1.558101 2.120941 -2.120601 C 1.558441 -2.683101 0.795941 -2.998726 -0.000934 -2.998726 C -0.794684 -2.998726 -1.557184 -2.683101 -2.122809 -2.120601 C -2.685309 -1.558101 -3.000934 -0.795601 -3.000934 0.001274 C -3.000934 0.795024 -2.685309 1.557524 -2.122809 2.120024 C -1.557184 2.682524 -0.794684 3.001274 -0.000934 3.001274 Z M -0.000934 3.001274 " transform="matrix(1.25,0,0,1.25,111.481636,104.107782)"/>
<path style="fill-rule:nonzero;fill:rgb(100%,49.803922%,5.490196%);fill-opacity:1;stroke-width:1;stroke-linecap:butt;stroke-linejoin:round;stroke:rgb(100%,49.803922%,5.490196%);stroke-opacity:1;stroke-miterlimit:4;" d="M 0.001228 3.000771 C 0.794978 3.000771 1.557478 2.685146 2.119978 2.122646 C 2.682478 1.560146 3.001228 0.794521 3.001228 0.000771 C 3.001228 -0.796104 2.682478 -1.558604 2.119978 -2.121104 C 1.557478 -2.683604 0.794978 -2.999229 0.001228 -2.999229 C -0.795647 -2.999229 -1.558147 -2.683604 -2.120647 -2.121104 C -2.683147 -1.558604 -2.998772 -0.796104 -2.998772 0.000771 C -2.998772 0.794521 -2.683147 1.560146 -2.120647 2.122646 C -1.558147 2.685146 -0.795647 3.000771 0.001228 3.000771 Z M 0.001228 3.000771 " transform="matrix(1.25,0,0,1.25,139.416434,83.045911)"/>
<path style="fill-rule:nonzero;fill:rgb(100%,49.803922%,5.490196%);fill-opacity:1;stroke-width:1;stroke-linecap:butt;stroke-linejoin:round;stroke:rgb(100%,49.803922%,5.490196%);stroke-opacity:1;stroke-miterlimit:4;" d="M -0.000634 3.000369 C 0.796241 3.000369 1.558741 2.684744 2.121241 2.122244 C 2.683741 1.559744 2.999366 0.794119 2.999366 0.000369 C 2.999366 -0.796506 2.683741 -1.559006 2.121241 -2.121506 C 1.558741 -2.684006 0.796241 -2.999631 -0.000634 -2.999631 C -0.794384 -2.999631 -1.560009 -2.684006 -2.122509 -2.121506 C -2.685009 -1.559006 -3.000634 -0.796506 -3.000634 0.000369 C -3.000634 0.794119 -2.685009 1.559744 -2.122509 2.122244 C -1.560009 2.684744 -0.794384 3.000369 -0.000634 3.000369 Z M -0.000634 3.000369 " transform="matrix(1.25,0,0,1.25,159.821105,72.335476)"/>
<path style="fill-rule:nonzero;fill:rgb(100%,49.803922%,5.490196%);fill-opacity:1;stroke-width:1;stroke-linecap:butt;stroke-linejoin:round;stroke:rgb(100%,49.803922%,5.490196%);stroke-opacity:1;stroke-miterlimit:4;" d="M -0.000817 3.000669 C 0.796058 3.000669 1.558558 2.685044 2.121058 2.122544 C 2.683558 1.560044 2.999183 0.794419 2.999183 0.000669 C 2.999183 -0.796206 2.683558 -1.558706 2.121058 -2.121206 C 1.558558 -2.683706 0.796058 -2.999331 -0.000817 -2.999331 C -0.794567 -2.999331 -1.560192 -2.683706 -2.122692 -2.121206 C -2.685192 -1.558706 -3.000817 -0.796206 -3.000817 0.000669 C -3.000817 0.794419 -2.685192 1.560044 -2.122692 2.122544 C -1.560192 2.685044 -0.794567 3.000669 -0.000817 3.000669 Z M -0.000817 3.000669 " transform="matrix(1.25,0,0,1.25,181.915084,67.799945)"/>
<path style="fill-rule:nonzero;fill:rgb(100%,49.803922%,5.490196%);fill-opacity:1;stroke-width:1;stroke-linecap:butt;stroke-linejoin:round;stroke:rgb(100%,49.803922%,5.490196%);stroke-opacity:1;stroke-miterlimit:4;" d="M 0.001155 2.999276 C 0.794905 2.999276 1.557405 2.683651 2.119905 2.121151 C 2.682405 1.558651 3.001155 0.796151 3.001155 -0.000724 C 3.001155 -0.794474 2.682405 -1.560099 2.119905 -2.122599 C 1.557405 -2.685099 0.794905 -3.000724 0.001155 -3.000724 C -0.79572 -3.000724 -1.55822 -2.685099 -2.12072 -2.122599 C -2.68322 -1.560099 -2.998845 -0.794474 -2.998845 -0.000724 C -2.998845 0.796151 -2.68322 1.558651 -2.12072 2.121151 C -1.55822 2.683651 -0.79572 2.999276 0.001155 2.999276 Z M 0.001155 2.999276 " transform="matrix(1.25,0,0,1.25,204.162619,60.250905)"/>
<path style="fill-rule:nonzero;fill:rgb(100%,49.803922%,5.490196%);fill-opacity:1;stroke-width:1;stroke-linecap:butt;stroke-linejoin:round;stroke:rgb(100%,49.803922%,5.490196%);stroke-opacity:1;stroke-miterlimit:4;" d="M -0.000379 3.001323 C 0.796496 3.001323 1.558996 2.682573 2.121496 2.120073 C 2.683996 1.557573 2.999621 0.795073 2.999621 0.001323 C 2.999621 -0.795552 2.683996 -1.558052 2.121496 -2.120552 C 1.558996 -2.683052 0.796496 -2.998677 -0.000379 -2.998677 C -0.794129 -2.998677 -1.559754 -2.683052 -2.122254 -2.120552 C -2.684754 -1.558052 -3.000379 -0.795552 -3.000379 0.001323 C -3.000379 0.795073 -2.684754 1.557573 -2.122254 2.120073 C -1.559754 2.682573 -0.794129 3.001323 -0.000379 3.001323 Z M -0.000379 3.001323 " transform="matrix(1.25,0,0,1.25,212.258286,62.90069)"/>
<path style="fill-rule:nonzero;fill:rgb(100%,49.803922%,5.490196%);fill-opacity:1;stroke-width:1;stroke-linecap:butt;stroke-linejoin:round;stroke:rgb(100%,49.803922%,5.490196%);stroke-opacity:1;stroke-miterlimit:4;" d="M -0.000365 3.001114 C 0.79651 3.001114 1.55901 2.682364 2.12151 2.119864 C 2.68401 1.557364 2.999635 0.794864 2.999635 0.001114 C 2.999635 -0.795761 2.68401 -1.558261 2.12151 -2.120761 C 1.55901 -2.683261 0.79651 -2.998886 -0.000365 -2.998886 C -0.794115 -2.998886 -1.55974 -2.683261 -2.12224 -2.120761 C -2.68474 -1.558261 -3.000365 -0.795761 -3.000365 0.001114 C -3.000365 0.794864 -2.68474 1.557364 -2.12224 2.119864 C -1.55974 2.682364 -0.794115 3.001114 -0.000365 3.001114 Z M -0.000365 3.001114 " transform="matrix(1.25,0,0,1.25,227.887175,48.584545)"/>
<path style="fill-rule:nonzero;fill:rgb(100%,49.803922%,5.490196%);fill-opacity:1;stroke-width:1;stroke-linecap:butt;stroke-linejoin:round;stroke:rgb(100%,49.803922%,5.490196%);stroke-opacity:1;stroke-miterlimit:4;" d="M -0.00153 3.000805 C 0.795345 3.000805 1.557845 2.68518 2.120345 2.12268 C 2.682845 1.56018 2.99847 0.794555 2.99847 0.000805 C 2.99847 -0.79607 2.682845 -1.55857 2.120345 -2.12107 C 1.557845 -2.68357 0.795345 -2.999195 -0.00153 -2.999195 C -0.79528 -2.999195 -1.55778 -2.68357 -2.12028 -2.12107 C -2.68278 -1.55857 -3.00153 -0.79607 -3.00153 0.000805 C -3.00153 0.794555 -2.68278 1.56018 -2.12028 2.12268 C -1.55778 2.68518 -0.79528 3.000805 -0.00153 3.000805 Z M -0.00153 3.000805 " transform="matrix(1.25,0,0,1.25,235.654256,48.639619)"/>
<path style="fill-rule:nonzero;fill:rgb(100%,49.803922%,5.490196%);fill-opacity:1;stroke-width:1;stroke-linecap:butt;stroke-linejoin:round;stroke:rgb(100%,49.803922%,5.490196%);stroke-opacity:1;stroke-miterlimit:4;" d="M -0.000624 3.001125 C 0.796251 3.001125 1.558751 2.682375 2.121251 2.119875 C 2.683751 1.557375 2.999376 0.794875 2.999376 0.001125 C 2.999376 -0.79575 2.683751 -1.55825 2.121251 -2.12075 C 1.558751 -2.68325 0.796251 -2.998875 -0.000624 -2.998875 C -0.794374 -2.998875 -1.559999 -2.68325 -2.122499 -2.12075 C -2.684999 -1.55825 -3.000624 -0.79575 -3.000624 0.001125 C -3.000624 0.794875 -2.684999 1.557375 -2.122499 2.119875 C -1.559999 2.682375 -0.794374 3.001125 -0.000624 3.001125 Z M -0.000624 3.001125 " transform="matrix(1.25,0,0,1.25,238.774217,44.943906)"/>
<path style="fill-rule:nonzero;fill:rgb(100%,49.803922%,5.490196%);fill-opacity:1;stroke-width:1;stroke-linecap:butt;stroke-linejoin:round;stroke:rgb(100%,49.803922%,5.490196%);stroke-opacity:1;stroke-miterlimit:4;" d="M -0.001215 2.999765 C 0.79566 2.999765 1.55816 2.68414 2.12066 2.12164 C 2.68316 1.55914 2.998785 0.79664 2.998785 -0.000235 C 2.998785 -0.79711 2.68316 -1.55961 2.12066 -2.12211 C 1.55816 -2.68461 0.79566 -3.000235 -0.001215 -3.000235 C -0.794965 -3.000235 -1.557465 -2.68461 -2.119965 -2.12211 C -2.682465 -1.55961 -3.001215 -0.79711 -3.001215 -0.000235 C -3.001215 0.79664 -2.682465 1.55914 -2.119965 2.12164 C -1.557465 2.68414 -0.794965 2.999765 -0.001215 2.999765 Z M -0.001215 2.999765 " transform="matrix(1.25,0,0,1.25,239.946831,49.488575)"/>
<path style="fill-rule:nonzero;fill:rgb(100%,49.803922%,5.490196%);fill-opacity:1;stroke-width:1;stroke-linecap:butt;stroke-linejoin:round;stroke:rgb(100%,49.803922%,5.490196%);stroke-opacity:1;stroke-miterlimit:4;" d="M -0.001138 2.999873 C 0.795737 2.999873 1.558237 2.684248 2.120737 2.121748 C 2.683237 1.559248 2.998862 0.796748 2.998862 -0.000127 C 2.998862 -0.797002 2.683237 -1.559502 2.120737 -2.122002 C 1.558237 -2.684502 0.795737 -3.000127 -0.001138 -3.000127 C -0.794888 -3.000127 -1.557388 -2.684502 -2.119888 -2.122002 C -2.682388 -1.559502 -3.001138 -0.797002 -3.001138 -0.000127 C -3.001138 0.796748 -2.682388 1.559248 -2.119888 2.121748 C -1.557388 2.684248 -0.794888 2.999873 -0.001138 2.999873 Z M -0.001138 2.999873 " transform="matrix(1.25,0,0,1.25,240.829547,47.840003)"/>
<path style="fill-rule:nonzero;fill:rgb(100%,49.803922%,5.490196%);fill-opacity:1;stroke-width:1;stroke-linecap:butt;stroke-linejoin:round;stroke:rgb(100%,49.803922%,5.490196%);stroke-opacity:1;stroke-miterlimit:4;" d="M 0.000523 2.998603 C 0.794273 2.998603 1.559898 2.682978 2.122398 2.120478 C 2.684898 1.557978 3.000523 0.795478 3.000523 -0.001397 C 3.000523 -0.795147 2.684898 -1.557647 2.122398 -2.120147 C 1.559898 -2.682647 0.794273 -3.001397 0.000523 -3.001397 C -0.796352 -3.001397 -1.558852 -2.682647 -2.121352 -2.120147 C -2.683852 -1.557647 -2.999477 -0.795147 -2.999477 -0.001397 C -2.999477 0.795478 -2.683852 1.557978 -2.121352 2.120478 C -1.558852 2.682978 -0.796352 2.998603 0.000523 2.998603 Z M 0.000523 2.998603 " transform="matrix(1.25,0,0,1.25,241.167315,42.962684)"/>
<path style="fill-rule:nonzero;fill:rgb(100%,49.803922%,5.490196%);fill-opacity:1;stroke-width:1;stroke-linecap:butt;stroke-linejoin:round;stroke:rgb(100%,49.803922%,5.490196%);stroke-opacity:1;stroke-miterlimit:4;" d="M 0.001069 3.000178 C 0.794819 3.000178 1.557319 2.684553 2.119819 2.122053 C 2.685444 1.559553 3.001069 0.797053 3.001069 0.000178 C 3.001069 -0.796697 2.685444 -1.559197 2.119819 -2.121697 C 1.557319 -2.684197 0.794819 -2.999822 0.001069 -2.999822 C -0.795806 -2.999822 -1.558306 -2.684197 -2.120806 -2.121697 C -2.683306 -1.559197 -2.998931 -0.796697 -2.998931 0.000178 C -2.998931 0.797053 -2.683306 1.559553 -2.120806 2.122053 C -1.558306 2.684553 -0.795806 3.000178 0.001069 3.000178 Z M 0.001069 3.000178 " transform="matrix(1.25,0,0,1.25,244.365851,48.144309)"/>
<path style="fill-rule:nonzero;fill:rgb(100%,49.803922%,5.490196%);fill-opacity:1;stroke-width:1;stroke-linecap:butt;stroke-linejoin:round;stroke:rgb(100%,49.803922%,5.490196%);stroke-opacity:1;stroke-miterlimit:4;" d="M 0.001006 3.000654 C 0.794756 3.000654 1.557256 2.685029 2.122881 2.122529 C 2.685381 1.560029 3.001006 0.794404 3.001006 0.000654 C 3.001006 -0.796221 2.685381 -1.558721 2.122881 -2.121221 C 1.557256 -2.683721 0.794756 -2.999346 0.001006 -2.999346 C -0.795869 -2.999346 -1.558369 -2.683721 -2.120869 -2.121221 C -2.683369 -1.558721 -2.998994 -0.796221 -2.998994 0.000654 C -2.998994 0.794404 -2.683369 1.560029 -2.120869 2.122529 C -1.558369 2.685029 -0.795869 3.000654 0.001006 3.000654 Z M 0.001006 3.000654 " transform="matrix(1.25,0,0,1.25,240.069055,49.561683)"/>
<path style="fill-rule:nonzero;fill:rgb(100%,49.803922%,5.490196%);fill-opacity:1;stroke-width:1;stroke-linecap:butt;stroke-linejoin:round;stroke:rgb(100%,49.803922%,5.490196%);stroke-opacity:1;stroke-miterlimit:4;" d="M 0.000466 2.999287 C 0.794216 2.999287 1.559841 2.683662 2.122341 2.121162 C 2.684841 1.558662 3.000466 0.796162 3.000466 -0.000713 C 3.000466 -0.794463 2.684841 -1.560088 2.122341 -2.122588 C 1.559841 -2.685088 0.794216 -3.000713 0.000466 -3.000713 C -0.796409 -3.000713 -1.558909 -2.685088 -2.121409 -2.122588 C -2.683909 -1.560088 -2.999534 -0.794463 -2.999534 -0.000713 C -2.999534 0.796162 -2.683909 1.558662 -2.121409 2.121162 C -1.558909 2.683662 -0.796409 2.999287 0.000466 2.999287 Z M 0.000466 2.999287 " transform="matrix(1.25,0,0,1.25,240.550199,44.516516)"/>
<path style="fill-rule:nonzero;fill:rgb(100%,49.803922%,5.490196%);fill-opacity:1;stroke-width:1;stroke-linecap:butt;stroke-linejoin:round;stroke:rgb(100%,49.803922%,5.490196%);stroke-opacity:1;stroke-miterlimit:4;" d="M -0.000878 3.000807 C 0.795997 3.000807 1.558497 2.685182 2.120997 2.122682 C 2.683497 1.560182 2.999122 0.794557 2.999122 0.000807 C 2.999122 -0.796068 2.683497 -1.558568 2.120997 -2.121068 C 1.558497 -2.683568 0.795997 -2.999193 -0.000878 -2.999193 C -0.794628 -2.999193 -1.560253 -2.683568 -2.122753 -2.121068 C -2.685253 -1.558568 -3.000878 -0.796068 -3.000878 0.000807 C -3.000878 0.794557 -2.685253 1.560182 -2.122753 2.122682 C -1.560253 2.685182 -0.794628 3.000807 -0.000878 3.000807 Z M -0.000878 3.000807 " transform="matrix(1.25,0,0,1.25,240.157347,46.807585)"/>
<path style="fill-rule:nonzero;fill:rgb(100%,49.803922%,5.490196%);fill-opacity:1;stroke-width:1;stroke-linecap:butt;stroke-linejoin:round;stroke:rgb(100%,49.803922%,5.490196%);stroke-opacity:1;stroke-miterlimit:4;" d="M -0.000444 2.998684 C 0.796431 2.998684 1.558931 2.683059 2.121431 2.120559 C 2.683931 1.558059 2.999556 0.795559 2.999556 -0.001316 C 2.999556 -0.795066 2.683931 -1.557566 2.121431 -2.120066 C 1.558931 -2.682566 0.796431 -3.001316 -0.000444 -3.001316 C -0.794194 -3.001316 -1.559819 -2.682566 -2.122319 -2.120066 C -2.684819 -1.557566 -3.000444 -0.795066 -3.000444 -0.001316 C -3.000444 0.795559 -2.684819 1.558059 -2.122319 2.120559 C -1.559819 2.683059 -0.794194 2.998684 -0.000444 2.998684 Z M -0.000444 2.998684 " transform="matrix(1.25,0,0,1.25,245.293524,44.884458)"/>
<path style="fill-rule:nonzero;fill:rgb(100%,49.803922%,5.490196%);fill-opacity:1;stroke-width:1;stroke-linecap:butt;stroke-linejoin:round;stroke:rgb(100%,49.803922%,5.490196%);stroke-opacity:1;stroke-miterlimit:4;" d="M 0.000758 2.999155 C 0.794508 2.999155 1.560133 2.68353 2.122633 2.12103 C 2.685133 1.55853 3.000758 0.79603 3.000758 -0.000845 C 3.000758 -0.794595 2.685133 -1.56022 2.122633 -2.12272 C 1.560133 -2.68522 0.794508 -3.000845 0.000758 -3.000845 C -0.796117 -3.000845 -1.558617 -2.68522 -2.121117 -2.12272 C -2.683617 -1.56022 -2.999242 -0.794595 -2.999242 -0.000845 C -2.999242 0.79603 -2.683617 1.55853 -2.121117 2.12103 C -1.558617 2.68353 -0.796117 2.999155 0.000758 2.999155 Z M 0.000758 2.999155 " transform="matrix(1.25,0,0,1.25,240.52249,42.55965)"/>
<path style="fill-rule:nonzero;fill:rgb(100%,49.803922%,5.490196%);fill-opacity:1;stroke-width:1;stroke-linecap:butt;stroke-linejoin:round;stroke:rgb(100%,49.803922%,5.490196%);stroke-opacity:1;stroke-miterlimit:4;" d="M -0.00136 3.000871 C 0.795515 3.000871 1.558015 2.685246 2.120515 2.122746 C 2.683015 1.560246 2.99864 0.794621 2.99864 0.000871 C 2.99864 -0.796004 2.683015 -1.558504 2.120515 -2.121004 C 1.558015 -2.683504 0.795515 -2.999129 -0.00136 -2.999129 C -0.79511 -2.999129 -1.55761 -2.683504 -2.12011 -2.121004 C -2.68261 -1.558504 -3.00136 -0.796004 -3.00136 0.000871 C -3.00136 0.794621 -2.68261 1.560246 -2.12011 2.122746 C -1.55761 2.685246 -0.79511 3.000871 -0.00136 3.000871 Z M -0.00136 3.000871 " transform="matrix(1.25,0,0,1.25,242.2517,51.85438)"/>
<path style="fill-rule:nonzero;fill:rgb(100%,49.803922%,5.490196%);fill-opacity:1;stroke-width:1;stroke-linecap:butt;stroke-linejoin:round;stroke:rgb(100%,49.803922%,5.490196%);stroke-opacity:1;stroke-miterlimit:4;" d="M 0.000153 3.000205 C 0.797028 3.000205 1.559528 2.68458 2.122028 2.12208 C 2.684528 1.55958 3.000153 0.79708 3.000153 0.000205 C 3.000153 -0.79667 2.684528 -1.55917 2.122028 -2.12167 C 1.559528 -2.68417 0.797028 -2.999795 0.000153 -2.999795 C -0.796722 -2.999795 -1.559222 -2.68417 -2.121722 -2.12167 C -2.684222 -1.55917 -2.999847 -0.79667 -2.999847 0.000205 C -2.999847 0.79708 -2.684222 1.55958 -2.121722 2.12208 C -1.559222 2.68458 -0.796722 3.000205 0.000153 3.000205 Z M 0.000153 3.000205 " transform="matrix(1.25,0,0,1.25,246.374809,44.538806)"/>
<path style="fill-rule:nonzero;fill:rgb(100%,49.803922%,5.490196%);fill-opacity:1;stroke-width:1;stroke-linecap:butt;stroke-linejoin:round;stroke:rgb(100%,49.803922%,5.490196%);stroke-opacity:1;stroke-miterlimit:4;" d="M -0.000277 3.001367 C 0.796598 3.001367 1.559098 2.682617 2.121598 2.120117 C 2.684098 1.557617 2.999723 0.795117 2.999723 0.001367 C 2.999723 -0.795508 2.684098 -1.558008 2.121598 -2.120508 C 1.559098 -2.683008 0.796598 -2.998633 -0.000277 -2.998633 C -0.797152 -2.998633 -1.559652 -2.683008 -2.122152 -2.120508 C -2.684652 -1.558008 -3.000277 -0.795508 -3.000277 0.001367 C -3.000277 0.795117 -2.684652 1.557617 -2.122152 2.120117 C -1.559652 2.682617 -0.797152 3.001367 -0.000277 3.001367 Z M -0.000277 3.001367 " transform="matrix(1.25,0,0,1.25,253.543315,42.470948)"/>
<path style="fill-rule:nonzero;fill:rgb(100%,49.803922%,5.490196%);fill-opacity:1;stroke-width:1;stroke-linecap:butt;stroke-linejoin:round;stroke:rgb(100%,49.803922%,5.490196%);stroke-opacity:1;stroke-miterlimit:4;" d="M 0.000289 2.99915 C 0.797164 2.99915 1.559664 2.683525 2.122164 2.121025 C 2.684664 1.558525 3.000289 0.796025 3.000289 -0.00085 C 3.000289 -0.7946 2.684664 -1.560225 2.122164 -2.122725 C 1.559664 -2.685225 0.797164 -3.00085 0.000289 -3.00085 C -0.796586 -3.00085 -1.559086 -2.685225 -2.121586 -2.122725 C -2.684086 -1.560225 -2.999711 -0.7946 -2.999711 -0.00085 C -2.999711 0.796025 -2.684086 1.558525 -2.121586 2.121025 C -1.559086 2.683525 -0.796586 2.99915 0.000289 2.99915 Z M 0.000289 2.99915 " transform="matrix(1.25,0,0,1.25,255.92542,40.719813)"/>
<path style="fill-rule:nonzero;fill:rgb(100%,49.803922%,5.490196%);fill-opacity:1;stroke-width:1;stroke-linecap:butt;stroke-linejoin:round;stroke:rgb(100%,49.803922%,5.490196%);stroke-opacity:1;stroke-miterlimit:4;" d="M -0.001465 2.999139 C 0.79541 2.999139 1.55791 2.683514 2.12041 2.121014 C 2.68291 1.558514 2.998535 0.796014 2.998535 -0.000861 C 2.998535 -0.794611 2.68291 -1.560236 2.12041 -2.122736 C 1.55791 -2.685236 0.79541 -3.000861 -0.001465 -3.000861 C -0.795215 -3.000861 -1.557715 -2.685236 -2.120215 -2.122736 C -2.682715 -1.560236 -3.001465 -0.794611 -3.001465 -0.000861 C -3.001465 0.796014 -2.682715 1.558514 -2.120215 2.121014 C -1.557715 2.683514 -0.795215 2.999139 -0.001465 2.999139 Z M -0.001465 2.999139 " transform="matrix(1.25,0,0,1.25,251.427612,41.055764)"/>
<path style="fill-rule:nonzero;fill:rgb(100%,49.803922%,5.490196%);fill-opacity:1;stroke-width:1;stroke-linecap:butt;stroke-linejoin:round;stroke:rgb(100%,49.803922%,5.490196%);stroke-opacity:1;stroke-miterlimit:4;" d="M 0.001259 3.000618 C 0.795009 3.000618 1.557509 2.684993 2.120009 2.122493 C 2.682509 1.559993 3.001259 0.794368 3.001259 0.000618 C 3.001259 -0.796257 2.682509 -1.558757 2.120009 -2.121257 C 1.557509 -2.683757 0.795009 -2.999382 0.001259 -2.999382 C -0.795616 -2.999382 -1.558116 -2.683757 -2.120616 -2.121257 C -2.683116 -1.558757 -2.998741 -0.796257 -2.998741 0.000618 C -2.998741 0.794368 -2.683116 1.559993 -2.120616 2.122493 C -1.558116 2.684993 -0.795616 3.000618 0.001259 3.000618 Z M 0.001259 3.000618 " transform="matrix(1.25,0,0,1.25,255.849989,52.25704)"/>
<path style="fill-rule:nonzero;fill:rgb(100%,49.803922%,5.490196%);fill-opacity:1;stroke-width:1;stroke-linecap:butt;stroke-linejoin:round;stroke:rgb(100%,49.803922%,5.490196%);stroke-opacity:1;stroke-miterlimit:4;" d="M 0.00124 2.998975 C 0.79499 2.998975 1.55749 2.68335 2.11999 2.12085 C 2.68249 1.55835 3.00124 0.79585 3.00124 -0.001025 C 3.00124 -0.794775 2.68249 -1.557275 2.11999 -2.119775 C 1.55749 -2.6854 0.79499 -3.001025 0.00124 -3.001025 C -0.795635 -3.001025 -1.558135 -2.6854 -2.120635 -2.119775 C -2.683135 -1.557275 -2.99876 -0.794775 -2.99876 -0.001025 C -2.99876 0.79585 -2.683135 1.55835 -2.120635 2.12085 C -1.558135 2.68335 -0.795635 2.998975 0.00124 2.998975 Z M 0.00124 2.998975 " transform="matrix(1.25,0,0,1.25,260.990637,50.255188)"/>
<path style="fill-rule:nonzero;fill:rgb(100%,49.803922%,5.490196%);fill-opacity:1;stroke-width:1;stroke-linecap:butt;stroke-linejoin:round;stroke:rgb(100%,49.803922%,5.490196%);stroke-opacity:1;stroke-miterlimit:4;" d="M -0.000631 3.00104 C 0.796244 3.00104 1.558744 2.685415 2.121244 2.11979 C 2.683744 1.55729 2.999369 0.79479 2.999369 0.00104 C 2.999369 -0.795835 2.683744 -1.558335 2.121244 -2.120835 C 1.558744 -2.683335 0.796244 -2.99896 -0.000631 -2.99896 C -0.794381 -2.99896 -1.560006 -2.683335 -2.122506 -2.120835 C -2.685006 -1.558335 -3.000631 -0.795835 -3.000631 0.00104 C -3.000631 0.79479 -2.685006 1.55729 -2.122506 2.11979 C -1.560006 2.685415 -0.794381 3.00104 -0.000631 3.00104 Z M -0.000631 3.00104 " transform="matrix(1.25,0,0,1.25,259.129695,47.576825)"/>
<path style="fill-rule:nonzero;fill:rgb(100%,49.803922%,5.490196%);fill-opacity:1;stroke-width:1;stroke-linecap:butt;stroke-linejoin:round;stroke:rgb(100%,49.803922%,5.490196%);stroke-opacity:1;stroke-miterlimit:4;" d="M 0.000985 2.998464 C 0.794735 2.998464 1.557235 2.682839 2.12286 2.120339 C 2.68536 1.557839 3.000985 0.795339 3.000985 -0.001536 C 3.000985 -0.795286 2.68536 -1.557786 2.12286 -2.120286 C 1.557235 -2.682786 0.794735 -3.001536 0.000985 -3.001536 C -0.79589 -3.001536 -1.55839 -2.682786 -2.12089 -2.120286 C -2.68339 -1.557786 -2.999015 -0.795286 -2.999015 -0.001536 C -2.999015 0.795339 -2.68339 1.557839 -2.12089 2.120339 C -1.55839 2.682839 -0.79589 2.998464 0.000985 2.998464 Z M 0.000985 2.998464 " transform="matrix(1.25,0,0,1.25,257.908925,48.748014)"/>
<path style="fill-rule:nonzero;fill:rgb(100%,49.803922%,5.490196%);fill-opacity:1;stroke-width:1;stroke-linecap:butt;stroke-linejoin:round;stroke:rgb(100%,49.803922%,5.490196%);stroke-opacity:1;stroke-miterlimit:4;" d="M -0.001395 3.000059 C 0.79548 3.000059 1.55798 2.684434 2.12048 2.121934 C 2.68298 1.559434 2.998605 0.796934 2.998605 0.000059 C 2.998605 -0.796816 2.68298 -1.559316 2.12048 -2.121816 C 1.55798 -2.684316 0.79548 -2.999941 -0.001395 -2.999941 C -0.795145 -2.999941 -1.557645 -2.684316 -2.120145 -2.121816 C -2.682645 -1.559316 -3.001395 -0.796816 -3.001395 0.000059 C -3.001395 0.796934 -2.682645 1.559434 -2.120145 2.121934 C -1.557645 2.684434 -0.795145 3.000059 -0.001395 3.000059 Z M -0.001395 3.000059 " transform="matrix(1.25,0,0,1.25,266.337681,45.945239)"/>
<path style="fill-rule:nonzero;fill:rgb(100%,49.803922%,5.490196%);fill-opacity:1;stroke-width:1;stroke-linecap:butt;stroke-linejoin:round;stroke:rgb(100%,49.803922%,5.490196%);stroke-opacity:1;stroke-miterlimit:4;" d="M -0.001218 3.001323 C 0.795657 3.001323 1.558157 2.682573 2.120657 2.120073 C 2.683157 1.557573 2.998782 0.795073 2.998782 0.001323 C 2.998782 -0.795552 2.683157 -1.558052 2.120657 -2.120552 C 1.558157 -2.683052 0.795657 -2.998677 -0.001218 -2.998677 C -0.794968 -2.998677 -1.557468 -2.683052 -2.119968 -2.120552 C -2.682468 -1.558052 -3.001218 -0.795552 -3.001218 0.001323 C -3.001218 0.795073 -2.682468 1.557573 -2.119968 2.120073 C -1.557468 2.682573 -0.794968 3.001323 -0.001218 3.001323 Z M -0.001218 3.001323 " transform="matrix(1.25,0,0,1.25,264.122616,42.474909)"/>
<path style="fill-rule:nonzero;fill:rgb(100%,49.803922%,5.490196%);fill-opacity:1;stroke-width:1;stroke-linecap:butt;stroke-linejoin:round;stroke:rgb(100%,49.803922%,5.490196%);stroke-opacity:1;stroke-miterlimit:4;" d="M -0.000918 3.000643 C 0.795957 3.000643 1.558457 2.685018 2.120957 2.122518 C 2.683457 1.560018 2.999082 0.794393 2.999082 0.000643 C 2.999082 -0.796232 2.683457 -1.558732 2.120957 -2.121232 C 1.558457 -2.683732 0.795957 -2.999357 -0.000918 -2.999357 C -0.794668 -2.999357 -1.560293 -2.683732 -2.122793 -2.121232 C -2.685293 -1.558732 -3.000918 -0.796232 -3.000918 0.000643 C -3.000918 0.794393 -2.685293 1.560018 -2.122793 2.122518 C -1.560293 2.685018 -0.794668 3.000643 -0.000918 3.000643 Z M -0.000918 3.000643 " transform="matrix(1.25,0,0,1.25,260.919116,39.917165)"/>
<path style="fill-rule:nonzero;fill:rgb(100%,49.803922%,5.490196%);fill-opacity:1;stroke-width:1;stroke-linecap:butt;stroke-linejoin:round;stroke:rgb(100%,49.803922%,5.490196%);stroke-opacity:1;stroke-miterlimit:4;" d="M -0.000564 3.000325 C 0.796311 3.000325 1.558811 2.6847 2.121311 2.1222 C 2.683811 1.5597 2.999436 0.794075 2.999436 0.000325 C 2.999436 -0.79655 2.683811 -1.55905 2.121311 -2.12155 C 1.558811 -2.68405 0.796311 -2.999675 -0.000564 -2.999675 C -0.794314 -2.999675 -1.559939 -2.68405 -2.122439 -2.12155 C -2.684939 -1.55905 -3.000564 -0.79655 -3.000564 0.000325 C -3.000564 0.794075 -2.684939 1.5597 -2.122439 2.1222 C -1.559939 2.6847 -0.794314 3.000325 -0.000564 3.000325 Z M -0.000564 3.000325 " transform="matrix(1.25,0,0,1.25,262.528049,40.304281)"/>
<path style="fill-rule:nonzero;fill:rgb(100%,49.803922%,5.490196%);fill-opacity:1;stroke-width:1;stroke-linecap:butt;stroke-linejoin:round;stroke:rgb(100%,49.803922%,5.490196%);stroke-opacity:1;stroke-miterlimit:4;" d="M -0.000554 2.999787 C 0.796321 2.999787 1.558821 2.684162 2.121321 2.121662 C 2.683821 1.559162 2.999446 0.796662 2.999446 -0.000213 C 2.999446 -0.797088 2.683821 -1.559588 2.121321 -2.122088 C 1.558821 -2.684588 0.796321 -3.000213 -0.000554 -3.000213 C -0.794304 -3.000213 -1.559929 -2.684588 -2.122429 -2.122088 C -2.684929 -1.559588 -3.000554 -0.797088 -3.000554 -0.000213 C -3.000554 0.796662 -2.684929 1.559162 -2.122429 2.121662 C -1.559929 2.684162 -0.794304 2.999787 -0.000554 2.999787 Z M -0.000554 2.999787 " transform="matrix(1.25,0,0,1.25,268.508505,48.984641)"/>
<path style="fill-rule:nonzero;fill:rgb(100%,49.803922%,5.490196%);fill-opacity:1;stroke-width:1;stroke-linecap:butt;stroke-linejoin:round;stroke:rgb(100%,49.803922%,5.490196%);stroke-opacity:1;stroke-miterlimit:4;" d="M -0.000929 2.999251 C 0.795946 2.999251 1.558446 2.683626 2.120946 2.121126 C 2.683446 1.558626 2.999071 0.796126 2.999071 -0.000749 C 2.999071 -0.794499 2.683446 -1.560124 2.120946 -2.122624 C 1.558446 -2.685124 0.795946 -3.000749 -0.000929 -3.000749 C -0.794679 -3.000749 -1.557179 -2.685124 -2.122804 -2.122624 C -2.685304 -1.560124 -3.000929 -0.794499 -3.000929 -0.000749 C -3.000929 0.796126 -2.685304 1.558626 -2.122804 2.121126 C -1.557179 2.683626 -0.794679 2.999251 -0.000929 2.999251 Z M -0.000929 2.999251 " transform="matrix(1.25,0,0,1.25,263.508974,43.40328)"/>
<path style="fill-rule:nonzero;fill:rgb(100%,49.803922%,5.490196%);fill-opacity:1;stroke-width:1;stroke-linecap:butt;stroke-linejoin:round;stroke:rgb(100%,49.803922%,5.490196%);stroke-opacity:1;stroke-miterlimit:4;" d="M -0.000483 2.999203 C 0.796392 2.999203 1.558892 2.683578 2.121392 2.121078 C 2.683892 1.558578 2.999517 0.796078 2.999517 -0.000797 C 2.999517 -0.794547 2.683892 -1.560172 2.121392 -2.122672 C 1.558892 -2.685172 0.796392 -3.000797 -0.000483 -3.000797 C -0.794233 -3.000797 -1.559858 -2.685172 -2.122358 -2.122672 C -2.684858 -1.560172 -3.000483 -0.794547 -3.000483 -0.000797 C -3.000483 0.796078 -2.684858 1.558578 -2.122358 2.121078 C -1.559858 2.683578 -0.794233 2.999203 -0.000483 2.999203 Z M -0.000483 2.999203 " transform="matrix(1.25,0,0,1.25,265.270135,44.62209)"/>
<path style="fill-rule:nonzero;fill:rgb(100%,49.803922%,5.490196%);fill-opacity:1;stroke-width:1;stroke-linecap:butt;stroke-linejoin:round;stroke:rgb(100%,49.803922%,5.490196%);stroke-opacity:1;stroke-miterlimit:4;" d="M 0.001073 2.998891 C 0.794823 2.998891 1.557323 2.683266 2.119823 2.120766 C 2.685448 1.558266 3.001073 0.795766 3.001073 -0.001109 C 3.001073 -0.794859 2.685448 -1.557359 2.119823 -2.119859 C 1.557323 -2.682359 0.794823 -3.001109 0.001073 -3.001109 C -0.795802 -3.001109 -1.558302 -2.682359 -2.120802 -2.119859 C -2.683302 -1.557359 -2.998927 -0.794859 -2.998927 -0.001109 C -2.998927 0.795766 -2.683302 1.558266 -2.120802 2.120766 C -1.558302 2.683266 -0.795802 2.998891 0.001073 2.998891 Z M 0.001073 2.998891 " transform="matrix(1.25,0,0,1.25,256.010377,48.364668)"/>
<path style="fill-rule:nonzero;fill:rgb(100%,49.803922%,5.490196%);fill-opacity:1;stroke-width:1;stroke-linecap:butt;stroke-linejoin:round;stroke:rgb(100%,49.803922%,5.490196%);stroke-opacity:1;stroke-miterlimit:4;" d="M -0.001496 3.001117 C 0.795379 3.001117 1.557879 2.682367 2.120379 2.119867 C 2.682879 1.557367 2.998504 0.794867 2.998504 0.001117 C 2.998504 -0.795758 2.682879 -1.558258 2.120379 -2.120758 C 1.557879 -2.683258 0.795379 -2.998883 -0.001496 -2.998883 C -0.795246 -2.998883 -1.557746 -2.683258 -2.120246 -2.120758 C -2.682746 -1.558258 -3.001496 -0.795758 -3.001496 0.001117 C -3.001496 0.794867 -2.682746 1.557367 -2.120246 2.119867 C -1.557746 2.682367 -0.795246 3.001117 -0.001496 3.001117 Z M -0.001496 3.001117 " transform="matrix(1.25,0,0,1.25,258.740151,47.354073)"/>
<path style="fill-rule:nonzero;fill:rgb(100%,49.803922%,5.490196%);fill-opacity:1;stroke-width:1;stroke-linecap:butt;stroke-linejoin:round;stroke:rgb(100%,49.803922%,5.490196%);stroke-opacity:1;stroke-miterlimit:4;" d="M 0.001499 3.001072 C 0.795249 3.001072 1.557749 2.685447 2.120249 2.119822 C 2.682749 1.557322 3.001499 0.794822 3.001499 0.001072 C 3.001499 -0.795803 2.682749 -1.558303 2.120249 -2.120803 C 1.557749 -2.683303 0.795249 -2.998928 0.001499 -2.998928 C -0.795376 -2.998928 -1.557876 -2.683303 -2.120376 -2.120803 C -2.682876 -1.558303 -2.998501 -0.795803 -2.998501 0.001072 C -2.998501 0.794822 -2.682876 1.557322 -2.120376 2.119822 C -1.557876 2.685447 -0.795376 3.001072 0.001499 3.001072 Z M 0.001499 3.001072 " transform="matrix(1.25,0,0,1.25,261.853595,42.721316)"/>
<path style="fill-rule:nonzero;fill:rgb(100%,49.803922%,5.490196%);fill-opacity:1;stroke-width:1;stroke-linecap:butt;stroke-linejoin:round;stroke:rgb(100%,49.803922%,5.490196%);stroke-opacity:1;stroke-miterlimit:4;" d="M 0.000348 2.99885 C 0.794098 2.99885 1.559723 2.683225 2.122223 2.120725 C 2.684723 1.558225 3.000348 0.795725 3.000348 -0.00115 C 3.000348 -0.7949 2.684723 -1.5574 2.122223 -2.1199 C 1.559723 -2.6824 0.794098 -3.00115 0.000348 -3.00115 C -0.796527 -3.00115 -1.559027 -2.6824 -2.121527 -2.1199 C -2.684027 -1.5574 -2.999652 -0.7949 -2.999652 -0.00115 C -2.999652 0.795725 -2.684027 1.558225 -2.121527 2.120725 C -1.559027 2.683225 -0.796527 2.99885 0.000348 2.99885 Z M 0.000348 2.99885 " transform="matrix(1.25,0,0,1.25,263.987846,42.474094)"/>
<path style="fill-rule:nonzero;fill:rgb(100%,49.803922%,5.490196%);fill-opacity:1;stroke-width:1;stroke-linecap:butt;stroke-linejoin:round;stroke:rgb(100%,49.803922%,5.490196%);stroke-opacity:1;stroke-miterlimit:4;" d="M -0.001189 3.000869 C 0.795686 3.000869 1.558186 2.685244 2.120686 2.122744 C 2.683186 1.560244 2.998811 0.794619 2.998811 0.000869 C 2.998811 -0.796006 2.683186 -1.558506 2.120686 -2.121006 C 1.558186 -2.683506 0.795686 -2.999131 -0.001189 -2.999131 C -0.794939 -2.999131 -1.557439 -2.683506 -2.119939 -2.121006 C -2.682439 -1.558506 -3.001189 -0.796006 -3.001189 0.000869 C -3.001189 0.794619 -2.682439 1.560244 -2.119939 2.122744 C -1.557439 2.685244 -0.794939 3.000869 -0.001189 3.000869 Z M -0.001189 3.000869 " transform="matrix(1.25,0,0,1.25,264.126486,48.248914)"/>
<path style="fill-rule:nonzero;fill:rgb(100%,49.803922%,5.490196%);fill-opacity:1;stroke-width:1;stroke-linecap:butt;stroke-linejoin:round;stroke:rgb(100%,49.803922%,5.490196%);stroke-opacity:1;stroke-miterlimit:4;" d="M -0.000488 3.000362 C 0.796387 3.000362 1.558887 2.684737 2.121387 2.122237 C 2.683887 1.559737 2.999512 0.794112 2.999512 0.000362 C 2.999512 -0.796513 2.683887 -1.559013 2.121387 -2.121513 C 1.558887 -2.684013 0.796387 -2.999638 -0.000488 -2.999638 C -0.794238 -2.999638 -1.559863 -2.684013 -2.122363 -2.121513 C -2.684863 -1.559013 -3.000488 -0.796513 -3.000488 0.000362 C -3.000488 0.794112 -2.684863 1.559737 -2.122363 2.122237 C -1.559863 2.684737 -0.794238 3.000362 -0.000488 3.000362 Z M -0.000488 3.000362 " transform="matrix(1.25,0,0,1.25,264.317016,48.702673)"/>
<path style="fill-rule:nonzero;fill:rgb(100%,49.803922%,5.490196%);fill-opacity:1;stroke-width:1;stroke-linecap:butt;stroke-linejoin:round;stroke:rgb(100%,49.803922%,5.490196%);stroke-opacity:1;stroke-miterlimit:4;" d="M -0.001108 2.998707 C 0.795767 2.998707 1.558267 2.683082 2.120767 2.120582 C 2.683267 1.558082 2.998892 0.795582 2.998892 -0.001293 C 2.998892 -0.795043 2.683267 -1.557543 2.120767 -2.120043 C 1.558267 -2.682543 0.795767 -3.001293 -0.001108 -3.001293 C -0.794858 -3.001293 -1.557358 -2.682543 -2.119858 -2.120043 C -2.682358 -1.557543 -3.001108 -0.795043 -3.001108 -0.001293 C -3.001108 0.795582 -2.682358 1.558082 -2.119858 2.120582 C -1.557358 2.683082 -0.794858 2.998707 -0.001108 2.998707 Z M -0.001108 2.998707 " transform="matrix(1.25,0,0,1.25,263.368572,44.052398)"/>
<path style="fill-rule:nonzero;fill:rgb(100%,49.803922%,5.490196%);fill-opacity:1;stroke-width:1;stroke-linecap:butt;stroke-linejoin:round;stroke:rgb(100%,49.803922%,5.490196%);stroke-opacity:1;stroke-miterlimit:4;" d="M -0.000689 2.99999 C 0.796186 2.99999 1.558686 2.684365 2.121186 2.121865 C 2.683686 1.559365 2.999311 0.796865 2.999311 -0.00001 C 2.999311 -0.796885 2.683686 -1.559385 2.121186 -2.121885 C 1.558686 -2.684385 0.796186 -3.00001 -0.000689 -3.00001 C -0.794439 -3.00001 -1.560064 -2.684385 -2.122564 -2.121885 C -2.685064 -1.559385 -3.000689 -0.796885 -3.000689 -0.00001 C -3.000689 0.796865 -2.685064 1.559365 -2.122564 2.121865 C -1.560064 2.684365 -0.794439 2.99999 -0.000689 2.99999 Z M -0.000689 2.99999 " transform="matrix(1.25,0,0,1.25,260.946174,38.039075)"/>
<path style="fill-rule:nonzero;fill:rgb(100%,49.803922%,5.490196%);fill-opacity:1;stroke-width:1;stroke-linecap:butt;stroke-linejoin:round;stroke:rgb(100%,49.803922%,5.490196%);stroke-opacity:1;stroke-miterlimit:4;" d="M 0.000557 2.999288 C 0.794307 2.999288 1.559932 2.683663 2.122432 2.121163 C 2.684932 1.558663 3.000557 0.796163 3.000557 -0.000712 C 3.000557 -0.794462 2.684932 -1.560087 2.122432 -2.122587 C 1.559932 -2.685087 0.794307 -3.000712 0.000557 -3.000712 C -0.796318 -3.000712 -1.558818 -2.685087 -2.121318 -2.122587 C -2.683818 -1.560087 -2.999443 -0.794462 -2.999443 -0.000712 C -2.999443 0.796163 -2.683818 1.558663 -2.121318 2.121163 C -1.558818 2.683663 -0.796318 2.999288 0.000557 2.999288 Z M 0.000557 2.999288 " transform="matrix(1.25,0,0,1.25,266.018835,36.079015)"/>
<path style="fill-rule:nonzero;fill:rgb(100%,49.803922%,5.490196%);fill-opacity:1;stroke-width:1;stroke-linecap:butt;stroke-linejoin:round;stroke:rgb(100%,49.803922%,5.490196%);stroke-opacity:1;stroke-miterlimit:4;" d="M -0.000469 2.999764 C 0.796406 2.999764 1.558906 2.684139 2.121406 2.121639 C 2.683906 1.559139 2.999531 0.796639 2.999531 -0.000236 C 2.999531 -0.797111 2.683906 -1.559611 2.121406 -2.122111 C 1.558906 -2.684611 0.796406 -3.000236 -0.000469 -3.000236 C -0.794219 -3.000236 -1.559844 -2.684611 -2.122344 -2.122111 C -2.684844 -1.559611 -3.000469 -0.797111 -3.000469 -0.000236 C -3.000469 0.796639 -2.684844 1.559139 -2.122344 2.121639 C -1.559844 2.684139 -0.794219 2.999764 -0.000469 2.999764 Z M -0.000469 2.999764 " transform="matrix(1.25,0,0,1.25,262.426367,40.129201)"/>
<path style="fill-rule:nonzero;fill:rgb(100%,49.803922%,5.490196%);fill-opacity:1;stroke-width:1;stroke-linecap:butt;stroke-linejoin:round;stroke:rgb(100%,49.803922%,5.490196%);stroke-opacity:1;stroke-miterlimit:4;" d="M -0.000403 3.001512 C 0.796472 3.001512 1.558972 2.682762 2.121472 2.120262 C 2.683972 1.557762 2.999597 0.795262 2.999597 0.001512 C 2.999597 -0.795363 2.683972 -1.557863 2.121472 -2.120363 C 1.558972 -2.682863 0.796472 -2.998488 -0.000403 -2.998488 C -0.794153 -2.998488 -1.559778 -2.682863 -2.122278 -2.120363 C -2.684778 -1.557863 -3.000403 -0.795363 -3.000403 0.001512 C -3.000403 0.795262 -2.684778 1.557762 -2.122278 2.120262 C -1.559778 2.682762 -0.794153 3.001512 -0.000403 3.001512 Z M -0.000403 3.001512 " transform="matrix(1.25,0,0,1.25,260.020035,37.52936)"/>
<path style="fill-rule:nonzero;fill:rgb(100%,49.803922%,5.490196%);fill-opacity:1;stroke-width:1;stroke-linecap:butt;stroke-linejoin:round;stroke:rgb(100%,49.803922%,5.490196%);stroke-opacity:1;stroke-miterlimit:4;" d="M -0.000855 3.001444 C 0.79602 3.001444 1.55852 2.682694 2.12102 2.120194 C 2.68352 1.557694 2.999145 0.795194 2.999145 0.001444 C 2.999145 -0.795431 2.68352 -1.557931 2.12102 -2.120431 C 1.55852 -2.682931 0.79602 -2.998556 -0.000855 -2.998556 C -0.794605 -2.998556 -1.56023 -2.682931 -2.12273 -2.120431 C -2.68523 -1.557931 -3.000855 -0.795431 -3.000855 0.001444 C -3.000855 0.795194 -2.68523 1.557694 -2.12273 2.120194 C -1.56023 2.682694 -0.794605 3.001444 -0.000855 3.001444 Z M -0.000855 3.001444 " transform="matrix(1.25,0,0,1.25,262.782319,37.095851)"/>
<path style="fill-rule:nonzero;fill:rgb(100%,49.803922%,5.490196%);fill-opacity:1;stroke-width:1;stroke-linecap:butt;stroke-linejoin:round;stroke:rgb(100%,49.803922%,5.490196%);stroke-opacity:1;stroke-miterlimit:4;" d="M 0.000765 2.999864 C 0.794515 2.999864 1.56014 2.684239 2.12264 2.121739 C 2.68514 1.559239 3.000765 0.796739 3.000765 -0.000136 C 3.000765 -0.797011 2.68514 -1.559511 2.12264 -2.122011 C 1.56014 -2.684511 0.794515 -3.000136 0.000765 -3.000136 C -0.79611 -3.000136 -1.55861 -2.684511 -2.12111 -2.122011 C -2.68361 -1.559511 -2.999235 -0.797011 -2.999235 -0.000136 C -2.999235 0.796739 -2.68361 1.559239 -2.12111 2.121739 C -1.55861 2.684239 -0.79611 2.999864 0.000765 2.999864 Z M 0.000765 2.999864 " transform="matrix(1.25,0,0,1.25,261.795919,44.679858)"/>
<path style="fill-rule:nonzero;fill:rgb(100%,49.803922%,5.490196%);fill-opacity:1;stroke-width:1;stroke-linecap:butt;stroke-linejoin:round;stroke:rgb(100%,49.803922%,5.490196%);stroke-opacity:1;stroke-miterlimit:4;" d="M 0.001407 2.999379 C 0.795157 2.999379 1.557657 2.683754 2.120157 2.121254 C 2.682657 1.558754 3.001407 0.796254 3.001407 -0.000621 C 3.001407 -0.794371 2.682657 -1.559996 2.120157 -2.122496 C 1.557657 -2.684996 0.795157 -3.000621 0.001407 -3.000621 C -0.795468 -3.000621 -1.557968 -2.684996 -2.120468 -2.122496 C -2.682968 -1.559996 -2.998593 -0.794371 -2.998593 -0.000621 C -2.998593 0.796254 -2.682968 1.558754 -2.120468 2.121254 C -1.557968 2.683754 -0.795468 2.999379 0.001407 2.999379 Z M 0.001407 2.999379 " transform="matrix(1.25,0,0,1.25,260.283397,50.500776)"/>
<path style="fill-rule:nonzero;fill:rgb(100%,49.803922%,5.490196%);fill-opacity:1;stroke-width:1;stroke-linecap:butt;stroke-linejoin:round;stroke:rgb(100%,49.803922%,5.490196%);stroke-opacity:1;stroke-miterlimit:4;" d="M 0.000552 2.999812 C 0.794302 2.999812 1.559927 2.684187 2.122427 2.121687 C 2.684927 1.559187 3.000552 0.796687 3.000552 -0.000188 C 3.000552 -0.797063 2.684927 -1.559563 2.122427 -2.122063 C 1.559927 -2.684563 0.794302 -3.000188 0.000552 -3.000188 C -0.796323 -3.000188 -1.558823 -2.684563 -2.121323 -2.122063 C -2.683823 -1.559563 -2.999448 -0.797063 -2.999448 -0.000188 C -2.999448 0.796687 -2.683823 1.559187 -2.121323 2.121687 C -1.558823 2.684187 -0.796323 2.999812 0.000552 2.999812 Z M 0.000552 2.999812 " transform="matrix(1.25,0,0,1.25,261.694622,53.676016)"/>
<path style="fill-rule:nonzero;fill:rgb(100%,49.803922%,5.490196%);fill-opacity:1;stroke-width:1;stroke-linecap:butt;stroke-linejoin:round;stroke:rgb(100%,49.803922%,5.490196%);stroke-opacity:1;stroke-miterlimit:4;" d="M 0.000792 2.999037 C 0.794542 2.999037 1.560167 2.683412 2.122667 2.120912 C 2.685167 1.558412 3.000792 0.795912 3.000792 -0.000963 C 3.000792 -0.794713 2.685167 -1.557213 2.122667 -2.122838 C 1.560167 -2.685338 0.794542 -3.000963 0.000792 -3.000963 C -0.796083 -3.000963 -1.558583 -2.685338 -2.121083 -2.122838 C -2.683583 -1.557213 -2.999208 -0.794713 -2.999208 -0.000963 C -2.999208 0.795912 -2.683583 1.558412 -2.121083 2.120912 C -1.558583 2.683412 -0.796083 2.999037 0.000792 2.999037 Z M 0.000792 2.999037 " transform="matrix(1.25,0,0,1.25,263.928697,50.81761)"/>
<path style="fill:none;stroke-width:0.8;stroke-linecap:square;stroke-linejoin:miter;stroke:rgb(0%,0%,0%);stroke-opacity:1;stroke-miterlimit:4;" d="M 42.61875 143.1 L 42.61875 7.2 " transform="matrix(1.25,0,0,1.25,0,0.000000000000014211)"/>
<path style="fill:none;stroke-width:0.8;stroke-linecap:square;stroke-linejoin:miter;stroke:rgb(0%,0%,0%);stroke-opacity:1;stroke-miterlimit:4;" d="M 237.921875 143.1 L 237.921875 7.2 " transform="matrix(1.25,0,0,1.25,0,0.000000000000014211)"/>
<path style="fill:none;stroke-width:0.8;stroke-linecap:square;stroke-linejoin:miter;stroke:rgb(0%,0%,0%);stroke-opacity:1;stroke-miterlimit:4;" d="M 42.61875 143.1 L 237.921875 143.1 " transform="matrix(1.25,0,0,1.25,0,0.000000000000014211)"/>
<path style="fill:none;stroke-width:0.8;stroke-linecap:square;stroke-linejoin:miter;stroke:rgb(0%,0%,0%);stroke-opacity:1;stroke-miterlimit:4;" d="M 42.61875 7.2 L 237.921875 7.2 " transform="matrix(1.25,0,0,1.25,0,0.000000000000014211)"/>
</g>
</svg>
