<?xml version="1.0" encoding="UTF-8"?>
<svg xmlns="http://www.w3.org/2000/svg" xmlns:xlink="http://www.w3.org/1999/xlink" width="310pt" height="231pt" viewBox="0 0 310 231" version="1.1">
<defs>
<clipPath id="clip1">
  <path d="M 53.273438 13.75 L 54 13.75 L 54 183.625 L 53.273438 183.625 Z M 53.273438 13.75 "/>
</clipPath>
<clipPath id="clip2">
  <path d="M 101 13.75 L 103 13.75 L 103 183.625 L 101 183.625 Z M 101 13.75 "/>
</clipPath>
<clipPath id="clip3">
  <path d="M 150 13.75 L 152 13.75 L 152 183.625 L 150 183.625 Z M 150 13.75 "/>
</clipPath>
<clipPath id="clip4">
  <path d="M 199 13.75 L 201 13.75 L 201 183.625 L 199 183.625 Z M 199 13.75 "/>
</clipPath>
<clipPath id="clip5">
  <path d="M 247 13.75 L 250 13.75 L 250 183.625 L 247 183.625 Z M 247 13.75 "/>
</clipPath>
<clipPath id="clip6">
  <path d="M 296 13.75 L 297.398438 13.75 L 297.398438 183.625 L 296 183.625 Z M 296 13.75 "/>
</clipPath>
<clipPath id="clip7">
  <path d="M 53.273438 182 L 297.398438 182 L 297.398438 183.625 L 53.273438 183.625 Z M 53.273438 182 "/>
</clipPath>
<clipPath id="clip8">
  <path d="M 53.273438 154 L 297.398438 154 L 297.398438 157 L 53.273438 157 Z M 53.273438 154 "/>
</clipPath>
<clipPath id="clip9">
  <path d="M 53.273438 126 L 297.398438 126 L 297.398438 128 L 53.273438 128 Z M 53.273438 126 "/>
</clipPath>
<clipPath id="clip10">
  <path d="M 53.273438 97 L 297.398438 97 L 297.398438 100 L 53.273438 100 Z M 53.273438 97 "/>
</clipPath>
<clipPath id="clip11">
  <path d="M 53.273438 69 L 297.398438 69 L 297.398438 72 L 53.273438 72 Z M 53.273438 69 "/>
</clipPath>
<clipPath id="clip12">
  <path d="M 53.273438 41 L 297.398438 41 L 297.398438 43 L 53.273438 43 Z M 53.273438 41 "/>
</clipPath>
<clipPath id="clip13">
  <path d="M 53.273438 13.75 L 297.398438 13.75 L 297.398438 15 L 53.273438 15 Z M 53.273438 13.75 "/>
</clipPath>
<clipPath id="clip14">
  <path d="M 53.273438 53 L 294 53 L 294 157 L 53.273438 157 Z M 53.273438 53 "/>
</clipPath>
<clipPath id="clip15">
  <path d="M 53.273438 49 L 294 49 L 294 152 L 53.273438 152 Z M 53.273438 49 "/>
</clipPath>
<clipPath id="clip16">
  <path d="M 53.273438 149 L 61 149 L 61 158 L 53.273438 158 Z M 53.273438 149 "/>
</clipPath>
<clipPath id="clip17">
  <path d="M 290 81 L 297.398438 81 L 297.398438 90 L 290 90 Z M 290 81 "/>
</clipPath>
<clipPath id="clip18">
  <path d="M 289 80 L 297.398438 80 L 297.398438 90 L 289 90 Z M 289 80 "/>
</clipPath>
<filter id="alpha" filterUnits="objectBoundingBox" x="0%" y="0%" width="100%" height="100%">
  <feColorMatrix type="matrix" in="SourceGraphic" values="0 0 0 0 1 0 0 0 0 1 0 0 0 0 1 0 0 0 1 0"/>
</filter>
<mask id="mask0">
  <g filter="url(#alpha)">
<rect x="0" y="0" width="310" height="231" style="fill:rgb(0%,0%,0%);fill-opacity:0.8;stroke:none;"/>
  </g>
</mask>
<clipPath id="clip19">
  <rect width="310" height="231"/>
</clipPath>
<g id="surface6" clip-path="url(#clip19)">
<path style="fill-rule:nonzero;fill:rgb(100%,100%,100%);fill-opacity:1;stroke-width:1;stroke-linecap:butt;stroke-linejoin:miter;stroke:rgb(80%,80%,80%);stroke-opacity:1;stroke-miterlimit:4;" d="M 173.58125 48.35625 L 230.921875 48.35625 C 232.253125 48.35625 232.921875 47.6875 232.921875 46.35625 L 232.921875 18 C 232.921875 16.665625 232.253125 16 230.921875 16 L 173.58125 16 C 172.246875 16 171.58125 16.665625 171.58125 18 L 171.58125 46.35625 C 171.58125 47.6875 172.246875 48.35625 173.58125 48.35625 Z M 173.58125 48.35625 " transform="matrix(1.25,0,0,1.25,0,0)"/>
</g>
</defs>
<g id="surface1">
<path style=" stroke:none;fill-rule:nonzero;fill:rgb(100%,100%,100%);fill-opacity:1;" d="M 53.273438 183.625 L 297.402344 183.625 L 297.402344 13.75 L 53.273438 13.75 Z M 53.273438 183.625 "/>
<g clip-path="url(#clip1)" clip-rule="nonzero">
<path style="fill:none;stroke-width:0.8;stroke-linecap:square;stroke-linejoin:round;stroke:rgb(69.019608%,69.019608%,69.019608%);stroke-opacity:1;stroke-miterlimit:4;" d="M 42.61875 146.9 L 42.61875 11 " transform="matrix(1.25,0,0,1.25,0,0)"/>
</g>
<path style="fill:none;stroke-width:0.8;stroke-linecap:butt;stroke-linejoin:round;stroke:rgb(0%,0%,0%);stroke-opacity:1;stroke-miterlimit:4;" d="M -0.001562 0.000781 L -0.001562 3.500781 " transform="matrix(1.25,0,0,1.25,53.27539,183.624024)"/>
<path style=" stroke:none;fill-rule:nonzero;fill:rgb(0%,0%,0%);fill-opacity:1;" d="M 53.269531 193.570312 C 52.636719 193.570312 52.160156 193.882812 51.839844 194.507812 C 51.519531 195.132812 51.359375 196.070312 51.359375 197.324219 C 51.359375 198.574219 51.519531 199.511719 51.839844 200.136719 C 52.160156 200.761719 52.636719 201.074219 53.269531 201.074219 C 53.910156 201.074219 54.390625 200.761719 54.707031 200.136719 C 55.027344 199.511719 55.1875 198.574219 55.1875 197.324219 C 55.1875 196.070312 55.027344 195.132812 54.707031 194.507812 C 54.390625 193.882812 53.910156 193.570312 53.269531 193.570312 Z M 53.269531 192.59375 C 54.292969 192.59375 55.074219 193 55.613281 193.808594 C 56.152344 194.613281 56.421875 195.789062 56.421875 197.324219 C 56.421875 198.859375 56.152344 200.03125 55.613281 200.839844 C 55.074219 201.644531 54.292969 202.050781 53.269531 202.050781 C 52.25 202.050781 51.46875 201.644531 50.929688 200.839844 C 50.390625 200.03125 50.121094 198.859375 50.121094 197.324219 C 50.121094 195.789062 50.390625 194.613281 50.929688 193.808594 C 51.46875 193 52.25 192.59375 53.269531 192.59375 Z M 53.269531 192.59375 "/>
<g clip-path="url(#clip2)" clip-rule="nonzero">
<path style="fill:none;stroke-width:0.8;stroke-linecap:square;stroke-linejoin:round;stroke:rgb(69.019608%,69.019608%,69.019608%);stroke-opacity:1;stroke-miterlimit:4;" d="M 81.68125 146.9 L 81.68125 11 " transform="matrix(1.25,0,0,1.25,0,0)"/>
</g>
<path style="fill:none;stroke-width:0.8;stroke-linecap:butt;stroke-linejoin:round;stroke:rgb(0%,0%,0%);stroke-opacity:1;stroke-miterlimit:4;" d="M 0.000938 0.000781 L 0.000938 3.500781 " transform="matrix(1.25,0,0,1.25,102.10039,183.624024)"/>
<path style=" stroke:none;fill-rule:nonzero;fill:rgb(0%,0%,0%);fill-opacity:1;" d="M 99.675781 200.835938 L 101.6875 200.835938 L 101.6875 193.882812 L 99.496094 194.320312 L 99.496094 193.199219 L 101.675781 192.757812 L 102.910156 192.757812 L 102.910156 200.835938 L 104.921875 200.835938 L 104.921875 201.871094 L 99.675781 201.871094 Z M 99.675781 200.835938 "/>
<g clip-path="url(#clip3)" clip-rule="nonzero">
<path style="fill:none;stroke-width:0.8;stroke-linecap:square;stroke-linejoin:round;stroke:rgb(69.019608%,69.019608%,69.019608%);stroke-opacity:1;stroke-miterlimit:4;" d="M 120.740625 146.9 L 120.740625 11 " transform="matrix(1.25,0,0,1.25,0,0)"/>
</g>
<path style="fill:none;stroke-width:0.8;stroke-linecap:butt;stroke-linejoin:round;stroke:rgb(0%,0%,0%);stroke-opacity:1;stroke-miterlimit:4;" d="M 0.000312 0.000781 L 0.000312 3.500781 " transform="matrix(1.25,0,0,1.25,150.925391,183.624024)"/>
<path style=" stroke:none;fill-rule:nonzero;fill:rgb(0%,0%,0%);fill-opacity:1;" d="M 149.347656 200.835938 L 153.648438 200.835938 L 153.648438 201.871094 L 147.863281 201.871094 L 147.863281 200.835938 C 148.332031 200.351562 148.96875 199.699219 149.777344 198.886719 C 150.585938 198.070312 151.09375 197.542969 151.300781 197.304688 C 151.695312 196.863281 151.96875 196.488281 152.125 196.179688 C 152.285156 195.875 152.363281 195.570312 152.363281 195.273438 C 152.363281 194.789062 152.191406 194.394531 151.851562 194.089844 C 151.511719 193.785156 151.070312 193.632812 150.523438 193.632812 C 150.136719 193.632812 149.730469 193.699219 149.300781 193.832031 C 148.871094 193.96875 148.414062 194.171875 147.925781 194.445312 L 147.925781 193.199219 C 148.421875 193 148.886719 192.847656 149.316406 192.746094 C 149.75 192.644531 150.144531 192.59375 150.5 192.59375 C 151.445312 192.59375 152.199219 192.832031 152.757812 193.304688 C 153.320312 193.773438 153.601562 194.40625 153.601562 195.195312 C 153.601562 195.570312 153.53125 195.925781 153.390625 196.261719 C 153.25 196.59375 152.996094 196.992188 152.625 197.445312 C 152.523438 197.566406 152.199219 197.90625 151.652344 198.46875 C 151.109375 199.035156 150.339844 199.820312 149.347656 200.835938 Z M 149.347656 200.835938 "/>
<g clip-path="url(#clip4)" clip-rule="nonzero">
<path style="fill:none;stroke-width:0.8;stroke-linecap:square;stroke-linejoin:round;stroke:rgb(69.019608%,69.019608%,69.019608%);stroke-opacity:1;stroke-miterlimit:4;" d="M 159.8 146.9 L 159.8 11 " transform="matrix(1.25,0,0,1.25,0,0)"/>
</g>
<path style="fill:none;stroke-width:0.8;stroke-linecap:butt;stroke-linejoin:round;stroke:rgb(0%,0%,0%);stroke-opacity:1;stroke-miterlimit:4;" d="M -0.000313 0.000781 L -0.000313 3.500781 " transform="matrix(1.25,0,0,1.25,199.750391,183.624024)"/>
<path style=" stroke:none;fill-rule:nonzero;fill:rgb(0%,0%,0%);fill-opacity:1;" d="M 200.847656 196.957031 C 201.4375 197.085938 201.894531 197.347656 202.226562 197.746094 C 202.558594 198.144531 202.726562 198.636719 202.726562 199.222656 C 202.726562 200.121094 202.414062 200.816406 201.796875 201.3125 C 201.179688 201.804688 200.300781 202.050781 199.160156 202.050781 C 198.777344 202.050781 198.386719 202.011719 197.980469 201.9375 C 197.574219 201.859375 197.15625 201.746094 196.726562 201.597656 L 196.726562 200.40625 C 197.066406 200.605469 197.441406 200.757812 197.847656 200.859375 C 198.253906 200.960938 198.679688 201.011719 199.125 201.011719 C 199.898438 201.011719 200.484375 200.859375 200.890625 200.554688 C 201.296875 200.25 201.5 199.804688 201.5 199.222656 C 201.5 198.6875 201.308594 198.265625 200.933594 197.964844 C 200.558594 197.660156 200.035156 197.507812 199.363281 197.507812 L 198.300781 197.507812 L 198.300781 196.496094 L 199.414062 196.496094 C 200.019531 196.496094 200.480469 196.375 200.804688 196.132812 C 201.125 195.890625 201.285156 195.539062 201.285156 195.085938 C 201.285156 194.617188 201.121094 194.257812 200.789062 194.007812 C 200.457031 193.757812 199.980469 193.632812 199.363281 193.632812 C 199.023438 193.632812 198.664062 193.667969 198.277344 193.742188 C 197.890625 193.816406 197.464844 193.929688 197 194.082031 L 197 192.984375 C 197.46875 192.855469 197.90625 192.757812 198.316406 192.691406 C 198.726562 192.628906 199.109375 192.59375 199.472656 192.59375 C 200.410156 192.59375 201.148438 192.808594 201.695312 193.234375 C 202.238281 193.65625 202.511719 194.230469 202.511719 194.957031 C 202.511719 195.460938 202.367188 195.886719 202.078125 196.234375 C 201.789062 196.582031 201.378906 196.824219 200.847656 196.957031 Z M 200.847656 196.957031 "/>
<g clip-path="url(#clip5)" clip-rule="nonzero">
<path style="fill:none;stroke-width:0.8;stroke-linecap:square;stroke-linejoin:round;stroke:rgb(69.019608%,69.019608%,69.019608%);stroke-opacity:1;stroke-miterlimit:4;" d="M 198.859375 146.9 L 198.859375 11 " transform="matrix(1.25,0,0,1.25,0,0)"/>
</g>
<path style="fill:none;stroke-width:0.8;stroke-linecap:butt;stroke-linejoin:round;stroke:rgb(0%,0%,0%);stroke-opacity:1;stroke-miterlimit:4;" d="M -0.000938 0.000781 L -0.000938 3.500781 " transform="matrix(1.25,0,0,1.25,248.575391,183.624024)"/>
<path style=" stroke:none;fill-rule:nonzero;fill:rgb(0%,0%,0%);fill-opacity:1;" d="M 249.324219 193.832031 L 246.210938 198.699219 L 249.324219 198.699219 Z M 249 192.757812 L 250.550781 192.757812 L 250.550781 198.699219 L 251.851562 198.699219 L 251.851562 199.722656 L 250.550781 199.722656 L 250.550781 201.871094 L 249.324219 201.871094 L 249.324219 199.722656 L 245.210938 199.722656 L 245.210938 198.535156 Z M 249 192.757812 "/>
<g clip-path="url(#clip6)" clip-rule="nonzero">
<path style="fill:none;stroke-width:0.8;stroke-linecap:square;stroke-linejoin:round;stroke:rgb(69.019608%,69.019608%,69.019608%);stroke-opacity:1;stroke-miterlimit:4;" d="M 237.921875 146.9 L 237.921875 11 " transform="matrix(1.25,0,0,1.25,0,0)"/>
</g>
<path style="fill:none;stroke-width:0.8;stroke-linecap:butt;stroke-linejoin:round;stroke:rgb(0%,0%,0%);stroke-opacity:1;stroke-miterlimit:4;" d="M 0.001562 0.000781 L 0.001562 3.500781 " transform="matrix(1.25,0,0,1.25,297.400391,183.624024)"/>
<path style=" stroke:none;fill-rule:nonzero;fill:rgb(0%,0%,0%);fill-opacity:1;" d="M 294.773438 192.757812 L 299.613281 192.757812 L 299.613281 193.796875 L 295.902344 193.796875 L 295.902344 196.03125 C 296.082031 195.96875 296.257812 195.921875 296.4375 195.894531 C 296.617188 195.863281 296.796875 195.847656 296.976562 195.847656 C 297.992188 195.847656 298.800781 196.128906 299.394531 196.683594 C 299.988281 197.242188 300.285156 197.996094 300.285156 198.949219 C 300.285156 199.929688 299.980469 200.691406 299.371094 201.234375 C 298.757812 201.777344 297.898438 202.050781 296.789062 202.050781 C 296.40625 202.050781 296.015625 202.015625 295.617188 201.953125 C 295.222656 201.886719 294.8125 201.789062 294.390625 201.660156 L 294.390625 200.417969 C 294.753906 200.617188 295.132812 200.765625 295.523438 200.863281 C 295.914062 200.960938 296.328125 201.011719 296.761719 201.011719 C 297.464844 201.011719 298.023438 200.824219 298.433594 200.457031 C 298.84375 200.085938 299.050781 199.582031 299.050781 198.949219 C 299.050781 198.3125 298.84375 197.8125 298.433594 197.441406 C 298.023438 197.070312 297.464844 196.886719 296.761719 196.886719 C 296.433594 196.886719 296.105469 196.921875 295.777344 196.996094 C 295.449219 197.066406 295.113281 197.183594 294.773438 197.335938 Z M 294.773438 192.757812 "/>
<path style=" stroke:none;fill-rule:nonzero;fill:rgb(0%,0%,0%);fill-opacity:1;" d="M 178.5 212.132812 L 176.027344 215.460938 L 178.625 218.96875 L 177.300781 218.96875 L 175.3125 216.285156 L 173.324219 218.96875 L 171.996094 218.96875 L 174.652344 215.394531 L 172.222656 212.132812 L 173.546875 212.132812 L 175.359375 214.570312 L 177.171875 212.132812 Z M 178.5 212.132812 "/>
<g clip-path="url(#clip7)" clip-rule="nonzero">
<path style="fill:none;stroke-width:0.8;stroke-linecap:square;stroke-linejoin:round;stroke:rgb(69.019608%,69.019608%,69.019608%);stroke-opacity:1;stroke-miterlimit:4;" d="M 42.61875 146.9 L 237.921875 146.9 " transform="matrix(1.25,0,0,1.25,0,0)"/>
</g>
<path style="fill:none;stroke-width:0.8;stroke-linecap:butt;stroke-linejoin:round;stroke:rgb(0%,0%,0%);stroke-opacity:1;stroke-miterlimit:4;" d="M -0.001562 0.000781 L -3.501562 0.000781 " transform="matrix(1.25,0,0,1.25,53.27539,183.624024)"/>
<path style=" stroke:none;fill-rule:nonzero;fill:rgb(0%,0%,0%);fill-opacity:1;" d="M 27.421875 183.933594 L 35.246094 183.933594 L 35.246094 184.972656 L 27.421875 184.972656 Z M 27.421875 183.933594 "/>
<path style=" stroke:none;fill-rule:nonzero;fill:rgb(0%,0%,0%);fill-opacity:1;" d="M 38.121094 187.335938 L 40.136719 187.335938 L 40.136719 180.382812 L 37.945312 180.820312 L 37.945312 179.699219 L 40.125 179.257812 L 41.355469 179.257812 L 41.355469 187.335938 L 43.371094 187.335938 L 43.371094 188.371094 L 38.121094 188.371094 Z M 38.121094 187.335938 "/>
<g clip-path="url(#clip8)" clip-rule="nonzero">
<path style="fill:none;stroke-width:0.8;stroke-linecap:square;stroke-linejoin:round;stroke:rgb(69.019608%,69.019608%,69.019608%);stroke-opacity:1;stroke-miterlimit:4;" d="M 42.61875 124.25 L 237.921875 124.25 " transform="matrix(1.25,0,0,1.25,0,0)"/>
</g>
<path style="fill:none;stroke-width:0.8;stroke-linecap:butt;stroke-linejoin:round;stroke:rgb(0%,0%,0%);stroke-opacity:1;stroke-miterlimit:4;" d="M -0.001562 0.000781 L -3.501562 0.000781 " transform="matrix(1.25,0,0,1.25,53.27539,155.311524)"/>
<path style=" stroke:none;fill-rule:nonzero;fill:rgb(0%,0%,0%);fill-opacity:1;" d="M 40.542969 151.757812 C 39.910156 151.757812 39.433594 152.070312 39.113281 152.695312 C 38.792969 153.320312 38.632812 154.257812 38.632812 155.511719 C 38.632812 156.761719 38.792969 157.699219 39.113281 158.324219 C 39.433594 158.949219 39.910156 159.261719 40.542969 159.261719 C 41.183594 159.261719 41.664062 158.949219 41.980469 158.324219 C 42.300781 157.699219 42.460938 156.761719 42.460938 155.511719 C 42.460938 154.257812 42.300781 153.320312 41.980469 152.695312 C 41.664062 152.070312 41.183594 151.757812 40.542969 151.757812 Z M 40.542969 150.78125 C 41.566406 150.78125 42.347656 151.1875 42.886719 151.996094 C 43.425781 152.804688 43.695312 153.976562 43.695312 155.511719 C 43.695312 157.046875 43.425781 158.21875 42.886719 159.027344 C 42.347656 159.835938 41.566406 160.238281 40.542969 160.238281 C 39.523438 160.238281 38.742188 159.835938 38.203125 159.027344 C 37.664062 158.21875 37.394531 157.046875 37.394531 155.511719 C 37.394531 153.976562 37.664062 152.804688 38.203125 151.996094 C 38.742188 151.1875 39.523438 150.78125 40.542969 150.78125 Z M 40.542969 150.78125 "/>
<g clip-path="url(#clip9)" clip-rule="nonzero">
<path style="fill:none;stroke-width:0.8;stroke-linecap:square;stroke-linejoin:round;stroke:rgb(69.019608%,69.019608%,69.019608%);stroke-opacity:1;stroke-miterlimit:4;" d="M 42.61875 101.6 L 237.921875 101.6 " transform="matrix(1.25,0,0,1.25,0,0)"/>
</g>
<path style="fill:none;stroke-width:0.8;stroke-linecap:butt;stroke-linejoin:round;stroke:rgb(0%,0%,0%);stroke-opacity:1;stroke-miterlimit:4;" d="M -0.001562 0.000781 L -3.501562 0.000781 " transform="matrix(1.25,0,0,1.25,53.27539,126.999024)"/>
<path style=" stroke:none;fill-rule:nonzero;fill:rgb(0%,0%,0%);fill-opacity:1;" d="M 38.121094 130.710938 L 40.136719 130.710938 L 40.136719 123.757812 L 37.945312 124.195312 L 37.945312 123.074219 L 40.125 122.632812 L 41.355469 122.632812 L 41.355469 130.710938 L 43.371094 130.710938 L 43.371094 131.746094 L 38.121094 131.746094 Z M 38.121094 130.710938 "/>
<g clip-path="url(#clip10)" clip-rule="nonzero">
<path style="fill:none;stroke-width:0.8;stroke-linecap:square;stroke-linejoin:round;stroke:rgb(69.019608%,69.019608%,69.019608%);stroke-opacity:1;stroke-miterlimit:4;" d="M 42.61875 78.95 L 237.921875 78.95 " transform="matrix(1.25,0,0,1.25,0,0)"/>
</g>
<path style="fill:none;stroke-width:0.8;stroke-linecap:butt;stroke-linejoin:round;stroke:rgb(0%,0%,0%);stroke-opacity:1;stroke-miterlimit:4;" d="M -0.001562 0.000781 L -3.501562 0.000781 " transform="matrix(1.25,0,0,1.25,53.27539,98.686524)"/>
<path style=" stroke:none;fill-rule:nonzero;fill:rgb(0%,0%,0%);fill-opacity:1;" d="M 38.96875 102.398438 L 43.273438 102.398438 L 43.273438 103.433594 L 37.488281 103.433594 L 37.488281 102.398438 C 37.957031 101.914062 38.59375 101.265625 39.398438 100.449219 C 40.207031 99.632812 40.714844 99.105469 40.921875 98.867188 C 41.316406 98.425781 41.59375 98.050781 41.75 97.742188 C 41.90625 97.4375 41.984375 97.132812 41.984375 96.835938 C 41.984375 96.351562 41.816406 95.957031 41.476562 95.652344 C 41.136719 95.347656 40.695312 95.195312 40.148438 95.195312 C 39.761719 95.195312 39.351562 95.261719 38.921875 95.394531 C 38.496094 95.53125 38.035156 95.734375 37.546875 96.007812 L 37.546875 94.761719 C 38.042969 94.5625 38.507812 94.410156 38.9375 94.308594 C 39.371094 94.207031 39.765625 94.15625 40.125 94.15625 C 41.070312 94.15625 41.820312 94.394531 42.382812 94.867188 C 42.945312 95.339844 43.222656 95.96875 43.222656 96.757812 C 43.222656 97.132812 43.152344 97.488281 43.011719 97.824219 C 42.875 98.160156 42.617188 98.554688 42.246094 99.007812 C 42.144531 99.128906 41.824219 99.46875 41.277344 100.03125 C 40.734375 100.597656 39.964844 101.386719 38.96875 102.398438 Z M 38.96875 102.398438 "/>
<g clip-path="url(#clip11)" clip-rule="nonzero">
<path style="fill:none;stroke-width:0.8;stroke-linecap:square;stroke-linejoin:round;stroke:rgb(69.019608%,69.019608%,69.019608%);stroke-opacity:1;stroke-miterlimit:4;" d="M 42.61875 56.3 L 237.921875 56.3 " transform="matrix(1.25,0,0,1.25,0,0)"/>
</g>
<path style="fill:none;stroke-width:0.8;stroke-linecap:butt;stroke-linejoin:round;stroke:rgb(0%,0%,0%);stroke-opacity:1;stroke-miterlimit:4;" d="M -0.001562 0.000781 L -3.501562 0.000781 " transform="matrix(1.25,0,0,1.25,53.27539,70.374024)"/>
<path style=" stroke:none;fill-rule:nonzero;fill:rgb(0%,0%,0%);fill-opacity:1;" d="M 41.644531 70.207031 C 42.234375 70.335938 42.695312 70.597656 43.023438 70.996094 C 43.355469 71.394531 43.523438 71.886719 43.523438 72.472656 C 43.523438 73.371094 43.214844 74.070312 42.59375 74.5625 C 41.976562 75.054688 41.097656 75.300781 39.957031 75.300781 C 39.578125 75.300781 39.183594 75.261719 38.777344 75.1875 C 38.375 75.113281 37.957031 75 37.523438 74.847656 L 37.523438 73.65625 C 37.867188 73.855469 38.238281 74.007812 38.644531 74.109375 C 39.054688 74.210938 39.480469 74.261719 39.921875 74.261719 C 40.695312 74.261719 41.285156 74.109375 41.6875 73.804688 C 42.09375 73.5 42.296875 73.054688 42.296875 72.472656 C 42.296875 71.9375 42.109375 71.515625 41.730469 71.214844 C 41.355469 70.910156 40.832031 70.757812 40.160156 70.757812 L 39.097656 70.757812 L 39.097656 69.746094 L 40.210938 69.746094 C 40.816406 69.746094 41.28125 69.625 41.601562 69.382812 C 41.921875 69.140625 42.082031 68.792969 42.082031 68.335938 C 42.082031 67.867188 41.917969 67.507812 41.585938 67.257812 C 41.253906 67.007812 40.78125 66.882812 40.160156 66.882812 C 39.824219 66.882812 39.460938 66.917969 39.074219 66.992188 C 38.6875 67.066406 38.261719 67.179688 37.796875 67.332031 L 37.796875 66.234375 C 38.265625 66.105469 38.707031 66.007812 39.113281 65.941406 C 39.523438 65.878906 39.910156 65.84375 40.269531 65.84375 C 41.207031 65.84375 41.949219 66.058594 42.492188 66.484375 C 43.039062 66.910156 43.308594 67.484375 43.308594 68.207031 C 43.308594 68.710938 43.164062 69.136719 42.875 69.484375 C 42.585938 69.832031 42.175781 70.074219 41.644531 70.207031 Z M 41.644531 70.207031 "/>
<g clip-path="url(#clip12)" clip-rule="nonzero">
<path style="fill:none;stroke-width:0.8;stroke-linecap:square;stroke-linejoin:round;stroke:rgb(69.019608%,69.019608%,69.019608%);stroke-opacity:1;stroke-miterlimit:4;" d="M 42.61875 33.65 L 237.921875 33.65 " transform="matrix(1.25,0,0,1.25,0,0)"/>
</g>
<path style="fill:none;stroke-width:0.8;stroke-linecap:butt;stroke-linejoin:round;stroke:rgb(0%,0%,0%);stroke-opacity:1;stroke-miterlimit:4;" d="M -0.001562 0.000781 L -3.501562 0.000781 " transform="matrix(1.25,0,0,1.25,53.27539,42.061524)"/>
<path style=" stroke:none;fill-rule:nonzero;fill:rgb(0%,0%,0%);fill-opacity:1;" d="M 41.296875 38.769531 L 38.183594 43.636719 L 41.296875 43.636719 Z M 40.972656 37.695312 L 42.523438 37.695312 L 42.523438 43.636719 L 43.824219 43.636719 L 43.824219 44.660156 L 42.523438 44.660156 L 42.523438 46.808594 L 41.296875 46.808594 L 41.296875 44.660156 L 37.183594 44.660156 L 37.183594 43.472656 Z M 40.972656 37.695312 "/>
<g clip-path="url(#clip13)" clip-rule="nonzero">
<path style="fill:none;stroke-width:0.8;stroke-linecap:square;stroke-linejoin:round;stroke:rgb(69.019608%,69.019608%,69.019608%);stroke-opacity:1;stroke-miterlimit:4;" d="M 42.61875 11 L 237.921875 11 " transform="matrix(1.25,0,0,1.25,0,0)"/>
</g>
<path style="fill:none;stroke-width:0.8;stroke-linecap:butt;stroke-linejoin:round;stroke:rgb(0%,0%,0%);stroke-opacity:1;stroke-miterlimit:4;" d="M -0.001562 0.000781 L -3.501562 0.000781 " transform="matrix(1.25,0,0,1.25,53.27539,13.749024)"/>
<path style=" stroke:none;fill-rule:nonzero;fill:rgb(0%,0%,0%);fill-opacity:1;" d="M 37.921875 9.382812 L 42.761719 9.382812 L 42.761719 10.421875 L 39.050781 10.421875 L 39.050781 12.65625 C 39.230469 12.59375 39.40625 12.550781 39.585938 12.519531 C 39.765625 12.488281 39.945312 12.472656 40.125 12.472656 C 41.140625 12.472656 41.945312 12.753906 42.539062 13.308594 C 43.136719 13.867188 43.433594 14.621094 43.433594 15.574219 C 43.433594 16.554688 43.128906 17.316406 42.515625 17.859375 C 41.90625 18.402344 41.046875 18.675781 39.933594 18.675781 C 39.550781 18.675781 39.164062 18.644531 38.765625 18.578125 C 38.371094 18.511719 37.960938 18.414062 37.535156 18.285156 L 37.535156 17.042969 C 37.902344 17.242188 38.28125 17.390625 38.671875 17.488281 C 39.0625 17.585938 39.476562 17.636719 39.910156 17.636719 C 40.613281 17.636719 41.171875 17.453125 41.582031 17.082031 C 41.992188 16.710938 42.199219 16.210938 42.199219 15.574219 C 42.199219 14.941406 41.992188 14.4375 41.582031 14.066406 C 41.171875 13.695312 40.613281 13.511719 39.910156 13.511719 C 39.582031 13.511719 39.25 13.546875 38.921875 13.621094 C 38.597656 13.695312 38.261719 13.808594 37.921875 13.960938 Z M 37.921875 9.382812 "/>
<path style=" stroke:none;fill-rule:nonzero;fill:rgb(0%,0%,0%);fill-opacity:1;" d="M 19.132812 98.363281 C 19.945312 98.679688 20.476562 98.988281 20.722656 99.292969 C 20.972656 99.59375 21.097656 99.996094 21.097656 100.5 L 21.097656 101.398438 L 20.15625 101.398438 L 20.15625 100.738281 C 20.15625 100.429688 20.085938 100.1875 19.9375 100.019531 C 19.792969 99.847656 19.445312 99.65625 18.898438 99.449219 L 18.386719 99.25 L 11.660156 102.011719 L 11.660156 100.824219 L 17.007812 98.6875 L 11.660156 96.550781 L 11.660156 95.359375 Z M 19.132812 98.363281 "/>
<g clip-path="url(#clip14)" clip-rule="nonzero">
<path style="fill:none;stroke-width:1.5;stroke-linecap:square;stroke-linejoin:round;stroke:rgb(12.156863%,46.666667%,70.588235%);stroke-opacity:1;stroke-miterlimit:4;" d="M 42.61875 124.25 L 46.525 116.1375 L 50.43125 109 L 54.3375 102.215625 L 58.24375 95.725 L 62.15 89.521875 L 66.05625 83.61875 L 69.9625 78.0375 L 73.86875 72.80625 L 77.775 67.946875 L 81.68125 63.48125 L 85.5875 59.434375 L 89.49375 55.821875 L 93.396875 52.659375 L 97.303125 49.9625 L 101.209375 47.734375 L 105.115625 45.98125 L 109.021875 44.7 L 112.928125 43.884375 L 116.834375 43.53125 L 120.740625 43.621875 L 124.646875 44.140625 L 128.553125 45.0625 L 132.459375 46.36875 L 136.365625 48.021875 L 140.26875 49.99375 L 144.175 52.25 L 148.08125 54.753125 L 151.9875 57.45625 L 155.89375 60.325 L 159.8 63.309375 L 163.70625 66.36875 L 167.6125 69.45625 L 171.51875 72.528125 L 175.425 75.534375 L 179.33125 78.434375 L 183.2375 81.184375 L 187.14375 83.740625 L 191.046875 86.065625 L 194.953125 88.11875 L 198.859375 89.871875 L 202.765625 91.284375 L 206.671875 92.3375 L 210.578125 93 L 214.484375 93.25625 L 218.390625 93.084375 L 222.296875 92.478125 L 226.203125 91.428125 L 230.109375 89.93125 L 234.015625 87.9875 " transform="matrix(1.25,0,0,1.25,0,0)"/>
</g>
<g clip-path="url(#clip15)" clip-rule="nonzero">
<path style="fill:none;stroke-width:1.5;stroke-linecap:butt;stroke-linejoin:round;stroke:rgb(74.901961%,0%,74.901961%);stroke-opacity:1;stroke-dasharray:5.55,2.4;stroke-miterlimit:4;" d="M 42.61875 120.3 L 46.525 115.471875 L 50.43125 107.4125 L 54.3375 100.09375 L 58.24375 95.4125 L 62.15 93.6375 L 66.05625 93.1375 L 69.9625 87.246875 L 73.86875 75.3375 L 77.775 72.171875 L 81.68125 69.584375 L 85.5875 63.8875 L 89.49375 54.25625 L 93.396875 46.053125 L 97.303125 46.04375 L 101.209375 47.175 L 105.115625 46.91875 L 109.021875 46.128125 L 112.928125 47.121875 L 116.834375 48.98125 L 120.740625 45.859375 L 124.646875 41.41875 L 128.553125 40.578125 L 132.459375 42.321875 L 136.365625 45.5875 L 140.26875 51.165625 L 144.175 56.646875 L 148.08125 58.675 L 151.9875 60.471875 L 155.89375 63.6625 L 159.8 66.49375 L 163.70625 66.203125 L 167.6125 65.146875 L 171.51875 65.190625 L 175.425 76.496875 L 179.33125 87.234375 L 183.2375 87.809375 L 187.14375 87.4375 L 191.046875 86.1125 L 194.953125 85.8625 L 198.859375 87.796875 L 202.765625 91.953125 L 206.671875 95.584375 L 210.578125 97.721875 L 214.484375 100.31875 L 218.390625 98.784375 L 222.296875 93.11875 L 226.203125 89.065625 L 230.109375 84.8875 L 234.015625 79.815625 " transform="matrix(1.25,0,0,1.25,0,0)"/>
</g>
<g clip-path="url(#clip16)" clip-rule="nonzero">
<path style="fill-rule:nonzero;fill:rgb(100%,49.803922%,5.490196%);fill-opacity:0.501961;stroke-width:1;stroke-linecap:butt;stroke-linejoin:round;stroke:rgb(100%,49.803922%,5.490196%);stroke-opacity:0.501961;stroke-miterlimit:4;" d="M -0.001287 2.99955 C 0.795588 2.99955 1.558088 2.683925 2.120588 2.121425 C 2.683088 1.558925 2.998713 0.796425 2.998713 -0.00045 C 2.998713 -0.7942 2.683088 -1.559825 2.120588 -2.122325 C 1.558088 -2.684825 0.795588 -3.00045 -0.001287 -3.00045 C -0.795037 -3.00045 -1.557537 -2.684825 -2.120037 -2.122325 C -2.682537 -1.559825 -3.001287 -0.7942 -3.001287 -0.00045 C -3.001287 0.796425 -2.682537 1.558925 -2.120037 2.121425 C -1.557537 2.683925 -0.795037 2.99955 -0.001287 2.99955 Z M -0.001287 2.99955 " transform="matrix(1.25,0,0,1.25,56.439109,153.520094)"/>
</g>
<path style="fill-rule:nonzero;fill:rgb(100%,49.803922%,5.490196%);fill-opacity:0.501961;stroke-width:1;stroke-linecap:butt;stroke-linejoin:round;stroke:rgb(100%,49.803922%,5.490196%);stroke-opacity:0.501961;stroke-miterlimit:4;" d="M 0.000948 3.00121 C 0.794698 3.00121 1.557198 2.68246 2.122823 2.11996 C 2.685323 1.55746 3.000948 0.79496 3.000948 0.00121 C 3.000948 -0.795665 2.685323 -1.558165 2.122823 -2.120665 C 1.557198 -2.683165 0.794698 -2.99879 0.000948 -2.99879 C -0.795927 -2.99879 -1.558427 -2.683165 -2.120927 -2.120665 C -2.683427 -1.558165 -2.999052 -0.795665 -2.999052 0.00121 C -2.999052 0.79496 -2.683427 1.55746 -2.120927 2.11996 C -1.558427 2.68246 -0.795927 3.00121 0.000948 3.00121 Z M 0.000948 3.00121 " transform="matrix(1.25,0,0,1.25,64.76444,131.28755)"/>
<path style="fill-rule:nonzero;fill:rgb(100%,49.803922%,5.490196%);fill-opacity:0.501961;stroke-width:1;stroke-linecap:butt;stroke-linejoin:round;stroke:rgb(100%,49.803922%,5.490196%);stroke-opacity:0.501961;stroke-miterlimit:4;" d="M 0.000592 2.999193 C 0.794342 2.999193 1.559967 2.683568 2.122467 2.121068 C 2.684967 1.558568 3.000592 0.796068 3.000592 -0.000807 C 3.000592 -0.794557 2.684967 -1.560182 2.122467 -2.122682 C 1.559967 -2.685182 0.794342 -3.000807 0.000592 -3.000807 C -0.796283 -3.000807 -1.558783 -2.685182 -2.121283 -2.122682 C -2.683783 -1.560182 -2.999408 -0.794557 -2.999408 -0.000807 C -2.999408 0.796068 -2.683783 1.558568 -2.121283 2.121068 C -1.558783 2.683568 -0.796283 2.999193 0.000592 2.999193 Z M 0.000592 2.999193 " transform="matrix(1.25,0,0,1.25,70.913322,117.758821)"/>
<path style="fill-rule:nonzero;fill:rgb(100%,49.803922%,5.490196%);fill-opacity:0.501961;stroke-width:1;stroke-linecap:butt;stroke-linejoin:round;stroke:rgb(100%,49.803922%,5.490196%);stroke-opacity:0.501961;stroke-miterlimit:4;" d="M 0.000729 3.000108 C 0.794479 3.000108 1.560104 2.684483 2.122604 2.121983 C 2.685104 1.559483 3.000729 0.796983 3.000729 0.000108 C 3.000729 -0.796767 2.685104 -1.559267 2.122604 -2.121767 C 1.560104 -2.684267 0.794479 -2.999892 0.000729 -2.999892 C -0.796146 -2.999892 -1.558646 -2.684267 -2.121146 -2.121767 C -2.683646 -1.559267 -2.999271 -0.796767 -2.999271 0.000108 C -2.999271 0.796983 -2.683646 1.559483 -2.121146 2.121983 C -1.558646 2.684483 -0.796146 3.000108 0.000729 3.000108 Z M 0.000729 3.000108 " transform="matrix(1.25,0,0,1.25,78.194401,113.495959)"/>
<path style="fill-rule:nonzero;fill:rgb(100%,49.803922%,5.490196%);fill-opacity:0.501961;stroke-width:1;stroke-linecap:butt;stroke-linejoin:round;stroke:rgb(100%,49.803922%,5.490196%);stroke-opacity:0.501961;stroke-miterlimit:4;" d="M -0.00031 2.999992 C 0.796565 2.999992 1.559065 2.684367 2.121565 2.121867 C 2.684065 1.559367 2.99969 0.796867 2.99969 -0.000008 C 2.99969 -0.796883 2.684065 -1.559383 2.121565 -2.121883 C 1.559065 -2.684383 0.796565 -3.000008 -0.00031 -3.000008 C -0.79406 -3.000008 -1.559685 -2.684383 -2.122185 -2.121883 C -2.684685 -1.559383 -3.00031 -0.796883 -3.00031 -0.000008 C -3.00031 0.796867 -2.684685 1.559367 -2.122185 2.121867 C -1.559685 2.684367 -0.79406 2.999992 -0.00031 2.999992 Z M -0.00031 2.999992 " transform="matrix(1.25,0,0,1.25,81.723044,119.90626)"/>
<path style="fill-rule:nonzero;fill:rgb(100%,49.803922%,5.490196%);fill-opacity:0.501961;stroke-width:1;stroke-linecap:butt;stroke-linejoin:round;stroke:rgb(100%,49.803922%,5.490196%);stroke-opacity:0.501961;stroke-miterlimit:4;" d="M -0.000436 3.000376 C 0.796439 3.000376 1.558939 2.684751 2.121439 2.122251 C 2.683939 1.559751 2.999564 0.794126 2.999564 0.000376 C 2.999564 -0.796499 2.683939 -1.558999 2.121439 -2.121499 C 1.558939 -2.683999 0.796439 -2.999624 -0.000436 -2.999624 C -0.794186 -2.999624 -1.559811 -2.683999 -2.122311 -2.121499 C -2.684811 -1.558999 -3.000436 -0.796499 -3.000436 0.000376 C -3.000436 0.794126 -2.684811 1.559751 -2.122311 2.122251 C -1.559811 2.684751 -0.794186 3.000376 -0.000436 3.000376 Z M -0.000436 3.000376 " transform="matrix(1.25,0,0,1.25,97.043514,91.894061)"/>
<path style="fill-rule:nonzero;fill:rgb(100%,49.803922%,5.490196%);fill-opacity:0.501961;stroke-width:1;stroke-linecap:butt;stroke-linejoin:round;stroke:rgb(100%,49.803922%,5.490196%);stroke-opacity:0.501961;stroke-miterlimit:4;" d="M -0.000612 3.001023 C 0.796263 3.001023 1.558763 2.685398 2.121263 2.119773 C 2.683763 1.557273 2.999388 0.794773 2.999388 0.001023 C 2.999388 -0.795852 2.683763 -1.558352 2.121263 -2.120852 C 1.558763 -2.683352 0.796263 -2.998977 -0.000612 -2.998977 C -0.794362 -2.998977 -1.559987 -2.683352 -2.122487 -2.120852 C -2.684987 -1.558352 -3.000612 -0.795852 -3.000612 0.001023 C -3.000612 0.794773 -2.684987 1.557273 -2.122487 2.119773 C -1.559987 2.685398 -0.794362 3.001023 -0.000612 3.001023 Z M -0.000612 3.001023 " transform="matrix(1.25,0,0,1.25,98.371859,88.467471)"/>
<path style="fill-rule:nonzero;fill:rgb(100%,49.803922%,5.490196%);fill-opacity:0.501961;stroke-width:1;stroke-linecap:butt;stroke-linejoin:round;stroke:rgb(100%,49.803922%,5.490196%);stroke-opacity:0.501961;stroke-miterlimit:4;" d="M 0.001126 2.9995 C 0.794876 2.9995 1.557376 2.683875 2.119876 2.121375 C 2.682376 1.558875 3.001126 0.796375 3.001126 -0.0005 C 3.001126 -0.79425 2.682376 -1.559875 2.119876 -2.122375 C 1.557376 -2.684875 0.794876 -3.0005 0.001126 -3.0005 C -0.795749 -3.0005 -1.558249 -2.684875 -2.120749 -2.122375 C -2.683249 -1.559875 -2.998874 -0.79425 -2.998874 -0.0005 C -2.998874 0.796375 -2.683249 1.558875 -2.120749 2.121375 C -1.558249 2.683875 -0.795749 2.9995 0.001126 2.9995 Z M 0.001126 2.9995 " transform="matrix(1.25,0,0,1.25,102.826718,101.871719)"/>
<path style="fill-rule:nonzero;fill:rgb(100%,49.803922%,5.490196%);fill-opacity:0.501961;stroke-width:1;stroke-linecap:butt;stroke-linejoin:round;stroke:rgb(100%,49.803922%,5.490196%);stroke-opacity:0.501961;stroke-miterlimit:4;" d="M -0.001316 3.000076 C 0.795559 3.000076 1.558059 2.684451 2.120559 2.121951 C 2.683059 1.559451 2.998684 0.796951 2.998684 0.000076 C 2.998684 -0.796799 2.683059 -1.559299 2.120559 -2.121799 C 1.558059 -2.684299 0.795559 -2.999924 -0.001316 -2.999924 C -0.795066 -2.999924 -1.557566 -2.684299 -2.120066 -2.121799 C -2.682566 -1.559299 -3.001316 -0.796799 -3.001316 0.000076 C -3.001316 0.796951 -2.682566 1.559451 -2.120066 2.121951 C -1.557566 2.684451 -0.795066 3.000076 -0.001316 3.000076 Z M -0.001316 3.000076 " transform="matrix(1.25,0,0,1.25,105.575864,70.480374)"/>
<path style="fill-rule:nonzero;fill:rgb(100%,49.803922%,5.490196%);fill-opacity:0.501961;stroke-width:1;stroke-linecap:butt;stroke-linejoin:round;stroke:rgb(100%,49.803922%,5.490196%);stroke-opacity:0.501961;stroke-miterlimit:4;" d="M -0.000066 2.998708 C 0.796809 2.998708 1.559309 2.683083 2.121809 2.120583 C 2.684309 1.558083 2.999934 0.795583 2.999934 -0.001292 C 2.999934 -0.795042 2.684309 -1.557542 2.121809 -2.120042 C 1.559309 -2.682542 0.796809 -3.001292 -0.000066 -3.001292 C -0.796941 -3.001292 -1.559441 -2.682542 -2.121941 -2.120042 C -2.684441 -1.557542 -3.000066 -0.795042 -3.000066 -0.001292 C -3.000066 0.795583 -2.684441 1.558083 -2.121941 2.120583 C -1.559441 2.683083 -0.796941 2.998708 -0.000066 2.998708 Z M -0.000066 2.998708 " transform="matrix(1.25,0,0,1.25,105.914145,90.310209)"/>
<path style="fill-rule:nonzero;fill:rgb(100%,49.803922%,5.490196%);fill-opacity:0.501961;stroke-width:1;stroke-linecap:butt;stroke-linejoin:round;stroke:rgb(100%,49.803922%,5.490196%);stroke-opacity:0.501961;stroke-miterlimit:4;" d="M 0.000704 3.000719 C 0.794454 3.000719 1.560079 2.685094 2.122579 2.122594 C 2.685079 1.560094 3.000704 0.794469 3.000704 0.000719 C 3.000704 -0.796156 2.685079 -1.558656 2.122579 -2.121156 C 1.560079 -2.683656 0.794454 -2.999281 0.000704 -2.999281 C -0.796171 -2.999281 -1.558671 -2.683656 -2.121171 -2.121156 C -2.683671 -1.558656 -2.999296 -0.796156 -2.999296 0.000719 C -2.999296 0.794469 -2.683671 1.560094 -2.121171 2.122594 C -1.558671 2.685094 -0.796171 3.000719 0.000704 3.000719 Z M 0.000704 3.000719 " transform="matrix(1.25,0,0,1.25,112.366308,44.159258)"/>
<path style="fill-rule:nonzero;fill:rgb(100%,49.803922%,5.490196%);fill-opacity:0.501961;stroke-width:1;stroke-linecap:butt;stroke-linejoin:round;stroke:rgb(100%,49.803922%,5.490196%);stroke-opacity:0.501961;stroke-miterlimit:4;" d="M -0.00149 2.998781 C 0.795385 2.998781 1.557885 2.683156 2.120385 2.120656 C 2.682885 1.558156 2.99851 0.795656 2.99851 -0.001219 C 2.99851 -0.794969 2.682885 -1.557469 2.120385 -2.119969 C 1.557885 -2.682469 0.795385 -3.001219 -0.00149 -3.001219 C -0.79524 -3.001219 -1.55774 -2.682469 -2.12024 -2.119969 C -2.68274 -1.557469 -3.00149 -0.794969 -3.00149 -0.001219 C -3.00149 0.795656 -2.68274 1.558156 -2.12024 2.120656 C -1.55774 2.683156 -0.79524 2.998781 -0.00149 2.998781 Z M -0.00149 2.998781 " transform="matrix(1.25,0,0,1.25,123.732331,62.114805)"/>
<path style="fill-rule:nonzero;fill:rgb(100%,49.803922%,5.490196%);fill-opacity:0.501961;stroke-width:1;stroke-linecap:butt;stroke-linejoin:round;stroke:rgb(100%,49.803922%,5.490196%);stroke-opacity:0.501961;stroke-miterlimit:4;" d="M 0.001295 2.999701 C 0.795045 2.999701 1.557545 2.684076 2.120045 2.121576 C 2.682545 1.559076 3.001295 0.796576 3.001295 -0.000299 C 3.001295 -0.794049 2.682545 -1.559674 2.120045 -2.122174 C 1.557545 -2.684674 0.795045 -3.000299 0.001295 -3.000299 C -0.79558 -3.000299 -1.55808 -2.684674 -2.12058 -2.122174 C -2.68308 -1.559674 -2.998705 -0.794049 -2.998705 -0.000299 C -2.998705 0.796576 -2.68308 1.559076 -2.12058 2.121576 C -1.55808 2.684076 -0.79558 2.999701 0.001295 2.999701 Z M 0.001295 2.999701 " transform="matrix(1.25,0,0,1.25,123.79135,52.730843)"/>
<path style="fill-rule:nonzero;fill:rgb(100%,49.803922%,5.490196%);fill-opacity:0.501961;stroke-width:1;stroke-linecap:butt;stroke-linejoin:round;stroke:rgb(100%,49.803922%,5.490196%);stroke-opacity:0.501961;stroke-miterlimit:4;" d="M -0.001468 2.999141 C 0.795407 2.999141 1.557907 2.683516 2.120407 2.121016 C 2.682907 1.558516 2.998532 0.796016 2.998532 -0.000859 C 2.998532 -0.794609 2.682907 -1.560234 2.120407 -2.122734 C 1.557907 -2.685234 0.795407 -3.000859 -0.001468 -3.000859 C -0.795218 -3.000859 -1.557718 -2.685234 -2.120218 -2.122734 C -2.682718 -1.560234 -3.001468 -0.794609 -3.001468 -0.000859 C -3.001468 0.796016 -2.682718 1.558516 -2.120218 2.121016 C -1.557718 2.683516 -0.795218 2.999141 -0.001468 2.999141 Z M -0.001468 2.999141 " transform="matrix(1.25,0,0,1.25,129.247929,63.887792)"/>
<path style="fill-rule:nonzero;fill:rgb(100%,49.803922%,5.490196%);fill-opacity:0.501961;stroke-width:1;stroke-linecap:butt;stroke-linejoin:round;stroke:rgb(100%,49.803922%,5.490196%);stroke-opacity:0.501961;stroke-miterlimit:4;" d="M -0.000172 2.999398 C 0.796703 2.999398 1.559203 2.683773 2.121703 2.121273 C 2.684203 1.558773 2.999828 0.796273 2.999828 -0.000602 C 2.999828 -0.794352 2.684203 -1.559977 2.121703 -2.122477 C 1.559203 -2.684977 0.796703 -3.000602 -0.000172 -3.000602 C -0.797047 -3.000602 -1.559547 -2.684977 -2.122047 -2.122477 C -2.684547 -1.559977 -3.000172 -0.794352 -3.000172 -0.000602 C -3.000172 0.796273 -2.684547 1.558773 -2.122047 2.121273 C -1.559547 2.683773 -0.797047 2.999398 -0.000172 2.999398 Z M -0.000172 2.999398 " transform="matrix(1.25,0,0,1.25,134.597871,62.508565)"/>
<path style="fill-rule:nonzero;fill:rgb(100%,49.803922%,5.490196%);fill-opacity:0.501961;stroke-width:1;stroke-linecap:butt;stroke-linejoin:round;stroke:rgb(100%,49.803922%,5.490196%);stroke-opacity:0.501961;stroke-miterlimit:4;" d="M 0.000888 2.998853 C 0.794638 2.998853 1.560263 2.683228 2.122763 2.120728 C 2.685263 1.558228 3.000888 0.795728 3.000888 -0.001147 C 3.000888 -0.794897 2.685263 -1.557397 2.122763 -2.119897 C 1.560263 -2.682397 0.794638 -3.001147 0.000888 -3.001147 C -0.795987 -3.001147 -1.558487 -2.682397 -2.120987 -2.119897 C -2.683487 -1.557397 -2.999112 -0.794897 -2.999112 -0.001147 C -2.999112 0.795728 -2.683487 1.558228 -2.120987 2.120728 C -1.558487 2.683228 -0.795987 2.998853 0.000888 2.998853 Z M 0.000888 2.998853 " transform="matrix(1.25,0,0,1.25,137.170765,44.540496)"/>
<path style="fill-rule:nonzero;fill:rgb(100%,49.803922%,5.490196%);fill-opacity:0.501961;stroke-width:1;stroke-linecap:butt;stroke-linejoin:round;stroke:rgb(100%,49.803922%,5.490196%);stroke-opacity:0.501961;stroke-miterlimit:4;" d="M 0.000474 2.998445 C 0.794224 2.998445 1.559849 2.68282 2.122349 2.12032 C 2.684849 1.55782 3.000474 0.79532 3.000474 -0.001555 C 3.000474 -0.795305 2.684849 -1.557805 2.122349 -2.120305 C 1.559849 -2.682805 0.794224 -3.001555 0.000474 -3.001555 C -0.796401 -3.001555 -1.558901 -2.682805 -2.121401 -2.120305 C -2.683901 -1.557805 -2.999526 -0.795305 -2.999526 -0.001555 C -2.999526 0.79532 -2.683901 1.55782 -2.121401 2.12032 C -1.558901 2.68282 -0.796401 2.998445 0.000474 2.998445 Z M 0.000474 2.998445 " transform="matrix(1.25,0,0,1.25,142.722064,68.169912)"/>
<path style="fill-rule:nonzero;fill:rgb(100%,49.803922%,5.490196%);fill-opacity:0.501961;stroke-width:1;stroke-linecap:butt;stroke-linejoin:round;stroke:rgb(100%,49.803922%,5.490196%);stroke-opacity:0.501961;stroke-miterlimit:4;" d="M 0.000876 2.998545 C 0.794626 2.998545 1.560251 2.68292 2.122751 2.12042 C 2.685251 1.55792 3.000876 0.79542 3.000876 -0.001455 C 3.000876 -0.795205 2.685251 -1.557705 2.122751 -2.120205 C 1.560251 -2.682705 0.794626 -3.001455 0.000876 -3.001455 C -0.795999 -3.001455 -1.558499 -2.682705 -2.120999 -2.120205 C -2.683499 -1.557705 -2.999124 -0.795205 -2.999124 -0.001455 C -2.999124 0.79542 -2.683499 1.55792 -2.120999 2.12042 C -1.558499 2.68292 -0.795999 2.998545 0.000876 2.998545 Z M 0.000876 2.998545 " transform="matrix(1.25,0,0,1.25,157.010624,56.283069)"/>
<path style="fill-rule:nonzero;fill:rgb(100%,49.803922%,5.490196%);fill-opacity:0.501961;stroke-width:1;stroke-linecap:butt;stroke-linejoin:round;stroke:rgb(100%,49.803922%,5.490196%);stroke-opacity:0.501961;stroke-miterlimit:4;" d="M -0.000515 3.001383 C 0.79636 3.001383 1.55886 2.682633 2.12136 2.120133 C 2.68386 1.557633 2.999485 0.795133 2.999485 0.001383 C 2.999485 -0.795492 2.68386 -1.557992 2.12136 -2.120492 C 1.55886 -2.682992 0.79636 -2.998617 -0.000515 -2.998617 C -0.794265 -2.998617 -1.55989 -2.682992 -2.12239 -2.120492 C -2.68489 -1.557992 -3.000515 -0.795492 -3.000515 0.001383 C -3.000515 0.795133 -2.68489 1.557633 -2.12239 2.120133 C -1.55989 2.682633 -0.794265 3.001383 -0.000515 3.001383 Z M -0.000515 3.001383 " transform="matrix(1.25,0,0,1.25,162.242831,38.244365)"/>
<path style="fill-rule:nonzero;fill:rgb(100%,49.803922%,5.490196%);fill-opacity:0.501961;stroke-width:1;stroke-linecap:butt;stroke-linejoin:round;stroke:rgb(100%,49.803922%,5.490196%);stroke-opacity:0.501961;stroke-miterlimit:4;" d="M -0.000482 2.998643 C 0.796393 2.998643 1.558893 2.683018 2.121393 2.120518 C 2.683893 1.558018 2.999518 0.795518 2.999518 -0.001357 C 2.999518 -0.795107 2.683893 -1.557607 2.121393 -2.120107 C 1.558893 -2.682607 0.796393 -3.001357 -0.000482 -3.001357 C -0.794232 -3.001357 -1.559857 -2.682607 -2.122357 -2.120107 C -2.684857 -1.557607 -3.000482 -0.795107 -3.000482 -0.001357 C -3.000482 0.795518 -2.684857 1.558018 -2.122357 2.120518 C -1.559857 2.683018 -0.794232 2.998643 -0.000482 2.998643 Z M -0.000482 2.998643 " transform="matrix(1.25,0,0,1.25,165.332634,55.353259)"/>
<path style="fill-rule:nonzero;fill:rgb(100%,49.803922%,5.490196%);fill-opacity:0.501961;stroke-width:1;stroke-linecap:butt;stroke-linejoin:round;stroke:rgb(100%,49.803922%,5.490196%);stroke-opacity:0.501961;stroke-miterlimit:4;" d="M 0.000034 3.000005 C 0.796909 3.000005 1.559409 2.68438 2.121909 2.12188 C 2.684409 1.55938 3.000034 0.79688 3.000034 0.000005 C 3.000034 -0.79687 2.684409 -1.55937 2.121909 -2.12187 C 1.559409 -2.68437 0.796909 -2.999995 0.000034 -2.999995 C -0.796841 -2.999995 -1.559341 -2.68437 -2.121841 -2.12187 C -2.684341 -1.55937 -2.999966 -0.79687 -2.999966 0.000005 C -2.999966 0.79688 -2.684341 1.55938 -2.121841 2.12188 C -1.559341 2.68438 -0.796841 3.000005 0.000034 3.000005 Z M 0.000034 3.000005 " transform="matrix(1.25,0,0,1.25,169.277301,63.664056)"/>
<path style="fill-rule:nonzero;fill:rgb(100%,49.803922%,5.490196%);fill-opacity:0.501961;stroke-width:1;stroke-linecap:butt;stroke-linejoin:round;stroke:rgb(100%,49.803922%,5.490196%);stroke-opacity:0.501961;stroke-miterlimit:4;" d="M -0.001276 3.000345 C 0.795599 3.000345 1.558099 2.68472 2.120599 2.12222 C 2.683099 1.55972 2.998724 0.794095 2.998724 0.000345 C 2.998724 -0.79653 2.683099 -1.55903 2.120599 -2.12153 C 1.558099 -2.68403 0.795599 -2.999655 -0.001276 -2.999655 C -0.795026 -2.999655 -1.557526 -2.68403 -2.120026 -2.12153 C -2.682526 -1.55903 -3.001276 -0.79653 -3.001276 0.000345 C -3.001276 0.794095 -2.682526 1.55972 -2.120026 2.12222 C -1.557526 2.68472 -0.795026 3.000345 -0.001276 3.000345 Z M -0.001276 3.000345 " transform="matrix(1.25,0,0,1.25,183.903939,64.308163)"/>
<path style="fill-rule:nonzero;fill:rgb(100%,49.803922%,5.490196%);fill-opacity:0.501961;stroke-width:1;stroke-linecap:butt;stroke-linejoin:round;stroke:rgb(100%,49.803922%,5.490196%);stroke-opacity:0.501961;stroke-miterlimit:4;" d="M -0.000884 3.001309 C 0.795991 3.001309 1.558491 2.682559 2.120991 2.120059 C 2.683491 1.557559 2.999116 0.795059 2.999116 0.001309 C 2.999116 -0.795566 2.683491 -1.558066 2.120991 -2.120566 C 1.558491 -2.683066 0.795991 -2.998691 -0.000884 -2.998691 C -0.794634 -2.998691 -1.560259 -2.683066 -2.122759 -2.120566 C -2.685259 -1.558066 -3.000884 -0.795566 -3.000884 0.001309 C -3.000884 0.795059 -2.685259 1.557559 -2.122759 2.120059 C -1.560259 2.682559 -0.794634 3.001309 -0.000884 3.001309 Z M -0.000884 3.001309 " transform="matrix(1.25,0,0,1.25,186.223761,65.068676)"/>
<path style="fill-rule:nonzero;fill:rgb(100%,49.803922%,5.490196%);fill-opacity:0.501961;stroke-width:1;stroke-linecap:butt;stroke-linejoin:round;stroke:rgb(100%,49.803922%,5.490196%);stroke-opacity:0.501961;stroke-miterlimit:4;" d="M 0.000351 2.998805 C 0.794101 2.998805 1.559726 2.68318 2.122226 2.12068 C 2.684726 1.55818 3.000351 0.79568 3.000351 -0.001195 C 3.000351 -0.794945 2.684726 -1.557445 2.122226 -2.119945 C 1.559726 -2.682445 0.794101 -3.001195 0.000351 -3.001195 C -0.796524 -3.001195 -1.559024 -2.682445 -2.121524 -2.119945 C -2.684024 -1.557445 -2.999649 -0.794945 -2.999649 -0.001195 C -2.999649 0.79568 -2.684024 1.55818 -2.121524 2.12068 C -1.559024 2.68318 -0.796524 2.998805 0.000351 2.998805 Z M 0.000351 2.998805 " transform="matrix(1.25,0,0,1.25,186.819874,90.892119)"/>
<path style="fill-rule:nonzero;fill:rgb(100%,49.803922%,5.490196%);fill-opacity:0.501961;stroke-width:1;stroke-linecap:butt;stroke-linejoin:round;stroke:rgb(100%,49.803922%,5.490196%);stroke-opacity:0.501961;stroke-miterlimit:4;" d="M 0.000242 2.998767 C 0.797117 2.998767 1.559617 2.683142 2.122117 2.120642 C 2.684617 1.558142 3.000242 0.795642 3.000242 -0.001233 C 3.000242 -0.794983 2.684617 -1.557483 2.122117 -2.119983 C 1.559617 -2.682483 0.797117 -3.001233 0.000242 -3.001233 C -0.796633 -3.001233 -1.559133 -2.682483 -2.121633 -2.119983 C -2.684133 -1.557483 -2.999758 -0.794983 -2.999758 -0.001233 C -2.999758 0.795642 -2.684133 1.558142 -2.121633 2.120642 C -1.559133 2.683142 -0.796633 2.998767 0.000242 2.998767 Z M 0.000242 2.998767 " transform="matrix(1.25,0,0,1.25,193.519229,72.23201)"/>
<path style="fill-rule:nonzero;fill:rgb(100%,49.803922%,5.490196%);fill-opacity:0.501961;stroke-width:1;stroke-linecap:butt;stroke-linejoin:round;stroke:rgb(100%,49.803922%,5.490196%);stroke-opacity:0.501961;stroke-miterlimit:4;" d="M 0.000367 2.998621 C 0.794117 2.998621 1.559742 2.682996 2.122242 2.120496 C 2.684742 1.557996 3.000367 0.795496 3.000367 -0.001379 C 3.000367 -0.795129 2.684742 -1.557629 2.122242 -2.120129 C 1.559742 -2.682629 0.794117 -3.001379 0.000367 -3.001379 C -0.796508 -3.001379 -1.559008 -2.682629 -2.121508 -2.120129 C -2.684008 -1.557629 -2.999633 -0.795129 -2.999633 -0.001379 C -2.999633 0.795496 -2.684008 1.557996 -2.121508 2.120496 C -1.559008 2.682996 -0.796508 2.998621 0.000367 2.998621 Z M 0.000367 2.998621 " transform="matrix(1.25,0,0,1.25,199.54251,93.665786)"/>
<path style="fill-rule:nonzero;fill:rgb(100%,49.803922%,5.490196%);fill-opacity:0.501961;stroke-width:1;stroke-linecap:butt;stroke-linejoin:round;stroke:rgb(100%,49.803922%,5.490196%);stroke-opacity:0.501961;stroke-miterlimit:4;" d="M 0.000747 2.999936 C 0.794497 2.999936 1.560122 2.684311 2.122622 2.121811 C 2.685122 1.559311 3.000747 0.796811 3.000747 -0.000064 C 3.000747 -0.796939 2.685122 -1.559439 2.122622 -2.121939 C 1.560122 -2.684439 0.794497 -3.000064 0.000747 -3.000064 C -0.796128 -3.000064 -1.558628 -2.684439 -2.121128 -2.121939 C -2.683628 -1.559439 -2.999253 -0.796939 -2.999253 -0.000064 C -2.999253 0.796811 -2.683628 1.559311 -2.121128 2.121811 C -1.558628 2.684311 -0.796128 2.999936 0.000747 2.999936 Z M 0.000747 2.999936 " transform="matrix(1.25,0,0,1.25,205.049847,78.289142)"/>
<path style="fill-rule:nonzero;fill:rgb(100%,49.803922%,5.490196%);fill-opacity:0.501961;stroke-width:1;stroke-linecap:butt;stroke-linejoin:round;stroke:rgb(100%,49.803922%,5.490196%);stroke-opacity:0.501961;stroke-miterlimit:4;" d="M -0.000041 3.000761 C 0.796834 3.000761 1.559334 2.685136 2.121834 2.122636 C 2.684334 1.560136 2.999959 0.794511 2.999959 0.000761 C 2.999959 -0.796114 2.684334 -1.558614 2.121834 -2.121114 C 1.559334 -2.683614 0.796834 -2.999239 -0.000041 -2.999239 C -0.796916 -2.999239 -1.559416 -2.683614 -2.121916 -2.121114 C -2.684416 -1.558614 -3.000041 -0.796114 -3.000041 0.000761 C -3.000041 0.794511 -2.684416 1.560136 -2.121916 2.122636 C -1.559416 2.685136 -0.796916 3.000761 -0.000041 3.000761 Z M -0.000041 3.000761 " transform="matrix(1.25,0,0,1.25,207.890676,81.284205)"/>
<path style="fill-rule:nonzero;fill:rgb(100%,49.803922%,5.490196%);fill-opacity:0.501961;stroke-width:1;stroke-linecap:butt;stroke-linejoin:round;stroke:rgb(100%,49.803922%,5.490196%);stroke-opacity:0.501961;stroke-miterlimit:4;" d="M -0.000539 2.999972 C 0.796336 2.999972 1.558836 2.684347 2.121336 2.121847 C 2.683836 1.559347 2.999461 0.796847 2.999461 -0.000028 C 2.999461 -0.796903 2.683836 -1.559403 2.121336 -2.121903 C 1.558836 -2.684403 0.796336 -3.000028 -0.000539 -3.000028 C -0.794289 -3.000028 -1.559914 -2.684403 -2.122414 -2.121903 C -2.684914 -1.559403 -3.000539 -0.796903 -3.000539 -0.000028 C -3.000539 0.796847 -2.684914 1.559347 -2.122414 2.121847 C -1.559914 2.684347 -0.794289 2.999972 -0.000539 2.999972 Z M -0.000539 2.999972 " transform="matrix(1.25,0,0,1.25,231.492861,116.777379)"/>
<path style="fill-rule:nonzero;fill:rgb(100%,49.803922%,5.490196%);fill-opacity:0.501961;stroke-width:1;stroke-linecap:butt;stroke-linejoin:round;stroke:rgb(100%,49.803922%,5.490196%);stroke-opacity:0.501961;stroke-miterlimit:4;" d="M 0.000031 3.000202 C 0.796906 3.000202 1.559406 2.684577 2.121906 2.122077 C 2.684406 1.559577 3.000031 0.797077 3.000031 0.000202 C 3.000031 -0.796673 2.684406 -1.559173 2.121906 -2.121673 C 1.559406 -2.684173 0.796906 -2.999798 0.000031 -2.999798 C -0.796844 -2.999798 -1.559344 -2.684173 -2.121844 -2.121673 C -2.684344 -1.559173 -2.999969 -0.796673 -2.999969 0.000202 C -2.999969 0.797077 -2.684344 1.559577 -2.121844 2.122077 C -1.559344 2.684577 -0.796844 3.000202 0.000031 3.000202 Z M 0.000031 3.000202 " transform="matrix(1.25,0,0,1.25,231.859336,100.937247)"/>
<path style="fill-rule:nonzero;fill:rgb(100%,49.803922%,5.490196%);fill-opacity:0.501961;stroke-width:1;stroke-linecap:butt;stroke-linejoin:round;stroke:rgb(100%,49.803922%,5.490196%);stroke-opacity:0.501961;stroke-miterlimit:4;" d="M -0.000983 3.001169 C 0.795892 3.001169 1.558392 2.682419 2.120892 2.119919 C 2.683392 1.557419 2.999017 0.794919 2.999017 0.001169 C 2.999017 -0.795706 2.683392 -1.558206 2.120892 -2.120706 C 1.558392 -2.683206 0.795892 -2.998831 -0.000983 -2.998831 C -0.794733 -2.998831 -1.557233 -2.683206 -2.122858 -2.120706 C -2.685358 -1.558206 -3.000983 -0.795706 -3.000983 0.001169 C -3.000983 0.794919 -2.685358 1.557419 -2.122858 2.119919 C -1.557233 2.682419 -0.794733 3.001169 -0.000983 3.001169 Z M -0.000983 3.001169 " transform="matrix(1.25,0,0,1.25,237.481697,116.568851)"/>
<path style="fill-rule:nonzero;fill:rgb(100%,49.803922%,5.490196%);fill-opacity:0.501961;stroke-width:1;stroke-linecap:butt;stroke-linejoin:round;stroke:rgb(100%,49.803922%,5.490196%);stroke-opacity:0.501961;stroke-miterlimit:4;" d="M -0.000532 3.000251 C 0.796343 3.000251 1.558843 2.684626 2.121343 2.122126 C 2.683843 1.559626 2.999468 0.797126 2.999468 0.000251 C 2.999468 -0.796624 2.683843 -1.559124 2.121343 -2.121624 C 1.558843 -2.684124 0.796343 -2.999749 -0.000532 -2.999749 C -0.794282 -2.999749 -1.559907 -2.684124 -2.122407 -2.121624 C -2.684907 -1.559124 -3.000532 -0.796624 -3.000532 0.000251 C -3.000532 0.797126 -2.684907 1.559626 -2.122407 2.122126 C -1.559907 2.684626 -0.794282 3.000251 -0.000532 3.000251 Z M -0.000532 3.000251 " transform="matrix(1.25,0,0,1.25,244.215509,90.956717)"/>
<path style="fill-rule:nonzero;fill:rgb(100%,49.803922%,5.490196%);fill-opacity:0.501961;stroke-width:1;stroke-linecap:butt;stroke-linejoin:round;stroke:rgb(100%,49.803922%,5.490196%);stroke-opacity:0.501961;stroke-miterlimit:4;" d="M -0.000017 2.999929 C 0.796858 2.999929 1.559358 2.684304 2.121858 2.121804 C 2.684358 1.559304 2.999983 0.796804 2.999983 -0.000071 C 2.999983 -0.796946 2.684358 -1.559446 2.121858 -2.121946 C 1.559358 -2.684446 0.796858 -3.000071 -0.000017 -3.000071 C -0.796892 -3.000071 -1.559392 -2.684446 -2.121892 -2.121946 C -2.684392 -1.559446 -3.000017 -0.796946 -3.000017 -0.000071 C -3.000017 0.796804 -2.684392 1.559304 -2.121892 2.121804 C -1.559392 2.684304 -0.796892 2.999929 -0.000017 2.999929 Z M -0.000017 2.999929 " transform="matrix(1.25,0,0,1.25,244.347677,99.285245)"/>
<path style="fill-rule:nonzero;fill:rgb(100%,49.803922%,5.490196%);fill-opacity:0.501961;stroke-width:1;stroke-linecap:butt;stroke-linejoin:round;stroke:rgb(100%,49.803922%,5.490196%);stroke-opacity:0.501961;stroke-miterlimit:4;" d="M 0.000295 2.998999 C 0.79717 2.998999 1.55967 2.683374 2.12217 2.120874 C 2.68467 1.558374 3.000295 0.795874 3.000295 -0.001001 C 3.000295 -0.794751 2.68467 -1.557251 2.12217 -2.122876 C 1.55967 -2.685376 0.79717 -3.001001 0.000295 -3.001001 C -0.79658 -3.001001 -1.55908 -2.685376 -2.12158 -2.122876 C -2.68408 -1.557251 -2.999705 -0.794751 -2.999705 -0.001001 C -2.999705 0.795874 -2.68408 1.558374 -2.12158 2.120874 C -1.55908 2.683374 -0.79658 2.998999 0.000295 2.998999 Z M 0.000295 2.998999 " transform="matrix(1.25,0,0,1.25,244.468381,107.302033)"/>
<path style="fill-rule:nonzero;fill:rgb(100%,49.803922%,5.490196%);fill-opacity:0.501961;stroke-width:1;stroke-linecap:butt;stroke-linejoin:round;stroke:rgb(100%,49.803922%,5.490196%);stroke-opacity:0.501961;stroke-miterlimit:4;" d="M 0.000738 2.999907 C 0.794488 2.999907 1.560113 2.684282 2.122613 2.121782 C 2.685113 1.559282 3.000738 0.796782 3.000738 -0.000093 C 3.000738 -0.796968 2.685113 -1.559468 2.122613 -2.121968 C 1.560113 -2.684468 0.794488 -3.000093 0.000738 -3.000093 C -0.796137 -3.000093 -1.558637 -2.684468 -2.121137 -2.121968 C -2.683637 -1.559468 -2.999262 -0.796968 -2.999262 -0.000093 C -2.999262 0.796782 -2.683637 1.559282 -2.121137 2.121782 C -1.558637 2.684282 -0.796137 2.999907 0.000738 2.999907 Z M 0.000738 2.999907 " transform="matrix(1.25,0,0,1.25,245.866265,100.74621)"/>
<path style="fill-rule:nonzero;fill:rgb(100%,49.803922%,5.490196%);fill-opacity:0.501961;stroke-width:1;stroke-linecap:butt;stroke-linejoin:round;stroke:rgb(100%,49.803922%,5.490196%);stroke-opacity:0.501961;stroke-miterlimit:4;" d="M -0.000404 3.000266 C 0.796471 3.000266 1.558971 2.684641 2.121471 2.122141 C 2.683971 1.559641 2.999596 0.797141 2.999596 0.000266 C 2.999596 -0.796609 2.683971 -1.559109 2.121471 -2.121609 C 1.558971 -2.684109 0.796471 -2.999734 -0.000404 -2.999734 C -0.794154 -2.999734 -1.559779 -2.684109 -2.122279 -2.121609 C -2.684779 -1.559109 -3.000404 -0.796609 -3.000404 0.000266 C -3.000404 0.797141 -2.684779 1.559641 -2.122279 2.122141 C -1.559779 2.684641 -0.794154 3.000266 -0.000404 3.000266 Z M -0.000404 3.000266 " transform="matrix(1.25,0,0,1.25,246.160661,113.999668)"/>
<path style="fill-rule:nonzero;fill:rgb(100%,49.803922%,5.490196%);fill-opacity:0.501961;stroke-width:1;stroke-linecap:butt;stroke-linejoin:round;stroke:rgb(100%,49.803922%,5.490196%);stroke-opacity:0.501961;stroke-miterlimit:4;" d="M -0.000812 2.998519 C 0.796063 2.998519 1.558563 2.682894 2.121063 2.120394 C 2.683563 1.557894 2.999188 0.795394 2.999188 -0.001481 C 2.999188 -0.795231 2.683563 -1.557731 2.121063 -2.120231 C 1.558563 -2.682731 0.796063 -3.001481 -0.000812 -3.001481 C -0.794562 -3.001481 -1.560187 -2.682731 -2.122687 -2.120231 C -2.685187 -1.557731 -3.000812 -0.795231 -3.000812 -0.001481 C -3.000812 0.795394 -2.685187 1.557894 -2.122687 2.120394 C -1.560187 2.682894 -0.794562 2.998519 -0.000812 2.998519 Z M -0.000812 2.998519 " transform="matrix(1.25,0,0,1.25,246.73539,124.333883)"/>
<path style="fill-rule:nonzero;fill:rgb(100%,49.803922%,5.490196%);fill-opacity:0.501961;stroke-width:1;stroke-linecap:butt;stroke-linejoin:round;stroke:rgb(100%,49.803922%,5.490196%);stroke-opacity:0.501961;stroke-miterlimit:4;" d="M -0.000685 2.999384 C 0.79619 2.999384 1.55869 2.683759 2.12119 2.121259 C 2.68369 1.558759 2.999315 0.796259 2.999315 -0.000616 C 2.999315 -0.794366 2.68369 -1.559991 2.12119 -2.122491 C 1.55869 -2.684991 0.79619 -3.000616 -0.000685 -3.000616 C -0.794435 -3.000616 -1.56006 -2.684991 -2.12256 -2.122491 C -2.68506 -1.559991 -3.000685 -0.794366 -3.000685 -0.000616 C -3.000685 0.796259 -2.68506 1.558759 -2.12256 2.121259 C -1.56006 2.683759 -0.794435 2.999384 -0.000685 2.999384 Z M -0.000685 2.999384 " transform="matrix(1.25,0,0,1.25,252.883669,119.504676)"/>
<path style="fill-rule:nonzero;fill:rgb(100%,49.803922%,5.490196%);fill-opacity:0.501961;stroke-width:1;stroke-linecap:butt;stroke-linejoin:round;stroke:rgb(100%,49.803922%,5.490196%);stroke-opacity:0.501961;stroke-miterlimit:4;" d="M -0.000894 2.999969 C 0.795981 2.999969 1.558481 2.684344 2.120981 2.121844 C 2.683481 1.559344 2.999106 0.796844 2.999106 -0.000031 C 2.999106 -0.796906 2.683481 -1.559406 2.120981 -2.121906 C 1.558481 -2.684406 0.795981 -3.000031 -0.000894 -3.000031 C -0.794644 -3.000031 -1.560269 -2.684406 -2.122769 -2.121906 C -2.685269 -1.559406 -3.000894 -0.796906 -3.000894 -0.000031 C -3.000894 0.796844 -2.685269 1.559344 -2.122769 2.121844 C -1.560269 2.684344 -0.794644 2.999969 -0.000894 2.999969 Z M -0.000894 2.999969 " transform="matrix(1.25,0,0,1.25,257.817524,130.234414)"/>
<path style="fill-rule:nonzero;fill:rgb(100%,49.803922%,5.490196%);fill-opacity:0.501961;stroke-width:1;stroke-linecap:butt;stroke-linejoin:round;stroke:rgb(100%,49.803922%,5.490196%);stroke-opacity:0.501961;stroke-miterlimit:4;" d="M -0.001134 2.999127 C 0.795741 2.999127 1.558241 2.683502 2.120741 2.121002 C 2.683241 1.558502 2.998866 0.796002 2.998866 -0.000873 C 2.998866 -0.794623 2.683241 -1.560248 2.120741 -2.122748 C 1.558241 -2.685248 0.795741 -3.000873 -0.001134 -3.000873 C -0.794884 -3.000873 -1.557384 -2.685248 -2.119884 -2.122748 C -2.682384 -1.560248 -3.001134 -0.794623 -3.001134 -0.000873 C -3.001134 0.796002 -2.682384 1.558502 -2.119884 2.121002 C -1.557384 2.683502 -0.794884 2.999127 -0.001134 2.999127 Z M -0.001134 2.999127 " transform="matrix(1.25,0,0,1.25,258.841261,110.770623)"/>
<path style="fill-rule:nonzero;fill:rgb(100%,49.803922%,5.490196%);fill-opacity:0.501961;stroke-width:1;stroke-linecap:butt;stroke-linejoin:round;stroke:rgb(100%,49.803922%,5.490196%);stroke-opacity:0.501961;stroke-miterlimit:4;" d="M 0.000616 2.998994 C 0.794366 2.998994 1.559991 2.683369 2.122491 2.120869 C 2.684991 1.558369 3.000616 0.795869 3.000616 -0.001006 C 3.000616 -0.794756 2.684991 -1.557256 2.122491 -2.122881 C 1.559991 -2.685381 0.794366 -3.001006 0.000616 -3.001006 C -0.796259 -3.001006 -1.558759 -2.685381 -2.121259 -2.122881 C -2.683759 -1.557256 -2.999384 -0.794756 -2.999384 -0.001006 C -2.999384 0.795869 -2.683759 1.558369 -2.121259 2.120869 C -1.558759 2.683369 -0.796259 2.998994 0.000616 2.998994 Z M 0.000616 2.998994 " transform="matrix(1.25,0,0,1.25,264.921105,121.97782)"/>
<path style="fill-rule:nonzero;fill:rgb(100%,49.803922%,5.490196%);fill-opacity:0.501961;stroke-width:1;stroke-linecap:butt;stroke-linejoin:round;stroke:rgb(100%,49.803922%,5.490196%);stroke-opacity:0.501961;stroke-miterlimit:4;" d="M 0.000961 2.999155 C 0.794711 2.999155 1.557211 2.68353 2.122836 2.12103 C 2.685336 1.55853 3.000961 0.79603 3.000961 -0.000845 C 3.000961 -0.794595 2.685336 -1.56022 2.122836 -2.12272 C 1.557211 -2.68522 0.794711 -3.000845 0.000961 -3.000845 C -0.795914 -3.000845 -1.558414 -2.68522 -2.120914 -2.12272 C -2.683414 -1.56022 -2.999039 -0.794595 -2.999039 -0.000845 C -2.999039 0.79603 -2.683414 1.55853 -2.120914 2.12103 C -1.558414 2.68353 -0.795914 2.999155 0.000961 2.999155 Z M 0.000961 2.999155 " transform="matrix(1.25,0,0,1.25,271.389424,135.317463)"/>
<path style="fill-rule:nonzero;fill:rgb(100%,49.803922%,5.490196%);fill-opacity:0.501961;stroke-width:1;stroke-linecap:butt;stroke-linejoin:round;stroke:rgb(100%,49.803922%,5.490196%);stroke-opacity:0.501961;stroke-miterlimit:4;" d="M -0.000011 3.000215 C 0.796864 3.000215 1.559364 2.68459 2.121864 2.12209 C 2.684364 1.55959 2.999989 0.79709 2.999989 0.000215 C 2.999989 -0.79666 2.684364 -1.55916 2.121864 -2.12166 C 1.559364 -2.68416 0.796864 -2.999785 -0.000011 -2.999785 C -0.796886 -2.999785 -1.559386 -2.68416 -2.121886 -2.12166 C -2.684386 -1.55916 -3.000011 -0.79666 -3.000011 0.000215 C -3.000011 0.79709 -2.684386 1.55959 -2.121886 2.12209 C -1.559386 2.68459 -0.796886 3.000215 -0.000011 3.000215 Z M -0.000011 3.000215 " transform="matrix(1.25,0,0,1.25,278.914076,117.370825)"/>
<path style="fill-rule:nonzero;fill:rgb(100%,49.803922%,5.490196%);fill-opacity:0.501961;stroke-width:1;stroke-linecap:butt;stroke-linejoin:round;stroke:rgb(100%,49.803922%,5.490196%);stroke-opacity:0.501961;stroke-miterlimit:4;" d="M 0.000767 3.001306 C 0.794517 3.001306 1.560142 2.682556 2.122642 2.120056 C 2.685142 1.557556 3.000767 0.795056 3.000767 0.001306 C 3.000767 -0.795569 2.685142 -1.558069 2.122642 -2.120569 C 1.560142 -2.683069 0.794517 -2.998694 0.000767 -2.998694 C -0.796108 -2.998694 -1.558608 -2.683069 -2.121108 -2.120569 C -2.683608 -1.558069 -2.999233 -0.795569 -2.999233 0.001306 C -2.999233 0.795056 -2.683608 1.557556 -2.121108 2.120056 C -1.558608 2.682556 -0.796108 3.001306 0.000767 3.001306 Z M 0.000767 3.001306 " transform="matrix(1.25,0,0,1.25,282.803729,104.252274)"/>
<path style="fill-rule:nonzero;fill:rgb(100%,49.803922%,5.490196%);fill-opacity:0.501961;stroke-width:1;stroke-linecap:butt;stroke-linejoin:round;stroke:rgb(100%,49.803922%,5.490196%);stroke-opacity:0.501961;stroke-miterlimit:4;" d="M 0.001328 2.999857 C 0.795078 2.999857 1.557578 2.684232 2.120078 2.121732 C 2.682578 1.559232 3.001328 0.796732 3.001328 -0.000143 C 3.001328 -0.797018 2.682578 -1.559518 2.120078 -2.122018 C 1.557578 -2.684518 0.795078 -3.000143 0.001328 -3.000143 C -0.795547 -3.000143 -1.558047 -2.684518 -2.120547 -2.122018 C -2.683047 -1.559518 -2.998672 -0.797018 -2.998672 -0.000143 C -2.998672 0.796732 -2.683047 1.559232 -2.120547 2.121732 C -1.558047 2.684232 -0.795547 2.999857 0.001328 2.999857 Z M 0.001328 2.999857 " transform="matrix(1.25,0,0,1.25,283.916309,110.211116)"/>
<path style="fill-rule:nonzero;fill:rgb(100%,49.803922%,5.490196%);fill-opacity:0.501961;stroke-width:1;stroke-linecap:butt;stroke-linejoin:round;stroke:rgb(100%,49.803922%,5.490196%);stroke-opacity:0.501961;stroke-miterlimit:4;" d="M 0.001029 2.999199 C 0.794779 2.999199 1.557279 2.683574 2.119779 2.121074 C 2.685404 1.558574 3.001029 0.796074 3.001029 -0.000801 C 3.001029 -0.794551 2.685404 -1.560176 2.119779 -2.122676 C 1.557279 -2.685176 0.794779 -3.000801 0.001029 -3.000801 C -0.795846 -3.000801 -1.558346 -2.685176 -2.120846 -2.122676 C -2.683346 -1.560176 -2.998971 -0.794551 -2.998971 -0.000801 C -2.998971 0.796074 -2.683346 1.558574 -2.120846 2.121074 C -1.558346 2.683574 -0.795846 2.999199 0.001029 2.999199 Z M 0.001029 2.999199 " transform="matrix(1.25,0,0,1.25,284.205745,132.340845)"/>
<path style="fill-rule:nonzero;fill:rgb(100%,49.803922%,5.490196%);fill-opacity:0.501961;stroke-width:1;stroke-linecap:butt;stroke-linejoin:round;stroke:rgb(100%,49.803922%,5.490196%);stroke-opacity:0.501961;stroke-miterlimit:4;" d="M 0.00072 3.001122 C 0.79447 3.001122 1.560095 2.682372 2.122595 2.119872 C 2.685095 1.557372 3.00072 0.794872 3.00072 0.001122 C 3.00072 -0.795753 2.685095 -1.558253 2.122595 -2.120753 C 1.560095 -2.683253 0.79447 -2.998878 0.00072 -2.998878 C -0.796155 -2.998878 -1.558655 -2.683253 -2.121155 -2.120753 C -2.683655 -1.558253 -2.99928 -0.795753 -2.99928 0.001122 C -2.99928 0.794872 -2.683655 1.557372 -2.121155 2.119872 C -1.558655 2.682372 -0.796155 3.001122 0.00072 3.001122 Z M 0.00072 3.001122 " transform="matrix(1.25,0,0,1.25,285.944412,105.967347)"/>
<path style="fill-rule:nonzero;fill:rgb(100%,49.803922%,5.490196%);fill-opacity:0.501961;stroke-width:1;stroke-linecap:butt;stroke-linejoin:round;stroke:rgb(100%,49.803922%,5.490196%);stroke-opacity:0.501961;stroke-miterlimit:4;" d="M -0.001335 3.000732 C 0.79554 3.000732 1.55804 2.685107 2.12054 2.122607 C 2.68304 1.560107 2.998665 0.794482 2.998665 0.000732 C 2.998665 -0.796143 2.68304 -1.558643 2.12054 -2.121143 C 1.55804 -2.683643 0.79554 -2.999268 -0.001335 -2.999268 C -0.795085 -2.999268 -1.557585 -2.683643 -2.120085 -2.121143 C -2.682585 -1.558643 -3.001335 -0.796143 -3.001335 0.000732 C -3.001335 0.794482 -2.682585 1.560107 -2.120085 2.122607 C -1.557585 2.685107 -0.795085 3.000732 -0.001335 3.000732 Z M -0.001335 3.000732 " transform="matrix(1.25,0,0,1.25,290.181356,99.288148)"/>
<path style="fill-rule:nonzero;fill:rgb(100%,49.803922%,5.490196%);fill-opacity:0.501961;stroke-width:1;stroke-linecap:butt;stroke-linejoin:round;stroke:rgb(100%,49.803922%,5.490196%);stroke-opacity:0.501961;stroke-miterlimit:4;" d="M -0.000533 3.000846 C 0.796342 3.000846 1.558842 2.685221 2.121342 2.122721 C 2.683842 1.560221 2.999467 0.794596 2.999467 0.000846 C 2.999467 -0.796029 2.683842 -1.558529 2.121342 -2.121029 C 1.558842 -2.683529 0.796342 -2.999154 -0.000533 -2.999154 C -0.794283 -2.999154 -1.559908 -2.683529 -2.122408 -2.121029 C -2.684908 -1.558529 -3.000533 -0.796029 -3.000533 0.000846 C -3.000533 0.794596 -2.684908 1.560221 -2.122408 2.122721 C -1.559908 2.685221 -0.794283 3.000846 -0.000533 3.000846 Z M -0.000533 3.000846 " transform="matrix(1.25,0,0,1.25,290.250666,94.057536)"/>
<g clip-path="url(#clip17)" clip-rule="nonzero">
<path style=" stroke:none;fill-rule:nonzero;fill:rgb(100%,49.803922%,5.490196%);fill-opacity:0.501961;" d="M 294.195312 89.042969 C 295.191406 89.042969 296.144531 88.648438 296.847656 87.945312 C 297.550781 87.242188 297.945312 86.289062 297.945312 85.292969 C 297.945312 84.300781 297.550781 83.34375 296.847656 82.640625 C 296.144531 81.9375 295.191406 81.542969 294.195312 81.542969 C 293.203125 81.542969 292.246094 81.9375 291.542969 82.640625 C 290.839844 83.34375 290.445312 84.300781 290.445312 85.292969 C 290.445312 86.289062 290.839844 87.242188 291.542969 87.945312 C 292.246094 88.648438 293.203125 89.042969 294.195312 89.042969 Z M 294.195312 89.042969 "/>
</g>
<g clip-path="url(#clip18)" clip-rule="nonzero">
<path style="fill:none;stroke-width:1;stroke-linecap:butt;stroke-linejoin:round;stroke:rgb(100%,49.803922%,5.490196%);stroke-opacity:0.501961;stroke-miterlimit:4;" d="M -0.0005 2.999525 C 0.796375 2.999525 1.558875 2.6839 2.121375 2.1214 C 2.683875 1.5589 2.9995 0.7964 2.9995 -0.000475 C 2.9995 -0.794225 2.683875 -1.55985 2.121375 -2.12235 C 1.558875 -2.68485 0.796375 -3.000475 -0.0005 -3.000475 C -0.79425 -3.000475 -1.559875 -2.68485 -2.122375 -2.12235 C -2.684875 -1.55985 -3.0005 -0.794225 -3.0005 -0.000475 C -3.0005 0.7964 -2.684875 1.5589 -2.122375 2.1214 C -1.559875 2.6839 -0.79425 2.999525 -0.0005 2.999525 Z M -0.0005 2.999525 " transform="matrix(1.25,0,0,1.25,294.195938,85.293562)"/>
</g>
<path style="fill:none;stroke-width:0.8;stroke-linecap:square;stroke-linejoin:miter;stroke:rgb(0%,0%,0%);stroke-opacity:1;stroke-miterlimit:4;" d="M 42.61875 146.9 L 42.61875 11 " transform="matrix(1.25,0,0,1.25,0,0)"/>
<path style="fill:none;stroke-width:0.8;stroke-linecap:square;stroke-linejoin:miter;stroke:rgb(0%,0%,0%);stroke-opacity:1;stroke-miterlimit:4;" d="M 237.921875 146.9 L 237.921875 11 " transform="matrix(1.25,0,0,1.25,0,0)"/>
<path style="fill:none;stroke-width:0.8;stroke-linecap:square;stroke-linejoin:miter;stroke:rgb(0%,0%,0%);stroke-opacity:1;stroke-miterlimit:4;" d="M 42.61875 146.9 L 237.921875 146.9 " transform="matrix(1.25,0,0,1.25,0,0)"/>
<path style="fill:none;stroke-width:0.8;stroke-linecap:square;stroke-linejoin:miter;stroke:rgb(0%,0%,0%);stroke-opacity:1;stroke-miterlimit:4;" d="M 42.61875 11 L 237.921875 11 " transform="matrix(1.25,0,0,1.25,0,0)"/>
<use xlink:href="#surface6" mask="url(#mask0)"/>
<path style="fill:none;stroke-width:1.5;stroke-linecap:square;stroke-linejoin:round;stroke:rgb(12.156863%,46.666667%,70.588235%);stroke-opacity:1;stroke-miterlimit:4;" d="M 175.58125 24.096875 L 195.58125 24.096875 " transform="matrix(1.25,0,0,1.25,0,0)"/>
<path style=" stroke:none;fill-rule:nonzero;fill:rgb(0%,0%,0%);fill-opacity:1;" d="M 254.4375 25.382812 L 262.148438 25.382812 L 262.148438 26.421875 L 258.914062 26.421875 L 258.914062 34.496094 L 257.675781 34.496094 L 257.675781 26.421875 L 254.4375 26.421875 Z M 254.4375 25.382812 "/>
<path style=" stroke:none;fill-rule:nonzero;fill:rgb(0%,0%,0%);fill-opacity:1;" d="M 265.40625 28.710938 C 265.28125 28.636719 265.144531 28.582031 264.996094 28.550781 C 264.847656 28.515625 264.683594 28.496094 264.503906 28.496094 C 263.871094 28.496094 263.382812 28.703125 263.042969 29.117188 C 262.703125 29.527344 262.53125 30.121094 262.53125 30.894531 L 262.53125 34.496094 L 261.402344 34.496094 L 261.402344 27.660156 L 262.53125 27.660156 L 262.53125 28.722656 C 262.769531 28.308594 263.078125 28 263.453125 27.800781 C 263.832031 27.597656 264.292969 27.496094 264.835938 27.496094 C 264.910156 27.496094 264.996094 27.503906 265.089844 27.511719 C 265.183594 27.523438 265.289062 27.535156 265.402344 27.558594 Z M 265.40625 28.710938 "/>
<path style=" stroke:none;fill-rule:nonzero;fill:rgb(0%,0%,0%);fill-opacity:1;" d="M 266.46875 31.800781 L 266.46875 27.660156 L 267.59375 27.660156 L 267.59375 31.757812 C 267.59375 32.402344 267.71875 32.890625 267.96875 33.214844 C 268.222656 33.535156 268.601562 33.699219 269.105469 33.699219 C 269.710938 33.699219 270.191406 33.503906 270.542969 33.117188 C 270.894531 32.730469 271.070312 32.203125 271.070312 31.535156 L 271.070312 27.660156 L 272.195312 27.660156 L 272.195312 34.496094 L 271.070312 34.496094 L 271.070312 33.445312 C 270.800781 33.863281 270.484375 34.171875 270.121094 34.371094 C 269.761719 34.574219 269.34375 34.675781 268.867188 34.675781 C 268.082031 34.675781 267.488281 34.429688 267.078125 33.941406 C 266.671875 33.453125 266.46875 32.738281 266.46875 31.800781 Z M 269.296875 27.496094 Z M 269.296875 27.496094 "/>
<path style=" stroke:none;fill-rule:nonzero;fill:rgb(0%,0%,0%);fill-opacity:1;" d="M 275.617188 25.71875 L 275.617188 27.660156 L 277.929688 27.660156 L 277.929688 28.535156 L 275.617188 28.535156 L 275.617188 32.246094 C 275.617188 32.800781 275.695312 33.160156 275.847656 33.320312 C 276 33.476562 276.308594 33.558594 276.777344 33.558594 L 277.929688 33.558594 L 277.929688 34.496094 L 276.777344 34.496094 C 275.910156 34.496094 275.3125 34.335938 274.984375 34.011719 C 274.65625 33.6875 274.488281 33.097656 274.488281 32.246094 L 274.488281 28.535156 L 273.664062 28.535156 L 273.664062 27.660156 L 274.488281 27.660156 L 274.488281 25.71875 Z M 275.617188 25.71875 "/>
<path style=" stroke:none;fill-rule:nonzero;fill:rgb(0%,0%,0%);fill-opacity:1;" d="M 285.09375 30.371094 L 285.09375 34.496094 L 283.96875 34.496094 L 283.96875 30.40625 C 283.96875 29.761719 283.84375 29.277344 283.589844 28.957031 C 283.335938 28.632812 282.960938 28.472656 282.457031 28.472656 C 281.847656 28.472656 281.371094 28.667969 281.019531 29.054688 C 280.667969 29.4375 280.496094 29.964844 280.496094 30.632812 L 280.496094 34.496094 L 279.367188 34.496094 L 279.367188 25 L 280.496094 25 L 280.496094 28.722656 C 280.765625 28.3125 281.082031 28.003906 281.445312 27.800781 C 281.808594 27.597656 282.230469 27.496094 282.707031 27.496094 C 283.492188 27.496094 284.085938 27.738281 284.488281 28.226562 C 284.890625 28.710938 285.09375 29.425781 285.09375 30.371094 Z M 285.09375 30.371094 "/>
<path style="fill:none;stroke-width:1.5;stroke-linecap:butt;stroke-linejoin:round;stroke:rgb(74.901961%,0%,74.901961%);stroke-opacity:1;stroke-dasharray:5.55,2.4;stroke-miterlimit:4;" d="M 175.58125 38.775 L 195.58125 38.775 " transform="matrix(1.25,0,0,1.25,0,0)"/>
<path style=" stroke:none;fill-rule:nonzero;fill:rgb(0%,0%,0%);fill-opacity:1;" d="M 256.9375 44.746094 L 256.9375 48.167969 L 258.484375 48.167969 C 259.0625 48.167969 259.503906 48.019531 259.816406 47.722656 C 260.128906 47.425781 260.289062 47.003906 260.289062 46.453125 C 260.289062 45.910156 260.128906 45.488281 259.816406 45.191406 C 259.503906 44.894531 259.0625 44.746094 258.484375 44.746094 Z M 255.703125 43.730469 L 258.484375 43.730469 C 259.507812 43.730469 260.28125 43.960938 260.804688 44.425781 C 261.328125 44.886719 261.585938 45.5625 261.585938 46.453125 C 261.585938 47.355469 261.328125 48.035156 260.804688 48.492188 C 260.28125 48.953125 259.507812 49.183594 258.484375 49.183594 L 256.9375 49.183594 L 256.9375 52.84375 L 255.703125 52.84375 Z M 255.703125 43.730469 "/>
<path style=" stroke:none;fill-rule:nonzero;fill:rgb(0%,0%,0%);fill-opacity:1;" d="M 266.933594 47.058594 C 266.808594 46.984375 266.671875 46.929688 266.523438 46.898438 C 266.375 46.863281 266.210938 46.84375 266.03125 46.84375 C 265.398438 46.84375 264.910156 47.050781 264.570312 47.464844 C 264.230469 47.875 264.058594 48.46875 264.058594 49.242188 L 264.058594 52.84375 L 262.929688 52.84375 L 262.929688 46.007812 L 264.058594 46.007812 L 264.058594 47.070312 C 264.296875 46.65625 264.605469 46.347656 264.980469 46.148438 C 265.359375 45.945312 265.820312 45.84375 266.363281 45.84375 C 266.4375 45.84375 266.523438 45.851562 266.617188 45.859375 C 266.710938 45.871094 266.816406 45.882812 266.929688 45.90625 Z M 266.933594 47.058594 "/>
<path style=" stroke:none;fill-rule:nonzero;fill:rgb(0%,0%,0%);fill-opacity:1;" d="M 273.679688 49.144531 L 273.679688 49.695312 L 268.515625 49.695312 C 268.5625 50.46875 268.796875 51.058594 269.214844 51.460938 C 269.628906 51.867188 270.210938 52.070312 270.957031 52.070312 C 271.386719 52.070312 271.804688 52.015625 272.210938 51.910156 C 272.613281 51.804688 273.015625 51.648438 273.417969 51.433594 L 273.417969 52.496094 C 273.011719 52.667969 272.601562 52.796875 272.175781 52.886719 C 271.753906 52.976562 271.324219 53.023438 270.890625 53.023438 C 269.796875 53.023438 268.933594 52.707031 268.296875 52.070312 C 267.660156 51.4375 267.34375 50.578125 267.34375 49.492188 C 267.34375 48.375 267.644531 47.488281 268.25 46.832031 C 268.851562 46.171875 269.667969 45.84375 270.695312 45.84375 C 271.613281 45.84375 272.339844 46.140625 272.875 46.734375 C 273.410156 47.324219 273.679688 48.128906 273.679688 49.144531 Z M 272.554688 48.816406 C 272.546875 48.203125 272.375 47.710938 272.039062 47.347656 C 271.703125 46.980469 271.257812 46.796875 270.707031 46.796875 C 270.078125 46.796875 269.578125 46.972656 269.203125 47.328125 C 268.824219 47.679688 268.609375 48.179688 268.550781 48.824219 Z M 272.554688 48.816406 "/>
<path style=" stroke:none;fill-rule:nonzero;fill:rgb(0%,0%,0%);fill-opacity:1;" d="M 280.019531 47.046875 L 280.019531 43.347656 L 281.144531 43.347656 L 281.144531 52.84375 L 280.019531 52.84375 L 280.019531 51.820312 C 279.785156 52.226562 279.484375 52.527344 279.125 52.726562 C 278.765625 52.921875 278.332031 53.023438 277.828125 53.023438 C 277.003906 53.023438 276.332031 52.691406 275.8125 52.035156 C 275.292969 51.375 275.035156 50.507812 275.035156 49.433594 C 275.035156 48.359375 275.292969 47.492188 275.8125 46.832031 C 276.332031 46.175781 277.003906 45.84375 277.828125 45.84375 C 278.332031 45.84375 278.765625 45.945312 279.125 46.140625 C 279.484375 46.339844 279.785156 46.640625 280.019531 47.046875 Z M 276.195312 49.433594 C 276.195312 50.257812 276.363281 50.90625 276.703125 51.375 C 277.042969 51.847656 277.511719 52.082031 278.105469 52.082031 C 278.699219 52.082031 279.164062 51.847656 279.507812 51.375 C 279.847656 50.90625 280.019531 50.257812 280.019531 49.433594 C 280.019531 48.605469 279.847656 47.960938 279.507812 47.488281 C 279.164062 47.019531 278.699219 46.785156 278.105469 46.785156 C 277.511719 46.785156 277.042969 47.019531 276.703125 47.488281 C 276.363281 47.960938 276.195312 48.605469 276.195312 49.433594 Z M 276.195312 49.433594 "/>
</g>
</svg>
