<?xml version="1.0" encoding="UTF-8"?>
<svg xmlns="http://www.w3.org/2000/svg" xmlns:xlink="http://www.w3.org/1999/xlink" width="310pt" height="231pt" viewBox="0 0 310 231" version="1.1">
<defs>
<clipPath id="clip1">
  <path d="M 53.273438 13.75 L 54 13.75 L 54 183.625 L 53.273438 183.625 Z M 53.273438 13.75 "/>
</clipPath>
<clipPath id="clip2">
  <path d="M 101 13.75 L 103 13.75 L 103 183.625 L 101 183.625 Z M 101 13.75 "/>
</clipPath>
<clipPath id="clip3">
  <path d="M 150 13.75 L 152 13.75 L 152 183.625 L 150 183.625 Z M 150 13.75 "/>
</clipPath>
<clipPath id="clip4">
  <path d="M 199 13.75 L 201 13.75 L 201 183.625 L 199 183.625 Z M 199 13.75 "/>
</clipPath>
<clipPath id="clip5">
  <path d="M 247 13.75 L 250 13.75 L 250 183.625 L 247 183.625 Z M 247 13.75 "/>
</clipPath>
<clipPath id="clip6">
  <path d="M 296 13.75 L 297.398438 13.75 L 297.398438 183.625 L 296 183.625 Z M 296 13.75 "/>
</clipPath>
<clipPath id="clip7">
  <path d="M 53.273438 182 L 297.398438 182 L 297.398438 183.625 L 53.273438 183.625 Z M 53.273438 182 "/>
</clipPath>
<clipPath id="clip8">
  <path d="M 53.273438 154 L 297.398438 154 L 297.398438 157 L 53.273438 157 Z M 53.273438 154 "/>
</clipPath>
<clipPath id="clip9">
  <path d="M 53.273438 126 L 297.398438 126 L 297.398438 128 L 53.273438 128 Z M 53.273438 126 "/>
</clipPath>
<clipPath id="clip10">
  <path d="M 53.273438 97 L 297.398438 97 L 297.398438 100 L 53.273438 100 Z M 53.273438 97 "/>
</clipPath>
<clipPath id="clip11">
  <path d="M 53.273438 69 L 297.398438 69 L 297.398438 72 L 53.273438 72 Z M 53.273438 69 "/>
</clipPath>
<clipPath id="clip12">
  <path d="M 53.273438 41 L 297.398438 41 L 297.398438 43 L 53.273438 43 Z M 53.273438 41 "/>
</clipPath>
<clipPath id="clip13">
  <path d="M 53.273438 13.75 L 297.398438 13.75 L 297.398438 15 L 53.273438 15 Z M 53.273438 13.75 "/>
</clipPath>
<clipPath id="clip14">
  <path d="M 53.273438 53 L 294 53 L 294 157 L 53.273438 157 Z M 53.273438 53 "/>
</clipPath>
<clipPath id="clip15">
  <path d="M 53.273438 71 L 294 71 L 294 105 L 53.273438 105 Z M 53.273438 71 "/>
</clipPath>
<clipPath id="clip16">
  <path d="M 292 129 L 297.398438 129 L 297.398438 137 L 292 137 Z M 292 129 "/>
</clipPath>
<clipPath id="clip17">
  <path d="M 291 128 L 297.398438 128 L 297.398438 138 L 291 138 Z M 291 128 "/>
</clipPath>
<filter id="alpha" filterUnits="objectBoundingBox" x="0%" y="0%" width="100%" height="100%">
  <feColorMatrix type="matrix" in="SourceGraphic" values="0 0 0 0 1 0 0 0 0 1 0 0 0 0 1 0 0 0 1 0"/>
</filter>
<mask id="mask0">
  <g filter="url(#alpha)">
<rect x="0" y="0" width="310" height="231" style="fill:rgb(0%,0%,0%);fill-opacity:0.8;stroke:none;"/>
  </g>
</mask>
<clipPath id="clip18">
  <rect width="310" height="231"/>
</clipPath>
<g id="surface6" clip-path="url(#clip18)">
<path style="fill-rule:nonzero;fill:rgb(100%,100%,100%);fill-opacity:1;stroke-width:1;stroke-linecap:butt;stroke-linejoin:miter;stroke:rgb(80%,80%,80%);stroke-opacity:1;stroke-miterlimit:4;" d="M 173.58125 48.35625 L 230.921875 48.35625 C 232.253125 48.35625 232.921875 47.6875 232.921875 46.35625 L 232.921875 18 C 232.921875 16.665625 232.253125 16 230.921875 16 L 173.58125 16 C 172.246875 16 171.58125 16.665625 171.58125 18 L 171.58125 46.35625 C 171.58125 47.6875 172.246875 48.35625 173.58125 48.35625 Z M 173.58125 48.35625 " transform="matrix(1.25,0,0,1.25,0,0)"/>
</g>
</defs>
<g id="surface1">
<path style=" stroke:none;fill-rule:nonzero;fill:rgb(100%,100%,100%);fill-opacity:1;" d="M 53.273438 183.625 L 297.402344 183.625 L 297.402344 13.75 L 53.273438 13.75 Z M 53.273438 183.625 "/>
<g clip-path="url(#clip1)" clip-rule="nonzero">
<path style="fill:none;stroke-width:0.8;stroke-linecap:square;stroke-linejoin:round;stroke:rgb(69.019608%,69.019608%,69.019608%);stroke-opacity:1;stroke-miterlimit:4;" d="M 42.61875 146.9 L 42.61875 11 " transform="matrix(1.25,0,0,1.25,0,0)"/>
</g>
<path style="fill:none;stroke-width:0.8;stroke-linecap:butt;stroke-linejoin:round;stroke:rgb(0%,0%,0%);stroke-opacity:1;stroke-miterlimit:4;" d="M -0.001562 0.000781 L -0.001562 3.500781 " transform="matrix(1.25,0,0,1.25,53.27539,183.624024)"/>
<path style=" stroke:none;fill-rule:nonzero;fill:rgb(0%,0%,0%);fill-opacity:1;" d="M 53.269531 193.570312 C 52.636719 193.570312 52.160156 193.882812 51.839844 194.507812 C 51.519531 195.132812 51.359375 196.070312 51.359375 197.324219 C 51.359375 198.574219 51.519531 199.511719 51.839844 200.136719 C 52.160156 200.761719 52.636719 201.074219 53.269531 201.074219 C 53.910156 201.074219 54.390625 200.761719 54.707031 200.136719 C 55.027344 199.511719 55.1875 198.574219 55.1875 197.324219 C 55.1875 196.070312 55.027344 195.132812 54.707031 194.507812 C 54.390625 193.882812 53.910156 193.570312 53.269531 193.570312 Z M 53.269531 192.59375 C 54.292969 192.59375 55.074219 193 55.613281 193.808594 C 56.152344 194.613281 56.421875 195.789062 56.421875 197.324219 C 56.421875 198.859375 56.152344 200.03125 55.613281 200.839844 C 55.074219 201.644531 54.292969 202.050781 53.269531 202.050781 C 52.25 202.050781 51.46875 201.644531 50.929688 200.839844 C 50.390625 200.03125 50.121094 198.859375 50.121094 197.324219 C 50.121094 195.789062 50.390625 194.613281 50.929688 193.808594 C 51.46875 193 52.25 192.59375 53.269531 192.59375 Z M 53.269531 192.59375 "/>
<g clip-path="url(#clip2)" clip-rule="nonzero">
<path style="fill:none;stroke-width:0.8;stroke-linecap:square;stroke-linejoin:round;stroke:rgb(69.019608%,69.019608%,69.019608%);stroke-opacity:1;stroke-miterlimit:4;" d="M 81.68125 146.9 L 81.68125 11 " transform="matrix(1.25,0,0,1.25,0,0)"/>
</g>
<path style="fill:none;stroke-width:0.8;stroke-linecap:butt;stroke-linejoin:round;stroke:rgb(0%,0%,0%);stroke-opacity:1;stroke-miterlimit:4;" d="M 0.000938 0.000781 L 0.000938 3.500781 " transform="matrix(1.25,0,0,1.25,102.10039,183.624024)"/>
<path style=" stroke:none;fill-rule:nonzero;fill:rgb(0%,0%,0%);fill-opacity:1;" d="M 99.675781 200.835938 L 101.6875 200.835938 L 101.6875 193.882812 L 99.496094 194.320312 L 99.496094 193.199219 L 101.675781 192.757812 L 102.910156 192.757812 L 102.910156 200.835938 L 104.921875 200.835938 L 104.921875 201.871094 L 99.675781 201.871094 Z M 99.675781 200.835938 "/>
<g clip-path="url(#clip3)" clip-rule="nonzero">
<path style="fill:none;stroke-width:0.8;stroke-linecap:square;stroke-linejoin:round;stroke:rgb(69.019608%,69.019608%,69.019608%);stroke-opacity:1;stroke-miterlimit:4;" d="M 120.740625 146.9 L 120.740625 11 " transform="matrix(1.25,0,0,1.25,0,0)"/>
</g>
<path style="fill:none;stroke-width:0.8;stroke-linecap:butt;stroke-linejoin:round;stroke:rgb(0%,0%,0%);stroke-opacity:1;stroke-miterlimit:4;" d="M 0.000312 0.000781 L 0.000312 3.500781 " transform="matrix(1.25,0,0,1.25,150.925391,183.624024)"/>
<path style=" stroke:none;fill-rule:nonzero;fill:rgb(0%,0%,0%);fill-opacity:1;" d="M 149.347656 200.835938 L 153.648438 200.835938 L 153.648438 201.871094 L 147.863281 201.871094 L 147.863281 200.835938 C 148.332031 200.351562 148.96875 199.699219 149.777344 198.886719 C 150.585938 198.070312 151.09375 197.542969 151.300781 197.304688 C 151.695312 196.863281 151.96875 196.488281 152.125 196.179688 C 152.285156 195.875 152.363281 195.570312 152.363281 195.273438 C 152.363281 194.789062 152.191406 194.394531 151.851562 194.089844 C 151.511719 193.785156 151.070312 193.632812 150.523438 193.632812 C 150.136719 193.632812 149.730469 193.699219 149.300781 193.832031 C 148.871094 193.96875 148.414062 194.171875 147.925781 194.445312 L 147.925781 193.199219 C 148.421875 193 148.886719 192.847656 149.316406 192.746094 C 149.75 192.644531 150.144531 192.59375 150.5 192.59375 C 151.445312 192.59375 152.199219 192.832031 152.757812 193.304688 C 153.320312 193.773438 153.601562 194.40625 153.601562 195.195312 C 153.601562 195.570312 153.53125 195.925781 153.390625 196.261719 C 153.25 196.59375 152.996094 196.992188 152.625 197.445312 C 152.523438 197.566406 152.199219 197.90625 151.652344 198.46875 C 151.109375 199.035156 150.339844 199.820312 149.347656 200.835938 Z M 149.347656 200.835938 "/>
<g clip-path="url(#clip4)" clip-rule="nonzero">
<path style="fill:none;stroke-width:0.8;stroke-linecap:square;stroke-linejoin:round;stroke:rgb(69.019608%,69.019608%,69.019608%);stroke-opacity:1;stroke-miterlimit:4;" d="M 159.8 146.9 L 159.8 11 " transform="matrix(1.25,0,0,1.25,0,0)"/>
</g>
<path style="fill:none;stroke-width:0.8;stroke-linecap:butt;stroke-linejoin:round;stroke:rgb(0%,0%,0%);stroke-opacity:1;stroke-miterlimit:4;" d="M -0.000313 0.000781 L -0.000313 3.500781 " transform="matrix(1.25,0,0,1.25,199.750391,183.624024)"/>
<path style=" stroke:none;fill-rule:nonzero;fill:rgb(0%,0%,0%);fill-opacity:1;" d="M 200.847656 196.957031 C 201.4375 197.085938 201.894531 197.347656 202.226562 197.746094 C 202.558594 198.144531 202.726562 198.636719 202.726562 199.222656 C 202.726562 200.121094 202.414062 200.816406 201.796875 201.3125 C 201.179688 201.804688 200.300781 202.050781 199.160156 202.050781 C 198.777344 202.050781 198.386719 202.011719 197.980469 201.9375 C 197.574219 201.859375 197.15625 201.746094 196.726562 201.597656 L 196.726562 200.40625 C 197.066406 200.605469 197.441406 200.757812 197.847656 200.859375 C 198.253906 200.960938 198.679688 201.011719 199.125 201.011719 C 199.898438 201.011719 200.484375 200.859375 200.890625 200.554688 C 201.296875 200.25 201.5 199.804688 201.5 199.222656 C 201.5 198.6875 201.308594 198.265625 200.933594 197.964844 C 200.558594 197.660156 200.035156 197.507812 199.363281 197.507812 L 198.300781 197.507812 L 198.300781 196.496094 L 199.414062 196.496094 C 200.019531 196.496094 200.480469 196.375 200.804688 196.132812 C 201.125 195.890625 201.285156 195.539062 201.285156 195.085938 C 201.285156 194.617188 201.121094 194.257812 200.789062 194.007812 C 200.457031 193.757812 199.980469 193.632812 199.363281 193.632812 C 199.023438 193.632812 198.664062 193.667969 198.277344 193.742188 C 197.890625 193.816406 197.464844 193.929688 197 194.082031 L 197 192.984375 C 197.46875 192.855469 197.90625 192.757812 198.316406 192.691406 C 198.726562 192.628906 199.109375 192.59375 199.472656 192.59375 C 200.410156 192.59375 201.148438 192.808594 201.695312 193.234375 C 202.238281 193.65625 202.511719 194.230469 202.511719 194.957031 C 202.511719 195.460938 202.367188 195.886719 202.078125 196.234375 C 201.789062 196.582031 201.378906 196.824219 200.847656 196.957031 Z M 200.847656 196.957031 "/>
<g clip-path="url(#clip5)" clip-rule="nonzero">
<path style="fill:none;stroke-width:0.8;stroke-linecap:square;stroke-linejoin:round;stroke:rgb(69.019608%,69.019608%,69.019608%);stroke-opacity:1;stroke-miterlimit:4;" d="M 198.859375 146.9 L 198.859375 11 " transform="matrix(1.25,0,0,1.25,0,0)"/>
</g>
<path style="fill:none;stroke-width:0.8;stroke-linecap:butt;stroke-linejoin:round;stroke:rgb(0%,0%,0%);stroke-opacity:1;stroke-miterlimit:4;" d="M -0.000938 0.000781 L -0.000938 3.500781 " transform="matrix(1.25,0,0,1.25,248.575391,183.624024)"/>
<path style=" stroke:none;fill-rule:nonzero;fill:rgb(0%,0%,0%);fill-opacity:1;" d="M 249.324219 193.832031 L 246.210938 198.699219 L 249.324219 198.699219 Z M 249 192.757812 L 250.550781 192.757812 L 250.550781 198.699219 L 251.851562 198.699219 L 251.851562 199.722656 L 250.550781 199.722656 L 250.550781 201.871094 L 249.324219 201.871094 L 249.324219 199.722656 L 245.210938 199.722656 L 245.210938 198.535156 Z M 249 192.757812 "/>
<g clip-path="url(#clip6)" clip-rule="nonzero">
<path style="fill:none;stroke-width:0.8;stroke-linecap:square;stroke-linejoin:round;stroke:rgb(69.019608%,69.019608%,69.019608%);stroke-opacity:1;stroke-miterlimit:4;" d="M 237.921875 146.9 L 237.921875 11 " transform="matrix(1.25,0,0,1.25,0,0)"/>
</g>
<path style="fill:none;stroke-width:0.8;stroke-linecap:butt;stroke-linejoin:round;stroke:rgb(0%,0%,0%);stroke-opacity:1;stroke-miterlimit:4;" d="M 0.001562 0.000781 L 0.001562 3.500781 " transform="matrix(1.25,0,0,1.25,297.400391,183.624024)"/>
<path style=" stroke:none;fill-rule:nonzero;fill:rgb(0%,0%,0%);fill-opacity:1;" d="M 294.773438 192.757812 L 299.613281 192.757812 L 299.613281 193.796875 L 295.902344 193.796875 L 295.902344 196.03125 C 296.082031 195.96875 296.257812 195.921875 296.4375 195.894531 C 296.617188 195.863281 296.796875 195.847656 296.976562 195.847656 C 297.992188 195.847656 298.800781 196.128906 299.394531 196.683594 C 299.988281 197.242188 300.285156 197.996094 300.285156 198.949219 C 300.285156 199.929688 299.980469 200.691406 299.371094 201.234375 C 298.757812 201.777344 297.898438 202.050781 296.789062 202.050781 C 296.40625 202.050781 296.015625 202.015625 295.617188 201.953125 C 295.222656 201.886719 294.8125 201.789062 294.390625 201.660156 L 294.390625 200.417969 C 294.753906 200.617188 295.132812 200.765625 295.523438 200.863281 C 295.914062 200.960938 296.328125 201.011719 296.761719 201.011719 C 297.464844 201.011719 298.023438 200.824219 298.433594 200.457031 C 298.84375 200.085938 299.050781 199.582031 299.050781 198.949219 C 299.050781 198.3125 298.84375 197.8125 298.433594 197.441406 C 298.023438 197.070312 297.464844 196.886719 296.761719 196.886719 C 296.433594 196.886719 296.105469 196.921875 295.777344 196.996094 C 295.449219 197.066406 295.113281 197.183594 294.773438 197.335938 Z M 294.773438 192.757812 "/>
<path style=" stroke:none;fill-rule:nonzero;fill:rgb(0%,0%,0%);fill-opacity:1;" d="M 178.5 212.132812 L 176.027344 215.460938 L 178.625 218.96875 L 177.300781 218.96875 L 175.3125 216.285156 L 173.324219 218.96875 L 171.996094 218.96875 L 174.652344 215.394531 L 172.222656 212.132812 L 173.546875 212.132812 L 175.359375 214.570312 L 177.171875 212.132812 Z M 178.5 212.132812 "/>
<g clip-path="url(#clip7)" clip-rule="nonzero">
<path style="fill:none;stroke-width:0.8;stroke-linecap:square;stroke-linejoin:round;stroke:rgb(69.019608%,69.019608%,69.019608%);stroke-opacity:1;stroke-miterlimit:4;" d="M 42.61875 146.9 L 237.921875 146.9 " transform="matrix(1.25,0,0,1.25,0,0)"/>
</g>
<path style="fill:none;stroke-width:0.8;stroke-linecap:butt;stroke-linejoin:round;stroke:rgb(0%,0%,0%);stroke-opacity:1;stroke-miterlimit:4;" d="M -0.001562 0.000781 L -3.501562 0.000781 " transform="matrix(1.25,0,0,1.25,53.27539,183.624024)"/>
<path style=" stroke:none;fill-rule:nonzero;fill:rgb(0%,0%,0%);fill-opacity:1;" d="M 27.421875 183.933594 L 35.246094 183.933594 L 35.246094 184.972656 L 27.421875 184.972656 Z M 27.421875 183.933594 "/>
<path style=" stroke:none;fill-rule:nonzero;fill:rgb(0%,0%,0%);fill-opacity:1;" d="M 38.121094 187.335938 L 40.136719 187.335938 L 40.136719 180.382812 L 37.945312 180.820312 L 37.945312 179.699219 L 40.125 179.257812 L 41.355469 179.257812 L 41.355469 187.335938 L 43.371094 187.335938 L 43.371094 188.371094 L 38.121094 188.371094 Z M 38.121094 187.335938 "/>
<g clip-path="url(#clip8)" clip-rule="nonzero">
<path style="fill:none;stroke-width:0.8;stroke-linecap:square;stroke-linejoin:round;stroke:rgb(69.019608%,69.019608%,69.019608%);stroke-opacity:1;stroke-miterlimit:4;" d="M 42.61875 124.25 L 237.921875 124.25 " transform="matrix(1.25,0,0,1.25,0,0)"/>
</g>
<path style="fill:none;stroke-width:0.8;stroke-linecap:butt;stroke-linejoin:round;stroke:rgb(0%,0%,0%);stroke-opacity:1;stroke-miterlimit:4;" d="M -0.001562 0.000781 L -3.501562 0.000781 " transform="matrix(1.25,0,0,1.25,53.27539,155.311524)"/>
<path style=" stroke:none;fill-rule:nonzero;fill:rgb(0%,0%,0%);fill-opacity:1;" d="M 40.542969 151.757812 C 39.910156 151.757812 39.433594 152.070312 39.113281 152.695312 C 38.792969 153.320312 38.632812 154.257812 38.632812 155.511719 C 38.632812 156.761719 38.792969 157.699219 39.113281 158.324219 C 39.433594 158.949219 39.910156 159.261719 40.542969 159.261719 C 41.183594 159.261719 41.664062 158.949219 41.980469 158.324219 C 42.300781 157.699219 42.460938 156.761719 42.460938 155.511719 C 42.460938 154.257812 42.300781 153.320312 41.980469 152.695312 C 41.664062 152.070312 41.183594 151.757812 40.542969 151.757812 Z M 40.542969 150.78125 C 41.566406 150.78125 42.347656 151.1875 42.886719 151.996094 C 43.425781 152.804688 43.695312 153.976562 43.695312 155.511719 C 43.695312 157.046875 43.425781 158.21875 42.886719 159.027344 C 42.347656 159.835938 41.566406 160.238281 40.542969 160.238281 C 39.523438 160.238281 38.742188 159.835938 38.203125 159.027344 C 37.664062 158.21875 37.394531 157.046875 37.394531 155.511719 C 37.394531 153.976562 37.664062 152.804688 38.203125 151.996094 C 38.742188 151.1875 39.523438 150.78125 40.542969 150.78125 Z M 40.542969 150.78125 "/>
<g clip-path="url(#clip9)" clip-rule="nonzero">
<path style="fill:none;stroke-width:0.8;stroke-linecap:square;stroke-linejoin:round;stroke:rgb(69.019608%,69.019608%,69.019608%);stroke-opacity:1;stroke-miterlimit:4;" d="M 42.61875 101.6 L 237.921875 101.6 " transform="matrix(1.25,0,0,1.25,0,0)"/>
</g>
<path style="fill:none;stroke-width:0.8;stroke-linecap:butt;stroke-linejoin:round;stroke:rgb(0%,0%,0%);stroke-opacity:1;stroke-miterlimit:4;" d="M -0.001562 0.000781 L -3.501562 0.000781 " transform="matrix(1.25,0,0,1.25,53.27539,126.999024)"/>
<path style=" stroke:none;fill-rule:nonzero;fill:rgb(0%,0%,0%);fill-opacity:1;" d="M 38.121094 130.710938 L 40.136719 130.710938 L 40.136719 123.757812 L 37.945312 124.195312 L 37.945312 123.074219 L 40.125 122.632812 L 41.355469 122.632812 L 41.355469 130.710938 L 43.371094 130.710938 L 43.371094 131.746094 L 38.121094 131.746094 Z M 38.121094 130.710938 "/>
<g clip-path="url(#clip10)" clip-rule="nonzero">
<path style="fill:none;stroke-width:0.8;stroke-linecap:square;stroke-linejoin:round;stroke:rgb(69.019608%,69.019608%,69.019608%);stroke-opacity:1;stroke-miterlimit:4;" d="M 42.61875 78.95 L 237.921875 78.95 " transform="matrix(1.25,0,0,1.25,0,0)"/>
</g>
<path style="fill:none;stroke-width:0.8;stroke-linecap:butt;stroke-linejoin:round;stroke:rgb(0%,0%,0%);stroke-opacity:1;stroke-miterlimit:4;" d="M -0.001562 0.000781 L -3.501562 0.000781 " transform="matrix(1.25,0,0,1.25,53.27539,98.686524)"/>
<path style=" stroke:none;fill-rule:nonzero;fill:rgb(0%,0%,0%);fill-opacity:1;" d="M 38.96875 102.398438 L 43.273438 102.398438 L 43.273438 103.433594 L 37.488281 103.433594 L 37.488281 102.398438 C 37.957031 101.914062 38.59375 101.265625 39.398438 100.449219 C 40.207031 99.632812 40.714844 99.105469 40.921875 98.867188 C 41.316406 98.425781 41.59375 98.050781 41.75 97.742188 C 41.90625 97.4375 41.984375 97.132812 41.984375 96.835938 C 41.984375 96.351562 41.816406 95.957031 41.476562 95.652344 C 41.136719 95.347656 40.695312 95.195312 40.148438 95.195312 C 39.761719 95.195312 39.351562 95.261719 38.921875 95.394531 C 38.496094 95.53125 38.035156 95.734375 37.546875 96.007812 L 37.546875 94.761719 C 38.042969 94.5625 38.507812 94.410156 38.9375 94.308594 C 39.371094 94.207031 39.765625 94.15625 40.125 94.15625 C 41.070312 94.15625 41.820312 94.394531 42.382812 94.867188 C 42.945312 95.339844 43.222656 95.96875 43.222656 96.757812 C 43.222656 97.132812 43.152344 97.488281 43.011719 97.824219 C 42.875 98.160156 42.617188 98.554688 42.246094 99.007812 C 42.144531 99.128906 41.824219 99.46875 41.277344 100.03125 C 40.734375 100.597656 39.964844 101.386719 38.96875 102.398438 Z M 38.96875 102.398438 "/>
<g clip-path="url(#clip11)" clip-rule="nonzero">
<path style="fill:none;stroke-width:0.8;stroke-linecap:square;stroke-linejoin:round;stroke:rgb(69.019608%,69.019608%,69.019608%);stroke-opacity:1;stroke-miterlimit:4;" d="M 42.61875 56.3 L 237.921875 56.3 " transform="matrix(1.25,0,0,1.25,0,0)"/>
</g>
<path style="fill:none;stroke-width:0.8;stroke-linecap:butt;stroke-linejoin:round;stroke:rgb(0%,0%,0%);stroke-opacity:1;stroke-miterlimit:4;" d="M -0.001562 0.000781 L -3.501562 0.000781 " transform="matrix(1.25,0,0,1.25,53.27539,70.374024)"/>
<path style=" stroke:none;fill-rule:nonzero;fill:rgb(0%,0%,0%);fill-opacity:1;" d="M 41.644531 70.207031 C 42.234375 70.335938 42.695312 70.597656 43.023438 70.996094 C 43.355469 71.394531 43.523438 71.886719 43.523438 72.472656 C 43.523438 73.371094 43.214844 74.070312 42.59375 74.5625 C 41.976562 75.054688 41.097656 75.300781 39.957031 75.300781 C 39.578125 75.300781 39.183594 75.261719 38.777344 75.1875 C 38.375 75.113281 37.957031 75 37.523438 74.847656 L 37.523438 73.65625 C 37.867188 73.855469 38.238281 74.007812 38.644531 74.109375 C 39.054688 74.210938 39.480469 74.261719 39.921875 74.261719 C 40.695312 74.261719 41.285156 74.109375 41.6875 73.804688 C 42.09375 73.5 42.296875 73.054688 42.296875 72.472656 C 42.296875 71.9375 42.109375 71.515625 41.730469 71.214844 C 41.355469 70.910156 40.832031 70.757812 40.160156 70.757812 L 39.097656 70.757812 L 39.097656 69.746094 L 40.210938 69.746094 C 40.816406 69.746094 41.28125 69.625 41.601562 69.382812 C 41.921875 69.140625 42.082031 68.792969 42.082031 68.335938 C 42.082031 67.867188 41.917969 67.507812 41.585938 67.257812 C 41.253906 67.007812 40.78125 66.882812 40.160156 66.882812 C 39.824219 66.882812 39.460938 66.917969 39.074219 66.992188 C 38.6875 67.066406 38.261719 67.179688 37.796875 67.332031 L 37.796875 66.234375 C 38.265625 66.105469 38.707031 66.007812 39.113281 65.941406 C 39.523438 65.878906 39.910156 65.84375 40.269531 65.84375 C 41.207031 65.84375 41.949219 66.058594 42.492188 66.484375 C 43.039062 66.910156 43.308594 67.484375 43.308594 68.207031 C 43.308594 68.710938 43.164062 69.136719 42.875 69.484375 C 42.585938 69.832031 42.175781 70.074219 41.644531 70.207031 Z M 41.644531 70.207031 "/>
<g clip-path="url(#clip12)" clip-rule="nonzero">
<path style="fill:none;stroke-width:0.8;stroke-linecap:square;stroke-linejoin:round;stroke:rgb(69.019608%,69.019608%,69.019608%);stroke-opacity:1;stroke-miterlimit:4;" d="M 42.61875 33.65 L 237.921875 33.65 " transform="matrix(1.25,0,0,1.25,0,0)"/>
</g>
<path style="fill:none;stroke-width:0.8;stroke-linecap:butt;stroke-linejoin:round;stroke:rgb(0%,0%,0%);stroke-opacity:1;stroke-miterlimit:4;" d="M -0.001562 0.000781 L -3.501562 0.000781 " transform="matrix(1.25,0,0,1.25,53.27539,42.061524)"/>
<path style=" stroke:none;fill-rule:nonzero;fill:rgb(0%,0%,0%);fill-opacity:1;" d="M 41.296875 38.769531 L 38.183594 43.636719 L 41.296875 43.636719 Z M 40.972656 37.695312 L 42.523438 37.695312 L 42.523438 43.636719 L 43.824219 43.636719 L 43.824219 44.660156 L 42.523438 44.660156 L 42.523438 46.808594 L 41.296875 46.808594 L 41.296875 44.660156 L 37.183594 44.660156 L 37.183594 43.472656 Z M 40.972656 37.695312 "/>
<g clip-path="url(#clip13)" clip-rule="nonzero">
<path style="fill:none;stroke-width:0.8;stroke-linecap:square;stroke-linejoin:round;stroke:rgb(69.019608%,69.019608%,69.019608%);stroke-opacity:1;stroke-miterlimit:4;" d="M 42.61875 11 L 237.921875 11 " transform="matrix(1.25,0,0,1.25,0,0)"/>
</g>
<path style="fill:none;stroke-width:0.8;stroke-linecap:butt;stroke-linejoin:round;stroke:rgb(0%,0%,0%);stroke-opacity:1;stroke-miterlimit:4;" d="M -0.001562 0.000781 L -3.501562 0.000781 " transform="matrix(1.25,0,0,1.25,53.27539,13.749024)"/>
<path style=" stroke:none;fill-rule:nonzero;fill:rgb(0%,0%,0%);fill-opacity:1;" d="M 37.921875 9.382812 L 42.761719 9.382812 L 42.761719 10.421875 L 39.050781 10.421875 L 39.050781 12.65625 C 39.230469 12.59375 39.40625 12.550781 39.585938 12.519531 C 39.765625 12.488281 39.945312 12.472656 40.125 12.472656 C 41.140625 12.472656 41.945312 12.753906 42.539062 13.308594 C 43.136719 13.867188 43.433594 14.621094 43.433594 15.574219 C 43.433594 16.554688 43.128906 17.316406 42.515625 17.859375 C 41.90625 18.402344 41.046875 18.675781 39.933594 18.675781 C 39.550781 18.675781 39.164062 18.644531 38.765625 18.578125 C 38.371094 18.511719 37.960938 18.414062 37.535156 18.285156 L 37.535156 17.042969 C 37.902344 17.242188 38.28125 17.390625 38.671875 17.488281 C 39.0625 17.585938 39.476562 17.636719 39.910156 17.636719 C 40.613281 17.636719 41.171875 17.453125 41.582031 17.082031 C 41.992188 16.710938 42.199219 16.210938 42.199219 15.574219 C 42.199219 14.941406 41.992188 14.4375 41.582031 14.066406 C 41.171875 13.695312 40.613281 13.511719 39.910156 13.511719 C 39.582031 13.511719 39.25 13.546875 38.921875 13.621094 C 38.597656 13.695312 38.261719 13.808594 37.921875 13.960938 Z M 37.921875 9.382812 "/>
<path style=" stroke:none;fill-rule:nonzero;fill:rgb(0%,0%,0%);fill-opacity:1;" d="M 19.132812 98.363281 C 19.945312 98.679688 20.476562 98.988281 20.722656 99.292969 C 20.972656 99.59375 21.097656 99.996094 21.097656 100.5 L 21.097656 101.398438 L 20.15625 101.398438 L 20.15625 100.738281 C 20.15625 100.429688 20.085938 100.1875 19.9375 100.019531 C 19.792969 99.847656 19.445312 99.65625 18.898438 99.449219 L 18.386719 99.25 L 11.660156 102.011719 L 11.660156 100.824219 L 17.007812 98.6875 L 11.660156 96.550781 L 11.660156 95.359375 Z M 19.132812 98.363281 "/>
<g clip-path="url(#clip14)" clip-rule="nonzero">
<path style="fill:none;stroke-width:1.5;stroke-linecap:square;stroke-linejoin:round;stroke:rgb(12.156863%,46.666667%,70.588235%);stroke-opacity:1;stroke-miterlimit:4;" d="M 42.61875 124.25 L 46.525 116.1375 L 50.43125 109 L 54.3375 102.215625 L 58.24375 95.725 L 62.15 89.521875 L 66.05625 83.61875 L 69.9625 78.0375 L 73.86875 72.80625 L 77.775 67.946875 L 81.68125 63.48125 L 85.5875 59.434375 L 89.49375 55.821875 L 93.396875 52.659375 L 97.303125 49.9625 L 101.209375 47.734375 L 105.115625 45.98125 L 109.021875 44.7 L 112.928125 43.884375 L 116.834375 43.53125 L 120.740625 43.621875 L 124.646875 44.140625 L 128.553125 45.0625 L 132.459375 46.36875 L 136.365625 48.021875 L 140.26875 49.99375 L 144.175 52.25 L 148.08125 54.753125 L 151.9875 57.45625 L 155.89375 60.325 L 159.8 63.309375 L 163.70625 66.36875 L 167.6125 69.45625 L 171.51875 72.528125 L 175.425 75.534375 L 179.33125 78.434375 L 183.2375 81.184375 L 187.14375 83.740625 L 191.046875 86.065625 L 194.953125 88.11875 L 198.859375 89.871875 L 202.765625 91.284375 L 206.671875 92.3375 L 210.578125 93 L 214.484375 93.25625 L 218.390625 93.084375 L 222.296875 92.478125 L 226.203125 91.428125 L 230.109375 89.93125 L 234.015625 87.9875 " transform="matrix(1.25,0,0,1.25,0,0)"/>
</g>
<g clip-path="url(#clip15)" clip-rule="nonzero">
<path style="fill:none;stroke-width:1.5;stroke-linecap:butt;stroke-linejoin:round;stroke:rgb(74.901961%,0%,74.901961%);stroke-opacity:1;stroke-dasharray:5.55,2.4;stroke-miterlimit:4;" d="M 42.61875 76.790625 L 46.525 75.4875 L 50.43125 74.178125 L 58.24375 71.546875 L 62.15 70.240625 L 66.05625 68.946875 L 69.9625 67.678125 L 73.86875 66.440625 L 77.775 65.240625 L 81.68125 64.096875 L 85.5875 63.015625 L 89.49375 62.00625 L 93.396875 61.084375 L 97.303125 60.259375 L 101.209375 59.546875 L 105.115625 58.953125 L 109.021875 58.490625 L 112.928125 58.165625 L 116.834375 57.9875 L 120.740625 57.959375 L 124.646875 58.08125 L 128.553125 58.359375 L 132.459375 58.7875 L 136.365625 59.3625 L 140.26875 60.071875 L 144.175 60.909375 L 148.08125 61.865625 L 151.9875 62.921875 L 155.89375 64.065625 L 159.8 65.28125 L 163.70625 66.546875 L 167.6125 67.85 L 171.51875 69.16875 L 175.425 70.490625 L 179.33125 71.790625 L 183.2375 73.059375 L 187.14375 74.284375 L 191.046875 75.446875 L 194.953125 76.540625 L 198.859375 77.559375 L 202.765625 78.496875 L 206.671875 79.346875 L 210.578125 80.109375 L 214.484375 80.7875 L 218.390625 81.384375 L 222.296875 81.9 L 226.203125 82.340625 L 230.109375 82.7125 L 234.015625 83.021875 " transform="matrix(1.25,0,0,1.25,0,0)"/>
</g>
<path style="fill-rule:nonzero;fill:rgb(100%,49.803922%,5.490196%);fill-opacity:0.501961;stroke-width:1;stroke-linecap:butt;stroke-linejoin:round;stroke:rgb(100%,49.803922%,5.490196%);stroke-opacity:0.501961;stroke-miterlimit:4;" d="M 0.001035 2.998806 C 0.794785 2.998806 1.557285 2.683181 2.119785 2.120681 C 2.68541 1.558181 3.001035 0.795681 3.001035 -0.001194 C 3.001035 -0.794944 2.68541 -1.557444 2.119785 -2.119944 C 1.557285 -2.682444 0.794785 -3.001194 0.001035 -3.001194 C -0.79584 -3.001194 -1.55834 -2.682444 -2.12084 -2.119944 C -2.68334 -1.557444 -2.998965 -0.794944 -2.998965 -0.001194 C -2.998965 0.795681 -2.68334 1.558181 -2.12084 2.120681 C -1.55834 2.683181 -0.79584 2.998806 0.001035 2.998806 Z M 0.001035 2.998806 " transform="matrix(1.25,0,0,1.25,61.092456,160.849149)"/>
<path style="fill-rule:nonzero;fill:rgb(100%,49.803922%,5.490196%);fill-opacity:0.501961;stroke-width:1;stroke-linecap:butt;stroke-linejoin:round;stroke:rgb(100%,49.803922%,5.490196%);stroke-opacity:0.501961;stroke-miterlimit:4;" d="M 0.001075 3.001286 C 0.794825 3.001286 1.557325 2.682536 2.119825 2.120036 C 2.68545 1.557536 3.001075 0.795036 3.001075 0.001286 C 3.001075 -0.795589 2.68545 -1.558089 2.119825 -2.120589 C 1.557325 -2.683089 0.794825 -2.998714 0.001075 -2.998714 C -0.7958 -2.998714 -1.5583 -2.683089 -2.1208 -2.120589 C -2.6833 -1.558089 -2.998925 -0.795589 -2.998925 0.001286 C -2.998925 0.795036 -2.6833 1.557536 -2.1208 2.120036 C -1.5583 2.682536 -0.7958 3.001286 0.001075 3.001286 Z M 0.001075 3.001286 " transform="matrix(1.25,0,0,1.25,64.443969,140.818705)"/>
<path style="fill-rule:nonzero;fill:rgb(100%,49.803922%,5.490196%);fill-opacity:0.501961;stroke-width:1;stroke-linecap:butt;stroke-linejoin:round;stroke:rgb(100%,49.803922%,5.490196%);stroke-opacity:0.501961;stroke-miterlimit:4;" d="M -0.000844 2.998789 C 0.796031 2.998789 1.558531 2.683164 2.121031 2.120664 C 2.683531 1.558164 2.999156 0.795664 2.999156 -0.001211 C 2.999156 -0.794961 2.683531 -1.557461 2.121031 -2.119961 C 1.558531 -2.682461 0.796031 -3.001211 -0.000844 -3.001211 C -0.794594 -3.001211 -1.560219 -2.682461 -2.122719 -2.119961 C -2.685219 -1.557461 -3.000844 -0.794961 -3.000844 -0.001211 C -3.000844 0.795664 -2.685219 1.558164 -2.122719 2.120664 C -1.560219 2.683164 -0.794594 2.998789 -0.000844 2.998789 Z M -0.000844 2.998789 " transform="matrix(1.25,0,0,1.25,70.083086,112.657764)"/>
<path style="fill-rule:nonzero;fill:rgb(100%,49.803922%,5.490196%);fill-opacity:0.501961;stroke-width:1;stroke-linecap:butt;stroke-linejoin:round;stroke:rgb(100%,49.803922%,5.490196%);stroke-opacity:0.501961;stroke-miterlimit:4;" d="M 0.000409 3.000716 C 0.794159 3.000716 1.559784 2.685091 2.122284 2.122591 C 2.684784 1.560091 3.000409 0.794466 3.000409 0.000716 C 3.000409 -0.796159 2.684784 -1.558659 2.122284 -2.121159 C 1.559784 -2.683659 0.794159 -2.999284 0.000409 -2.999284 C -0.796466 -2.999284 -1.558966 -2.683659 -2.121466 -2.121159 C -2.683966 -1.558659 -2.999591 -0.796159 -2.999591 0.000716 C -2.999591 0.794466 -2.683966 1.560091 -2.121466 2.122591 C -1.558966 2.685091 -0.796466 3.000716 0.000409 3.000716 Z M 0.000409 3.000716 " transform="matrix(1.25,0,0,1.25,77.077614,113.88973)"/>
<path style="fill-rule:nonzero;fill:rgb(100%,49.803922%,5.490196%);fill-opacity:0.501961;stroke-width:1;stroke-linecap:butt;stroke-linejoin:round;stroke:rgb(100%,49.803922%,5.490196%);stroke-opacity:0.501961;stroke-miterlimit:4;" d="M 0.000526 2.998962 C 0.794276 2.998962 1.559901 2.683337 2.122401 2.120837 C 2.684901 1.558337 3.000526 0.795837 3.000526 -0.001038 C 3.000526 -0.794788 2.684901 -1.557288 2.122401 -2.119788 C 1.559901 -2.685413 0.794276 -3.001038 0.000526 -3.001038 C -0.796349 -3.001038 -1.558849 -2.685413 -2.121349 -2.119788 C -2.683849 -1.557288 -2.999474 -0.794788 -2.999474 -0.001038 C -2.999474 0.795837 -2.683849 1.558337 -2.121349 2.120837 C -1.558849 2.683337 -0.796349 2.998962 0.000526 2.998962 Z M 0.000526 2.998962 " transform="matrix(1.25,0,0,1.25,85.319655,88.391922)"/>
<path style="fill-rule:nonzero;fill:rgb(100%,49.803922%,5.490196%);fill-opacity:0.501961;stroke-width:1;stroke-linecap:butt;stroke-linejoin:round;stroke:rgb(100%,49.803922%,5.490196%);stroke-opacity:0.501961;stroke-miterlimit:4;" d="M -0.001072 2.998728 C 0.795803 2.998728 1.558303 2.683103 2.120803 2.120603 C 2.683303 1.558103 2.998928 0.795603 2.998928 -0.001272 C 2.998928 -0.795022 2.683303 -1.557522 2.120803 -2.120022 C 1.558303 -2.682522 0.795803 -3.001272 -0.001072 -3.001272 C -0.794822 -3.001272 -1.557322 -2.682522 -2.119822 -2.120022 C -2.685447 -1.557522 -3.001072 -0.795022 -3.001072 -0.001272 C -3.001072 0.795603 -2.685447 1.558103 -2.119822 2.120603 C -1.557322 2.683103 -0.794822 2.998728 -0.001072 2.998728 Z M -0.001072 2.998728 " transform="matrix(1.25,0,0,1.25,94.75134,92.294559)"/>
<path style="fill-rule:nonzero;fill:rgb(100%,49.803922%,5.490196%);fill-opacity:0.501961;stroke-width:1;stroke-linecap:butt;stroke-linejoin:round;stroke:rgb(100%,49.803922%,5.490196%);stroke-opacity:0.501961;stroke-miterlimit:4;" d="M -0.001072 2.998845 C 0.795803 2.998845 1.558303 2.68322 2.120803 2.12072 C 2.683303 1.55822 2.998928 0.79572 2.998928 -0.001155 C 2.998928 -0.794905 2.683303 -1.557405 2.120803 -2.119905 C 1.558303 -2.682405 0.795803 -3.001155 -0.001072 -3.001155 C -0.794822 -3.001155 -1.557322 -2.682405 -2.119822 -2.119905 C -2.685447 -1.557405 -3.001072 -0.794905 -3.001072 -0.001155 C -3.001072 0.79572 -2.685447 1.55822 -2.119822 2.12072 C -1.557322 2.68322 -0.794822 2.998845 -0.001072 2.998845 Z M -0.001072 2.998845 " transform="matrix(1.25,0,0,1.25,100.18884,86.333475)"/>
<path style="fill-rule:nonzero;fill:rgb(100%,49.803922%,5.490196%);fill-opacity:0.501961;stroke-width:1;stroke-linecap:butt;stroke-linejoin:round;stroke:rgb(100%,49.803922%,5.490196%);stroke-opacity:0.501961;stroke-miterlimit:4;" d="M 0.00013 3.000973 C 0.797005 3.000973 1.559505 2.685348 2.122005 2.122848 C 2.684505 1.557223 3.00013 0.794723 3.00013 0.000973 C 3.00013 -0.795902 2.684505 -1.558402 2.122005 -2.120902 C 1.559505 -2.683402 0.797005 -2.999027 0.00013 -2.999027 C -0.796745 -2.999027 -1.559245 -2.683402 -2.121745 -2.120902 C -2.684245 -1.558402 -2.99987 -0.795902 -2.99987 0.000973 C -2.99987 0.794723 -2.684245 1.557223 -2.121745 2.122848 C -1.559245 2.685348 -0.796745 3.000973 0.00013 3.000973 Z M 0.00013 3.000973 " transform="matrix(1.25,0,0,1.25,100.992025,98.740971)"/>
<path style="fill-rule:nonzero;fill:rgb(100%,49.803922%,5.490196%);fill-opacity:0.501961;stroke-width:1;stroke-linecap:butt;stroke-linejoin:round;stroke:rgb(100%,49.803922%,5.490196%);stroke-opacity:0.501961;stroke-miterlimit:4;" d="M -0.00004 2.999023 C 0.796835 2.999023 1.559335 2.683398 2.121835 2.120898 C 2.684335 1.558398 2.99996 0.795898 2.99996 -0.000977 C 2.99996 -0.794727 2.684335 -1.557227 2.121835 -2.122852 C 1.559335 -2.685352 0.796835 -3.000977 -0.00004 -3.000977 C -0.796915 -3.000977 -1.559415 -2.685352 -2.121915 -2.122852 C -2.684415 -1.557227 -3.00004 -0.794727 -3.00004 -0.000977 C -3.00004 0.795898 -2.684415 1.558398 -2.121915 2.120898 C -1.559415 2.683398 -0.796915 2.999023 -0.00004 2.999023 Z M -0.00004 2.999023 " transform="matrix(1.25,0,0,1.25,101.046925,84.540284)"/>
<path style="fill-rule:nonzero;fill:rgb(100%,49.803922%,5.490196%);fill-opacity:0.501961;stroke-width:1;stroke-linecap:butt;stroke-linejoin:round;stroke:rgb(100%,49.803922%,5.490196%);stroke-opacity:0.501961;stroke-miterlimit:4;" d="M -0.0002 2.999208 C 0.796675 2.999208 1.559175 2.683583 2.121675 2.121083 C 2.684175 1.558583 2.9998 0.796083 2.9998 -0.000792 C 2.9998 -0.794542 2.684175 -1.560167 2.121675 -2.122667 C 1.559175 -2.685167 0.796675 -3.000792 -0.0002 -3.000792 C -0.797075 -3.000792 -1.559575 -2.685167 -2.122075 -2.122667 C -2.684575 -1.560167 -3.0002 -0.794542 -3.0002 -0.000792 C -3.0002 0.796083 -2.684575 1.558583 -2.122075 2.121083 C -1.559575 2.683583 -0.797075 2.999208 -0.0002 2.999208 Z M -0.0002 2.999208 " transform="matrix(1.25,0,0,1.25,101.765875,72.829115)"/>
<path style="fill-rule:nonzero;fill:rgb(100%,49.803922%,5.490196%);fill-opacity:0.501961;stroke-width:1;stroke-linecap:butt;stroke-linejoin:round;stroke:rgb(100%,49.803922%,5.490196%);stroke-opacity:0.501961;stroke-miterlimit:4;" d="M -0.000638 2.998852 C 0.796237 2.998852 1.558737 2.683227 2.121237 2.120727 C 2.683737 1.558227 2.999362 0.795727 2.999362 -0.001148 C 2.999362 -0.794898 2.683737 -1.557398 2.121237 -2.119898 C 1.558737 -2.682398 0.796237 -3.001148 -0.000638 -3.001148 C -0.794388 -3.001148 -1.560013 -2.682398 -2.122513 -2.119898 C -2.685013 -1.557398 -3.000638 -0.794898 -3.000638 -0.001148 C -3.000638 0.795727 -2.685013 1.558227 -2.122513 2.120727 C -1.560013 2.683227 -0.794388 2.998852 -0.000638 2.998852 Z M -0.000638 2.998852 " transform="matrix(1.25,0,0,1.25,111.325016,56.17331)"/>
<path style="fill-rule:nonzero;fill:rgb(100%,49.803922%,5.490196%);fill-opacity:0.501961;stroke-width:1;stroke-linecap:butt;stroke-linejoin:round;stroke:rgb(100%,49.803922%,5.490196%);stroke-opacity:0.501961;stroke-miterlimit:4;" d="M 0.001476 2.999358 C 0.795226 2.999358 1.557726 2.683733 2.120226 2.121233 C 2.682726 1.558733 3.001476 0.796233 3.001476 -0.000642 C 3.001476 -0.794392 2.682726 -1.560017 2.120226 -2.122517 C 1.557726 -2.685017 0.795226 -3.000642 0.001476 -3.000642 C -0.795399 -3.000642 -1.557899 -2.685017 -2.120399 -2.122517 C -2.682899 -1.560017 -2.998524 -0.794392 -2.998524 -0.000642 C -2.998524 0.796233 -2.682899 1.558733 -2.120399 2.121233 C -1.557899 2.683733 -0.795399 2.999358 0.001476 2.999358 Z M 0.001476 2.999358 " transform="matrix(1.25,0,0,1.25,117.849717,77.633615)"/>
<path style="fill-rule:nonzero;fill:rgb(100%,49.803922%,5.490196%);fill-opacity:0.501961;stroke-width:1;stroke-linecap:butt;stroke-linejoin:round;stroke:rgb(100%,49.803922%,5.490196%);stroke-opacity:0.501961;stroke-miterlimit:4;" d="M 0.000406 3.00049 C 0.794156 3.00049 1.559781 2.684865 2.122281 2.122365 C 2.684781 1.559865 3.000406 0.79424 3.000406 0.00049 C 3.000406 -0.796385 2.684781 -1.558885 2.122281 -2.121385 C 1.559781 -2.683885 0.794156 -2.99951 0.000406 -2.99951 C -0.796469 -2.99951 -1.558969 -2.683885 -2.121469 -2.121385 C -2.683969 -1.558885 -2.999594 -0.796385 -2.999594 0.00049 C -2.999594 0.79424 -2.683969 1.559865 -2.121469 2.122365 C -1.558969 2.684865 -0.796469 3.00049 0.000406 3.00049 Z M 0.000406 3.00049 " transform="matrix(1.25,0,0,1.25,120.354961,50.315794)"/>
<path style="fill-rule:nonzero;fill:rgb(100%,49.803922%,5.490196%);fill-opacity:0.501961;stroke-width:1;stroke-linecap:butt;stroke-linejoin:round;stroke:rgb(100%,49.803922%,5.490196%);stroke-opacity:0.501961;stroke-miterlimit:4;" d="M 0.000103 2.999987 C 0.796978 2.999987 1.559478 2.684362 2.121978 2.121862 C 2.684478 1.559362 3.000103 0.796862 3.000103 -0.000013 C 3.000103 -0.796888 2.684478 -1.559388 2.121978 -2.121888 C 1.559478 -2.684388 0.796978 -3.000013 0.000103 -3.000013 C -0.796772 -3.000013 -1.559272 -2.684388 -2.121772 -2.121888 C -2.684272 -1.559388 -2.999897 -0.796888 -2.999897 -0.000013 C -2.999897 0.796862 -2.684272 1.559362 -2.121772 2.121862 C -1.559272 2.684362 -0.796772 2.999987 0.000103 2.999987 Z M 0.000103 2.999987 " transform="matrix(1.25,0,0,1.25,138.339715,51.628922)"/>
<path style="fill-rule:nonzero;fill:rgb(100%,49.803922%,5.490196%);fill-opacity:0.501961;stroke-width:1;stroke-linecap:butt;stroke-linejoin:round;stroke:rgb(100%,49.803922%,5.490196%);stroke-opacity:0.501961;stroke-miterlimit:4;" d="M -0.000848 3.000991 C 0.796027 3.000991 1.558527 2.685366 2.121027 2.122866 C 2.683527 1.557241 2.999152 0.794741 2.999152 0.000991 C 2.999152 -0.795884 2.683527 -1.558384 2.121027 -2.120884 C 1.558527 -2.683384 0.796027 -2.999009 -0.000848 -2.999009 C -0.794598 -2.999009 -1.560223 -2.683384 -2.122723 -2.120884 C -2.685223 -1.558384 -3.000848 -0.795884 -3.000848 0.000991 C -3.000848 0.794741 -2.685223 1.557241 -2.122723 2.122866 C -1.560223 2.685366 -0.794598 3.000991 -0.000848 3.000991 Z M -0.000848 3.000991 " transform="matrix(1.25,0,0,1.25,139.579185,46.209699)"/>
<path style="fill-rule:nonzero;fill:rgb(100%,49.803922%,5.490196%);fill-opacity:0.501961;stroke-width:1;stroke-linecap:butt;stroke-linejoin:round;stroke:rgb(100%,49.803922%,5.490196%);stroke-opacity:0.501961;stroke-miterlimit:4;" d="M 0.000808 2.999611 C 0.794558 2.999611 1.560183 2.683986 2.122683 2.121486 C 2.685183 1.558986 3.000808 0.796486 3.000808 -0.000389 C 3.000808 -0.794139 2.685183 -1.559764 2.122683 -2.122264 C 1.560183 -2.684764 0.794558 -3.000389 0.000808 -3.000389 C -0.796067 -3.000389 -1.558567 -2.684764 -2.121067 -2.122264 C -2.683567 -1.559764 -2.999192 -0.794139 -2.999192 -0.000389 C -2.999192 0.796486 -2.683567 1.558986 -2.121067 2.121486 C -1.558567 2.683986 -0.796067 2.999611 0.000808 2.999611 Z M 0.000808 2.999611 " transform="matrix(1.25,0,0,1.25,142.06149,63.65283)"/>
<path style="fill-rule:nonzero;fill:rgb(100%,49.803922%,5.490196%);fill-opacity:0.501961;stroke-width:1;stroke-linecap:butt;stroke-linejoin:round;stroke:rgb(100%,49.803922%,5.490196%);stroke-opacity:0.501961;stroke-miterlimit:4;" d="M 0.000465 2.999292 C 0.794215 2.999292 1.55984 2.683667 2.12234 2.121167 C 2.68484 1.558667 3.000465 0.796167 3.000465 -0.000708 C 3.000465 -0.794458 2.68484 -1.560083 2.12234 -2.122583 C 1.55984 -2.685083 0.794215 -3.000708 0.000465 -3.000708 C -0.79641 -3.000708 -1.55891 -2.685083 -2.12141 -2.122583 C -2.68391 -1.560083 -2.999535 -0.794458 -2.999535 -0.000708 C -2.999535 0.796167 -2.68391 1.558667 -2.12141 2.121167 C -1.55891 2.683667 -0.79641 2.999292 0.000465 2.999292 Z M 0.000465 2.999292 " transform="matrix(1.25,0,0,1.25,142.870512,52.789947)"/>
<path style="fill-rule:nonzero;fill:rgb(100%,49.803922%,5.490196%);fill-opacity:0.501961;stroke-width:1;stroke-linecap:butt;stroke-linejoin:round;stroke:rgb(100%,49.803922%,5.490196%);stroke-opacity:0.501961;stroke-miterlimit:4;" d="M -0.000189 3.000911 C 0.796686 3.000911 1.559186 2.685286 2.121686 2.122786 C 2.684186 1.560286 2.999811 0.794661 2.999811 0.000911 C 2.999811 -0.795964 2.684186 -1.558464 2.121686 -2.120964 C 1.559186 -2.683464 0.796686 -2.999089 -0.000189 -2.999089 C -0.797064 -2.999089 -1.559564 -2.683464 -2.122064 -2.120964 C -2.684564 -1.558464 -3.000189 -0.795964 -3.000189 0.000911 C -3.000189 0.794661 -2.684564 1.560286 -2.122064 2.122786 C -1.559564 2.685286 -0.797064 3.000911 -0.000189 3.000911 Z M -0.000189 3.000911 " transform="matrix(1.25,0,0,1.25,147.668205,52.096517)"/>
<path style="fill-rule:nonzero;fill:rgb(100%,49.803922%,5.490196%);fill-opacity:0.501961;stroke-width:1;stroke-linecap:butt;stroke-linejoin:round;stroke:rgb(100%,49.803922%,5.490196%);stroke-opacity:0.501961;stroke-miterlimit:4;" d="M 0.00052 3.000517 C 0.79427 3.000517 1.559895 2.684892 2.122395 2.122392 C 2.684895 1.559892 3.00052 0.794267 3.00052 0.000517 C 3.00052 -0.796358 2.684895 -1.558858 2.122395 -2.121358 C 1.559895 -2.683858 0.79427 -2.999483 0.00052 -2.999483 C -0.796355 -2.999483 -1.558855 -2.683858 -2.121355 -2.121358 C -2.683855 -1.558858 -2.99948 -0.796358 -2.99948 0.000517 C -2.99948 0.794267 -2.683855 1.559892 -2.121355 2.122392 C -1.558855 2.684892 -0.796355 3.000517 0.00052 3.000517 Z M 0.00052 3.000517 " transform="matrix(1.25,0,0,1.25,148.12435,54.968104)"/>
<path style="fill-rule:nonzero;fill:rgb(100%,49.803922%,5.490196%);fill-opacity:0.501961;stroke-width:1;stroke-linecap:butt;stroke-linejoin:round;stroke:rgb(100%,49.803922%,5.490196%);stroke-opacity:0.501961;stroke-miterlimit:4;" d="M -0.000231 2.99899 C 0.796644 2.99899 1.559144 2.683365 2.121644 2.120865 C 2.684144 1.558365 2.999769 0.795865 2.999769 -0.00101 C 2.999769 -0.79476 2.684144 -1.55726 2.121644 -2.11976 C 1.559144 -2.685385 0.796644 -3.00101 -0.000231 -3.00101 C -0.797106 -3.00101 -1.559606 -2.685385 -2.122106 -2.11976 C -2.684606 -1.55726 -3.000231 -0.79476 -3.000231 -0.00101 C -3.000231 0.795865 -2.684606 1.558365 -2.122106 2.120865 C -1.559606 2.683365 -0.797106 2.99899 -0.000231 2.99899 Z M -0.000231 2.99899 " transform="matrix(1.25,0,0,1.25,154.230758,60.434856)"/>
<path style="fill-rule:nonzero;fill:rgb(100%,49.803922%,5.490196%);fill-opacity:0.501961;stroke-width:1;stroke-linecap:butt;stroke-linejoin:round;stroke:rgb(100%,49.803922%,5.490196%);stroke-opacity:0.501961;stroke-miterlimit:4;" d="M -0.000463 2.998524 C 0.796412 2.998524 1.558912 2.682899 2.121412 2.120399 C 2.683912 1.557899 2.999537 0.795399 2.999537 -0.001476 C 2.999537 -0.795226 2.683912 -1.557726 2.121412 -2.120226 C 1.558912 -2.682726 0.796412 -3.001476 -0.000463 -3.001476 C -0.794213 -3.001476 -1.559838 -2.682726 -2.122338 -2.120226 C -2.684838 -1.557726 -3.000463 -0.795226 -3.000463 -0.001476 C -3.000463 0.795399 -2.684838 1.557899 -2.122338 2.120399 C -1.559838 2.682899 -0.794213 2.998524 -0.000463 2.998524 Z M -0.000463 2.998524 " transform="matrix(1.25,0,0,1.25,155.750579,56.380751)"/>
<path style="fill-rule:nonzero;fill:rgb(100%,49.803922%,5.490196%);fill-opacity:0.501961;stroke-width:1;stroke-linecap:butt;stroke-linejoin:round;stroke:rgb(100%,49.803922%,5.490196%);stroke-opacity:0.501961;stroke-miterlimit:4;" d="M 0.000528 2.999043 C 0.794278 2.999043 1.559903 2.683418 2.122403 2.120918 C 2.684903 1.558418 3.000528 0.795918 3.000528 -0.000957 C 3.000528 -0.794707 2.684903 -1.557207 2.122403 -2.122832 C 1.559903 -2.685332 0.794278 -3.000957 0.000528 -3.000957 C -0.796347 -3.000957 -1.558847 -2.685332 -2.121347 -2.122832 C -2.683847 -1.557207 -2.999472 -0.794707 -2.999472 -0.000957 C -2.999472 0.795918 -2.683847 1.558418 -2.121347 2.120918 C -1.558847 2.683418 -0.796347 2.999043 0.000528 2.999043 Z M 0.000528 2.999043 " transform="matrix(1.25,0,0,1.25,180.350902,110.411352)"/>
<path style="fill-rule:nonzero;fill:rgb(100%,49.803922%,5.490196%);fill-opacity:0.501961;stroke-width:1;stroke-linecap:butt;stroke-linejoin:round;stroke:rgb(100%,49.803922%,5.490196%);stroke-opacity:0.501961;stroke-miterlimit:4;" d="M -0.000637 2.998566 C 0.796238 2.998566 1.558738 2.682941 2.121238 2.120441 C 2.683738 1.557941 2.999363 0.795441 2.999363 -0.001434 C 2.999363 -0.795184 2.683738 -1.557684 2.121238 -2.120184 C 1.558738 -2.682684 0.796238 -3.001434 -0.000637 -3.001434 C -0.794387 -3.001434 -1.560012 -2.682684 -2.122512 -2.120184 C -2.685012 -1.557684 -3.000637 -0.795184 -3.000637 -0.001434 C -3.000637 0.795441 -2.685012 1.557941 -2.122512 2.120441 C -1.560012 2.682941 -0.794387 2.998566 -0.000637 2.998566 Z M -0.000637 2.998566 " transform="matrix(1.25,0,0,1.25,187.379703,65.107261)"/>
<path style="fill-rule:nonzero;fill:rgb(100%,49.803922%,5.490196%);fill-opacity:0.501961;stroke-width:1;stroke-linecap:butt;stroke-linejoin:round;stroke:rgb(100%,49.803922%,5.490196%);stroke-opacity:0.501961;stroke-miterlimit:4;" d="M -0.001111 2.999021 C 0.795764 2.999021 1.558264 2.683396 2.120764 2.120896 C 2.683264 1.558396 2.998889 0.795896 2.998889 -0.000979 C 2.998889 -0.794729 2.683264 -1.557229 2.120764 -2.122854 C 1.558264 -2.685354 0.795764 -3.000979 -0.001111 -3.000979 C -0.794861 -3.000979 -1.557361 -2.685354 -2.119861 -2.122854 C -2.682361 -1.557229 -3.001111 -0.794729 -3.001111 -0.000979 C -3.001111 0.795896 -2.682361 1.558396 -2.119861 2.120896 C -1.557361 2.683396 -0.794861 2.999021 -0.001111 2.999021 Z M -0.001111 2.999021 " transform="matrix(1.25,0,0,1.25,188.216232,44.735599)"/>
<path style="fill-rule:nonzero;fill:rgb(100%,49.803922%,5.490196%);fill-opacity:0.501961;stroke-width:1;stroke-linecap:butt;stroke-linejoin:round;stroke:rgb(100%,49.803922%,5.490196%);stroke-opacity:0.501961;stroke-miterlimit:4;" d="M 0.001181 2.999269 C 0.794931 2.999269 1.557431 2.683644 2.119931 2.121144 C 2.682431 1.558644 3.001181 0.796144 3.001181 -0.000731 C 3.001181 -0.794481 2.682431 -1.560106 2.119931 -2.122606 C 1.557431 -2.685106 0.794931 -3.000731 0.001181 -3.000731 C -0.795694 -3.000731 -1.558194 -2.685106 -2.120694 -2.122606 C -2.683194 -1.560106 -2.998819 -0.794481 -2.998819 -0.000731 C -2.998819 0.796144 -2.683194 1.558644 -2.120694 2.121144 C -1.558194 2.683644 -0.795694 2.999269 0.001181 2.999269 Z M 0.001181 2.999269 " transform="matrix(1.25,0,0,1.25,191.045399,41.457945)"/>
<path style="fill-rule:nonzero;fill:rgb(100%,49.803922%,5.490196%);fill-opacity:0.501961;stroke-width:1;stroke-linecap:butt;stroke-linejoin:round;stroke:rgb(100%,49.803922%,5.490196%);stroke-opacity:0.501961;stroke-miterlimit:4;" d="M 0.0008 2.999141 C 0.79455 2.999141 1.560175 2.683516 2.122675 2.121016 C 2.685175 1.558516 3.0008 0.796016 3.0008 -0.000859 C 3.0008 -0.794609 2.685175 -1.560234 2.122675 -2.122734 C 1.560175 -2.685234 0.79455 -3.000859 0.0008 -3.000859 C -0.796075 -3.000859 -1.558575 -2.685234 -2.121075 -2.122734 C -2.683575 -1.560234 -2.9992 -0.794609 -2.9992 -0.000859 C -2.9992 0.796016 -2.683575 1.558516 -2.121075 2.121016 C -1.558575 2.683516 -0.796075 2.999141 0.0008 2.999141 Z M 0.0008 2.999141 " transform="matrix(1.25,0,0,1.25,192.178688,70.274511)"/>
<path style="fill-rule:nonzero;fill:rgb(100%,49.803922%,5.490196%);fill-opacity:0.501961;stroke-width:1;stroke-linecap:butt;stroke-linejoin:round;stroke:rgb(100%,49.803922%,5.490196%);stroke-opacity:0.501961;stroke-miterlimit:4;" d="M -0.001537 2.999997 C 0.795338 2.999997 1.557838 2.684372 2.120338 2.121872 C 2.682838 1.559372 2.998463 0.796872 2.998463 -0.000003 C 2.998463 -0.796878 2.682838 -1.559378 2.120338 -2.121878 C 1.557838 -2.684378 0.795338 -3.000003 -0.001537 -3.000003 C -0.795287 -3.000003 -1.557787 -2.684378 -2.120287 -2.121878 C -2.682787 -1.559378 -3.001537 -0.796878 -3.001537 -0.000003 C -3.001537 0.796872 -2.682787 1.559372 -2.120287 2.121872 C -1.557787 2.684372 -0.795287 2.999997 -0.001537 2.999997 Z M -0.001537 2.999997 " transform="matrix(1.25,0,0,1.25,192.685515,65.601566)"/>
<path style="fill-rule:nonzero;fill:rgb(100%,49.803922%,5.490196%);fill-opacity:0.501961;stroke-width:1;stroke-linecap:butt;stroke-linejoin:round;stroke:rgb(100%,49.803922%,5.490196%);stroke-opacity:0.501961;stroke-miterlimit:4;" d="M 0.001027 3.000558 C 0.794777 3.000558 1.557277 2.684933 2.119777 2.122433 C 2.685402 1.559933 3.001027 0.794308 3.001027 0.000558 C 3.001027 -0.796317 2.685402 -1.558817 2.119777 -2.121317 C 1.557277 -2.683817 0.794777 -2.999442 0.001027 -2.999442 C -0.795848 -2.999442 -1.558348 -2.683817 -2.120848 -2.121317 C -2.683348 -1.558817 -2.998973 -0.796317 -2.998973 0.000558 C -2.998973 0.794308 -2.683348 1.559933 -2.120848 2.122433 C -1.558348 2.684933 -0.795848 3.000558 0.001027 3.000558 Z M 0.001027 3.000558 " transform="matrix(1.25,0,0,1.25,197.717466,78.495396)"/>
<path style="fill-rule:nonzero;fill:rgb(100%,49.803922%,5.490196%);fill-opacity:0.501961;stroke-width:1;stroke-linecap:butt;stroke-linejoin:round;stroke:rgb(100%,49.803922%,5.490196%);stroke-opacity:0.501961;stroke-miterlimit:4;" d="M 0.000754 2.999512 C 0.794504 2.999512 1.560129 2.683887 2.122629 2.121387 C 2.685129 1.558887 3.000754 0.796387 3.000754 -0.000488 C 3.000754 -0.794238 2.685129 -1.559863 2.122629 -2.122363 C 1.560129 -2.684863 0.794504 -3.000488 0.000754 -3.000488 C -0.796121 -3.000488 -1.558621 -2.684863 -2.121121 -2.122363 C -2.683621 -1.559863 -2.999246 -0.794238 -2.999246 -0.000488 C -2.999246 0.796387 -2.683621 1.558887 -2.121121 2.121387 C -1.558621 2.683887 -0.796121 2.999512 0.000754 2.999512 Z M 0.000754 2.999512 " transform="matrix(1.25,0,0,1.25,200.104526,62.34436)"/>
<path style="fill-rule:nonzero;fill:rgb(100%,49.803922%,5.490196%);fill-opacity:0.501961;stroke-width:1;stroke-linecap:butt;stroke-linejoin:round;stroke:rgb(100%,49.803922%,5.490196%);stroke-opacity:0.501961;stroke-miterlimit:4;" d="M -0.001015 3.000278 C 0.79586 3.000278 1.55836 2.684653 2.12086 2.122153 C 2.68336 1.559653 2.998985 0.797153 2.998985 0.000278 C 2.998985 -0.796597 2.68336 -1.559097 2.12086 -2.121597 C 1.55836 -2.684097 0.79586 -2.999722 -0.001015 -2.999722 C -0.794765 -2.999722 -1.557265 -2.684097 -2.119765 -2.121597 C -2.68539 -1.559097 -3.001015 -0.796597 -3.001015 0.000278 C -3.001015 0.797153 -2.68539 1.559653 -2.119765 2.122153 C -1.557265 2.684653 -0.794765 3.000278 -0.001015 3.000278 Z M -0.001015 3.000278 " transform="matrix(1.25,0,0,1.25,202.930956,77.109027)"/>
<path style="fill-rule:nonzero;fill:rgb(100%,49.803922%,5.490196%);fill-opacity:0.501961;stroke-width:1;stroke-linecap:butt;stroke-linejoin:round;stroke:rgb(100%,49.803922%,5.490196%);stroke-opacity:0.501961;stroke-miterlimit:4;" d="M 0.000852 3.000854 C 0.794602 3.000854 1.560227 2.685229 2.122727 2.122729 C 2.685227 1.560229 3.000852 0.794604 3.000852 0.000854 C 3.000852 -0.796021 2.685227 -1.558521 2.122727 -2.121021 C 1.560227 -2.683521 0.794602 -2.999146 0.000852 -2.999146 C -0.796023 -2.999146 -1.558523 -2.683521 -2.121023 -2.121021 C -2.683523 -1.558521 -2.999148 -0.796021 -2.999148 0.000854 C -2.999148 0.794604 -2.683523 1.560229 -2.121023 2.122729 C -1.558523 2.685229 -0.796023 3.000854 0.000852 3.000854 Z M 0.000852 3.000854 " transform="matrix(1.25,0,0,1.25,207.260654,95.401276)"/>
<path style="fill-rule:nonzero;fill:rgb(100%,49.803922%,5.490196%);fill-opacity:0.501961;stroke-width:1;stroke-linecap:butt;stroke-linejoin:round;stroke:rgb(100%,49.803922%,5.490196%);stroke-opacity:0.501961;stroke-miterlimit:4;" d="M -0.00032 2.999075 C 0.796555 2.999075 1.559055 2.68345 2.121555 2.12095 C 2.684055 1.55845 2.99968 0.79595 2.99968 -0.000925 C 2.99968 -0.794675 2.684055 -1.5603 2.121555 -2.1228 C 1.559055 -2.6853 0.796555 -3.000925 -0.00032 -3.000925 C -0.79407 -3.000925 -1.559695 -2.6853 -2.122195 -2.1228 C -2.684695 -1.5603 -3.00032 -0.794675 -3.00032 -0.000925 C -3.00032 0.79595 -2.684695 1.55845 -2.122195 2.12095 C -1.559695 2.68345 -0.79407 2.999075 -0.00032 2.999075 Z M -0.00032 2.999075 " transform="matrix(1.25,0,0,1.25,208.84415,100.383969)"/>
<path style="fill-rule:nonzero;fill:rgb(100%,49.803922%,5.490196%);fill-opacity:0.501961;stroke-width:1;stroke-linecap:butt;stroke-linejoin:round;stroke:rgb(100%,49.803922%,5.490196%);stroke-opacity:0.501961;stroke-miterlimit:4;" d="M 0.00077 3.001377 C 0.79452 3.001377 1.560145 2.682627 2.122645 2.120127 C 2.685145 1.557627 3.00077 0.795127 3.00077 0.001377 C 3.00077 -0.795498 2.685145 -1.557998 2.122645 -2.120498 C 1.560145 -2.682998 0.79452 -2.998623 0.00077 -2.998623 C -0.796105 -2.998623 -1.558605 -2.682998 -2.121105 -2.120498 C -2.683605 -1.557998 -2.99923 -0.795498 -2.99923 0.001377 C -2.99923 0.795127 -2.683605 1.557627 -2.121105 2.120127 C -1.558605 2.682627 -0.796105 3.001377 0.00077 3.001377 Z M 0.00077 3.001377 " transform="matrix(1.25,0,0,1.25,231.971694,86.592029)"/>
<path style="fill-rule:nonzero;fill:rgb(100%,49.803922%,5.490196%);fill-opacity:0.501961;stroke-width:1;stroke-linecap:butt;stroke-linejoin:round;stroke:rgb(100%,49.803922%,5.490196%);stroke-opacity:0.501961;stroke-miterlimit:4;" d="M 0.001226 3.001473 C 0.794976 3.001473 1.557476 2.682723 2.119976 2.120223 C 2.682476 1.557723 3.001226 0.795223 3.001226 0.001473 C 3.001226 -0.795402 2.682476 -1.557902 2.119976 -2.120402 C 1.557476 -2.682902 0.794976 -2.998527 0.001226 -2.998527 C -0.795649 -2.998527 -1.558149 -2.682902 -2.120649 -2.120402 C -2.683149 -1.557902 -2.998774 -0.795402 -2.998774 0.001473 C -2.998774 0.795223 -2.683149 1.557723 -2.120649 2.120223 C -1.558149 2.682723 -0.795649 3.001473 0.001226 3.001473 Z M 0.001226 3.001473 " transform="matrix(1.25,0,0,1.25,234.014093,102.83019)"/>
<path style="fill-rule:nonzero;fill:rgb(100%,49.803922%,5.490196%);fill-opacity:0.501961;stroke-width:1;stroke-linecap:butt;stroke-linejoin:round;stroke:rgb(100%,49.803922%,5.490196%);stroke-opacity:0.501961;stroke-miterlimit:4;" d="M 0.001345 3.00068 C 0.795095 3.00068 1.557595 2.685055 2.120095 2.122555 C 2.682595 1.560055 3.001345 0.79443 3.001345 0.00068 C 3.001345 -0.796195 2.682595 -1.558695 2.120095 -2.121195 C 1.557595 -2.683695 0.795095 -2.99932 0.001345 -2.99932 C -0.79553 -2.99932 -1.55803 -2.683695 -2.12053 -2.121195 C -2.68303 -1.558695 -2.998655 -0.796195 -2.998655 0.00068 C -2.998655 0.79443 -2.68303 1.560055 -2.12053 2.122555 C -1.55803 2.685055 -0.79553 3.00068 0.001345 3.00068 Z M 0.001345 3.00068 " transform="matrix(1.25,0,0,1.25,235.158475,122.491338)"/>
<path style="fill-rule:nonzero;fill:rgb(100%,49.803922%,5.490196%);fill-opacity:0.501961;stroke-width:1;stroke-linecap:butt;stroke-linejoin:round;stroke:rgb(100%,49.803922%,5.490196%);stroke-opacity:0.501961;stroke-miterlimit:4;" d="M 0.001389 3.001141 C 0.795139 3.001141 1.557639 2.682391 2.120139 2.119891 C 2.682639 1.557391 3.001389 0.794891 3.001389 0.001141 C 3.001389 -0.795734 2.682639 -1.558234 2.120139 -2.120734 C 1.557639 -2.683234 0.795139 -2.998859 0.001389 -2.998859 C -0.795486 -2.998859 -1.557986 -2.683234 -2.120486 -2.120734 C -2.682986 -1.558234 -2.998611 -0.795734 -2.998611 0.001141 C -2.998611 0.794891 -2.682986 1.557391 -2.120486 2.119891 C -1.557986 2.682391 -0.795486 3.001141 0.001389 3.001141 Z M 0.001389 3.001141 " transform="matrix(1.25,0,0,1.25,236.896701,91.451699)"/>
<path style="fill-rule:nonzero;fill:rgb(100%,49.803922%,5.490196%);fill-opacity:0.501961;stroke-width:1;stroke-linecap:butt;stroke-linejoin:round;stroke:rgb(100%,49.803922%,5.490196%);stroke-opacity:0.501961;stroke-miterlimit:4;" d="M 0.000494 2.999274 C 0.794244 2.999274 1.559869 2.683649 2.122369 2.121149 C 2.684869 1.558649 3.000494 0.796149 3.000494 -0.000726 C 3.000494 -0.794476 2.684869 -1.560101 2.122369 -2.122601 C 1.559869 -2.685101 0.794244 -3.000726 0.000494 -3.000726 C -0.796381 -3.000726 -1.558881 -2.685101 -2.121381 -2.122601 C -2.683881 -1.560101 -2.999506 -0.794476 -2.999506 -0.000726 C -2.999506 0.796149 -2.683881 1.558649 -2.121381 2.121149 C -1.558881 2.683649 -0.796381 2.999274 0.000494 2.999274 Z M 0.000494 2.999274 " transform="matrix(1.25,0,0,1.25,238.643914,135.680595)"/>
<path style="fill-rule:nonzero;fill:rgb(100%,49.803922%,5.490196%);fill-opacity:0.501961;stroke-width:1;stroke-linecap:butt;stroke-linejoin:round;stroke:rgb(100%,49.803922%,5.490196%);stroke-opacity:0.501961;stroke-miterlimit:4;" d="M -0.000406 2.99887 C 0.796469 2.99887 1.558969 2.683245 2.121469 2.120745 C 2.683969 1.558245 2.999594 0.795745 2.999594 -0.00113 C 2.999594 -0.79488 2.683969 -1.55738 2.121469 -2.11988 C 1.558969 -2.68238 0.796469 -3.00113 -0.000406 -3.00113 C -0.794156 -3.00113 -1.559781 -2.68238 -2.122281 -2.11988 C -2.684781 -1.55738 -3.000406 -0.79488 -3.000406 -0.00113 C -3.000406 0.795745 -2.684781 1.558245 -2.122281 2.120745 C -1.559781 2.683245 -0.794156 2.99887 -0.000406 2.99887 Z M -0.000406 2.99887 " transform="matrix(1.25,0,0,1.25,247.953633,112.720163)"/>
<path style="fill-rule:nonzero;fill:rgb(100%,49.803922%,5.490196%);fill-opacity:0.501961;stroke-width:1;stroke-linecap:butt;stroke-linejoin:round;stroke:rgb(100%,49.803922%,5.490196%);stroke-opacity:0.501961;stroke-miterlimit:4;" d="M -0.000545 3.001009 C 0.79633 3.001009 1.55883 2.685384 2.12133 2.119759 C 2.68383 1.557259 2.999455 0.794759 2.999455 0.001009 C 2.999455 -0.795866 2.68383 -1.558366 2.12133 -2.120866 C 1.55883 -2.683366 0.79633 -2.998991 -0.000545 -2.998991 C -0.794295 -2.998991 -1.55992 -2.683366 -2.12242 -2.120866 C -2.68492 -1.558366 -3.000545 -0.795866 -3.000545 0.001009 C -3.000545 0.794759 -2.68492 1.557259 -2.12242 2.119759 C -1.55992 2.685384 -0.794295 3.001009 -0.000545 3.001009 Z M -0.000545 3.001009 " transform="matrix(1.25,0,0,1.25,261.7624,136.826864)"/>
<path style="fill-rule:nonzero;fill:rgb(100%,49.803922%,5.490196%);fill-opacity:0.501961;stroke-width:1;stroke-linecap:butt;stroke-linejoin:round;stroke:rgb(100%,49.803922%,5.490196%);stroke-opacity:0.501961;stroke-miterlimit:4;" d="M -0.001193 2.999166 C 0.795682 2.999166 1.558182 2.683541 2.120682 2.121041 C 2.683182 1.558541 2.998807 0.796041 2.998807 -0.000834 C 2.998807 -0.794584 2.683182 -1.560209 2.120682 -2.122709 C 1.558182 -2.685209 0.795682 -3.000834 -0.001193 -3.000834 C -0.794943 -3.000834 -1.557443 -2.685209 -2.119943 -2.122709 C -2.682443 -1.560209 -3.001193 -0.794584 -3.001193 -0.000834 C -3.001193 0.796041 -2.682443 1.558541 -2.119943 2.121041 C -1.557443 2.683541 -0.794943 2.999166 -0.001193 2.999166 Z M -0.001193 2.999166 " transform="matrix(1.25,0,0,1.25,263.271023,119.614324)"/>
<path style="fill-rule:nonzero;fill:rgb(100%,49.803922%,5.490196%);fill-opacity:0.501961;stroke-width:1;stroke-linecap:butt;stroke-linejoin:round;stroke:rgb(100%,49.803922%,5.490196%);stroke-opacity:0.501961;stroke-miterlimit:4;" d="M 0.000836 3.001193 C 0.794586 3.001193 1.560211 2.682443 2.122711 2.119943 C 2.685211 1.557443 3.000836 0.794943 3.000836 0.001193 C 3.000836 -0.795682 2.685211 -1.558182 2.122711 -2.120682 C 1.560211 -2.683182 0.794586 -2.998807 0.000836 -2.998807 C -0.796039 -2.998807 -1.558539 -2.683182 -2.121039 -2.120682 C -2.683539 -1.558182 -2.999164 -0.795682 -2.999164 0.001193 C -2.999164 0.794943 -2.683539 1.557443 -2.121039 2.119943 C -1.558539 2.682443 -0.796039 3.001193 0.000836 3.001193 Z M 0.000836 3.001193 " transform="matrix(1.25,0,0,1.25,272.463799,119.92429)"/>
<path style="fill-rule:nonzero;fill:rgb(100%,49.803922%,5.490196%);fill-opacity:0.501961;stroke-width:1;stroke-linecap:butt;stroke-linejoin:round;stroke:rgb(100%,49.803922%,5.490196%);stroke-opacity:0.501961;stroke-miterlimit:4;" d="M 0.00026 2.998884 C 0.797135 2.998884 1.559635 2.683259 2.122135 2.120759 C 2.684635 1.558259 3.00026 0.795759 3.00026 -0.001116 C 3.00026 -0.794866 2.684635 -1.557366 2.122135 -2.119866 C 1.559635 -2.682366 0.797135 -3.001116 0.00026 -3.001116 C -0.796615 -3.001116 -1.559115 -2.682366 -2.121615 -2.119866 C -2.684115 -1.557366 -2.99974 -0.794866 -2.99974 -0.001116 C -2.99974 0.795759 -2.684115 1.558259 -2.121615 2.120759 C -1.559115 2.683259 -0.796615 2.998884 0.00026 2.998884 Z M 0.00026 2.998884 " transform="matrix(1.25,0,0,1.25,274.495769,125.446708)"/>
<path style="fill-rule:nonzero;fill:rgb(100%,49.803922%,5.490196%);fill-opacity:0.501961;stroke-width:1;stroke-linecap:butt;stroke-linejoin:round;stroke:rgb(100%,49.803922%,5.490196%);stroke-opacity:0.501961;stroke-miterlimit:4;" d="M -0.00029 2.999609 C 0.796585 2.999609 1.559085 2.683984 2.121585 2.121484 C 2.684085 1.558984 2.99971 0.796484 2.99971 -0.000391 C 2.99971 -0.794141 2.684085 -1.559766 2.121585 -2.122266 C 1.559085 -2.684766 0.796585 -3.000391 -0.00029 -3.000391 C -0.797165 -3.000391 -1.559665 -2.684766 -2.122165 -2.122266 C -2.684665 -1.559766 -3.00029 -0.794141 -3.00029 -0.000391 C -3.00029 0.796484 -2.684665 1.558984 -2.122165 2.121484 C -1.559665 2.683984 -0.797165 2.999609 -0.00029 2.999609 Z M -0.00029 2.999609 " transform="matrix(1.25,0,0,1.25,275.027706,82.367676)"/>
<path style="fill-rule:nonzero;fill:rgb(100%,49.803922%,5.490196%);fill-opacity:0.501961;stroke-width:1;stroke-linecap:butt;stroke-linejoin:round;stroke:rgb(100%,49.803922%,5.490196%);stroke-opacity:0.501961;stroke-miterlimit:4;" d="M -0.000484 2.998629 C 0.796391 2.998629 1.558891 2.683004 2.121391 2.120504 C 2.683891 1.558004 2.999516 0.795504 2.999516 -0.001371 C 2.999516 -0.795121 2.683891 -1.557621 2.121391 -2.120121 C 1.558891 -2.682621 0.796391 -3.001371 -0.000484 -3.001371 C -0.794234 -3.001371 -1.559859 -2.682621 -2.122359 -2.120121 C -2.684859 -1.557621 -3.000484 -0.795121 -3.000484 -0.001371 C -3.000484 0.795504 -2.684859 1.558004 -2.122359 2.120504 C -1.559859 2.683004 -0.794234 2.998629 -0.000484 2.998629 Z M -0.000484 2.998629 " transform="matrix(1.25,0,0,1.25,284.121699,98.138432)"/>
<path style="fill-rule:nonzero;fill:rgb(100%,49.803922%,5.490196%);fill-opacity:0.501961;stroke-width:1;stroke-linecap:butt;stroke-linejoin:round;stroke:rgb(100%,49.803922%,5.490196%);stroke-opacity:0.501961;stroke-miterlimit:4;" d="M 0.000597 2.998948 C 0.794347 2.998948 1.559972 2.683323 2.122472 2.120823 C 2.684972 1.558323 3.000597 0.795823 3.000597 -0.001052 C 3.000597 -0.794802 2.684972 -1.557302 2.122472 -2.119802 C 1.559972 -2.685427 0.794347 -3.001052 0.000597 -3.001052 C -0.796278 -3.001052 -1.558778 -2.685427 -2.121278 -2.119802 C -2.683778 -1.557302 -2.999403 -0.794802 -2.999403 -0.001052 C -2.999403 0.795823 -2.683778 1.558323 -2.121278 2.120823 C -1.558778 2.683323 -0.796278 2.998948 0.000597 2.998948 Z M 0.000597 2.998948 " transform="matrix(1.25,0,0,1.25,286.585191,94.473971)"/>
<path style="fill-rule:nonzero;fill:rgb(100%,49.803922%,5.490196%);fill-opacity:0.501961;stroke-width:1;stroke-linecap:butt;stroke-linejoin:round;stroke:rgb(100%,49.803922%,5.490196%);stroke-opacity:0.501961;stroke-miterlimit:4;" d="M 0.001526 3.001529 C 0.795276 3.001529 1.557776 2.682779 2.120276 2.120279 C 2.682776 1.557779 3.001526 0.795279 3.001526 0.001529 C 3.001526 -0.795346 2.682776 -1.557846 2.120276 -2.120346 C 1.557776 -2.682846 0.795276 -2.998471 0.001526 -2.998471 C -0.795349 -2.998471 -1.557849 -2.682846 -2.120349 -2.120346 C -2.682849 -1.557846 -2.998474 -0.795346 -2.998474 0.001529 C -2.998474 0.795279 -2.682849 1.557779 -2.120349 2.120279 C -1.557849 2.682779 -0.795349 3.001529 0.001526 3.001529 Z M 0.001526 3.001529 " transform="matrix(1.25,0,0,1.25,286.658249,102.935589)"/>
<path style="fill-rule:nonzero;fill:rgb(100%,49.803922%,5.490196%);fill-opacity:0.501961;stroke-width:1;stroke-linecap:butt;stroke-linejoin:round;stroke:rgb(100%,49.803922%,5.490196%);stroke-opacity:0.501961;stroke-miterlimit:4;" d="M -0.000071 3.000011 C 0.796804 3.000011 1.559304 2.684386 2.121804 2.121886 C 2.684304 1.559386 2.999929 0.796886 2.999929 0.000011 C 2.999929 -0.796864 2.684304 -1.559364 2.121804 -2.121864 C 1.559304 -2.684364 0.796804 -2.999989 -0.000071 -2.999989 C -0.796946 -2.999989 -1.559446 -2.684364 -2.121946 -2.121864 C -2.684446 -1.559364 -3.000071 -0.796864 -3.000071 0.000011 C -3.000071 0.796886 -2.684446 1.559386 -2.121946 2.121886 C -1.559446 2.684386 -0.796946 3.000011 -0.000071 3.000011 Z M -0.000071 3.000011 " transform="matrix(1.25,0,0,1.25,289.839933,103.230455)"/>
<path style="fill-rule:nonzero;fill:rgb(100%,49.803922%,5.490196%);fill-opacity:0.501961;stroke-width:1;stroke-linecap:butt;stroke-linejoin:round;stroke:rgb(100%,49.803922%,5.490196%);stroke-opacity:0.501961;stroke-miterlimit:4;" d="M -0.00056 3.001337 C 0.796315 3.001337 1.558815 2.682587 2.121315 2.120087 C 2.683815 1.557587 2.99944 0.795087 2.99944 0.001337 C 2.99944 -0.795538 2.683815 -1.558038 2.121315 -2.120538 C 1.558815 -2.683038 0.796315 -2.998663 -0.00056 -2.998663 C -0.79431 -2.998663 -1.559935 -2.683038 -2.122435 -2.120538 C -2.684935 -1.558038 -3.00056 -0.795538 -3.00056 0.001337 C -3.00056 0.795087 -2.684935 1.557587 -2.122435 2.120087 C -1.559935 2.682587 -0.79431 3.001337 -0.00056 3.001337 Z M -0.00056 3.001337 " transform="matrix(1.25,0,0,1.25,292.508512,89.51786)"/>
<path style="fill-rule:nonzero;fill:rgb(100%,49.803922%,5.490196%);fill-opacity:0.501961;stroke-width:1;stroke-linecap:butt;stroke-linejoin:round;stroke:rgb(100%,49.803922%,5.490196%);stroke-opacity:0.501961;stroke-miterlimit:4;" d="M 0.001351 2.999157 C 0.795101 2.999157 1.557601 2.683532 2.120101 2.121032 C 2.682601 1.558532 3.001351 0.796032 3.001351 -0.000843 C 3.001351 -0.794593 2.682601 -1.560218 2.120101 -2.122718 C 1.557601 -2.685218 0.795101 -3.000843 0.001351 -3.000843 C -0.795524 -3.000843 -1.558024 -2.685218 -2.120524 -2.122718 C -2.683024 -1.560218 -2.998649 -0.794593 -2.998649 -0.000843 C -2.998649 0.796032 -2.683024 1.558532 -2.120524 2.121032 C -1.558024 2.683532 -0.795524 2.999157 0.001351 2.999157 Z M 0.001351 2.999157 " transform="matrix(1.25,0,0,1.25,292.549093,80.172929)"/>
<g clip-path="url(#clip16)" clip-rule="nonzero">
<path style=" stroke:none;fill-rule:nonzero;fill:rgb(100%,49.803922%,5.490196%);fill-opacity:0.501961;" d="M 296.292969 136.945312 C 297.285156 136.945312 298.238281 136.550781 298.941406 135.847656 C 299.644531 135.144531 300.042969 134.191406 300.042969 133.195312 C 300.042969 132.203125 299.644531 131.246094 298.941406 130.542969 C 298.238281 129.839844 297.285156 129.445312 296.292969 129.445312 C 295.296875 129.445312 294.34375 129.839844 293.640625 130.542969 C 292.9375 131.246094 292.542969 132.203125 292.542969 133.195312 C 292.542969 134.191406 292.9375 135.144531 293.640625 135.847656 C 294.34375 136.550781 295.296875 136.945312 296.292969 136.945312 Z M 296.292969 136.945312 "/>
</g>
<g clip-path="url(#clip17)" clip-rule="nonzero">
<path style="fill:none;stroke-width:1;stroke-linecap:butt;stroke-linejoin:round;stroke:rgb(100%,49.803922%,5.490196%);stroke-opacity:0.501961;stroke-miterlimit:4;" d="M 0.001165 2.99924 C 0.794915 2.99924 1.557415 2.683615 2.119915 2.121115 C 2.682415 1.558615 3.001165 0.796115 3.001165 -0.00076 C 3.001165 -0.79451 2.682415 -1.560135 2.119915 -2.122635 C 1.557415 -2.685135 0.794915 -3.00076 0.001165 -3.00076 C -0.79571 -3.00076 -1.55821 -2.685135 -2.12071 -2.122635 C -2.68321 -1.560135 -2.998835 -0.79451 -2.998835 -0.00076 C -2.998835 0.796115 -2.68321 1.558615 -2.12071 2.121115 C -1.55821 2.683615 -0.79571 2.99924 0.001165 2.99924 Z M 0.001165 2.99924 " transform="matrix(1.25,0,0,1.25,296.291513,133.196263)"/>
</g>
<path style="fill:none;stroke-width:0.8;stroke-linecap:square;stroke-linejoin:miter;stroke:rgb(0%,0%,0%);stroke-opacity:1;stroke-miterlimit:4;" d="M 42.61875 146.9 L 42.61875 11 " transform="matrix(1.25,0,0,1.25,0,0)"/>
<path style="fill:none;stroke-width:0.8;stroke-linecap:square;stroke-linejoin:miter;stroke:rgb(0%,0%,0%);stroke-opacity:1;stroke-miterlimit:4;" d="M 237.921875 146.9 L 237.921875 11 " transform="matrix(1.25,0,0,1.25,0,0)"/>
<path style="fill:none;stroke-width:0.8;stroke-linecap:square;stroke-linejoin:miter;stroke:rgb(0%,0%,0%);stroke-opacity:1;stroke-miterlimit:4;" d="M 42.61875 146.9 L 237.921875 146.9 " transform="matrix(1.25,0,0,1.25,0,0)"/>
<path style="fill:none;stroke-width:0.8;stroke-linecap:square;stroke-linejoin:miter;stroke:rgb(0%,0%,0%);stroke-opacity:1;stroke-miterlimit:4;" d="M 42.61875 11 L 237.921875 11 " transform="matrix(1.25,0,0,1.25,0,0)"/>
<use xlink:href="#surface6" mask="url(#mask0)"/>
<path style="fill:none;stroke-width:1.5;stroke-linecap:square;stroke-linejoin:round;stroke:rgb(12.156863%,46.666667%,70.588235%);stroke-opacity:1;stroke-miterlimit:4;" d="M 175.58125 24.096875 L 195.58125 24.096875 " transform="matrix(1.25,0,0,1.25,0,0)"/>
<path style=" stroke:none;fill-rule:nonzero;fill:rgb(0%,0%,0%);fill-opacity:1;" d="M 254.4375 25.382812 L 262.148438 25.382812 L 262.148438 26.421875 L 258.914062 26.421875 L 258.914062 34.496094 L 257.675781 34.496094 L 257.675781 26.421875 L 254.4375 26.421875 Z M 254.4375 25.382812 "/>
<path style=" stroke:none;fill-rule:nonzero;fill:rgb(0%,0%,0%);fill-opacity:1;" d="M 265.40625 28.710938 C 265.28125 28.636719 265.144531 28.582031 264.996094 28.550781 C 264.847656 28.515625 264.683594 28.496094 264.503906 28.496094 C 263.871094 28.496094 263.382812 28.703125 263.042969 29.117188 C 262.703125 29.527344 262.53125 30.121094 262.53125 30.894531 L 262.53125 34.496094 L 261.402344 34.496094 L 261.402344 27.660156 L 262.53125 27.660156 L 262.53125 28.722656 C 262.769531 28.308594 263.078125 28 263.453125 27.800781 C 263.832031 27.597656 264.292969 27.496094 264.835938 27.496094 C 264.910156 27.496094 264.996094 27.503906 265.089844 27.511719 C 265.183594 27.523438 265.289062 27.535156 265.402344 27.558594 Z M 265.40625 28.710938 "/>
<path style=" stroke:none;fill-rule:nonzero;fill:rgb(0%,0%,0%);fill-opacity:1;" d="M 266.46875 31.800781 L 266.46875 27.660156 L 267.59375 27.660156 L 267.59375 31.757812 C 267.59375 32.402344 267.71875 32.890625 267.96875 33.214844 C 268.222656 33.535156 268.601562 33.699219 269.105469 33.699219 C 269.710938 33.699219 270.191406 33.503906 270.542969 33.117188 C 270.894531 32.730469 271.070312 32.203125 271.070312 31.535156 L 271.070312 27.660156 L 272.195312 27.660156 L 272.195312 34.496094 L 271.070312 34.496094 L 271.070312 33.445312 C 270.800781 33.863281 270.484375 34.171875 270.121094 34.371094 C 269.761719 34.574219 269.34375 34.675781 268.867188 34.675781 C 268.082031 34.675781 267.488281 34.429688 267.078125 33.941406 C 266.671875 33.453125 266.46875 32.738281 266.46875 31.800781 Z M 269.296875 27.496094 Z M 269.296875 27.496094 "/>
<path style=" stroke:none;fill-rule:nonzero;fill:rgb(0%,0%,0%);fill-opacity:1;" d="M 275.617188 25.71875 L 275.617188 27.660156 L 277.929688 27.660156 L 277.929688 28.535156 L 275.617188 28.535156 L 275.617188 32.246094 C 275.617188 32.800781 275.695312 33.160156 275.847656 33.320312 C 276 33.476562 276.308594 33.558594 276.777344 33.558594 L 277.929688 33.558594 L 277.929688 34.496094 L 276.777344 34.496094 C 275.910156 34.496094 275.3125 34.335938 274.984375 34.011719 C 274.65625 33.6875 274.488281 33.097656 274.488281 32.246094 L 274.488281 28.535156 L 273.664062 28.535156 L 273.664062 27.660156 L 274.488281 27.660156 L 274.488281 25.71875 Z M 275.617188 25.71875 "/>
<path style=" stroke:none;fill-rule:nonzero;fill:rgb(0%,0%,0%);fill-opacity:1;" d="M 285.09375 30.371094 L 285.09375 34.496094 L 283.96875 34.496094 L 283.96875 30.40625 C 283.96875 29.761719 283.84375 29.277344 283.589844 28.957031 C 283.335938 28.632812 282.960938 28.472656 282.457031 28.472656 C 281.847656 28.472656 281.371094 28.667969 281.019531 29.054688 C 280.667969 29.4375 280.496094 29.964844 280.496094 30.632812 L 280.496094 34.496094 L 279.367188 34.496094 L 279.367188 25 L 280.496094 25 L 280.496094 28.722656 C 280.765625 28.3125 281.082031 28.003906 281.445312 27.800781 C 281.808594 27.597656 282.230469 27.496094 282.707031 27.496094 C 283.492188 27.496094 284.085938 27.738281 284.488281 28.226562 C 284.890625 28.710938 285.09375 29.425781 285.09375 30.371094 Z M 285.09375 30.371094 "/>
<path style="fill:none;stroke-width:1.5;stroke-linecap:butt;stroke-linejoin:round;stroke:rgb(74.901961%,0%,74.901961%);stroke-opacity:1;stroke-dasharray:5.55,2.4;stroke-miterlimit:4;" d="M 175.58125 38.775 L 195.58125 38.775 " transform="matrix(1.25,0,0,1.25,0,0)"/>
<path style=" stroke:none;fill-rule:nonzero;fill:rgb(0%,0%,0%);fill-opacity:1;" d="M 256.9375 44.746094 L 256.9375 48.167969 L 258.484375 48.167969 C 259.0625 48.167969 259.503906 48.019531 259.816406 47.722656 C 260.128906 47.425781 260.289062 47.003906 260.289062 46.453125 C 260.289062 45.910156 260.128906 45.488281 259.816406 45.191406 C 259.503906 44.894531 259.0625 44.746094 258.484375 44.746094 Z M 255.703125 43.730469 L 258.484375 43.730469 C 259.507812 43.730469 260.28125 43.960938 260.804688 44.425781 C 261.328125 44.886719 261.585938 45.5625 261.585938 46.453125 C 261.585938 47.355469 261.328125 48.035156 260.804688 48.492188 C 260.28125 48.953125 259.507812 49.183594 258.484375 49.183594 L 256.9375 49.183594 L 256.9375 52.84375 L 255.703125 52.84375 Z M 255.703125 43.730469 "/>
<path style=" stroke:none;fill-rule:nonzero;fill:rgb(0%,0%,0%);fill-opacity:1;" d="M 266.933594 47.058594 C 266.808594 46.984375 266.671875 46.929688 266.523438 46.898438 C 266.375 46.863281 266.210938 46.84375 266.03125 46.84375 C 265.398438 46.84375 264.910156 47.050781 264.570312 47.464844 C 264.230469 47.875 264.058594 48.46875 264.058594 49.242188 L 264.058594 52.84375 L 262.929688 52.84375 L 262.929688 46.007812 L 264.058594 46.007812 L 264.058594 47.070312 C 264.296875 46.65625 264.605469 46.347656 264.980469 46.148438 C 265.359375 45.945312 265.820312 45.84375 266.363281 45.84375 C 266.4375 45.84375 266.523438 45.851562 266.617188 45.859375 C 266.710938 45.871094 266.816406 45.882812 266.929688 45.90625 Z M 266.933594 47.058594 "/>
<path style=" stroke:none;fill-rule:nonzero;fill:rgb(0%,0%,0%);fill-opacity:1;" d="M 273.679688 49.144531 L 273.679688 49.695312 L 268.515625 49.695312 C 268.5625 50.46875 268.796875 51.058594 269.214844 51.460938 C 269.628906 51.867188 270.210938 52.070312 270.957031 52.070312 C 271.386719 52.070312 271.804688 52.015625 272.210938 51.910156 C 272.613281 51.804688 273.015625 51.648438 273.417969 51.433594 L 273.417969 52.496094 C 273.011719 52.667969 272.601562 52.796875 272.175781 52.886719 C 271.753906 52.976562 271.324219 53.023438 270.890625 53.023438 C 269.796875 53.023438 268.933594 52.707031 268.296875 52.070312 C 267.660156 51.4375 267.34375 50.578125 267.34375 49.492188 C 267.34375 48.375 267.644531 47.488281 268.25 46.832031 C 268.851562 46.171875 269.667969 45.84375 270.695312 45.84375 C 271.613281 45.84375 272.339844 46.140625 272.875 46.734375 C 273.410156 47.324219 273.679688 48.128906 273.679688 49.144531 Z M 272.554688 48.816406 C 272.546875 48.203125 272.375 47.710938 272.039062 47.347656 C 271.703125 46.980469 271.257812 46.796875 270.707031 46.796875 C 270.078125 46.796875 269.578125 46.972656 269.203125 47.328125 C 268.824219 47.679688 268.609375 48.179688 268.550781 48.824219 Z M 272.554688 48.816406 "/>
<path style=" stroke:none;fill-rule:nonzero;fill:rgb(0%,0%,0%);fill-opacity:1;" d="M 280.019531 47.046875 L 280.019531 43.347656 L 281.144531 43.347656 L 281.144531 52.84375 L 280.019531 52.84375 L 280.019531 51.820312 C 279.785156 52.226562 279.484375 52.527344 279.125 52.726562 C 278.765625 52.921875 278.332031 53.023438 277.828125 53.023438 C 277.003906 53.023438 276.332031 52.691406 275.8125 52.035156 C 275.292969 51.375 275.035156 50.507812 275.035156 49.433594 C 275.035156 48.359375 275.292969 47.492188 275.8125 46.832031 C 276.332031 46.175781 277.003906 45.84375 277.828125 45.84375 C 278.332031 45.84375 278.765625 45.945312 279.125 46.140625 C 279.484375 46.339844 279.785156 46.640625 280.019531 47.046875 Z M 276.195312 49.433594 C 276.195312 50.257812 276.363281 50.90625 276.703125 51.375 C 277.042969 51.847656 277.511719 52.082031 278.105469 52.082031 C 278.699219 52.082031 279.164062 51.847656 279.507812 51.375 C 279.847656 50.90625 280.019531 50.257812 280.019531 49.433594 C 280.019531 48.605469 279.847656 47.960938 279.507812 47.488281 C 279.164062 47.019531 278.699219 46.785156 278.105469 46.785156 C 277.511719 46.785156 277.042969 47.019531 276.703125 47.488281 C 276.363281 47.960938 276.195312 48.605469 276.195312 49.433594 Z M 276.195312 49.433594 "/>
</g>
</svg>
