<?xml version="1.0" encoding="UTF-8"?>
<svg xmlns="http://www.w3.org/2000/svg" xmlns:xlink="http://www.w3.org/1999/xlink" width="185pt" height="109pt" viewBox="0 0 185 109" version="1.1">
<g id="surface1">
<path style="fill:none;stroke-width:1;stroke-linecap:round;stroke-linejoin:round;stroke:rgb(0%,0%,0%);stroke-opacity:1;stroke-miterlimit:10;" d="M 131.44375 149.8 L 152 149.8 L 152 165.9 L 131.44375 165.9 Z M 131.44375 149.8 " transform="matrix(1.25,0,0,1.25,-106.25,-100)"/>
<path style=" stroke:none;fill-rule:nonzero;fill:rgb(0%,0%,0%);fill-opacity:1;" d="M 63.550781 96.914062 C 63.550781 95.964844 63.648438 95.195312 63.84375 94.609375 C 64.039062 94.023438 64.324219 93.574219 64.703125 93.261719 C 65.09375 92.949219 65.582031 92.792969 66.167969 92.792969 C 66.609375 92.792969 66.996094 92.886719 67.320312 93.066406 C 67.644531 93.238281 67.914062 93.484375 68.121094 93.808594 C 68.328125 94.136719 68.492188 94.53125 68.609375 95 C 68.738281 95.46875 68.804688 96.109375 68.804688 96.914062 C 68.804688 97.851562 68.707031 98.613281 68.511719 99.199219 C 68.316406 99.773438 68.023438 100.222656 67.632812 100.546875 C 67.253906 100.859375 66.765625 101.015625 66.167969 101.015625 C 65.398438 101.015625 64.792969 100.738281 64.351562 100.175781 C 63.816406 99.511719 63.550781 98.425781 63.550781 96.914062 Z M 64.566406 96.914062 C 64.566406 98.230469 64.714844 99.109375 65.015625 99.550781 C 65.328125 99.980469 65.710938 100.195312 66.167969 100.195312 C 66.625 100.195312 67.007812 99.980469 67.320312 99.550781 C 67.632812 99.109375 67.789062 98.230469 67.789062 96.914062 C 67.789062 95.585938 67.632812 94.707031 67.320312 94.277344 C 67.007812 93.835938 66.625 93.613281 66.167969 93.613281 C 65.710938 93.613281 65.347656 93.804688 65.074219 94.179688 C 64.734375 94.675781 64.566406 95.585938 64.566406 96.914062 Z M 64.566406 96.914062 "/>
<path style=" stroke:none;fill-rule:nonzero;fill:rgb(0%,0%,0%);fill-opacity:1;" d="M 70.355469 100.878906 L 70.355469 99.746094 L 71.488281 99.746094 L 71.488281 100.878906 Z M 70.355469 100.878906 "/>
<path style=" stroke:none;fill-rule:nonzero;fill:rgb(0%,0%,0%);fill-opacity:1;" d="M 76.667969 100.878906 L 75.671875 100.878906 L 75.671875 94.570312 C 75.4375 94.804688 75.125 95.039062 74.734375 95.273438 C 74.34375 95.496094 74 95.660156 73.699219 95.761719 L 73.699219 94.804688 C 74.246094 94.558594 74.726562 94.253906 75.144531 93.886719 C 75.5625 93.511719 75.855469 93.144531 76.023438 92.792969 L 76.667969 92.792969 Z M 76.667969 100.878906 "/>
<path style="fill:none;stroke-width:1;stroke-linecap:round;stroke-linejoin:round;stroke:rgb(0%,0%,0%);stroke-opacity:1;stroke-miterlimit:10;" d="M 131.44375 133.7 L 152 133.7 L 152 149.8 L 131.44375 149.8 Z M 131.44375 133.7 " transform="matrix(1.25,0,0,1.25,-106.25,-100)"/>
<path style=" stroke:none;fill-rule:nonzero;fill:rgb(0%,0%,0%);fill-opacity:1;" d="M 63.550781 76.789062 C 63.550781 75.839844 63.648438 75.070312 63.84375 74.484375 C 64.039062 73.898438 64.324219 73.449219 64.703125 73.136719 C 65.09375 72.824219 65.582031 72.667969 66.167969 72.667969 C 66.609375 72.667969 66.996094 72.761719 67.320312 72.941406 C 67.644531 73.113281 67.914062 73.359375 68.121094 73.683594 C 68.328125 74.011719 68.492188 74.40625 68.609375 74.875 C 68.738281 75.34375 68.804688 75.984375 68.804688 76.789062 C 68.804688 77.726562 68.707031 78.488281 68.511719 79.074219 C 68.316406 79.648438 68.023438 80.097656 67.632812 80.421875 C 67.253906 80.734375 66.765625 80.890625 66.167969 80.890625 C 65.398438 80.890625 64.792969 80.613281 64.351562 80.050781 C 63.816406 79.386719 63.550781 78.300781 63.550781 76.789062 Z M 64.566406 76.789062 C 64.566406 78.105469 64.714844 78.984375 65.015625 79.425781 C 65.328125 79.855469 65.710938 80.070312 66.167969 80.070312 C 66.625 80.070312 67.007812 79.855469 67.320312 79.425781 C 67.632812 78.984375 67.789062 78.105469 67.789062 76.789062 C 67.789062 75.460938 67.632812 74.582031 67.320312 74.152344 C 67.007812 73.710938 66.625 73.488281 66.167969 73.488281 C 65.710938 73.488281 65.347656 73.679688 65.074219 74.054688 C 64.734375 74.550781 64.566406 75.460938 64.566406 76.789062 Z M 64.566406 76.789062 "/>
<path style=" stroke:none;fill-rule:nonzero;fill:rgb(0%,0%,0%);fill-opacity:1;" d="M 70.355469 80.753906 L 70.355469 79.621094 L 71.488281 79.621094 L 71.488281 80.753906 Z M 70.355469 80.753906 "/>
<path style=" stroke:none;fill-rule:nonzero;fill:rgb(0%,0%,0%);fill-opacity:1;" d="M 78.132812 79.796875 L 78.132812 80.753906 L 72.800781 80.753906 C 72.800781 80.519531 72.839844 80.292969 72.917969 80.070312 C 73.0625 79.707031 73.28125 79.347656 73.582031 78.996094 C 73.882812 78.644531 74.3125 78.242188 74.871094 77.785156 C 75.742188 77.058594 76.328125 76.484375 76.628906 76.066406 C 76.941406 75.652344 77.097656 75.253906 77.097656 74.875 C 77.097656 74.484375 76.953125 74.160156 76.667969 73.898438 C 76.394531 73.625 76.035156 73.488281 75.59375 73.488281 C 75.113281 73.488281 74.726562 73.632812 74.441406 73.917969 C 74.15625 74.207031 74.011719 74.601562 74.011719 75.109375 L 72.996094 74.992188 C 73.0625 74.238281 73.320312 73.664062 73.777344 73.273438 C 74.234375 72.871094 74.84375 72.667969 75.613281 72.667969 C 76.382812 72.667969 76.988281 72.882812 77.429688 73.3125 C 77.886719 73.742188 78.113281 74.269531 78.113281 74.894531 C 78.113281 75.222656 78.046875 75.539062 77.917969 75.851562 C 77.789062 76.164062 77.566406 76.496094 77.253906 76.847656 C 76.953125 77.1875 76.453125 77.65625 75.75 78.253906 C 75.152344 78.75 74.765625 79.089844 74.597656 79.269531 C 74.429688 79.453125 74.292969 79.628906 74.1875 79.796875 Z M 78.132812 79.796875 "/>
<path style="fill:none;stroke-width:1;stroke-linecap:round;stroke-linejoin:round;stroke:rgb(0%,0%,0%);stroke-opacity:1;stroke-miterlimit:10;" d="M 131.44375 117.6 L 152 117.6 L 152 133.7 L 131.44375 133.7 Z M 131.44375 117.6 " transform="matrix(1.25,0,0,1.25,-106.25,-100)"/>
<path style=" stroke:none;fill-rule:nonzero;fill:rgb(0%,0%,0%);fill-opacity:1;" d="M 63.550781 56.664062 C 63.550781 55.714844 63.648438 54.945312 63.84375 54.359375 C 64.039062 53.773438 64.324219 53.324219 64.703125 53.011719 C 65.09375 52.699219 65.582031 52.542969 66.167969 52.542969 C 66.609375 52.542969 66.996094 52.636719 67.320312 52.816406 C 67.644531 52.988281 67.914062 53.234375 68.121094 53.558594 C 68.328125 53.886719 68.492188 54.28125 68.609375 54.75 C 68.738281 55.21875 68.804688 55.859375 68.804688 56.664062 C 68.804688 57.601562 68.707031 58.363281 68.511719 58.949219 C 68.316406 59.523438 68.023438 59.972656 67.632812 60.296875 C 67.253906 60.609375 66.765625 60.765625 66.167969 60.765625 C 65.398438 60.765625 64.792969 60.488281 64.351562 59.925781 C 63.816406 59.261719 63.550781 58.175781 63.550781 56.664062 Z M 64.566406 56.664062 C 64.566406 57.980469 64.714844 58.859375 65.015625 59.300781 C 65.328125 59.730469 65.710938 59.945312 66.167969 59.945312 C 66.625 59.945312 67.007812 59.730469 67.320312 59.300781 C 67.632812 58.859375 67.789062 57.980469 67.789062 56.664062 C 67.789062 55.335938 67.632812 54.457031 67.320312 54.027344 C 67.007812 53.585938 66.625 53.363281 66.167969 53.363281 C 65.710938 53.363281 65.347656 53.554688 65.074219 53.929688 C 64.734375 54.425781 64.566406 55.335938 64.566406 56.664062 Z M 64.566406 56.664062 "/>
<path style=" stroke:none;fill-rule:nonzero;fill:rgb(0%,0%,0%);fill-opacity:1;" d="M 70.355469 60.628906 L 70.355469 59.496094 L 71.488281 59.496094 L 71.488281 60.628906 Z M 70.355469 60.628906 "/>
<path style=" stroke:none;fill-rule:nonzero;fill:rgb(0%,0%,0%);fill-opacity:1;" d="M 78.132812 59.671875 L 78.132812 60.628906 L 72.800781 60.628906 C 72.800781 60.394531 72.839844 60.167969 72.917969 59.945312 C 73.0625 59.582031 73.28125 59.222656 73.582031 58.871094 C 73.882812 58.519531 74.3125 58.117188 74.871094 57.660156 C 75.742188 56.933594 76.328125 56.359375 76.628906 55.941406 C 76.941406 55.527344 77.097656 55.128906 77.097656 54.75 C 77.097656 54.359375 76.953125 54.035156 76.667969 53.773438 C 76.394531 53.5 76.035156 53.363281 75.59375 53.363281 C 75.113281 53.363281 74.726562 53.507812 74.441406 53.792969 C 74.15625 54.082031 74.011719 54.476562 74.011719 54.984375 L 72.996094 54.867188 C 73.0625 54.113281 73.320312 53.539062 73.777344 53.148438 C 74.234375 52.746094 74.84375 52.542969 75.613281 52.542969 C 76.382812 52.542969 76.988281 52.757812 77.429688 53.1875 C 77.886719 53.617188 78.113281 54.144531 78.113281 54.769531 C 78.113281 55.097656 78.046875 55.414062 77.917969 55.726562 C 77.789062 56.039062 77.566406 56.371094 77.253906 56.722656 C 76.953125 57.0625 76.453125 57.53125 75.75 58.128906 C 75.152344 58.625 74.765625 58.964844 74.597656 59.144531 C 74.429688 59.328125 74.292969 59.503906 74.1875 59.671875 Z M 78.132812 59.671875 "/>
<path style="fill-rule:nonzero;fill:rgb(69.803922%,85.098039%,100%);fill-opacity:1;stroke-width:1;stroke-linecap:round;stroke-linejoin:round;stroke:rgb(0%,0%,0%);stroke-opacity:1;stroke-miterlimit:10;" d="M 131.44375 101.5 L 152 101.5 L 152 117.6 L 131.44375 117.6 Z M 131.44375 101.5 " transform="matrix(1.25,0,0,1.25,-106.25,-100)"/>
<path style=" stroke:none;fill-rule:nonzero;fill:rgb(0%,0%,0%);fill-opacity:1;" d="M 63.550781 36.539062 C 63.550781 35.589844 63.648438 34.820312 63.84375 34.234375 C 64.039062 33.648438 64.324219 33.199219 64.703125 32.886719 C 65.09375 32.574219 65.582031 32.417969 66.167969 32.417969 C 66.609375 32.417969 66.996094 32.511719 67.320312 32.691406 C 67.644531 32.863281 67.914062 33.109375 68.121094 33.433594 C 68.328125 33.761719 68.492188 34.15625 68.609375 34.625 C 68.738281 35.09375 68.804688 35.734375 68.804688 36.539062 C 68.804688 37.476562 68.707031 38.238281 68.511719 38.824219 C 68.316406 39.398438 68.023438 39.847656 67.632812 40.171875 C 67.253906 40.484375 66.765625 40.640625 66.167969 40.640625 C 65.398438 40.640625 64.792969 40.363281 64.351562 39.800781 C 63.816406 39.136719 63.550781 38.050781 63.550781 36.539062 Z M 64.566406 36.539062 C 64.566406 37.855469 64.714844 38.734375 65.015625 39.175781 C 65.328125 39.605469 65.710938 39.820312 66.167969 39.820312 C 66.625 39.820312 67.007812 39.605469 67.320312 39.175781 C 67.632812 38.734375 67.789062 37.855469 67.789062 36.539062 C 67.789062 35.210938 67.632812 34.332031 67.320312 33.902344 C 67.007812 33.460938 66.625 33.238281 66.167969 33.238281 C 65.710938 33.238281 65.347656 33.429688 65.074219 33.804688 C 64.734375 34.300781 64.566406 35.210938 64.566406 36.539062 Z M 64.566406 36.539062 "/>
<path style=" stroke:none;fill-rule:nonzero;fill:rgb(0%,0%,0%);fill-opacity:1;" d="M 70.355469 40.503906 L 70.355469 39.371094 L 71.488281 39.371094 L 71.488281 40.503906 Z M 70.355469 40.503906 "/>
<path style=" stroke:none;fill-rule:nonzero;fill:rgb(0%,0%,0%);fill-opacity:1;" d="M 72.9375 38.394531 L 73.972656 38.296875 C 74.050781 38.804688 74.226562 39.191406 74.5 39.449219 C 74.785156 39.699219 75.125 39.820312 75.515625 39.820312 C 75.996094 39.820312 76.402344 39.644531 76.726562 39.292969 C 77.066406 38.929688 77.234375 38.453125 77.234375 37.867188 C 77.234375 37.296875 77.070312 36.847656 76.746094 36.519531 C 76.433594 36.195312 76.023438 36.03125 75.515625 36.03125 C 75.191406 36.03125 74.898438 36.109375 74.636719 36.265625 C 74.390625 36.410156 74.1875 36.59375 74.03125 36.8125 L 73.113281 36.695312 L 73.894531 32.554688 L 77.898438 32.554688 L 77.898438 33.511719 L 74.675781 33.511719 L 74.246094 35.660156 C 74.726562 35.335938 75.234375 35.171875 75.769531 35.171875 C 76.472656 35.171875 77.066406 35.414062 77.546875 35.894531 C 78.027344 36.378906 78.269531 37.003906 78.269531 37.769531 C 78.269531 38.5 78.0625 39.132812 77.644531 39.664062 C 77.125 40.316406 76.414062 40.640625 75.515625 40.640625 C 74.785156 40.640625 74.1875 40.441406 73.71875 40.035156 C 73.261719 39.621094 73.003906 39.074219 72.9375 38.394531 Z M 72.9375 38.394531 "/>
<path style=" stroke:none;fill-rule:nonzero;fill:rgb(0%,0%,0%);fill-opacity:1;" d="M 9.71875 17.316406 L 9.71875 10.207031 L 7.082031 10.207031 L 7.082031 9.269531 L 13.449219 9.269531 L 13.449219 10.207031 L 10.792969 10.207031 L 10.792969 17.316406 Z M 9.71875 17.316406 "/>
<path style=" stroke:none;fill-rule:nonzero;fill:rgb(0%,0%,0%);fill-opacity:1;" d="M 14.003906 10.402344 L 14.003906 9.269531 L 15 9.269531 L 15 10.402344 Z M 14.003906 17.316406 L 14.003906 11.476562 L 15 11.476562 L 15 17.316406 Z M 14.003906 17.316406 "/>
<path style=" stroke:none;fill-rule:nonzero;fill:rgb(0%,0%,0%);fill-opacity:1;" d="M 16.503906 17.316406 L 16.503906 11.476562 L 17.382812 11.476562 L 17.382812 12.296875 C 17.5625 12.011719 17.800781 11.785156 18.105469 11.613281 C 18.417969 11.445312 18.769531 11.359375 19.160156 11.359375 C 19.589844 11.359375 19.941406 11.453125 20.214844 11.632812 C 20.488281 11.804688 20.683594 12.050781 20.800781 12.375 C 21.269531 11.699219 21.863281 11.359375 22.597656 11.359375 C 23.183594 11.359375 23.632812 11.523438 23.945312 11.847656 C 24.257812 12.160156 24.414062 12.648438 24.414062 13.3125 L 24.414062 17.316406 L 23.417969 17.316406 L 23.417969 13.644531 C 23.417969 13.242188 23.382812 12.957031 23.320312 12.785156 C 23.265625 12.617188 23.152344 12.480469 22.988281 12.375 C 22.816406 12.257812 22.617188 12.199219 22.382812 12.199219 C 21.976562 12.199219 21.640625 12.335938 21.367188 12.609375 C 21.09375 12.882812 20.957031 13.320312 20.957031 13.917969 L 20.957031 17.316406 L 19.960938 17.316406 L 19.960938 13.527344 C 19.960938 13.085938 19.882812 12.753906 19.726562 12.53125 C 19.570312 12.3125 19.304688 12.199219 18.945312 12.199219 C 18.65625 12.199219 18.398438 12.277344 18.164062 12.433594 C 17.929688 12.578125 17.757812 12.792969 17.65625 13.078125 C 17.546875 13.351562 17.5 13.757812 17.5 14.289062 L 17.5 17.316406 Z M 16.503906 17.316406 "/>
<path style=" stroke:none;fill-rule:nonzero;fill:rgb(0%,0%,0%);fill-opacity:1;" d="M 29.859375 15.441406 L 30.894531 15.558594 C 30.722656 16.160156 30.414062 16.628906 29.976562 16.964844 C 29.546875 17.292969 28.988281 17.453125 28.316406 17.453125 C 27.464844 17.453125 26.792969 17.195312 26.285156 16.671875 C 25.785156 16.140625 25.542969 15.398438 25.542969 14.445312 C 25.542969 13.46875 25.796875 12.714844 26.304688 12.179688 C 26.8125 11.632812 27.464844 11.359375 28.277344 11.359375 C 29.058594 11.359375 29.6875 11.628906 30.171875 12.160156 C 30.664062 12.683594 30.914062 13.425781 30.914062 14.386719 C 30.914062 14.453125 30.914062 14.542969 30.914062 14.660156 L 26.558594 14.660156 C 26.597656 15.300781 26.777344 15.789062 27.105469 16.125 C 27.425781 16.464844 27.835938 16.632812 28.335938 16.632812 C 28.695312 16.632812 29.003906 16.542969 29.253906 16.359375 C 29.511719 16.164062 29.710938 15.859375 29.859375 15.441406 Z M 26.617188 13.839844 L 29.878906 13.839844 C 29.839844 13.347656 29.710938 12.976562 29.507812 12.726562 C 29.195312 12.351562 28.785156 12.160156 28.277344 12.160156 C 27.816406 12.160156 27.4375 12.316406 27.125 12.628906 C 26.820312 12.929688 26.65625 13.332031 26.617188 13.839844 Z M 26.617188 13.839844 "/>
<path style=" stroke:none;fill-rule:nonzero;fill:rgb(0%,0%,0%);fill-opacity:1;" d="M 34.867188 15.578125 L 35.84375 15.421875 C 35.890625 15.8125 36.042969 16.113281 36.292969 16.320312 C 36.550781 16.53125 36.902344 16.632812 37.347656 16.632812 C 37.800781 16.632812 38.136719 16.542969 38.363281 16.359375 C 38.582031 16.179688 38.695312 15.964844 38.695312 15.714844 C 38.695312 15.480469 38.597656 15.304688 38.402344 15.1875 C 38.253906 15.097656 37.917969 14.980469 37.386719 14.835938 C 36.652344 14.65625 36.144531 14.5 35.863281 14.367188 C 35.589844 14.238281 35.378906 14.054688 35.238281 13.820312 C 35.089844 13.585938 35.023438 13.328125 35.023438 13.039062 C 35.023438 12.78125 35.082031 12.539062 35.199219 12.316406 C 35.316406 12.097656 35.476562 11.90625 35.6875 11.75 C 35.84375 11.648438 36.046875 11.554688 36.3125 11.476562 C 36.585938 11.398438 36.867188 11.359375 37.171875 11.359375 C 37.625 11.359375 38.019531 11.425781 38.363281 11.554688 C 38.714844 11.6875 38.972656 11.863281 39.144531 12.082031 C 39.308594 12.304688 39.425781 12.605469 39.496094 12.980469 L 38.519531 13.117188 C 38.480469 12.820312 38.347656 12.585938 38.128906 12.414062 C 37.917969 12.246094 37.625 12.160156 37.25 12.160156 C 36.789062 12.160156 36.46875 12.238281 36.273438 12.394531 C 36.078125 12.539062 35.980469 12.714844 35.980469 12.921875 C 35.980469 13.054688 36.019531 13.164062 36.097656 13.253906 C 36.175781 13.371094 36.300781 13.464844 36.488281 13.527344 C 36.574219 13.566406 36.863281 13.652344 37.347656 13.78125 C 38.050781 13.964844 38.539062 14.113281 38.8125 14.230469 C 39.09375 14.347656 39.320312 14.523438 39.476562 14.757812 C 39.632812 14.980469 39.710938 15.261719 39.710938 15.597656 C 39.710938 15.9375 39.613281 16.25 39.417969 16.535156 C 39.222656 16.824219 38.9375 17.050781 38.578125 17.21875 C 38.226562 17.375 37.816406 17.453125 37.347656 17.453125 C 36.589844 17.453125 36.007812 17.296875 35.609375 16.984375 C 35.21875 16.660156 34.96875 16.191406 34.867188 15.578125 Z M 34.867188 15.578125 "/>
<path style=" stroke:none;fill-rule:nonzero;fill:rgb(0%,0%,0%);fill-opacity:1;" d="M 43.050781 16.4375 L 43.1875 17.296875 C 42.898438 17.359375 42.648438 17.394531 42.445312 17.394531 C 42.078125 17.394531 41.800781 17.335938 41.605469 17.21875 C 41.410156 17.101562 41.261719 16.953125 41.175781 16.769531 C 41.097656 16.589844 41.058594 16.203125 41.058594 15.617188 L 41.058594 12.257812 L 40.335938 12.257812 L 40.335938 11.476562 L 41.058594 11.476562 L 41.058594 10.03125 L 42.054688 9.445312 L 42.054688 11.476562 L 43.050781 11.476562 L 43.050781 12.257812 L 42.054688 12.257812 L 42.054688 15.65625 C 42.054688 15.945312 42.0625 16.125 42.09375 16.203125 C 42.132812 16.28125 42.191406 16.347656 42.269531 16.398438 C 42.347656 16.453125 42.453125 16.476562 42.601562 16.476562 C 42.71875 16.476562 42.863281 16.464844 43.050781 16.4375 Z M 43.050781 16.4375 "/>
<path style=" stroke:none;fill-rule:nonzero;fill:rgb(0%,0%,0%);fill-opacity:1;" d="M 47.992188 15.441406 L 49.027344 15.558594 C 48.855469 16.160156 48.546875 16.628906 48.109375 16.964844 C 47.679688 17.292969 47.121094 17.453125 46.449219 17.453125 C 45.597656 17.453125 44.925781 17.195312 44.417969 16.671875 C 43.917969 16.140625 43.675781 15.398438 43.675781 14.445312 C 43.675781 13.46875 43.929688 12.714844 44.4375 12.179688 C 44.945312 11.632812 45.597656 11.359375 46.410156 11.359375 C 47.191406 11.359375 47.820312 11.628906 48.304688 12.160156 C 48.796875 12.683594 49.046875 13.425781 49.046875 14.386719 C 49.046875 14.453125 49.046875 14.542969 49.046875 14.660156 L 44.691406 14.660156 C 44.730469 15.300781 44.910156 15.789062 45.238281 16.125 C 45.558594 16.464844 45.96875 16.632812 46.46875 16.632812 C 46.828125 16.632812 47.136719 16.542969 47.386719 16.359375 C 47.644531 16.164062 47.84375 15.859375 47.992188 15.441406 Z M 44.75 13.839844 L 48.011719 13.839844 C 47.972656 13.347656 47.84375 12.976562 47.640625 12.726562 C 47.328125 12.351562 46.917969 12.160156 46.410156 12.160156 C 45.949219 12.160156 45.570312 12.316406 45.257812 12.628906 C 44.953125 12.929688 44.789062 13.332031 44.75 13.839844 Z M 44.75 13.839844 "/>
<path style=" stroke:none;fill-rule:nonzero;fill:rgb(0%,0%,0%);fill-opacity:1;" d="M 50.265625 19.542969 L 50.265625 11.476562 L 51.164062 11.476562 L 51.164062 12.238281 C 51.367188 11.941406 51.601562 11.71875 51.867188 11.574219 C 52.140625 11.433594 52.472656 11.359375 52.863281 11.359375 C 53.355469 11.359375 53.789062 11.492188 54.171875 11.75 C 54.546875 12 54.835938 12.355469 55.03125 12.824219 C 55.226562 13.292969 55.324219 13.800781 55.324219 14.347656 C 55.324219 14.949219 55.210938 15.488281 54.992188 15.96875 C 54.78125 16.453125 54.472656 16.824219 54.074219 17.082031 C 53.667969 17.324219 53.238281 17.453125 52.785156 17.453125 C 52.457031 17.453125 52.164062 17.378906 51.90625 17.238281 C 51.640625 17.097656 51.425781 16.921875 51.261719 16.710938 L 51.261719 19.542969 Z M 51.164062 14.425781 C 51.164062 15.183594 51.308594 15.742188 51.613281 16.105469 C 51.925781 16.457031 52.296875 16.632812 52.726562 16.632812 C 53.15625 16.632812 53.527344 16.453125 53.839844 16.085938 C 54.160156 15.710938 54.328125 15.128906 54.328125 14.347656 C 54.328125 13.605469 54.171875 13.054688 53.859375 12.6875 C 53.554688 12.3125 53.195312 12.121094 52.765625 12.121094 C 52.34375 12.121094 51.972656 12.324219 51.652344 12.726562 C 51.324219 13.117188 51.164062 13.683594 51.164062 14.425781 Z M 51.164062 14.425781 "/>
<path style=" stroke:none;fill-rule:nonzero;fill:rgb(0%,0%,0%);fill-opacity:1;" d="M 71.972656 17 L 70.976562 17 L 70.976562 10.691406 C 70.742188 10.925781 70.429688 11.160156 70.039062 11.394531 C 69.648438 11.617188 69.300781 11.78125 69.003906 11.882812 L 69.003906 10.925781 C 69.550781 10.679688 70.03125 10.375 70.449219 10.007812 C 70.863281 9.632812 71.15625 9.265625 71.328125 8.914062 L 71.972656 8.914062 Z M 71.972656 17 "/>
<path style="fill:none;stroke-width:1;stroke-linecap:round;stroke-linejoin:round;stroke:rgb(0%,0%,0%);stroke-opacity:1;stroke-miterlimit:10;" d="M 158.04375 149.8 L 178.596875 149.8 L 178.596875 165.9 L 158.04375 165.9 Z M 158.04375 149.8 " transform="matrix(1.25,0,0,1.25,-106.25,-100)"/>
<path style=" stroke:none;fill-rule:nonzero;fill:rgb(0%,0%,0%);fill-opacity:1;" d="M 96.800781 96.914062 C 96.800781 95.964844 96.898438 95.195312 97.09375 94.609375 C 97.289062 94.023438 97.570312 93.574219 97.953125 93.261719 C 98.34375 92.949219 98.832031 92.792969 99.417969 92.792969 C 99.855469 92.792969 100.242188 92.886719 100.570312 93.066406 C 100.890625 93.238281 101.160156 93.484375 101.371094 93.808594 C 101.574219 94.136719 101.742188 94.53125 101.859375 95 C 101.984375 95.46875 102.054688 96.109375 102.054688 96.914062 C 102.054688 97.851562 101.957031 98.613281 101.761719 99.199219 C 101.566406 99.773438 101.273438 100.222656 100.882812 100.546875 C 100.5 100.859375 100.011719 101.015625 99.417969 101.015625 C 98.644531 101.015625 98.039062 100.738281 97.601562 100.175781 C 97.0625 99.511719 96.800781 98.425781 96.800781 96.914062 Z M 97.816406 96.914062 C 97.816406 98.230469 97.960938 99.109375 98.265625 99.550781 C 98.578125 99.980469 98.957031 100.195312 99.417969 100.195312 C 99.871094 100.195312 100.257812 99.980469 100.570312 99.550781 C 100.882812 99.109375 101.039062 98.230469 101.039062 96.914062 C 101.039062 95.585938 100.882812 94.707031 100.570312 94.277344 C 100.257812 93.835938 99.871094 93.613281 99.417969 93.613281 C 98.957031 93.613281 98.597656 93.804688 98.324219 94.179688 C 97.980469 94.675781 97.816406 95.585938 97.816406 96.914062 Z M 97.816406 96.914062 "/>
<path style=" stroke:none;fill-rule:nonzero;fill:rgb(0%,0%,0%);fill-opacity:1;" d="M 103.605469 100.878906 L 103.605469 99.746094 L 104.738281 99.746094 L 104.738281 100.878906 Z M 103.605469 100.878906 "/>
<path style=" stroke:none;fill-rule:nonzero;fill:rgb(0%,0%,0%);fill-opacity:1;" d="M 111.382812 99.921875 L 111.382812 100.878906 L 106.050781 100.878906 C 106.050781 100.644531 106.089844 100.417969 106.167969 100.195312 C 106.308594 99.832031 106.527344 99.472656 106.832031 99.121094 C 107.128906 98.769531 107.558594 98.367188 108.121094 97.910156 C 108.988281 97.183594 109.574219 96.609375 109.878906 96.191406 C 110.191406 95.777344 110.347656 95.378906 110.347656 95 C 110.347656 94.609375 110.199219 94.285156 109.917969 94.023438 C 109.644531 93.75 109.28125 93.613281 108.84375 93.613281 C 108.359375 93.613281 107.972656 93.757812 107.691406 94.042969 C 107.402344 94.332031 107.261719 94.726562 107.261719 95.234375 L 106.246094 95.117188 C 106.308594 94.363281 106.566406 93.789062 107.027344 93.398438 C 107.480469 92.996094 108.089844 92.792969 108.863281 92.792969 C 109.628906 92.792969 110.234375 93.007812 110.679688 93.4375 C 111.132812 93.867188 111.363281 94.394531 111.363281 95.019531 C 111.363281 95.347656 111.292969 95.664062 111.167969 95.976562 C 111.035156 96.289062 110.816406 96.621094 110.503906 96.972656 C 110.199219 97.3125 109.703125 97.78125 109 98.378906 C 108.398438 98.875 108.011719 99.214844 107.847656 99.394531 C 107.675781 99.578125 107.539062 99.753906 107.4375 99.921875 Z M 111.382812 99.921875 "/>
<path style="fill:none;stroke-width:1;stroke-linecap:round;stroke-linejoin:round;stroke:rgb(0%,0%,0%);stroke-opacity:1;stroke-miterlimit:10;" d="M 158.04375 101.5 L 178.596875 101.5 L 178.596875 117.6 L 158.04375 117.6 Z M 158.04375 101.5 " transform="matrix(1.25,0,0,1.25,-106.25,-100)"/>
<path style=" stroke:none;fill-rule:nonzero;fill:rgb(0%,0%,0%);fill-opacity:1;" d="M 96.800781 36.539062 C 96.800781 35.589844 96.898438 34.820312 97.09375 34.234375 C 97.289062 33.648438 97.570312 33.199219 97.953125 32.886719 C 98.34375 32.574219 98.832031 32.417969 99.417969 32.417969 C 99.855469 32.417969 100.242188 32.511719 100.570312 32.691406 C 100.890625 32.863281 101.160156 33.109375 101.371094 33.433594 C 101.574219 33.761719 101.742188 34.15625 101.859375 34.625 C 101.984375 35.09375 102.054688 35.734375 102.054688 36.539062 C 102.054688 37.476562 101.957031 38.238281 101.761719 38.824219 C 101.566406 39.398438 101.273438 39.847656 100.882812 40.171875 C 100.5 40.484375 100.011719 40.640625 99.417969 40.640625 C 98.644531 40.640625 98.039062 40.363281 97.601562 39.800781 C 97.0625 39.136719 96.800781 38.050781 96.800781 36.539062 Z M 97.816406 36.539062 C 97.816406 37.855469 97.960938 38.734375 98.265625 39.175781 C 98.578125 39.605469 98.957031 39.820312 99.417969 39.820312 C 99.871094 39.820312 100.257812 39.605469 100.570312 39.175781 C 100.882812 38.734375 101.039062 37.855469 101.039062 36.539062 C 101.039062 35.210938 100.882812 34.332031 100.570312 33.902344 C 100.257812 33.460938 99.871094 33.238281 99.417969 33.238281 C 98.957031 33.238281 98.597656 33.429688 98.324219 33.804688 C 97.980469 34.300781 97.816406 35.210938 97.816406 36.539062 Z M 97.816406 36.539062 "/>
<path style=" stroke:none;fill-rule:nonzero;fill:rgb(0%,0%,0%);fill-opacity:1;" d="M 103.605469 40.503906 L 103.605469 39.371094 L 104.738281 39.371094 L 104.738281 40.503906 Z M 103.605469 40.503906 "/>
<path style=" stroke:none;fill-rule:nonzero;fill:rgb(0%,0%,0%);fill-opacity:1;" d="M 109.917969 40.503906 L 108.921875 40.503906 L 108.921875 34.195312 C 108.6875 34.429688 108.375 34.664062 107.984375 34.898438 C 107.59375 35.121094 107.246094 35.285156 106.949219 35.386719 L 106.949219 34.429688 C 107.496094 34.183594 107.972656 33.878906 108.394531 33.511719 C 108.808594 33.136719 109.101562 32.769531 109.273438 32.417969 L 109.917969 32.417969 Z M 109.917969 40.503906 "/>
<path style="fill-rule:nonzero;fill:rgb(69.803922%,85.098039%,100%);fill-opacity:1;stroke-width:1;stroke-linecap:round;stroke-linejoin:round;stroke:rgb(0%,0%,0%);stroke-opacity:1;stroke-miterlimit:10;" d="M 158.04375 117.6 L 178.596875 117.6 L 178.596875 133.7 L 158.04375 133.7 Z M 158.04375 117.6 " transform="matrix(1.25,0,0,1.25,-106.25,-100)"/>
<path style=" stroke:none;fill-rule:nonzero;fill:rgb(0%,0%,0%);fill-opacity:1;" d="M 96.800781 56.664062 C 96.800781 55.714844 96.898438 54.945312 97.09375 54.359375 C 97.289062 53.773438 97.570312 53.324219 97.953125 53.011719 C 98.34375 52.699219 98.832031 52.542969 99.417969 52.542969 C 99.855469 52.542969 100.242188 52.636719 100.570312 52.816406 C 100.890625 52.988281 101.160156 53.234375 101.371094 53.558594 C 101.574219 53.886719 101.742188 54.28125 101.859375 54.75 C 101.984375 55.21875 102.054688 55.859375 102.054688 56.664062 C 102.054688 57.601562 101.957031 58.363281 101.761719 58.949219 C 101.566406 59.523438 101.273438 59.972656 100.882812 60.296875 C 100.5 60.609375 100.011719 60.765625 99.417969 60.765625 C 98.644531 60.765625 98.039062 60.488281 97.601562 59.925781 C 97.0625 59.261719 96.800781 58.175781 96.800781 56.664062 Z M 97.816406 56.664062 C 97.816406 57.980469 97.960938 58.859375 98.265625 59.300781 C 98.578125 59.730469 98.957031 59.945312 99.417969 59.945312 C 99.871094 59.945312 100.257812 59.730469 100.570312 59.300781 C 100.882812 58.859375 101.039062 57.980469 101.039062 56.664062 C 101.039062 55.335938 100.882812 54.457031 100.570312 54.027344 C 100.257812 53.585938 99.871094 53.363281 99.417969 53.363281 C 98.957031 53.363281 98.597656 53.554688 98.324219 53.929688 C 97.980469 54.425781 97.816406 55.335938 97.816406 56.664062 Z M 97.816406 56.664062 "/>
<path style=" stroke:none;fill-rule:nonzero;fill:rgb(0%,0%,0%);fill-opacity:1;" d="M 103.605469 60.628906 L 103.605469 59.496094 L 104.738281 59.496094 L 104.738281 60.628906 Z M 103.605469 60.628906 "/>
<path style=" stroke:none;fill-rule:nonzero;fill:rgb(0%,0%,0%);fill-opacity:1;" d="M 109.351562 60.628906 L 109.351562 58.695312 L 105.855469 58.695312 L 105.855469 57.796875 L 109.527344 52.582031 L 110.347656 52.582031 L 110.347656 57.796875 L 111.441406 57.796875 L 111.441406 58.695312 L 110.347656 58.695312 L 110.347656 60.628906 Z M 109.351562 57.796875 L 109.351562 54.164062 L 106.832031 57.796875 Z M 109.351562 57.796875 "/>
<path style="fill:none;stroke-width:1;stroke-linecap:round;stroke-linejoin:round;stroke:rgb(0%,0%,0%);stroke-opacity:1;stroke-miterlimit:10;" d="M 158.04375 133.7 L 178.596875 133.7 L 178.596875 149.8 L 158.04375 149.8 Z M 158.04375 133.7 " transform="matrix(1.25,0,0,1.25,-106.25,-100)"/>
<path style=" stroke:none;fill-rule:nonzero;fill:rgb(0%,0%,0%);fill-opacity:1;" d="M 96.800781 76.789062 C 96.800781 75.839844 96.898438 75.070312 97.09375 74.484375 C 97.289062 73.898438 97.570312 73.449219 97.953125 73.136719 C 98.34375 72.824219 98.832031 72.667969 99.417969 72.667969 C 99.855469 72.667969 100.242188 72.761719 100.570312 72.941406 C 100.890625 73.113281 101.160156 73.359375 101.371094 73.683594 C 101.574219 74.011719 101.742188 74.40625 101.859375 74.875 C 101.984375 75.34375 102.054688 75.984375 102.054688 76.789062 C 102.054688 77.726562 101.957031 78.488281 101.761719 79.074219 C 101.566406 79.648438 101.273438 80.097656 100.882812 80.421875 C 100.5 80.734375 100.011719 80.890625 99.417969 80.890625 C 98.644531 80.890625 98.039062 80.613281 97.601562 80.050781 C 97.0625 79.386719 96.800781 78.300781 96.800781 76.789062 Z M 97.816406 76.789062 C 97.816406 78.105469 97.960938 78.984375 98.265625 79.425781 C 98.578125 79.855469 98.957031 80.070312 99.417969 80.070312 C 99.871094 80.070312 100.257812 79.855469 100.570312 79.425781 C 100.882812 78.984375 101.039062 78.105469 101.039062 76.789062 C 101.039062 75.460938 100.882812 74.582031 100.570312 74.152344 C 100.257812 73.710938 99.871094 73.488281 99.417969 73.488281 C 98.957031 73.488281 98.597656 73.679688 98.324219 74.054688 C 97.980469 74.550781 97.816406 75.460938 97.816406 76.789062 Z M 97.816406 76.789062 "/>
<path style=" stroke:none;fill-rule:nonzero;fill:rgb(0%,0%,0%);fill-opacity:1;" d="M 103.605469 80.753906 L 103.605469 79.621094 L 104.738281 79.621094 L 104.738281 80.753906 Z M 103.605469 80.753906 "/>
<path style=" stroke:none;fill-rule:nonzero;fill:rgb(0%,0%,0%);fill-opacity:1;" d="M 106.1875 78.625 L 107.183594 78.488281 C 107.300781 79.050781 107.484375 79.453125 107.75 79.699219 C 108.023438 79.949219 108.359375 80.070312 108.765625 80.070312 C 109.21875 80.070312 109.605469 79.914062 109.917969 79.601562 C 110.238281 79.277344 110.40625 78.875 110.40625 78.390625 C 110.40625 77.9375 110.253906 77.566406 109.957031 77.277344 C 109.667969 76.980469 109.296875 76.828125 108.84375 76.828125 C 108.648438 76.828125 108.414062 76.867188 108.140625 76.945312 L 108.257812 76.066406 C 108.320312 76.082031 108.375 76.085938 108.414062 76.085938 C 108.828125 76.085938 109.203125 75.976562 109.546875 75.753906 C 109.882812 75.535156 110.054688 75.195312 110.054688 74.738281 C 110.054688 74.375 109.925781 74.074219 109.683594 73.839844 C 109.433594 73.605469 109.117188 73.488281 108.726562 73.488281 C 108.34375 73.488281 108.027344 73.613281 107.769531 73.859375 C 107.519531 74.09375 107.359375 74.453125 107.28125 74.933594 L 106.285156 74.757812 C 106.410156 74.09375 106.683594 73.582031 107.105469 73.214844 C 107.535156 72.851562 108.066406 72.667969 108.707031 72.667969 C 109.144531 72.667969 109.550781 72.765625 109.917969 72.960938 C 110.292969 73.144531 110.582031 73.398438 110.777344 73.722656 C 110.972656 74.050781 111.070312 74.394531 111.070312 74.757812 C 111.070312 75.109375 110.972656 75.429688 110.777344 75.714844 C 110.589844 76.003906 110.316406 76.230469 109.957031 76.398438 C 110.433594 76.503906 110.804688 76.730469 111.070312 77.082031 C 111.328125 77.421875 111.460938 77.851562 111.460938 78.371094 C 111.460938 79.074219 111.195312 79.675781 110.679688 80.167969 C 110.171875 80.652344 109.527344 80.890625 108.746094 80.890625 C 108.042969 80.890625 107.457031 80.683594 106.988281 80.265625 C 106.519531 79.851562 106.25 79.304688 106.1875 78.625 Z M 106.1875 78.625 "/>
<path style=" stroke:none;fill-rule:nonzero;fill:rgb(0%,0%,0%);fill-opacity:1;" d="M 106.6875 15.917969 L 106.6875 16.875 L 101.355469 16.875 C 101.355469 16.640625 101.394531 16.414062 101.472656 16.191406 C 101.613281 15.828125 101.832031 15.46875 102.136719 15.117188 C 102.433594 14.765625 102.863281 14.367188 103.425781 13.90625 C 104.292969 13.179688 104.878906 12.609375 105.183594 12.1875 C 105.496094 11.773438 105.652344 11.375 105.652344 10.996094 C 105.652344 10.605469 105.503906 10.28125 105.222656 10.019531 C 104.949219 9.746094 104.585938 9.609375 104.148438 9.609375 C 103.664062 9.609375 103.277344 9.757812 102.996094 10.039062 C 102.707031 10.328125 102.566406 10.722656 102.566406 11.230469 L 101.550781 11.113281 C 101.613281 10.359375 101.871094 9.785156 102.332031 9.394531 C 102.785156 8.992188 103.394531 8.789062 104.167969 8.789062 C 104.933594 8.789062 105.539062 9.003906 105.984375 9.433594 C 106.4375 9.863281 106.667969 10.390625 106.667969 11.015625 C 106.667969 11.34375 106.597656 11.660156 106.472656 11.972656 C 106.339844 12.285156 106.121094 12.617188 105.808594 12.96875 C 105.503906 13.3125 105.007812 13.78125 104.304688 14.375 C 103.703125 14.875 103.316406 15.210938 103.152344 15.390625 C 102.980469 15.578125 102.84375 15.75 102.742188 15.917969 Z M 106.6875 15.917969 "/>
<path style="fill:none;stroke-width:1;stroke-linecap:round;stroke-linejoin:round;stroke:rgb(0%,0%,0%);stroke-opacity:1;stroke-miterlimit:10;" d="M 184.73125 149.890625 L 205.2875 149.890625 L 205.2875 165.99375 L 184.73125 165.99375 Z M 184.73125 149.890625 " transform="matrix(1.25,0,0,1.25,-106.25,-100)"/>
<path style=" stroke:none;fill-rule:nonzero;fill:rgb(0%,0%,0%);fill-opacity:1;" d="M 130.160156 97.027344 C 130.160156 96.078125 130.257812 95.308594 130.453125 94.722656 C 130.648438 94.136719 130.933594 93.6875 131.3125 93.375 C 131.703125 93.0625 132.191406 92.90625 132.777344 92.90625 C 133.21875 92.90625 133.605469 93 133.929688 93.179688 C 134.253906 93.351562 134.523438 93.597656 134.730469 93.921875 C 134.9375 94.25 135.101562 94.644531 135.21875 95.113281 C 135.347656 95.582031 135.414062 96.222656 135.414062 97.027344 C 135.414062 97.964844 135.316406 98.726562 135.121094 99.3125 C 134.925781 99.886719 134.632812 100.335938 134.242188 100.660156 C 133.863281 100.972656 133.375 101.128906 132.777344 101.128906 C 132.007812 101.128906 131.402344 100.851562 130.960938 100.289062 C 130.425781 99.625 130.160156 98.539062 130.160156 97.027344 Z M 131.175781 97.027344 C 131.175781 98.34375 131.324219 99.222656 131.625 99.664062 C 131.9375 100.09375 132.320312 100.308594 132.777344 100.308594 C 133.234375 100.308594 133.617188 100.09375 133.929688 99.664062 C 134.242188 99.222656 134.398438 98.34375 134.398438 97.027344 C 134.398438 95.699219 134.242188 94.820312 133.929688 94.390625 C 133.617188 93.949219 133.234375 93.726562 132.777344 93.726562 C 132.320312 93.726562 131.957031 93.917969 131.683594 94.292969 C 131.34375 94.789062 131.175781 95.699219 131.175781 97.027344 Z M 131.175781 97.027344 "/>
<path style=" stroke:none;fill-rule:nonzero;fill:rgb(0%,0%,0%);fill-opacity:1;" d="M 136.964844 100.992188 L 136.964844 99.859375 L 138.097656 99.859375 L 138.097656 100.992188 Z M 136.964844 100.992188 "/>
<path style=" stroke:none;fill-rule:nonzero;fill:rgb(0%,0%,0%);fill-opacity:1;" d="M 144.742188 100.035156 L 144.742188 100.992188 L 139.410156 100.992188 C 139.410156 100.757812 139.449219 100.53125 139.527344 100.308594 C 139.671875 99.945312 139.890625 99.585938 140.191406 99.234375 C 140.492188 98.882812 140.921875 98.480469 141.480469 98.023438 C 142.351562 97.296875 142.9375 96.722656 143.238281 96.304688 C 143.550781 95.890625 143.707031 95.492188 143.707031 95.113281 C 143.707031 94.722656 143.5625 94.398438 143.277344 94.136719 C 143.003906 93.863281 142.644531 93.726562 142.203125 93.726562 C 141.722656 93.726562 141.335938 93.871094 141.050781 94.15625 C 140.765625 94.445312 140.621094 94.839844 140.621094 95.347656 L 139.605469 95.230469 C 139.671875 94.476562 139.929688 93.902344 140.386719 93.511719 C 140.84375 93.109375 141.453125 92.90625 142.222656 92.90625 C 142.992188 92.90625 143.597656 93.121094 144.039062 93.550781 C 144.496094 93.980469 144.722656 94.507812 144.722656 95.132812 C 144.722656 95.460938 144.65625 95.777344 144.527344 96.089844 C 144.398438 96.402344 144.175781 96.734375 143.863281 97.085938 C 143.5625 97.425781 143.0625 97.894531 142.359375 98.492188 C 141.761719 98.988281 141.375 99.328125 141.207031 99.507812 C 141.039062 99.691406 140.902344 99.867188 140.796875 100.035156 Z M 144.742188 100.035156 "/>
<path style="fill-rule:nonzero;fill:rgb(69.803922%,85.098039%,100%);fill-opacity:1;stroke-width:1;stroke-linecap:round;stroke-linejoin:round;stroke:rgb(0%,0%,0%);stroke-opacity:1;stroke-miterlimit:10;" d="M 184.73125 133.7875 L 205.2875 133.7875 L 205.2875 149.890625 L 184.73125 149.890625 Z M 184.73125 133.7875 " transform="matrix(1.25,0,0,1.25,-106.25,-100)"/>
<path style=" stroke:none;fill-rule:nonzero;fill:rgb(0%,0%,0%);fill-opacity:1;" d="M 130.160156 76.902344 C 130.160156 75.953125 130.257812 75.183594 130.453125 74.597656 C 130.648438 74.011719 130.933594 73.5625 131.3125 73.25 C 131.703125 72.9375 132.191406 72.78125 132.777344 72.78125 C 133.21875 72.78125 133.605469 72.875 133.929688 73.054688 C 134.253906 73.226562 134.523438 73.472656 134.730469 73.796875 C 134.9375 74.125 135.101562 74.519531 135.21875 74.988281 C 135.347656 75.457031 135.414062 76.097656 135.414062 76.902344 C 135.414062 77.839844 135.316406 78.601562 135.121094 79.1875 C 134.925781 79.761719 134.632812 80.210938 134.242188 80.535156 C 133.863281 80.847656 133.375 81.003906 132.777344 81.003906 C 132.007812 81.003906 131.402344 80.726562 130.960938 80.164062 C 130.425781 79.5 130.160156 78.414062 130.160156 76.902344 Z M 131.175781 76.902344 C 131.175781 78.21875 131.324219 79.097656 131.625 79.539062 C 131.9375 79.96875 132.320312 80.183594 132.777344 80.183594 C 133.234375 80.183594 133.617188 79.96875 133.929688 79.539062 C 134.242188 79.097656 134.398438 78.21875 134.398438 76.902344 C 134.398438 75.574219 134.242188 74.695312 133.929688 74.265625 C 133.617188 73.824219 133.234375 73.601562 132.777344 73.601562 C 132.320312 73.601562 131.957031 73.792969 131.683594 74.167969 C 131.34375 74.664062 131.175781 75.574219 131.175781 76.902344 Z M 131.175781 76.902344 "/>
<path style=" stroke:none;fill-rule:nonzero;fill:rgb(0%,0%,0%);fill-opacity:1;" d="M 136.964844 80.867188 L 136.964844 79.734375 L 138.097656 79.734375 L 138.097656 80.867188 Z M 136.964844 80.867188 "/>
<path style=" stroke:none;fill-rule:nonzero;fill:rgb(0%,0%,0%);fill-opacity:1;" d="M 142.710938 80.867188 L 142.710938 78.933594 L 139.214844 78.933594 L 139.214844 78.035156 L 142.886719 72.820312 L 143.707031 72.820312 L 143.707031 78.035156 L 144.800781 78.035156 L 144.800781 78.933594 L 143.707031 78.933594 L 143.707031 80.867188 Z M 142.710938 78.035156 L 142.710938 74.402344 L 140.191406 78.035156 Z M 142.710938 78.035156 "/>
<path style="fill:none;stroke-width:1;stroke-linecap:round;stroke-linejoin:round;stroke:rgb(0%,0%,0%);stroke-opacity:1;stroke-miterlimit:10;" d="M 184.73125 117.690625 L 205.2875 117.690625 L 205.2875 133.7875 L 184.73125 133.7875 Z M 184.73125 117.690625 " transform="matrix(1.25,0,0,1.25,-106.25,-100)"/>
<path style=" stroke:none;fill-rule:nonzero;fill:rgb(0%,0%,0%);fill-opacity:1;" d="M 130.160156 56.777344 C 130.160156 55.828125 130.257812 55.058594 130.453125 54.472656 C 130.648438 53.886719 130.933594 53.4375 131.3125 53.125 C 131.703125 52.8125 132.191406 52.65625 132.777344 52.65625 C 133.21875 52.65625 133.605469 52.75 133.929688 52.929688 C 134.253906 53.101562 134.523438 53.347656 134.730469 53.671875 C 134.9375 54 135.101562 54.394531 135.21875 54.863281 C 135.347656 55.332031 135.414062 55.972656 135.414062 56.777344 C 135.414062 57.714844 135.316406 58.476562 135.121094 59.0625 C 134.925781 59.636719 134.632812 60.085938 134.242188 60.410156 C 133.863281 60.722656 133.375 60.878906 132.777344 60.878906 C 132.007812 60.878906 131.402344 60.601562 130.960938 60.039062 C 130.425781 59.375 130.160156 58.289062 130.160156 56.777344 Z M 131.175781 56.777344 C 131.175781 58.09375 131.324219 58.972656 131.625 59.414062 C 131.9375 59.84375 132.320312 60.058594 132.777344 60.058594 C 133.234375 60.058594 133.617188 59.84375 133.929688 59.414062 C 134.242188 58.972656 134.398438 58.09375 134.398438 56.777344 C 134.398438 55.449219 134.242188 54.570312 133.929688 54.140625 C 133.617188 53.699219 133.234375 53.476562 132.777344 53.476562 C 132.320312 53.476562 131.957031 53.667969 131.683594 54.042969 C 131.34375 54.539062 131.175781 55.449219 131.175781 56.777344 Z M 131.175781 56.777344 "/>
<path style=" stroke:none;fill-rule:nonzero;fill:rgb(0%,0%,0%);fill-opacity:1;" d="M 136.964844 60.742188 L 136.964844 59.609375 L 138.097656 59.609375 L 138.097656 60.742188 Z M 136.964844 60.742188 "/>
<path style=" stroke:none;fill-rule:nonzero;fill:rgb(0%,0%,0%);fill-opacity:1;" d="M 144.742188 59.785156 L 144.742188 60.742188 L 139.410156 60.742188 C 139.410156 60.507812 139.449219 60.28125 139.527344 60.058594 C 139.671875 59.695312 139.890625 59.335938 140.191406 58.984375 C 140.492188 58.632812 140.921875 58.230469 141.480469 57.773438 C 142.351562 57.046875 142.9375 56.472656 143.238281 56.054688 C 143.550781 55.640625 143.707031 55.242188 143.707031 54.863281 C 143.707031 54.472656 143.5625 54.148438 143.277344 53.886719 C 143.003906 53.613281 142.644531 53.476562 142.203125 53.476562 C 141.722656 53.476562 141.335938 53.621094 141.050781 53.90625 C 140.765625 54.195312 140.621094 54.589844 140.621094 55.097656 L 139.605469 54.980469 C 139.671875 54.226562 139.929688 53.652344 140.386719 53.261719 C 140.84375 52.859375 141.453125 52.65625 142.222656 52.65625 C 142.992188 52.65625 143.597656 52.871094 144.039062 53.300781 C 144.496094 53.730469 144.722656 54.257812 144.722656 54.882812 C 144.722656 55.210938 144.65625 55.527344 144.527344 55.839844 C 144.398438 56.152344 144.175781 56.484375 143.863281 56.835938 C 143.5625 57.175781 143.0625 57.644531 142.359375 58.242188 C 141.761719 58.738281 141.375 59.078125 141.207031 59.257812 C 141.039062 59.441406 140.902344 59.617188 140.796875 59.785156 Z M 144.742188 59.785156 "/>
<path style="fill:none;stroke-width:1;stroke-linecap:round;stroke-linejoin:round;stroke:rgb(0%,0%,0%);stroke-opacity:1;stroke-miterlimit:10;" d="M 184.73125 101.590625 L 205.2875 101.590625 L 205.2875 117.690625 L 184.73125 117.690625 Z M 184.73125 101.590625 " transform="matrix(1.25,0,0,1.25,-106.25,-100)"/>
<path style=" stroke:none;fill-rule:nonzero;fill:rgb(0%,0%,0%);fill-opacity:1;" d="M 130.160156 36.652344 C 130.160156 35.703125 130.257812 34.933594 130.453125 34.347656 C 130.648438 33.761719 130.933594 33.3125 131.3125 33 C 131.703125 32.6875 132.191406 32.53125 132.777344 32.53125 C 133.21875 32.53125 133.605469 32.625 133.929688 32.804688 C 134.253906 32.976562 134.523438 33.222656 134.730469 33.546875 C 134.9375 33.875 135.101562 34.269531 135.21875 34.738281 C 135.347656 35.207031 135.414062 35.847656 135.414062 36.652344 C 135.414062 37.589844 135.316406 38.351562 135.121094 38.9375 C 134.925781 39.511719 134.632812 39.960938 134.242188 40.285156 C 133.863281 40.597656 133.375 40.753906 132.777344 40.753906 C 132.007812 40.753906 131.402344 40.476562 130.960938 39.914062 C 130.425781 39.25 130.160156 38.164062 130.160156 36.652344 Z M 131.175781 36.652344 C 131.175781 37.96875 131.324219 38.847656 131.625 39.289062 C 131.9375 39.71875 132.320312 39.933594 132.777344 39.933594 C 133.234375 39.933594 133.617188 39.71875 133.929688 39.289062 C 134.242188 38.847656 134.398438 37.96875 134.398438 36.652344 C 134.398438 35.324219 134.242188 34.445312 133.929688 34.015625 C 133.617188 33.574219 133.234375 33.351562 132.777344 33.351562 C 132.320312 33.351562 131.957031 33.542969 131.683594 33.917969 C 131.34375 34.414062 131.175781 35.324219 131.175781 36.652344 Z M 131.175781 36.652344 "/>
<path style=" stroke:none;fill-rule:nonzero;fill:rgb(0%,0%,0%);fill-opacity:1;" d="M 136.964844 40.617188 L 136.964844 39.484375 L 138.097656 39.484375 L 138.097656 40.617188 Z M 136.964844 40.617188 "/>
<path style=" stroke:none;fill-rule:nonzero;fill:rgb(0%,0%,0%);fill-opacity:1;" d="M 144.742188 39.660156 L 144.742188 40.617188 L 139.410156 40.617188 C 139.410156 40.382812 139.449219 40.15625 139.527344 39.933594 C 139.671875 39.570312 139.890625 39.210938 140.191406 38.859375 C 140.492188 38.507812 140.921875 38.105469 141.480469 37.648438 C 142.351562 36.921875 142.9375 36.347656 143.238281 35.929688 C 143.550781 35.515625 143.707031 35.117188 143.707031 34.738281 C 143.707031 34.347656 143.5625 34.023438 143.277344 33.761719 C 143.003906 33.488281 142.644531 33.351562 142.203125 33.351562 C 141.722656 33.351562 141.335938 33.496094 141.050781 33.78125 C 140.765625 34.070312 140.621094 34.464844 140.621094 34.972656 L 139.605469 34.855469 C 139.671875 34.101562 139.929688 33.527344 140.386719 33.136719 C 140.84375 32.734375 141.453125 32.53125 142.222656 32.53125 C 142.992188 32.53125 143.597656 32.746094 144.039062 33.175781 C 144.496094 33.605469 144.722656 34.132812 144.722656 34.757812 C 144.722656 35.085938 144.65625 35.402344 144.527344 35.714844 C 144.398438 36.027344 144.175781 36.359375 143.863281 36.710938 C 143.5625 37.050781 143.0625 37.519531 142.359375 38.117188 C 141.761719 38.613281 141.375 38.953125 141.207031 39.132812 C 141.039062 39.316406 140.902344 39.492188 140.796875 39.660156 Z M 144.742188 39.660156 "/>
<path style=" stroke:none;fill-rule:nonzero;fill:rgb(0%,0%,0%);fill-opacity:1;" d="M 134.738281 14.859375 L 135.734375 14.722656 C 135.851562 15.285156 136.039062 15.691406 136.300781 15.933594 C 136.574219 16.183594 136.910156 16.304688 137.316406 16.304688 C 137.769531 16.304688 138.15625 16.148438 138.46875 15.835938 C 138.792969 15.515625 138.957031 15.109375 138.957031 14.625 C 138.957031 14.171875 138.804688 13.800781 138.507812 13.511719 C 138.21875 13.214844 137.847656 13.0625 137.394531 13.0625 C 137.199219 13.0625 136.964844 13.101562 136.691406 13.179688 L 136.808594 12.300781 C 136.871094 12.316406 136.925781 12.320312 136.964844 12.320312 C 137.378906 12.320312 137.757812 12.214844 138.097656 11.988281 C 138.433594 11.769531 138.605469 11.433594 138.605469 10.972656 C 138.605469 10.613281 138.480469 10.308594 138.234375 10.074219 C 137.984375 9.839844 137.667969 9.722656 137.277344 9.722656 C 136.898438 9.722656 136.578125 9.851562 136.320312 10.09375 C 136.070312 10.328125 135.910156 10.691406 135.832031 11.167969 L 134.835938 10.992188 C 134.964844 10.328125 135.238281 9.816406 135.65625 9.449219 C 136.085938 9.089844 136.617188 8.902344 137.257812 8.902344 C 137.699219 8.902344 138.101562 9 138.46875 9.195312 C 138.84375 9.382812 139.132812 9.636719 139.328125 9.957031 C 139.523438 10.285156 139.621094 10.632812 139.621094 10.992188 C 139.621094 11.34375 139.523438 11.667969 139.328125 11.949219 C 139.144531 12.238281 138.871094 12.46875 138.507812 12.632812 C 138.988281 12.742188 139.359375 12.964844 139.621094 13.316406 C 139.878906 13.660156 140.011719 14.089844 140.011719 14.605469 C 140.011719 15.308594 139.75 15.910156 139.230469 16.402344 C 138.722656 16.886719 138.078125 17.125 137.296875 17.125 C 136.59375 17.125 136.007812 16.921875 135.539062 16.5 C 135.070312 16.085938 134.800781 15.539062 134.738281 14.859375 Z M 134.738281 14.859375 "/>
<path style="fill-rule:nonzero;fill:rgb(69.803922%,85.098039%,100%);fill-opacity:1;stroke-width:1;stroke-linecap:round;stroke-linejoin:round;stroke:rgb(0%,0%,0%);stroke-opacity:1;stroke-miterlimit:10;" d="M 211.421875 149.98125 L 231.975 149.98125 L 231.975 166.08125 L 211.421875 166.08125 Z M 211.421875 149.98125 " transform="matrix(1.25,0,0,1.25,-106.25,-100)"/>
<path style=" stroke:none;fill-rule:nonzero;fill:rgb(0%,0%,0%);fill-opacity:1;" d="M 163.523438 97.140625 C 163.523438 96.195312 163.621094 95.421875 163.816406 94.835938 C 164.011719 94.25 164.292969 93.800781 164.675781 93.488281 C 165.066406 93.175781 165.554688 93.019531 166.140625 93.019531 C 166.578125 93.019531 166.964844 93.113281 167.292969 93.292969 C 167.613281 93.464844 167.882812 93.714844 168.09375 94.035156 C 168.296875 94.363281 168.464844 94.757812 168.582031 95.226562 C 168.707031 95.695312 168.777344 96.335938 168.777344 97.140625 C 168.777344 98.078125 168.679688 98.839844 168.484375 99.425781 C 168.289062 100.003906 167.996094 100.453125 167.605469 100.773438 C 167.222656 101.085938 166.734375 101.242188 166.140625 101.242188 C 165.367188 101.242188 164.761719 100.964844 164.324219 100.402344 C 163.785156 99.738281 163.523438 98.65625 163.523438 97.140625 Z M 164.539062 97.140625 C 164.539062 98.460938 164.683594 99.339844 164.988281 99.777344 C 165.300781 100.207031 165.679688 100.421875 166.140625 100.421875 C 166.59375 100.421875 166.980469 100.207031 167.292969 99.777344 C 167.605469 99.339844 167.761719 98.460938 167.761719 97.140625 C 167.761719 95.8125 167.605469 94.933594 167.292969 94.503906 C 166.980469 94.066406 166.59375 93.839844 166.140625 93.839844 C 165.679688 93.839844 165.320312 94.03125 165.046875 94.40625 C 164.703125 94.90625 164.539062 95.8125 164.539062 97.140625 Z M 164.539062 97.140625 "/>
<path style=" stroke:none;fill-rule:nonzero;fill:rgb(0%,0%,0%);fill-opacity:1;" d="M 170.328125 101.105469 L 170.328125 99.972656 L 171.460938 99.972656 L 171.460938 101.105469 Z M 170.328125 101.105469 "/>
<path style=" stroke:none;fill-rule:nonzero;fill:rgb(0%,0%,0%);fill-opacity:1;" d="M 178.046875 95.03125 L 177.050781 95.109375 C 176.972656 94.71875 176.847656 94.4375 176.679688 94.25 C 176.417969 93.976562 176.09375 93.839844 175.703125 93.839844 C 175.375 93.839844 175.097656 93.929688 174.863281 94.09375 C 174.550781 94.328125 174.300781 94.660156 174.121094 95.089844 C 173.949219 95.519531 173.859375 96.140625 173.847656 96.945312 C 174.082031 96.59375 174.367188 96.335938 174.707031 96.164062 C 175.058594 95.984375 175.421875 95.890625 175.800781 95.890625 C 176.464844 95.890625 177.023438 96.136719 177.480469 96.613281 C 177.949219 97.097656 178.183594 97.722656 178.183594 98.488281 C 178.183594 98.996094 178.070312 99.476562 177.851562 99.914062 C 177.628906 100.34375 177.328125 100.675781 176.953125 100.910156 C 176.574219 101.128906 176.144531 101.242188 175.664062 101.242188 C 174.84375 101.242188 174.171875 100.945312 173.652344 100.34375 C 173.128906 99.734375 172.871094 98.734375 172.871094 97.335938 C 172.871094 95.789062 173.15625 94.65625 173.730469 93.9375 C 174.222656 93.328125 174.902344 93.019531 175.761719 93.019531 C 176.386719 93.019531 176.898438 93.207031 177.304688 93.566406 C 177.707031 93.917969 177.953125 94.40625 178.046875 95.03125 Z M 174.003906 98.488281 C 174.003906 98.839844 174.074219 99.171875 174.21875 99.484375 C 174.359375 99.789062 174.5625 100.023438 174.824219 100.1875 C 175.082031 100.34375 175.355469 100.421875 175.644531 100.421875 C 176.058594 100.421875 176.417969 100.261719 176.71875 99.933594 C 177.015625 99.597656 177.167969 99.132812 177.167969 98.546875 C 177.167969 97.992188 177.015625 97.550781 176.71875 97.238281 C 176.429688 96.917969 176.058594 96.75 175.605469 96.75 C 175.160156 96.75 174.785156 96.917969 174.472656 97.238281 C 174.160156 97.550781 174.003906 97.972656 174.003906 98.488281 Z M 174.003906 98.488281 "/>
<path style="fill:none;stroke-width:1;stroke-linecap:round;stroke-linejoin:round;stroke:rgb(0%,0%,0%);stroke-opacity:1;stroke-miterlimit:10;" d="M 211.421875 133.88125 L 231.975 133.88125 L 231.975 149.98125 L 211.421875 149.98125 Z M 211.421875 133.88125 " transform="matrix(1.25,0,0,1.25,-106.25,-100)"/>
<path style=" stroke:none;fill-rule:nonzero;fill:rgb(0%,0%,0%);fill-opacity:1;" d="M 163.523438 77.015625 C 163.523438 76.070312 163.621094 75.296875 163.816406 74.710938 C 164.011719 74.125 164.292969 73.675781 164.675781 73.363281 C 165.066406 73.050781 165.554688 72.894531 166.140625 72.894531 C 166.578125 72.894531 166.964844 72.988281 167.292969 73.167969 C 167.613281 73.339844 167.882812 73.589844 168.09375 73.910156 C 168.296875 74.238281 168.464844 74.632812 168.582031 75.101562 C 168.707031 75.570312 168.777344 76.210938 168.777344 77.015625 C 168.777344 77.953125 168.679688 78.714844 168.484375 79.300781 C 168.289062 79.878906 167.996094 80.328125 167.605469 80.648438 C 167.222656 80.960938 166.734375 81.117188 166.140625 81.117188 C 165.367188 81.117188 164.761719 80.839844 164.324219 80.277344 C 163.785156 79.613281 163.523438 78.53125 163.523438 77.015625 Z M 164.539062 77.015625 C 164.539062 78.335938 164.683594 79.214844 164.988281 79.652344 C 165.300781 80.082031 165.679688 80.296875 166.140625 80.296875 C 166.59375 80.296875 166.980469 80.082031 167.292969 79.652344 C 167.605469 79.214844 167.761719 78.335938 167.761719 77.015625 C 167.761719 75.6875 167.605469 74.808594 167.292969 74.378906 C 166.980469 73.941406 166.59375 73.714844 166.140625 73.714844 C 165.679688 73.714844 165.320312 73.90625 165.046875 74.28125 C 164.703125 74.78125 164.539062 75.6875 164.539062 77.015625 Z M 164.539062 77.015625 "/>
<path style=" stroke:none;fill-rule:nonzero;fill:rgb(0%,0%,0%);fill-opacity:1;" d="M 170.328125 80.980469 L 170.328125 79.847656 L 171.460938 79.847656 L 171.460938 80.980469 Z M 170.328125 80.980469 "/>
<path style=" stroke:none;fill-rule:nonzero;fill:rgb(0%,0%,0%);fill-opacity:1;" d="M 178.105469 80.023438 L 178.105469 80.980469 L 172.773438 80.980469 C 172.773438 80.746094 172.8125 80.523438 172.890625 80.296875 C 173.03125 79.9375 173.253906 79.574219 173.554688 79.222656 C 173.851562 78.871094 174.28125 78.472656 174.84375 78.011719 C 175.714844 77.285156 176.300781 76.714844 176.601562 76.292969 C 176.914062 75.878906 177.070312 75.484375 177.070312 75.101562 C 177.070312 74.710938 176.925781 74.390625 176.640625 74.125 C 176.367188 73.851562 176.007812 73.714844 175.566406 73.714844 C 175.082031 73.714844 174.699219 73.863281 174.414062 74.144531 C 174.125 74.433594 173.984375 74.828125 173.984375 75.335938 L 172.96875 75.21875 C 173.03125 74.46875 173.292969 73.890625 173.75 73.5 C 174.203125 73.101562 174.816406 72.894531 175.585938 72.894531 C 176.351562 72.894531 176.957031 73.109375 177.402344 73.539062 C 177.855469 73.96875 178.085938 74.496094 178.085938 75.121094 C 178.085938 75.449219 178.019531 75.765625 177.890625 76.078125 C 177.757812 76.390625 177.539062 76.722656 177.226562 77.074219 C 176.925781 77.417969 176.425781 77.886719 175.722656 78.480469 C 175.121094 78.980469 174.738281 79.316406 174.570312 79.496094 C 174.398438 79.683594 174.261719 79.859375 174.160156 80.023438 Z M 178.105469 80.023438 "/>
<path style="fill:none;stroke-width:1;stroke-linecap:round;stroke-linejoin:round;stroke:rgb(0%,0%,0%);stroke-opacity:1;stroke-miterlimit:10;" d="M 211.421875 117.78125 L 231.975 117.78125 L 231.975 133.88125 L 211.421875 133.88125 Z M 211.421875 117.78125 " transform="matrix(1.25,0,0,1.25,-106.25,-100)"/>
<path style=" stroke:none;fill-rule:nonzero;fill:rgb(0%,0%,0%);fill-opacity:1;" d="M 163.523438 56.890625 C 163.523438 55.945312 163.621094 55.171875 163.816406 54.585938 C 164.011719 54 164.292969 53.550781 164.675781 53.238281 C 165.066406 52.925781 165.554688 52.769531 166.140625 52.769531 C 166.578125 52.769531 166.964844 52.863281 167.292969 53.042969 C 167.613281 53.214844 167.882812 53.464844 168.09375 53.785156 C 168.296875 54.113281 168.464844 54.507812 168.582031 54.976562 C 168.707031 55.445312 168.777344 56.085938 168.777344 56.890625 C 168.777344 57.828125 168.679688 58.589844 168.484375 59.175781 C 168.289062 59.753906 167.996094 60.203125 167.605469 60.523438 C 167.222656 60.835938 166.734375 60.992188 166.140625 60.992188 C 165.367188 60.992188 164.761719 60.714844 164.324219 60.152344 C 163.785156 59.488281 163.523438 58.40625 163.523438 56.890625 Z M 164.539062 56.890625 C 164.539062 58.210938 164.683594 59.089844 164.988281 59.527344 C 165.300781 59.957031 165.679688 60.171875 166.140625 60.171875 C 166.59375 60.171875 166.980469 59.957031 167.292969 59.527344 C 167.605469 59.089844 167.761719 58.210938 167.761719 56.890625 C 167.761719 55.5625 167.605469 54.683594 167.292969 54.253906 C 166.980469 53.816406 166.59375 53.589844 166.140625 53.589844 C 165.679688 53.589844 165.320312 53.78125 165.046875 54.15625 C 164.703125 54.65625 164.539062 55.5625 164.539062 56.890625 Z M 164.539062 56.890625 "/>
<path style=" stroke:none;fill-rule:nonzero;fill:rgb(0%,0%,0%);fill-opacity:1;" d="M 170.328125 60.855469 L 170.328125 59.722656 L 171.460938 59.722656 L 171.460938 60.855469 Z M 170.328125 60.855469 "/>
<path style=" stroke:none;fill-rule:nonzero;fill:rgb(0%,0%,0%);fill-opacity:1;" d="M 178.105469 59.898438 L 178.105469 60.855469 L 172.773438 60.855469 C 172.773438 60.621094 172.8125 60.398438 172.890625 60.171875 C 173.03125 59.8125 173.253906 59.449219 173.554688 59.097656 C 173.851562 58.746094 174.28125 58.347656 174.84375 57.886719 C 175.714844 57.160156 176.300781 56.589844 176.601562 56.167969 C 176.914062 55.753906 177.070312 55.359375 177.070312 54.976562 C 177.070312 54.585938 176.925781 54.265625 176.640625 54 C 176.367188 53.726562 176.007812 53.589844 175.566406 53.589844 C 175.082031 53.589844 174.699219 53.738281 174.414062 54.019531 C 174.125 54.308594 173.984375 54.703125 173.984375 55.210938 L 172.96875 55.09375 C 173.03125 54.34375 173.292969 53.765625 173.75 53.375 C 174.203125 52.976562 174.816406 52.769531 175.585938 52.769531 C 176.351562 52.769531 176.957031 52.984375 177.402344 53.414062 C 177.855469 53.84375 178.085938 54.371094 178.085938 54.996094 C 178.085938 55.324219 178.019531 55.640625 177.890625 55.953125 C 177.757812 56.265625 177.539062 56.597656 177.226562 56.949219 C 176.925781 57.292969 176.425781 57.761719 175.722656 58.355469 C 175.121094 58.855469 174.738281 59.191406 174.570312 59.371094 C 174.398438 59.558594 174.261719 59.734375 174.160156 59.898438 Z M 178.105469 59.898438 "/>
<path style="fill:none;stroke-width:1;stroke-linecap:round;stroke-linejoin:round;stroke:rgb(0%,0%,0%);stroke-opacity:1;stroke-miterlimit:10;" d="M 211.421875 101.684375 L 231.975 101.684375 L 231.975 117.78125 L 211.421875 117.78125 Z M 211.421875 101.684375 " transform="matrix(1.25,0,0,1.25,-106.25,-100)"/>
<path style=" stroke:none;fill-rule:nonzero;fill:rgb(0%,0%,0%);fill-opacity:1;" d="M 163.523438 36.765625 C 163.523438 35.820312 163.621094 35.046875 163.816406 34.460938 C 164.011719 33.875 164.292969 33.425781 164.675781 33.113281 C 165.066406 32.800781 165.554688 32.644531 166.140625 32.644531 C 166.578125 32.644531 166.964844 32.738281 167.292969 32.917969 C 167.613281 33.089844 167.882812 33.339844 168.09375 33.660156 C 168.296875 33.988281 168.464844 34.382812 168.582031 34.851562 C 168.707031 35.320312 168.777344 35.960938 168.777344 36.765625 C 168.777344 37.703125 168.679688 38.464844 168.484375 39.050781 C 168.289062 39.628906 167.996094 40.078125 167.605469 40.398438 C 167.222656 40.710938 166.734375 40.867188 166.140625 40.867188 C 165.367188 40.867188 164.761719 40.589844 164.324219 40.027344 C 163.785156 39.363281 163.523438 38.28125 163.523438 36.765625 Z M 164.539062 36.765625 C 164.539062 38.085938 164.683594 38.964844 164.988281 39.402344 C 165.300781 39.832031 165.679688 40.046875 166.140625 40.046875 C 166.59375 40.046875 166.980469 39.832031 167.292969 39.402344 C 167.605469 38.964844 167.761719 38.085938 167.761719 36.765625 C 167.761719 35.4375 167.605469 34.558594 167.292969 34.128906 C 166.980469 33.691406 166.59375 33.464844 166.140625 33.464844 C 165.679688 33.464844 165.320312 33.65625 165.046875 34.03125 C 164.703125 34.53125 164.539062 35.4375 164.539062 36.765625 Z M 164.539062 36.765625 "/>
<path style=" stroke:none;fill-rule:nonzero;fill:rgb(0%,0%,0%);fill-opacity:1;" d="M 170.328125 40.730469 L 170.328125 39.597656 L 171.460938 39.597656 L 171.460938 40.730469 Z M 170.328125 40.730469 "/>
<path style=" stroke:none;fill-rule:nonzero;fill:rgb(0%,0%,0%);fill-opacity:1;" d="M 172.910156 36.765625 C 172.910156 35.820312 173.007812 35.046875 173.203125 34.460938 C 173.398438 33.875 173.683594 33.425781 174.0625 33.113281 C 174.453125 32.800781 174.941406 32.644531 175.527344 32.644531 C 175.96875 32.644531 176.351562 32.738281 176.679688 32.917969 C 177.003906 33.089844 177.269531 33.339844 177.480469 33.660156 C 177.6875 33.988281 177.851562 34.382812 177.96875 34.851562 C 178.097656 35.320312 178.164062 35.960938 178.164062 36.765625 C 178.164062 37.703125 178.066406 38.464844 177.871094 39.050781 C 177.675781 39.628906 177.382812 40.078125 176.992188 40.398438 C 176.613281 40.710938 176.125 40.867188 175.527344 40.867188 C 174.757812 40.867188 174.152344 40.589844 173.710938 40.027344 C 173.175781 39.363281 172.910156 38.28125 172.910156 36.765625 Z M 173.925781 36.765625 C 173.925781 38.085938 174.074219 38.964844 174.375 39.402344 C 174.6875 39.832031 175.070312 40.046875 175.527344 40.046875 C 175.980469 40.046875 176.367188 39.832031 176.679688 39.402344 C 176.992188 38.964844 177.148438 38.085938 177.148438 36.765625 C 177.148438 35.4375 176.992188 34.558594 176.679688 34.128906 C 176.367188 33.691406 175.980469 33.464844 175.527344 33.464844 C 175.070312 33.464844 174.707031 33.65625 174.433594 34.03125 C 174.09375 34.53125 173.925781 35.4375 173.925781 36.765625 Z M 173.925781 36.765625 "/>
<path style=" stroke:none;fill-rule:nonzero;fill:rgb(0%,0%,0%);fill-opacity:1;" d="M 171.378906 17.101562 L 171.378906 15.167969 L 167.882812 15.167969 L 167.882812 14.269531 L 171.554688 9.054688 L 172.375 9.054688 L 172.375 14.269531 L 173.46875 14.269531 L 173.46875 15.167969 L 172.375 15.167969 L 172.375 17.101562 Z M 171.378906 14.269531 L 171.378906 10.636719 L 168.859375 14.269531 Z M 171.378906 14.269531 "/>
<path style=" stroke:none;fill-rule:nonzero;fill:rgb(0%,0%,0%);fill-opacity:1;" d="M 21.476562 96.113281 L 15.792969 98.652344 L 15.792969 99.355469 L 21.476562 101.894531 L 21.476562 101.054688 L 16.847656 99.003906 L 21.476562 96.953125 Z M 21.476562 96.113281 "/>
<path style=" stroke:none;fill-rule:nonzero;fill:rgb(0%,0%,0%);fill-opacity:1;" d="M 25.121094 95.9375 C 24.28125 95.9375 23.617188 96.25 23.128906 96.855469 C 22.640625 97.421875 22.386719 98.144531 22.386719 99.003906 C 22.386719 99.941406 22.640625 100.683594 23.167969 101.25 C 23.65625 101.796875 24.339844 102.070312 25.160156 102.070312 C 25.921875 102.070312 26.527344 101.855469 27.015625 101.425781 C 27.40625 101.054688 27.679688 100.605469 27.796875 100.039062 L 26.898438 100.039062 C 26.761719 100.449219 26.566406 100.761719 26.3125 100.957031 C 26.019531 101.191406 25.628906 101.308594 25.160156 101.308594 C 24.613281 101.308594 24.164062 101.132812 23.851562 100.78125 C 23.539062 100.410156 23.382812 99.902344 23.324219 99.257812 L 27.914062 99.257812 C 27.894531 98.242188 27.679688 97.441406 27.25 96.894531 C 26.761719 96.25 26.058594 95.9375 25.121094 95.9375 Z M 25.160156 96.699219 C 26.253906 96.699219 26.878906 97.304688 26.976562 98.554688 L 23.34375 98.554688 C 23.402344 97.988281 23.578125 97.539062 23.910156 97.207031 C 24.222656 96.855469 24.632812 96.699219 25.160156 96.699219 Z M 25.160156 96.699219 "/>
<path style=" stroke:none;fill-rule:nonzero;fill:rgb(0%,0%,0%);fill-opacity:1;" d="M 31.578125 95.9375 C 30.699219 95.9375 30.015625 96.230469 29.488281 96.835938 C 29 97.421875 28.746094 98.125 28.746094 99.003906 C 28.746094 99.882812 29 100.605469 29.488281 101.152344 C 30.015625 101.777344 30.699219 102.070312 31.578125 102.070312 C 32.4375 102.070312 33.140625 101.777344 33.667969 101.152344 C 34.15625 100.605469 34.390625 99.882812 34.390625 99.003906 C 34.390625 98.125 34.15625 97.421875 33.648438 96.835938 C 33.140625 96.230469 32.4375 95.9375 31.578125 95.9375 Z M 31.578125 96.699219 C 32.183594 96.699219 32.671875 96.933594 33.023438 97.402344 C 33.335938 97.832031 33.492188 98.359375 33.492188 99.003906 C 33.492188 99.648438 33.335938 100.175781 33.023438 100.605469 C 32.671875 101.074219 32.183594 101.308594 31.578125 101.308594 C 30.953125 101.308594 30.464844 101.074219 30.132812 100.605469 C 29.820312 100.175781 29.664062 99.648438 29.664062 99.003906 C 29.664062 98.359375 29.820312 97.832031 30.132812 97.402344 C 30.464844 96.933594 30.953125 96.699219 31.578125 96.699219 Z M 31.578125 96.699219 "/>
<path style=" stroke:none;fill-rule:nonzero;fill:rgb(0%,0%,0%);fill-opacity:1;" d="M 37.625 95.9375 C 36.980469 95.9375 36.433594 96.09375 36.023438 96.386719 C 35.59375 96.679688 35.378906 97.050781 35.378906 97.558594 C 35.378906 98.046875 35.59375 98.417969 36.042969 98.691406 C 36.316406 98.867188 36.785156 99.042969 37.488281 99.199219 C 38.113281 99.355469 38.523438 99.492188 38.71875 99.570312 C 39.070312 99.746094 39.265625 100 39.265625 100.332031 C 39.265625 100.976562 38.738281 101.308594 37.703125 101.308594 C 37.214844 101.308594 36.84375 101.230469 36.589844 101.054688 C 36.335938 100.839844 36.179688 100.527344 36.101562 100.058594 L 35.222656 100.058594 C 35.359375 101.40625 36.199219 102.070312 37.722656 102.070312 C 39.363281 102.070312 40.183594 101.464844 40.183594 100.273438 C 40.183594 99.765625 39.949219 99.375 39.5 99.082031 C 39.1875 98.886719 38.699219 98.710938 37.996094 98.535156 C 37.410156 98.378906 37 98.261719 36.785156 98.164062 C 36.453125 97.988281 36.296875 97.773438 36.296875 97.519531 C 36.296875 97.265625 36.414062 97.070312 36.667969 96.914062 C 36.902344 96.757812 37.214844 96.699219 37.625 96.699219 C 38.074219 96.699219 38.445312 96.777344 38.679688 96.972656 C 38.914062 97.128906 39.050781 97.382812 39.128906 97.753906 L 40.007812 97.753906 C 39.851562 96.542969 39.070312 95.9375 37.625 95.9375 Z M 37.625 95.9375 "/>
<path style=" stroke:none;fill-rule:nonzero;fill:rgb(0%,0%,0%);fill-opacity:1;" d="M 41.117188 96.113281 L 41.117188 96.953125 L 45.746094 99.003906 L 41.117188 101.054688 L 41.117188 101.894531 L 46.800781 99.355469 L 46.800781 98.652344 Z M 41.117188 96.113281 "/>
<path style=" stroke:none;fill-rule:nonzero;fill:rgb(0%,0%,0%);fill-opacity:1;" d="M 33.851562 78.148438 L 34.90625 78.421875 C 34.683594 79.296875 34.28125 79.964844 33.695312 80.433594 C 33.121094 80.894531 32.410156 81.117188 31.566406 81.117188 C 30.707031 81.117188 30.003906 80.941406 29.457031 80.589844 C 28.910156 80.238281 28.492188 79.730469 28.207031 79.066406 C 27.933594 78.394531 27.796875 77.671875 27.796875 76.898438 C 27.796875 76.054688 27.953125 75.316406 28.265625 74.691406 C 28.589844 74.066406 29.046875 73.597656 29.632812 73.285156 C 30.230469 72.964844 30.882812 72.796875 31.585938 72.796875 C 32.390625 72.796875 33.070312 73.007812 33.617188 73.421875 C 34.175781 73.828125 34.558594 74.398438 34.769531 75.140625 L 33.714844 75.375 C 33.53125 74.789062 33.265625 74.371094 32.914062 74.105469 C 32.5625 73.832031 32.113281 73.695312 31.566406 73.695312 C 30.953125 73.695312 30.4375 73.847656 30.023438 74.144531 C 29.605469 74.449219 29.3125 74.847656 29.144531 75.355469 C 28.972656 75.855469 28.890625 76.363281 28.890625 76.878906 C 28.890625 77.574219 28.988281 78.179688 29.183594 78.695312 C 29.390625 79.203125 29.703125 79.585938 30.121094 79.828125 C 30.535156 80.078125 30.992188 80.199219 31.488281 80.199219 C 32.085938 80.199219 32.585938 80.035156 32.992188 79.691406 C 33.40625 79.339844 33.695312 78.828125 33.851562 78.148438 Z M 33.851562 78.148438 "/>
<path style=" stroke:none;fill-rule:nonzero;fill:rgb(0%,0%,0%);fill-opacity:1;" d="M 28.359375 60.855469 L 28.359375 52.808594 L 31.386719 52.808594 C 32 52.808594 32.488281 52.898438 32.851562 53.0625 C 33.230469 53.21875 33.523438 53.46875 33.730469 53.804688 C 33.953125 54.148438 34.0625 54.5 34.0625 54.859375 C 34.0625 55.210938 33.964844 55.539062 33.769531 55.835938 C 33.585938 56.140625 33.308594 56.382812 32.929688 56.578125 C 33.410156 56.726562 33.78125 56.964844 34.042969 57.300781 C 34.316406 57.644531 34.453125 58.042969 34.453125 58.511719 C 34.453125 58.894531 34.367188 59.246094 34.199219 59.566406 C 34.042969 59.894531 33.847656 60.148438 33.613281 60.328125 C 33.378906 60.5 33.085938 60.632812 32.734375 60.71875 C 32.382812 60.8125 31.945312 60.855469 31.425781 60.855469 Z M 29.433594 56.1875 L 31.171875 56.1875 C 31.640625 56.1875 31.980469 56.160156 32.1875 56.089844 C 32.460938 56.011719 32.664062 55.886719 32.792969 55.699219 C 32.9375 55.503906 33.007812 55.269531 33.007812 54.996094 C 33.007812 54.722656 32.941406 54.488281 32.8125 54.292969 C 32.683594 54.089844 32.5 53.941406 32.265625 53.863281 C 32.03125 53.785156 31.621094 53.746094 31.035156 53.746094 L 29.433594 53.746094 Z M 29.433594 59.898438 L 31.425781 59.898438 C 31.777344 59.898438 32.023438 59.890625 32.167969 59.859375 C 32.402344 59.820312 32.605469 59.753906 32.773438 59.644531 C 32.941406 59.542969 33.078125 59.390625 33.183594 59.195312 C 33.289062 59 33.339844 58.777344 33.339844 58.511719 C 33.339844 58.214844 33.261719 57.957031 33.105469 57.730469 C 32.949219 57.511719 32.734375 57.359375 32.460938 57.28125 C 32.1875 57.195312 31.796875 57.144531 31.289062 57.144531 L 29.433594 57.144531 Z M 29.433594 59.898438 "/>
<path style=" stroke:none;fill-rule:nonzero;fill:rgb(0%,0%,0%);fill-opacity:1;" d="M 27.519531 40.730469 L 30.625 32.683594 L 31.757812 32.683594 L 35.058594 40.730469 L 33.847656 40.730469 L 32.910156 38.289062 L 29.53125 38.289062 L 28.652344 40.730469 Z M 29.84375 37.429688 L 32.578125 37.429688 L 31.738281 35.183594 C 31.476562 34.511719 31.289062 33.953125 31.171875 33.523438 C 31.066406 34.046875 30.917969 34.558594 30.722656 35.066406 Z M 29.84375 37.429688 "/>
</g>
</svg>
