<svg id="SvgjsSvg1502" width="880" height="257" xmlns="http://www.w3.org/2000/svg" version="1.1" xmlns:xlink="http://www.w3.org/1999/xlink" xmlns:svgjs="http://svgjs.com/svgjs"><defs id="SvgjsDefs1503"><marker id="SvgjsMarker1516" markerWidth="16" markerHeight="12" refX="16" refY="6" viewBox="0 0 16 12" orient="auto" markerUnits="userSpaceOnUse" stroke-dasharray="0,0"><path id="SvgjsPath1517" d="M0,2 L14,6 L0,11 L0,2" fill="#323232" stroke="#323232" stroke-width="2"></path></marker><marker id="SvgjsMarker1520" markerWidth="16" markerHeight="12" refX="16" refY="6" viewBox="0 0 16 12" orient="auto" markerUnits="userSpaceOnUse" stroke-dasharray="0,0"><path id="SvgjsPath1521" d="M0,2 L14,6 L0,11 L0,2" fill="#323232" stroke="#323232" stroke-width="2"></path></marker><marker id="SvgjsMarker1534" markerWidth="16" markerHeight="12" refX="16" refY="6" viewBox="0 0 16 12" orient="auto" markerUnits="userSpaceOnUse" stroke-dasharray="0,0"><path id="SvgjsPath1535" d="M0,2 L14,6 L0,11 L0,2" fill="#323232" stroke="#323232" stroke-width="2"></path></marker><marker id="SvgjsMarker1538" markerWidth="16" markerHeight="12" refX="16" refY="6" viewBox="0 0 16 12" orient="auto" markerUnits="userSpaceOnUse" stroke-dasharray="0,0"><path id="SvgjsPath1539" d="M0,2 L14,6 L0,11 L0,2" fill="#323232" stroke="#323232" stroke-width="2"></path></marker><marker id="SvgjsMarker1552" markerWidth="16" markerHeight="12" refX="16" refY="6" viewBox="0 0 16 12" orient="auto" markerUnits="userSpaceOnUse" stroke-dasharray="0,0"><path id="SvgjsPath1553" d="M0,2 L14,6 L0,11 L0,2" fill="#323232" stroke="#323232" stroke-width="2"></path></marker><marker id="SvgjsMarker1556" markerWidth="16" markerHeight="12" refX="16" refY="6" viewBox="0 0 16 12" orient="auto" markerUnits="userSpaceOnUse" stroke-dasharray="0,0"><path id="SvgjsPath1557" d="M0,2 L14,6 L0,11 L0,2" fill="#323232" stroke="#323232" stroke-width="2"></path></marker><marker id="SvgjsMarker1570" markerWidth="16" markerHeight="12" refX="16" refY="6" viewBox="0 0 16 12" orient="auto" markerUnits="userSpaceOnUse" stroke-dasharray="0,0"><path id="SvgjsPath1571" d="M0,2 L14,6 L0,11 L0,2" fill="#323232" stroke="#323232" stroke-width="2"></path></marker><marker id="SvgjsMarker1574" markerWidth="16" markerHeight="12" refX="16" refY="6" viewBox="0 0 16 12" orient="auto" markerUnits="userSpaceOnUse" stroke-dasharray="0,0"><path id="SvgjsPath1575" d="M0,2 L14,6 L0,11 L0,2" fill="#323232" stroke="#323232" stroke-width="2"></path></marker><marker id="SvgjsMarker1582" markerWidth="16" markerHeight="12" refX="16" refY="6" viewBox="0 0 16 12" orient="auto" markerUnits="userSpaceOnUse" stroke-dasharray="0,0"><path id="SvgjsPath1583" d="M0,2 L14,6 L0,11 L0,2" fill="#323232" stroke="#323232" stroke-width="2"></path></marker><marker id="SvgjsMarker1590" markerWidth="16" markerHeight="12" refX="16" refY="6" viewBox="0 0 16 12" orient="auto" markerUnits="userSpaceOnUse" stroke-dasharray="0,0"><path id="SvgjsPath1591" d="M0,2 L14,6 L0,11 L0,2" fill="#323232" stroke="#323232" stroke-width="2"></path></marker><marker id="SvgjsMarker1604" markerWidth="16" markerHeight="12" refX="16" refY="6" viewBox="0 0 16 12" orient="auto" markerUnits="userSpaceOnUse" stroke-dasharray="0,0"><path id="SvgjsPath1605" d="M0,2 L14,6 L0,11 L0,2" fill="#323232" stroke="#323232" stroke-width="2"></path></marker><marker id="SvgjsMarker1608" markerWidth="16" markerHeight="12" refX="16" refY="6" viewBox="0 0 16 12" orient="auto" markerUnits="userSpaceOnUse" stroke-dasharray="0,0"><path id="SvgjsPath1609" d="M0,2 L14,6 L0,11 L0,2" fill="#323232" stroke="#323232" stroke-width="2"></path></marker><marker id="SvgjsMarker1612" markerWidth="16" markerHeight="12" refX="16" refY="6" viewBox="0 0 16 12" orient="auto" markerUnits="userSpaceOnUse" stroke-dasharray="0,0"><path id="SvgjsPath1613" d="M0,2 L14,6 L0,11 L0,2" fill="#323232" stroke="#323232" stroke-width="2"></path></marker><marker id="SvgjsMarker1616" markerWidth="16" markerHeight="12" refX="16" refY="6" viewBox="0 0 16 12" orient="auto" markerUnits="userSpaceOnUse" stroke-dasharray="0,0"><path id="SvgjsPath1617" d="M0,2 L14,6 L0,11 L0,2" fill="#323232" stroke="#323232" stroke-width="2"></path></marker><marker id="SvgjsMarker1620" markerWidth="16" markerHeight="12" refX="16" refY="6" viewBox="0 0 16 12" orient="auto" markerUnits="userSpaceOnUse" stroke-dasharray="0,0"><path id="SvgjsPath1621" d="M0,2 L14,6 L0,11 L0,2" fill="#323232" stroke="#323232" stroke-width="2"></path></marker><marker id="SvgjsMarker1630" markerWidth="16" markerHeight="12" refX="16" refY="6" viewBox="0 0 16 12" orient="auto" markerUnits="userSpaceOnUse" stroke-dasharray="0,0"><path id="SvgjsPath1631" d="M0,2 L14,6 L0,11 L0,2" fill="#323232" stroke="#323232" stroke-width="2"></path></marker><marker id="SvgjsMarker1646" markerWidth="16" markerHeight="12" refX="16" refY="6" viewBox="0 0 16 12" orient="auto" markerUnits="userSpaceOnUse" stroke-dasharray="0,0"><path id="SvgjsPath1647" d="M0,2 L14,6 L0,11 L0,2" fill="#323232" stroke="#323232" stroke-width="2"></path></marker></defs><g id="SvgjsG1504" transform="translate(48,105)"><path id="SvgjsPath1505" d="M 0 0L 74 0L 74 50L 0 50Z" stroke="rgba(50,50,50,1)" stroke-width="2" fill-opacity="1" fill="#ffcccc"></path><g id="SvgjsG1506"><text id="SvgjsText1507" font-family="微软雅黑" text-anchor="middle" font-size="13px" width="54px" fill="#323232" font-weight="400" align="middle" anchor="middle" family="微软雅黑" size="13px" weight="400" font-style="" opacity="1" y="15.05" transform="rotate(0)"></text></g></g><g id="SvgjsG1508" transform="translate(25,192)"><path id="SvgjsPath1509" d="M 0 0L 120 0L 120 40L 0 40Z" stroke="none" fill="none"></path><g id="SvgjsG1510"><text id="SvgjsText1511" font-family="微软雅黑" text-anchor="middle" font-size="13px" width="120px" fill="#323232" font-weight="400" align="middle" anchor="middle" family="微软雅黑" size="13px" weight="400" font-style="" opacity="1" y="10.05" transform="rotate(0)"><tspan id="SvgjsTspan1512" dy="16" x="60"><tspan id="SvgjsTspan1513" style="text-decoration:;">x1</tspan></tspan></text></g></g><g id="SvgjsG1514"><path id="SvgjsPath1515" d="M85 192L85 173.5L85 173.5L85 155" stroke="#323232" stroke-width="2" fill="none" marker-end="url(#SvgjsMarker1516)"></path></g><g id="SvgjsG1518"><path id="SvgjsPath1519" d="M122 130L142 130L142 130L162 130" stroke="#323232" stroke-width="2" fill="none" marker-end="url(#SvgjsMarker1520)"></path></g><g id="SvgjsG1522" transform="translate(168,105)"><path id="SvgjsPath1523" d="M 0 0L 74 0L 74 50L 0 50Z" stroke="rgba(50,50,50,1)" stroke-width="2" fill-opacity="1" fill="#ffcccc"></path><g id="SvgjsG1524"><text id="SvgjsText1525" font-family="微软雅黑" text-anchor="middle" font-size="13px" width="54px" fill="#323232" font-weight="400" align="middle" anchor="middle" family="微软雅黑" size="13px" weight="400" font-style="" opacity="1" y="15.05" transform="rotate(0)"></text></g></g><g id="SvgjsG1526" transform="translate(145,192)"><path id="SvgjsPath1527" d="M 0 0L 120 0L 120 40L 0 40Z" stroke="none" fill="none"></path><g id="SvgjsG1528"><text id="SvgjsText1529" font-family="微软雅黑" text-anchor="middle" font-size="13px" width="120px" fill="#323232" font-weight="400" align="middle" anchor="middle" family="微软雅黑" size="13px" weight="400" font-style="" opacity="1" y="10.05" transform="rotate(0)"><tspan id="SvgjsTspan1530" dy="16" x="60"><tspan id="SvgjsTspan1531" style="text-decoration:;">x2</tspan></tspan></text></g></g><g id="SvgjsG1532"><path id="SvgjsPath1533" d="M205 192L205 173.5L205 173.5L205 155" stroke="#323232" stroke-width="2" fill="none" marker-end="url(#SvgjsMarker1534)"></path></g><g id="SvgjsG1536"><path id="SvgjsPath1537" d="M242 130L262 130L262 130L282 130" stroke="#323232" stroke-width="2" fill="none" marker-end="url(#SvgjsMarker1538)"></path></g><g id="SvgjsG1540" transform="translate(288,105)"><path id="SvgjsPath1541" d="M 0 0L 74 0L 74 50L 0 50Z" stroke="rgba(0,0,0,1)" stroke-width="2" fill-opacity="1" fill="#ffcccc"></path><g id="SvgjsG1542"><text id="SvgjsText1543" font-family="微软雅黑" text-anchor="middle" font-size="13px" width="54px" fill="#323232" font-weight="400" align="middle" anchor="middle" family="微软雅黑" size="13px" weight="400" font-style="" opacity="1" y="15.05" transform="rotate(0)"></text></g></g><g id="SvgjsG1544" transform="translate(265,192)"><path id="SvgjsPath1545" d="M 0 0L 120 0L 120 40L 0 40Z" stroke="none" fill="none"></path><g id="SvgjsG1546"><text id="SvgjsText1547" font-family="微软雅黑" text-anchor="middle" font-size="13px" width="120px" fill="#323232" font-weight="400" align="middle" anchor="middle" family="微软雅黑" size="13px" weight="400" font-style="" opacity="1" y="10.05" transform="rotate(0)"><tspan id="SvgjsTspan1548" dy="16" x="60"><tspan id="SvgjsTspan1549" style="text-decoration:;">&lt;eos&gt;</tspan></tspan></text></g></g><g id="SvgjsG1550"><path id="SvgjsPath1551" d="M325 192L325 173.5L325 173.5L325 155" stroke="#323232" stroke-width="2" fill="none" marker-end="url(#SvgjsMarker1552)"></path></g><g id="SvgjsG1554"><path id="SvgjsPath1555" d="M362 130L391.5 130L391.5 130L421 130" stroke="#323232" stroke-width="2" fill="none" marker-end="url(#SvgjsMarker1556)"></path></g><g id="SvgjsG1558" transform="translate(421,105)"><path id="SvgjsPath1559" d="M 0 0L 74 0L 74 50L 0 50Z" stroke="rgba(50,50,50,1)" stroke-width="2" fill-opacity="1" fill="#ffffcc"></path><g id="SvgjsG1560"><text id="SvgjsText1561" font-family="微软雅黑" text-anchor="middle" font-size="13px" width="54px" fill="#323232" font-weight="400" align="middle" anchor="middle" family="微软雅黑" size="13px" weight="400" font-style="" opacity="1" y="15.05" transform="rotate(0)"></text></g></g><g id="SvgjsG1562" transform="translate(398,192)"><path id="SvgjsPath1563" d="M 0 0L 120 0L 120 40L 0 40Z" stroke="none" fill="none"></path><g id="SvgjsG1564"><text id="SvgjsText1565" font-family="微软雅黑" text-anchor="middle" font-size="13px" width="120px" fill="#323232" font-weight="400" align="middle" anchor="middle" family="微软雅黑" size="13px" weight="400" font-style="" opacity="1" y="10.05" transform="rotate(0)"><tspan id="SvgjsTspan1566" dy="16" x="60"><tspan id="SvgjsTspan1567" style="text-decoration:;">&lt;bos&gt;</tspan></tspan></text></g></g><g id="SvgjsG1568"><path id="SvgjsPath1569" d="M458 192L458 173.5L458 173.5L458 155" stroke="#323232" stroke-width="2" fill="none" marker-end="url(#SvgjsMarker1570)"></path></g><g id="SvgjsG1572"><path id="SvgjsPath1573" d="M495 130L515 130L515 130L535 130" stroke="#323232" stroke-width="2" fill="none" marker-end="url(#SvgjsMarker1574)"></path></g><g id="SvgjsG1576" transform="translate(541,105)"><path id="SvgjsPath1577" d="M 0 0L 74 0L 74 50L 0 50Z" stroke="rgba(50,50,50,1)" stroke-width="2" fill-opacity="1" fill="#ffffcc"></path><g id="SvgjsG1578"><text id="SvgjsText1579" font-family="微软雅黑" text-anchor="middle" font-size="13px" width="54px" fill="#323232" font-weight="400" align="middle" anchor="middle" family="微软雅黑" size="13px" weight="400" font-style="" opacity="1" y="15.05" transform="rotate(0)"></text></g></g><g id="SvgjsG1580"><path id="SvgjsPath1581" d="M615 130L635 130L635 130L655 130" stroke="#323232" stroke-width="2" fill="none" marker-end="url(#SvgjsMarker1582)"></path></g><g id="SvgjsG1584" transform="translate(661,105)"><path id="SvgjsPath1585" d="M 0 0L 74 0L 74 50L 0 50Z" stroke="rgba(50,50,50,1)" stroke-width="2" fill-opacity="1" fill="#ffffcc"></path><g id="SvgjsG1586"><text id="SvgjsText1587" font-family="微软雅黑" text-anchor="middle" font-size="13px" width="54px" fill="#323232" font-weight="400" align="middle" anchor="middle" family="微软雅黑" size="13px" weight="400" font-style="" opacity="1" y="15.05" transform="rotate(0)"></text></g></g><g id="SvgjsG1588"><path id="SvgjsPath1589" d="M735 130L755 130L755 130L775 130" stroke="#323232" stroke-width="2" fill="none" marker-end="url(#SvgjsMarker1590)"></path></g><g id="SvgjsG1592" transform="translate(781,105)"><path id="SvgjsPath1593" d="M 0 0L 74 0L 74 50L 0 50Z" stroke="rgba(50,50,50,1)" stroke-width="2" fill-opacity="1" fill="#ffffcc"></path><g id="SvgjsG1594"><text id="SvgjsText1595" font-family="微软雅黑" text-anchor="middle" font-size="13px" width="54px" fill="#323232" font-weight="400" align="middle" anchor="middle" family="微软雅黑" size="13px" weight="400" font-style="" opacity="1" y="15.05" transform="rotate(0)"></text></g></g><g id="SvgjsG1596" transform="translate(423.5,25)"><path id="SvgjsPath1597" d="M 0 0L 69 0L 69 40L 0 40Z" stroke="none" fill="none"></path><g id="SvgjsG1598"><text id="SvgjsText1599" font-family="微软雅黑" text-anchor="middle" font-size="13px" width="69px" fill="#323232" font-weight="400" align="middle" anchor="middle" family="微软雅黑" size="13px" weight="400" font-style="" opacity="1" y="10.05" transform="rotate(0)"><tspan id="SvgjsTspan1600" dy="16" x="34.5"><tspan id="SvgjsTspan1601" style="text-decoration:;">predict(y1)</tspan></tspan></text></g></g><g id="SvgjsG1602"><path id="SvgjsPath1603" d="M458 105L458 85L458 85L458 65" stroke="#323232" stroke-width="2" fill="none" marker-end="url(#SvgjsMarker1604)"></path></g><g id="SvgjsG1606"><path id="SvgjsPath1607" d="M578 105L578 85L578 85L578 65" stroke="#323232" stroke-width="2" fill="none" marker-end="url(#SvgjsMarker1608)"></path></g><g id="SvgjsG1610"><path id="SvgjsPath1611" d="M698 105L698 85L698 85L698 65" stroke="#323232" stroke-width="2" fill="none" marker-end="url(#SvgjsMarker1612)"></path></g><g id="SvgjsG1614"><path id="SvgjsPath1615" d="M818 105L818 85L818 85L818 65" stroke="#323232" stroke-width="2" fill="none" marker-end="url(#SvgjsMarker1616)"></path></g><g id="SvgjsG1618"><path id="SvgjsPath1619" d="M492.5 45L516.75 45L516.75 185L578 185L578 155" stroke-dasharray="8,5" stroke="#323232" stroke-width="2" fill="none" marker-end="url(#SvgjsMarker1620)"></path></g><g id="SvgjsG1622" transform="translate(543.5,25)"><path id="SvgjsPath1623" d="M 0 0L 69 0L 69 40L 0 40Z" stroke="none" fill="none"></path><g id="SvgjsG1624"><text id="SvgjsText1625" font-family="微软雅黑" text-anchor="middle" font-size="13px" width="69px" fill="#323232" font-weight="400" align="middle" anchor="middle" family="微软雅黑" size="13px" weight="400" font-style="" opacity="1" y="10.05" transform="rotate(0)"><tspan id="SvgjsTspan1626" dy="16" x="34.5"><tspan id="SvgjsTspan1627" style="text-decoration:;">predict(y2)</tspan></tspan></text></g></g><g id="SvgjsG1628"><path id="SvgjsPath1629" d="M612.5 45L636.75 45L636.75 185L698 185L698 155" stroke-dasharray="8,5" stroke="#323232" stroke-width="2" fill="none" marker-end="url(#SvgjsMarker1630)"></path></g><g id="SvgjsG1632" transform="translate(663.5,29)"><path id="SvgjsPath1633" d="M 0 0L 69 0L 69 40L 0 40Z" stroke="none" fill="none"></path><g id="SvgjsG1634"><text id="SvgjsText1635" font-family="微软雅黑" text-anchor="middle" font-size="13px" width="69px" fill="#323232" font-weight="400" align="middle" anchor="middle" family="微软雅黑" size="13px" weight="400" font-style="" opacity="1" y="10.05" transform="rotate(0)"><tspan id="SvgjsTspan1636" dy="16" x="34.5"><tspan id="SvgjsTspan1637" style="text-decoration:;">predict(y3)</tspan></tspan></text></g></g><g id="SvgjsG1638" transform="translate(783.5,29)"><path id="SvgjsPath1639" d="M 0 0L 69 0L 69 40L 0 40Z" stroke="none" fill="none"></path><g id="SvgjsG1640"><text id="SvgjsText1641" font-family="微软雅黑" text-anchor="middle" font-size="13px" width="69px" fill="#323232" font-weight="400" align="middle" anchor="middle" family="微软雅黑" size="13px" weight="400" font-style="" opacity="1" y="10.05" transform="rotate(0)"><tspan id="SvgjsTspan1642" dy="16" x="34.5"><tspan id="SvgjsTspan1643" style="text-decoration:;">&lt;eos&gt;</tspan></tspan></text></g></g><g id="SvgjsG1644"><path id="SvgjsPath1645" d="M732.5 49L756.75 49L756.75 185L818 185L818 155" stroke-dasharray="8,5" stroke="#323232" stroke-width="2" fill="none" marker-end="url(#SvgjsMarker1646)"></path></g></svg>