<svg id="SvgjsSvg1338" width="903" height="257" xmlns="http://www.w3.org/2000/svg" version="1.1" xmlns:xlink="http://www.w3.org/1999/xlink" xmlns:svgjs="http://svgjs.com/svgjs"><defs id="SvgjsDefs1339"><marker id="SvgjsMarker1352" markerWidth="16" markerHeight="12" refX="16" refY="6" viewBox="0 0 16 12" orient="auto" markerUnits="userSpaceOnUse" stroke-dasharray="0,0"><path id="SvgjsPath1353" d="M0,2 L14,6 L0,11 L0,2" fill="#323232" stroke="#323232" stroke-width="2"></path></marker><marker id="SvgjsMarker1356" markerWidth="16" markerHeight="12" refX="16" refY="6" viewBox="0 0 16 12" orient="auto" markerUnits="userSpaceOnUse" stroke-dasharray="0,0"><path id="SvgjsPath1357" d="M0,2 L14,6 L0,11 L0,2" fill="#323232" stroke="#323232" stroke-width="2"></path></marker><marker id="SvgjsMarker1370" markerWidth="16" markerHeight="12" refX="16" refY="6" viewBox="0 0 16 12" orient="auto" markerUnits="userSpaceOnUse" stroke-dasharray="0,0"><path id="SvgjsPath1371" d="M0,2 L14,6 L0,11 L0,2" fill="#323232" stroke="#323232" stroke-width="2"></path></marker><marker id="SvgjsMarker1374" markerWidth="16" markerHeight="12" refX="16" refY="6" viewBox="0 0 16 12" orient="auto" markerUnits="userSpaceOnUse" stroke-dasharray="0,0"><path id="SvgjsPath1375" d="M0,2 L14,6 L0,11 L0,2" fill="#323232" stroke="#323232" stroke-width="2"></path></marker><marker id="SvgjsMarker1388" markerWidth="16" markerHeight="12" refX="16" refY="6" viewBox="0 0 16 12" orient="auto" markerUnits="userSpaceOnUse" stroke-dasharray="0,0"><path id="SvgjsPath1389" d="M0,2 L14,6 L0,11 L0,2" fill="#323232" stroke="#323232" stroke-width="2"></path></marker><marker id="SvgjsMarker1392" markerWidth="16" markerHeight="12" refX="16" refY="6" viewBox="0 0 16 12" orient="auto" markerUnits="userSpaceOnUse" stroke-dasharray="0,0"><path id="SvgjsPath1393" d="M0,2 L14,6 L0,11 L0,2" fill="#323232" stroke="#323232" stroke-width="2"></path></marker><marker id="SvgjsMarker1406" markerWidth="16" markerHeight="12" refX="16" refY="6" viewBox="0 0 16 12" orient="auto" markerUnits="userSpaceOnUse" stroke-dasharray="0,0"><path id="SvgjsPath1407" d="M0,2 L14,6 L0,11 L0,2" fill="#323232" stroke="#323232" stroke-width="2"></path></marker><marker id="SvgjsMarker1410" markerWidth="16" markerHeight="12" refX="16" refY="6" viewBox="0 0 16 12" orient="auto" markerUnits="userSpaceOnUse" stroke-dasharray="0,0"><path id="SvgjsPath1411" d="M0,2 L14,6 L0,11 L0,2" fill="#323232" stroke="#323232" stroke-width="2"></path></marker><marker id="SvgjsMarker1424" markerWidth="16" markerHeight="12" refX="16" refY="6" viewBox="0 0 16 12" orient="auto" markerUnits="userSpaceOnUse" stroke-dasharray="0,0"><path id="SvgjsPath1425" d="M0,2 L14,6 L0,11 L0,2" fill="#323232" stroke="#323232" stroke-width="2"></path></marker><marker id="SvgjsMarker1428" markerWidth="16" markerHeight="12" refX="16" refY="6" viewBox="0 0 16 12" orient="auto" markerUnits="userSpaceOnUse" stroke-dasharray="0,0"><path id="SvgjsPath1429" d="M0,2 L14,6 L0,11 L0,2" fill="#323232" stroke="#323232" stroke-width="2"></path></marker><marker id="SvgjsMarker1442" markerWidth="16" markerHeight="12" refX="16" refY="6" viewBox="0 0 16 12" orient="auto" markerUnits="userSpaceOnUse" stroke-dasharray="0,0"><path id="SvgjsPath1443" d="M0,2 L14,6 L0,11 L0,2" fill="#323232" stroke="#323232" stroke-width="2"></path></marker><marker id="SvgjsMarker1446" markerWidth="16" markerHeight="12" refX="16" refY="6" viewBox="0 0 16 12" orient="auto" markerUnits="userSpaceOnUse" stroke-dasharray="0,0"><path id="SvgjsPath1447" d="M0,2 L14,6 L0,11 L0,2" fill="#323232" stroke="#323232" stroke-width="2"></path></marker><marker id="SvgjsMarker1460" markerWidth="16" markerHeight="12" refX="16" refY="6" viewBox="0 0 16 12" orient="auto" markerUnits="userSpaceOnUse" stroke-dasharray="0,0"><path id="SvgjsPath1461" d="M0,2 L14,6 L0,11 L0,2" fill="#323232" stroke="#323232" stroke-width="2"></path></marker><marker id="SvgjsMarker1470" markerWidth="16" markerHeight="12" refX="16" refY="6" viewBox="0 0 16 12" orient="auto" markerUnits="userSpaceOnUse" stroke-dasharray="0,0"><path id="SvgjsPath1471" d="M0,2 L14,6 L0,11 L0,2" fill="#323232" stroke="#323232" stroke-width="2"></path></marker><marker id="SvgjsMarker1480" markerWidth="16" markerHeight="12" refX="16" refY="6" viewBox="0 0 16 12" orient="auto" markerUnits="userSpaceOnUse" stroke-dasharray="0,0"><path id="SvgjsPath1481" d="M0,2 L14,6 L0,11 L0,2" fill="#323232" stroke="#323232" stroke-width="2"></path></marker><marker id="SvgjsMarker1490" markerWidth="16" markerHeight="12" refX="16" refY="6" viewBox="0 0 16 12" orient="auto" markerUnits="userSpaceOnUse" stroke-dasharray="0,0"><path id="SvgjsPath1491" d="M0,2 L14,6 L0,11 L0,2" fill="#323232" stroke="#323232" stroke-width="2"></path></marker><marker id="SvgjsMarker1500" markerWidth="16" markerHeight="12" refX="16" refY="6" viewBox="0 0 16 12" orient="auto" markerUnits="userSpaceOnUse" stroke-dasharray="0,0"><path id="SvgjsPath1501" d="M0,2 L14,6 L0,11 L0,2" fill="#323232" stroke="#323232" stroke-width="2"></path></marker></defs><g id="SvgjsG1340" transform="translate(48,105)"><path id="SvgjsPath1341" d="M 0 0L 74 0L 74 50L 0 50Z" stroke="rgba(50,50,50,1)" stroke-width="2" fill-opacity="1" fill="#ffcccc"></path><g id="SvgjsG1342"><text id="SvgjsText1343" font-family="微软雅黑" text-anchor="middle" font-size="13px" width="54px" fill="#323232" font-weight="400" align="middle" anchor="middle" family="微软雅黑" size="13px" weight="400" font-style="" opacity="1" y="15.05" transform="rotate(0)"></text></g></g><g id="SvgjsG1344" transform="translate(25,192)"><path id="SvgjsPath1345" d="M 0 0L 120 0L 120 40L 0 40Z" stroke="none" fill="none"></path><g id="SvgjsG1346"><text id="SvgjsText1347" font-family="微软雅黑" text-anchor="middle" font-size="13px" width="120px" fill="#323232" font-weight="400" align="middle" anchor="middle" family="微软雅黑" size="13px" weight="400" font-style="" opacity="1" y="10.05" transform="rotate(0)"><tspan id="SvgjsTspan1348" dy="16" x="60"><tspan id="SvgjsTspan1349" style="text-decoration:;">x1</tspan></tspan></text></g></g><g id="SvgjsG1350"><path id="SvgjsPath1351" d="M85 192L85 173.5L85 173.5L85 155" stroke="#323232" stroke-width="2" fill="none" marker-end="url(#SvgjsMarker1352)"></path></g><g id="SvgjsG1354"><path id="SvgjsPath1355" d="M122 130L142 130L142 130L162 130" stroke="#323232" stroke-width="2" fill="none" marker-end="url(#SvgjsMarker1356)"></path></g><g id="SvgjsG1358" transform="translate(168,105)"><path id="SvgjsPath1359" d="M 0 0L 74 0L 74 50L 0 50Z" stroke="rgba(50,50,50,1)" stroke-width="2" fill-opacity="1" fill="#ffcccc"></path><g id="SvgjsG1360"><text id="SvgjsText1361" font-family="微软雅黑" text-anchor="middle" font-size="13px" width="54px" fill="#323232" font-weight="400" align="middle" anchor="middle" family="微软雅黑" size="13px" weight="400" font-style="" opacity="1" y="15.05" transform="rotate(0)"></text></g></g><g id="SvgjsG1362" transform="translate(145,192)"><path id="SvgjsPath1363" d="M 0 0L 120 0L 120 40L 0 40Z" stroke="none" fill="none"></path><g id="SvgjsG1364"><text id="SvgjsText1365" font-family="微软雅黑" text-anchor="middle" font-size="13px" width="120px" fill="#323232" font-weight="400" align="middle" anchor="middle" family="微软雅黑" size="13px" weight="400" font-style="" opacity="1" y="10.05" transform="rotate(0)"><tspan id="SvgjsTspan1366" dy="16" x="60"><tspan id="SvgjsTspan1367" style="text-decoration:;">x2</tspan></tspan></text></g></g><g id="SvgjsG1368"><path id="SvgjsPath1369" d="M205 192L205 173.5L205 173.5L205 155" stroke="#323232" stroke-width="2" fill="none" marker-end="url(#SvgjsMarker1370)"></path></g><g id="SvgjsG1372"><path id="SvgjsPath1373" d="M242 130L262 130L262 130L282 130" stroke="#323232" stroke-width="2" fill="none" marker-end="url(#SvgjsMarker1374)"></path></g><g id="SvgjsG1376" transform="translate(288,105)"><path id="SvgjsPath1377" d="M 0 0L 74 0L 74 50L 0 50Z" stroke="rgba(0,0,0,1)" stroke-width="2" fill-opacity="1" fill="#ffcccc"></path><g id="SvgjsG1378"><text id="SvgjsText1379" font-family="微软雅黑" text-anchor="middle" font-size="13px" width="54px" fill="#323232" font-weight="400" align="middle" anchor="middle" family="微软雅黑" size="13px" weight="400" font-style="" opacity="1" y="15.05" transform="rotate(0)"></text></g></g><g id="SvgjsG1380" transform="translate(265,192)"><path id="SvgjsPath1381" d="M 0 0L 120 0L 120 40L 0 40Z" stroke="none" fill="none"></path><g id="SvgjsG1382"><text id="SvgjsText1383" font-family="微软雅黑" text-anchor="middle" font-size="13px" width="120px" fill="#323232" font-weight="400" align="middle" anchor="middle" family="微软雅黑" size="13px" weight="400" font-style="" opacity="1" y="10.05" transform="rotate(0)"><tspan id="SvgjsTspan1384" dy="16" x="60"><tspan id="SvgjsTspan1385" style="text-decoration:;">&lt;eos&gt;</tspan></tspan></text></g></g><g id="SvgjsG1386"><path id="SvgjsPath1387" d="M325 192L325 173.5L325 173.5L325 155" stroke="#323232" stroke-width="2" fill="none" marker-end="url(#SvgjsMarker1388)"></path></g><g id="SvgjsG1390"><path id="SvgjsPath1391" d="M362 130L391.5 130L391.5 130L421 130" stroke="#323232" stroke-width="2" fill="none" marker-end="url(#SvgjsMarker1392)"></path></g><g id="SvgjsG1394" transform="translate(421,105)"><path id="SvgjsPath1395" d="M 0 0L 74 0L 74 50L 0 50Z" stroke="rgba(50,50,50,1)" stroke-width="2" fill-opacity="1" fill="#ffffcc"></path><g id="SvgjsG1396"><text id="SvgjsText1397" font-family="微软雅黑" text-anchor="middle" font-size="13px" width="54px" fill="#323232" font-weight="400" align="middle" anchor="middle" family="微软雅黑" size="13px" weight="400" font-style="" opacity="1" y="15.05" transform="rotate(0)"></text></g></g><g id="SvgjsG1398" transform="translate(398,192)"><path id="SvgjsPath1399" d="M 0 0L 120 0L 120 40L 0 40Z" stroke="none" fill="none"></path><g id="SvgjsG1400"><text id="SvgjsText1401" font-family="微软雅黑" text-anchor="middle" font-size="13px" width="120px" fill="#323232" font-weight="400" align="middle" anchor="middle" family="微软雅黑" size="13px" weight="400" font-style="" opacity="1" y="10.05" transform="rotate(0)"><tspan id="SvgjsTspan1402" dy="16" x="60"><tspan id="SvgjsTspan1403" style="text-decoration:;">&lt;bos&gt;</tspan></tspan></text></g></g><g id="SvgjsG1404"><path id="SvgjsPath1405" d="M458 192L458 173.5L458 173.5L458 155" stroke="#323232" stroke-width="2" fill="none" marker-end="url(#SvgjsMarker1406)"></path></g><g id="SvgjsG1408"><path id="SvgjsPath1409" d="M495 130L515 130L515 130L535 130" stroke="#323232" stroke-width="2" fill="none" marker-end="url(#SvgjsMarker1410)"></path></g><g id="SvgjsG1412" transform="translate(541,105)"><path id="SvgjsPath1413" d="M 0 0L 74 0L 74 50L 0 50Z" stroke="rgba(50,50,50,1)" stroke-width="2" fill-opacity="1" fill="#ffffcc"></path><g id="SvgjsG1414"><text id="SvgjsText1415" font-family="微软雅黑" text-anchor="middle" font-size="13px" width="54px" fill="#323232" font-weight="400" align="middle" anchor="middle" family="微软雅黑" size="13px" weight="400" font-style="" opacity="1" y="15.05" transform="rotate(0)"></text></g></g><g id="SvgjsG1416" transform="translate(518,192)"><path id="SvgjsPath1417" d="M 0 0L 120 0L 120 40L 0 40Z" stroke="none" fill="none"></path><g id="SvgjsG1418"><text id="SvgjsText1419" font-family="微软雅黑" text-anchor="middle" font-size="13px" width="120px" fill="#323232" font-weight="400" align="middle" anchor="middle" family="微软雅黑" size="13px" weight="400" font-style="" opacity="1" y="10.05" transform="rotate(0)"><tspan id="SvgjsTspan1420" dy="16" x="60"><tspan id="SvgjsTspan1421" style="text-decoration:;">y1</tspan></tspan></text></g></g><g id="SvgjsG1422"><path id="SvgjsPath1423" d="M578 192L578 173.5L578 173.5L578 155" stroke="#323232" stroke-width="2" fill="none" marker-end="url(#SvgjsMarker1424)"></path></g><g id="SvgjsG1426"><path id="SvgjsPath1427" d="M615 130L635 130L635 130L655 130" stroke="#323232" stroke-width="2" fill="none" marker-end="url(#SvgjsMarker1428)"></path></g><g id="SvgjsG1430" transform="translate(661,105)"><path id="SvgjsPath1431" d="M 0 0L 74 0L 74 50L 0 50Z" stroke="rgba(50,50,50,1)" stroke-width="2" fill-opacity="1" fill="#ffffcc"></path><g id="SvgjsG1432"><text id="SvgjsText1433" font-family="微软雅黑" text-anchor="middle" font-size="13px" width="54px" fill="#323232" font-weight="400" align="middle" anchor="middle" family="微软雅黑" size="13px" weight="400" font-style="" opacity="1" y="15.05" transform="rotate(0)"></text></g></g><g id="SvgjsG1434" transform="translate(638,192)"><path id="SvgjsPath1435" d="M 0 0L 120 0L 120 40L 0 40Z" stroke="none" fill="none"></path><g id="SvgjsG1436"><text id="SvgjsText1437" font-family="微软雅黑" text-anchor="middle" font-size="13px" width="120px" fill="#323232" font-weight="400" align="middle" anchor="middle" family="微软雅黑" size="13px" weight="400" font-style="" opacity="1" y="10.05" transform="rotate(0)"><tspan id="SvgjsTspan1438" dy="16" x="60"><tspan id="SvgjsTspan1439" style="text-decoration:;">y2</tspan></tspan></text></g></g><g id="SvgjsG1440"><path id="SvgjsPath1441" d="M698 192L698 173.5L698 173.5L698 155" stroke="#323232" stroke-width="2" fill="none" marker-end="url(#SvgjsMarker1442)"></path></g><g id="SvgjsG1444"><path id="SvgjsPath1445" d="M735 130L755 130L755 130L775 130" stroke="#323232" stroke-width="2" fill="none" marker-end="url(#SvgjsMarker1446)"></path></g><g id="SvgjsG1448" transform="translate(781,105)"><path id="SvgjsPath1449" d="M 0 0L 74 0L 74 50L 0 50Z" stroke="rgba(50,50,50,1)" stroke-width="2" fill-opacity="1" fill="#ffffcc"></path><g id="SvgjsG1450"><text id="SvgjsText1451" font-family="微软雅黑" text-anchor="middle" font-size="13px" width="54px" fill="#323232" font-weight="400" align="middle" anchor="middle" family="微软雅黑" size="13px" weight="400" font-style="" opacity="1" y="15.05" transform="rotate(0)"></text></g></g><g id="SvgjsG1452" transform="translate(758,192)"><path id="SvgjsPath1453" d="M 0 0L 120 0L 120 40L 0 40Z" stroke="none" fill="none"></path><g id="SvgjsG1454"><text id="SvgjsText1455" font-family="微软雅黑" text-anchor="middle" font-size="13px" width="120px" fill="#323232" font-weight="400" align="middle" anchor="middle" family="微软雅黑" size="13px" weight="400" font-style="" opacity="1" y="10.05" transform="rotate(0)"><tspan id="SvgjsTspan1456" dy="16" x="60"><tspan id="SvgjsTspan1457" style="text-decoration:;">y3</tspan></tspan></text></g></g><g id="SvgjsG1458"><path id="SvgjsPath1459" d="M818 192L818 173.5L818 173.5L818 155" stroke="#323232" stroke-width="2" fill="none" marker-end="url(#SvgjsMarker1460)"></path></g><g id="SvgjsG1462" transform="translate(398,25)"><path id="SvgjsPath1463" d="M 0 0L 120 0L 120 40L 0 40Z" stroke="none" fill="none"></path><g id="SvgjsG1464"><text id="SvgjsText1465" font-family="微软雅黑" text-anchor="middle" font-size="13px" width="120px" fill="#323232" font-weight="400" align="middle" anchor="middle" family="微软雅黑" size="13px" weight="400" font-style="" opacity="1" y="10.05" transform="rotate(0)"><tspan id="SvgjsTspan1466" dy="16" x="60"><tspan id="SvgjsTspan1467" style="text-decoration:;">predict(y1)</tspan></tspan></text></g></g><g id="SvgjsG1468"><path id="SvgjsPath1469" d="M458 105L458 85L458 85L458 65" stroke="#323232" stroke-width="2" fill="none" marker-end="url(#SvgjsMarker1470)"></path></g><g id="SvgjsG1472" transform="translate(518,25)"><path id="SvgjsPath1473" d="M 0 0L 120 0L 120 40L 0 40Z" stroke="none" fill="none"></path><g id="SvgjsG1474"><text id="SvgjsText1475" font-family="微软雅黑" text-anchor="middle" font-size="13px" width="120px" fill="#323232" font-weight="400" align="middle" anchor="middle" family="微软雅黑" size="13px" weight="400" font-style="" opacity="1" y="10.05" transform="rotate(0)"><tspan id="SvgjsTspan1476" dy="16" x="60"><tspan id="SvgjsTspan1477" style="text-decoration:;">predict(y2)</tspan></tspan></text></g></g><g id="SvgjsG1478"><path id="SvgjsPath1479" d="M578 105L578 85L578 85L578 65" stroke="#323232" stroke-width="2" fill="none" marker-end="url(#SvgjsMarker1480)"></path></g><g id="SvgjsG1482" transform="translate(638,25)"><path id="SvgjsPath1483" d="M 0 0L 120 0L 120 40L 0 40Z" stroke="none" fill="none"></path><g id="SvgjsG1484"><text id="SvgjsText1485" font-family="微软雅黑" text-anchor="middle" font-size="13px" width="120px" fill="#323232" font-weight="400" align="middle" anchor="middle" family="微软雅黑" size="13px" weight="400" font-style="" opacity="1" y="10.05" transform="rotate(0)"><tspan id="SvgjsTspan1486" dy="16" x="60"><tspan id="SvgjsTspan1487" style="text-decoration:;">predict(y3)</tspan></tspan></text></g></g><g id="SvgjsG1488"><path id="SvgjsPath1489" d="M698 105L698 85L698 85L698 65" stroke="#323232" stroke-width="2" fill="none" marker-end="url(#SvgjsMarker1490)"></path></g><g id="SvgjsG1492" transform="translate(758,25)"><path id="SvgjsPath1493" d="M 0 0L 120 0L 120 40L 0 40Z" stroke="none" fill="none"></path><g id="SvgjsG1494"><text id="SvgjsText1495" font-family="微软雅黑" text-anchor="middle" font-size="13px" width="120px" fill="#323232" font-weight="400" align="middle" anchor="middle" family="微软雅黑" size="13px" weight="400" font-style="" opacity="1" y="10.05" transform="rotate(0)"><tspan id="SvgjsTspan1496" dy="16" x="60"><tspan id="SvgjsTspan1497" style="text-decoration:;">&lt;eos&gt;</tspan></tspan></text></g></g><g id="SvgjsG1498"><path id="SvgjsPath1499" d="M818 105L818 85L818 85L818 65" stroke="#323232" stroke-width="2" fill="none" marker-end="url(#SvgjsMarker1500)"></path></g></svg>